M48
; DRILL file {KiCad (6.0.1)} date Fri Apr 29 11:24:58 2022
; FORMAT={-:-/ absolute / metric / decimal}
; #@! TF.CreationDate,2022-04-29T11:24:58-05:00
; #@! TF.GenerationSoftware,Kicad,Pcbnew,(6.0.1)
; #@! TF.FileFunction,Plated,1,2,PTH
FMAT,2
METRIC
; #@! TA.AperFunction,Plated,PTH,ViaDrill
T1C0.500
; #@! TA.AperFunction,Plated,PTH,ComponentDrill
T2C1.000
; #@! TA.AperFunction,Plated,PTH,ComponentDrill
T3C1.100
; #@! TA.AperFunction,Plated,PTH,ComponentDrill
T4C3.200
%
G90
G05
T1
X99.9Y-76.125
X99.95Y-83.575
X99.95Y-116.175
X99.975Y-108.625
X100.1Y-98.6
X109.975Y-108.675
X110.0Y-83.6
X110.05Y-68.575
X110.075Y-76.075
X110.075Y-116.125
X120.0Y-108.6
X120.0Y-116.225
X120.05Y-68.525
X121.9Y-89.1
X122.7Y-94.4
X122.95Y-80.475
X137.525Y-83.65
X137.55Y-116.175
X137.575Y-68.625
X137.575Y-108.625
T2
X126.035Y-72.865
X126.035Y-75.405
X126.035Y-77.945
X126.035Y-80.485
X126.035Y-83.025
X126.035Y-85.565
X126.035Y-88.105
X126.035Y-90.645
X126.035Y-93.185
X126.035Y-95.725
X126.035Y-98.265
X126.035Y-100.805
X126.035Y-103.345
X126.035Y-105.885
X126.035Y-108.425
X126.035Y-110.965
X126.035Y-113.505
X126.035Y-116.045
X126.035Y-118.585
X126.035Y-121.125
X128.575Y-72.865
X128.575Y-75.405
X128.575Y-77.945
X128.575Y-80.485
X128.575Y-83.025
X128.575Y-85.565
X128.575Y-88.105
X128.575Y-90.645
X128.575Y-93.185
X128.575Y-95.725
X128.575Y-98.265
X128.575Y-100.805
X128.575Y-103.345
X128.575Y-105.885
X128.575Y-108.425
X128.575Y-110.965
X128.575Y-113.505
X128.575Y-116.045
X128.575Y-118.585
X128.575Y-121.125
T3
X90.46Y-73.185
X90.46Y-75.955
X90.46Y-78.725
X90.46Y-81.495
X90.46Y-84.265
X90.46Y-87.035
X90.46Y-89.805
X90.46Y-92.575
X90.46Y-95.345
X90.46Y-98.115
X90.46Y-100.885
X90.46Y-103.655
X90.46Y-106.425
X90.46Y-109.195
X90.46Y-111.965
X90.46Y-114.735
X90.46Y-117.505
X90.46Y-120.275
X93.0Y-71.8
X93.0Y-74.57
X93.0Y-77.34
X93.0Y-80.11
X93.0Y-82.88
X93.0Y-85.65
X93.0Y-88.42
X93.0Y-91.19
X93.0Y-93.96
X93.0Y-96.73
X93.0Y-99.5
X93.0Y-102.27
X93.0Y-105.04
X93.0Y-107.81
X93.0Y-110.58
X93.0Y-113.35
X93.0Y-116.12
X93.0Y-118.89
X93.0Y-121.66
T4
X91.73Y-64.98
X91.73Y-128.48
T0
M30
