%TF.GenerationSoftware,KiCad,Pcbnew,(6.0.1)*%
%TF.CreationDate,2022-04-29T11:18:45-05:00*%
%TF.ProjectId,Payload_Altimeter,5061796c-6f61-4645-9f41-6c74696d6574,rev?*%
%TF.SameCoordinates,Original*%
%TF.FileFunction,Soldermask,Top*%
%TF.FilePolarity,Negative*%
%FSLAX46Y46*%
G04 Gerber Fmt 4.6, Leading zero omitted, Abs format (unit mm)*
G04 Created by KiCad (PCBNEW (6.0.1)) date 2022-04-29 11:18:45*
%MOMM*%
%LPD*%
G01*
G04 APERTURE LIST*
G04 Aperture macros list*
%AMRoundRect*
0 Rectangle with rounded corners*
0 $1 Rounding radius*
0 $2 $3 $4 $5 $6 $7 $8 $9 X,Y pos of 4 corners*
0 Add a 4 corners polygon primitive as box body*
4,1,4,$2,$3,$4,$5,$6,$7,$8,$9,$2,$3,0*
0 Add four circle primitives for the rounded corners*
1,1,$1+$1,$2,$3*
1,1,$1+$1,$4,$5*
1,1,$1+$1,$6,$7*
1,1,$1+$1,$8,$9*
0 Add four rect primitives between the rounded corners*
20,1,$1+$1,$2,$3,$4,$5,0*
20,1,$1+$1,$4,$5,$6,$7,0*
20,1,$1+$1,$6,$7,$8,$9,0*
20,1,$1+$1,$8,$9,$2,$3,0*%
G04 Aperture macros list end*
%ADD10C,2.000000*%
%ADD11R,1.650000X1.650000*%
%ADD12C,1.650000*%
%ADD13C,4.800000*%
%ADD14R,1.700000X1.700000*%
%ADD15O,1.700000X1.700000*%
%ADD16R,0.950000X0.550000*%
%ADD17RoundRect,0.100000X-0.100000X0.130000X-0.100000X-0.130000X0.100000X-0.130000X0.100000X0.130000X0*%
G04 APERTURE END LIST*
D10*
%TO.C,Pi_3v3*%
X120800000Y-76450000D03*
%TD*%
D11*
%TO.C,J1*%
X93000000Y-71800000D03*
D12*
X93000000Y-74570000D03*
X93000000Y-77340000D03*
X93000000Y-80110000D03*
X93000000Y-82880000D03*
X93000000Y-85650000D03*
X93000000Y-88420000D03*
X93000000Y-91190000D03*
X93000000Y-93960000D03*
X93000000Y-96730000D03*
X93000000Y-99500000D03*
X93000000Y-102270000D03*
X93000000Y-105040000D03*
X93000000Y-107810000D03*
X93000000Y-110580000D03*
X93000000Y-113350000D03*
X93000000Y-116120000D03*
X93000000Y-118890000D03*
X93000000Y-121660000D03*
X90460000Y-73185000D03*
X90460000Y-75955000D03*
X90460000Y-78725000D03*
X90460000Y-81495000D03*
X90460000Y-84265000D03*
X90460000Y-87035000D03*
X90460000Y-89805000D03*
X90460000Y-92575000D03*
X90460000Y-95345000D03*
X90460000Y-98115000D03*
X90460000Y-100885000D03*
X90460000Y-103655000D03*
X90460000Y-106425000D03*
X90460000Y-109195000D03*
X90460000Y-111965000D03*
X90460000Y-114735000D03*
X90460000Y-117505000D03*
X90460000Y-120275000D03*
D13*
X91730000Y-64980000D03*
X91730000Y-128480000D03*
%TD*%
D14*
%TO.C,J2*%
X128575000Y-121125000D03*
D15*
X126035000Y-121125000D03*
X128575000Y-118585000D03*
X126035000Y-118585000D03*
X128575000Y-116045000D03*
X126035000Y-116045000D03*
X128575000Y-113505000D03*
X126035000Y-113505000D03*
X128575000Y-110965000D03*
X126035000Y-110965000D03*
X128575000Y-108425000D03*
X126035000Y-108425000D03*
X128575000Y-105885000D03*
X126035000Y-105885000D03*
X128575000Y-103345000D03*
X126035000Y-103345000D03*
X128575000Y-100805000D03*
X126035000Y-100805000D03*
X128575000Y-98265000D03*
X126035000Y-98265000D03*
X128575000Y-95725000D03*
X126035000Y-95725000D03*
X128575000Y-93185000D03*
X126035000Y-93185000D03*
X128575000Y-90645000D03*
X126035000Y-90645000D03*
X128575000Y-88105000D03*
X126035000Y-88105000D03*
X128575000Y-85565000D03*
X126035000Y-85565000D03*
X128575000Y-83025000D03*
X126035000Y-83025000D03*
X128575000Y-80485000D03*
X126035000Y-80485000D03*
X128575000Y-77945000D03*
X126035000Y-77945000D03*
X128575000Y-75405000D03*
X126035000Y-75405000D03*
X128575000Y-72865000D03*
X126035000Y-72865000D03*
%TD*%
D16*
%TO.C,U7*%
X116825000Y-80725000D03*
X116825000Y-81975000D03*
X116825000Y-83225000D03*
X116825000Y-84475000D03*
X118975000Y-84475000D03*
X118975000Y-83225000D03*
X118975000Y-81975000D03*
X118975000Y-80725000D03*
%TD*%
D17*
%TO.C,C12*%
X115000000Y-80980000D03*
X115000000Y-81620000D03*
%TD*%
D10*
%TO.C,GND*%
X99400000Y-71800000D03*
%TD*%
%TO.C,5V*%
X121125000Y-119950000D03*
%TD*%
M02*
