%TF.GenerationSoftware,KiCad,Pcbnew,(6.0.1)*%
%TF.CreationDate,2022-04-29T11:18:45-05:00*%
%TF.ProjectId,Payload_Altimeter,5061796c-6f61-4645-9f41-6c74696d6574,rev?*%
%TF.SameCoordinates,Original*%
%TF.FileFunction,Copper,L1,Top*%
%TF.FilePolarity,Positive*%
%FSLAX46Y46*%
G04 Gerber Fmt 4.6, Leading zero omitted, Abs format (unit mm)*
G04 Created by KiCad (PCBNEW (6.0.1)) date 2022-04-29 11:18:45*
%MOMM*%
%LPD*%
G01*
G04 APERTURE LIST*
G04 Aperture macros list*
%AMRoundRect*
0 Rectangle with rounded corners*
0 $1 Rounding radius*
0 $2 $3 $4 $5 $6 $7 $8 $9 X,Y pos of 4 corners*
0 Add a 4 corners polygon primitive as box body*
4,1,4,$2,$3,$4,$5,$6,$7,$8,$9,$2,$3,0*
0 Add four circle primitives for the rounded corners*
1,1,$1+$1,$2,$3*
1,1,$1+$1,$4,$5*
1,1,$1+$1,$6,$7*
1,1,$1+$1,$8,$9*
0 Add four rect primitives between the rounded corners*
20,1,$1+$1,$2,$3,$4,$5,0*
20,1,$1+$1,$4,$5,$6,$7,0*
20,1,$1+$1,$6,$7,$8,$9,0*
20,1,$1+$1,$8,$9,$2,$3,0*%
G04 Aperture macros list end*
%TA.AperFunction,SMDPad,CuDef*%
%ADD10C,2.000000*%
%TD*%
%TA.AperFunction,ComponentPad*%
%ADD11R,1.650000X1.650000*%
%TD*%
%TA.AperFunction,ComponentPad*%
%ADD12C,1.650000*%
%TD*%
%TA.AperFunction,ComponentPad*%
%ADD13C,4.800000*%
%TD*%
%TA.AperFunction,ComponentPad*%
%ADD14R,1.700000X1.700000*%
%TD*%
%TA.AperFunction,ComponentPad*%
%ADD15O,1.700000X1.700000*%
%TD*%
%TA.AperFunction,SMDPad,CuDef*%
%ADD16R,0.950000X0.550000*%
%TD*%
%TA.AperFunction,SMDPad,CuDef*%
%ADD17RoundRect,0.100000X-0.100000X0.130000X-0.100000X-0.130000X0.100000X-0.130000X0.100000X0.130000X0*%
%TD*%
%TA.AperFunction,ViaPad*%
%ADD18C,1.000000*%
%TD*%
%TA.AperFunction,Conductor*%
%ADD19C,0.250000*%
%TD*%
%TA.AperFunction,Conductor*%
%ADD20C,0.500000*%
%TD*%
G04 APERTURE END LIST*
D10*
%TO.P,Pi_3v3,1,1*%
%TO.N,/Pi_3v3*%
X120800000Y-76450000D03*
%TD*%
D11*
%TO.P,J1,1,1*%
%TO.N,GND*%
X93000000Y-71800000D03*
D12*
%TO.P,J1,2,2*%
%TO.N,+3V3*%
X93000000Y-74570000D03*
%TO.P,J1,3,3*%
%TO.N,/DSUB/t_miso*%
X93000000Y-77340000D03*
%TO.P,J1,4,4*%
%TO.N,/DSUB/SWDIO*%
X93000000Y-80110000D03*
%TO.P,J1,5,5*%
%TO.N,/DSUB/Alert_scl*%
X93000000Y-82880000D03*
%TO.P,J1,6,6*%
%TO.N,/DSUB/Alert_Active*%
X93000000Y-85650000D03*
%TO.P,J1,7,7*%
%TO.N,/DSUB/Fire*%
X93000000Y-88420000D03*
%TO.P,J1,8,8*%
%TO.N,unconnected-(J1-Pad8)*%
X93000000Y-91190000D03*
%TO.P,J1,9,9*%
%TO.N,unconnected-(J1-Pad9)*%
X93000000Y-93960000D03*
%TO.P,J1,10,10*%
%TO.N,unconnected-(J1-Pad10)*%
X93000000Y-96730000D03*
%TO.P,J1,11,11*%
%TO.N,unconnected-(J1-Pad11)*%
X93000000Y-99500000D03*
%TO.P,J1,12,12*%
%TO.N,unconnected-(J1-Pad12)*%
X93000000Y-102270000D03*
%TO.P,J1,13,13*%
%TO.N,unconnected-(J1-Pad13)*%
X93000000Y-105040000D03*
%TO.P,J1,14,14*%
%TO.N,unconnected-(J1-Pad14)*%
X93000000Y-107810000D03*
%TO.P,J1,15,15*%
%TO.N,unconnected-(J1-Pad15)*%
X93000000Y-110580000D03*
%TO.P,J1,16,16*%
%TO.N,unconnected-(J1-Pad16)*%
X93000000Y-113350000D03*
%TO.P,J1,17,17*%
%TO.N,unconnected-(J1-Pad17)*%
X93000000Y-116120000D03*
%TO.P,J1,18,18*%
%TO.N,+3V3*%
X93000000Y-118890000D03*
%TO.P,J1,19,19*%
%TO.N,GND*%
X93000000Y-121660000D03*
%TO.P,J1,20,20*%
%TO.N,+5V*%
X90460000Y-73185000D03*
%TO.P,J1,21,21*%
%TO.N,/DSUB/t_mosi*%
X90460000Y-75955000D03*
%TO.P,J1,22,22*%
%TO.N,/DSUB/t_clk*%
X90460000Y-78725000D03*
%TO.P,J1,23,23*%
%TO.N,/DSUB/SWCLK*%
X90460000Y-81495000D03*
%TO.P,J1,24,24*%
%TO.N,/DSUB/Alert_sda*%
X90460000Y-84265000D03*
%TO.P,J1,25,25*%
%TO.N,/DSUB/NRST*%
X90460000Y-87035000D03*
%TO.P,J1,26,26*%
%TO.N,/DSUB/Fire_redundant*%
X90460000Y-89805000D03*
%TO.P,J1,27,27*%
%TO.N,unconnected-(J1-Pad27)*%
X90460000Y-92575000D03*
%TO.P,J1,28,28*%
%TO.N,unconnected-(J1-Pad28)*%
X90460000Y-95345000D03*
%TO.P,J1,29,29*%
%TO.N,unconnected-(J1-Pad29)*%
X90460000Y-98115000D03*
%TO.P,J1,30,30*%
%TO.N,unconnected-(J1-Pad30)*%
X90460000Y-100885000D03*
%TO.P,J1,31,31*%
%TO.N,unconnected-(J1-Pad31)*%
X90460000Y-103655000D03*
%TO.P,J1,32,32*%
%TO.N,unconnected-(J1-Pad32)*%
X90460000Y-106425000D03*
%TO.P,J1,33,33*%
%TO.N,unconnected-(J1-Pad33)*%
X90460000Y-109195000D03*
%TO.P,J1,34,34*%
%TO.N,unconnected-(J1-Pad34)*%
X90460000Y-111965000D03*
%TO.P,J1,35,35*%
%TO.N,unconnected-(J1-Pad35)*%
X90460000Y-114735000D03*
%TO.P,J1,36,36*%
%TO.N,unconnected-(J1-Pad36)*%
X90460000Y-117505000D03*
%TO.P,J1,37,37*%
%TO.N,+5V*%
X90460000Y-120275000D03*
D13*
%TO.P,J1,MH1,MH1*%
%TO.N,GND*%
X91730000Y-64980000D03*
%TO.P,J1,MH2,MH2*%
X91730000Y-128480000D03*
%TD*%
D14*
%TO.P,J2,1,3v3*%
%TO.N,unconnected-(J2-Pad1)*%
X128575000Y-121125000D03*
D15*
%TO.P,J2,2,Pin_2*%
%TO.N,+5V*%
X126035000Y-121125000D03*
%TO.P,J2,3,Pin_3*%
%TO.N,unconnected-(J2-Pad3)*%
X128575000Y-118585000D03*
%TO.P,J2,4,Pin_4*%
%TO.N,+5V*%
X126035000Y-118585000D03*
%TO.P,J2,5,Pin_5*%
%TO.N,unconnected-(J2-Pad5)*%
X128575000Y-116045000D03*
%TO.P,J2,6,Pin_6*%
%TO.N,GND*%
X126035000Y-116045000D03*
%TO.P,J2,7,Pin_7*%
%TO.N,unconnected-(J2-Pad7)*%
X128575000Y-113505000D03*
%TO.P,J2,8,Pin_8*%
%TO.N,unconnected-(J2-Pad8)*%
X126035000Y-113505000D03*
%TO.P,J2,9,Pin_9*%
%TO.N,GND*%
X128575000Y-110965000D03*
%TO.P,J2,10,Pin_10*%
%TO.N,unconnected-(J2-Pad10)*%
X126035000Y-110965000D03*
%TO.P,J2,11,Pin_11*%
%TO.N,unconnected-(J2-Pad11)*%
X128575000Y-108425000D03*
%TO.P,J2,12,Pin_12*%
%TO.N,unconnected-(J2-Pad12)*%
X126035000Y-108425000D03*
%TO.P,J2,13,Pin_13*%
%TO.N,unconnected-(J2-Pad13)*%
X128575000Y-105885000D03*
%TO.P,J2,14,Pin_14*%
%TO.N,GND*%
X126035000Y-105885000D03*
%TO.P,J2,15,Pin_15*%
%TO.N,unconnected-(J2-Pad15)*%
X128575000Y-103345000D03*
%TO.P,J2,16,Pin_16*%
%TO.N,unconnected-(J2-Pad16)*%
X126035000Y-103345000D03*
%TO.P,J2,17,Pin_17*%
%TO.N,/Pi_3v3*%
X128575000Y-100805000D03*
%TO.P,J2,18,Pin_18*%
%TO.N,unconnected-(J2-Pad18)*%
X126035000Y-100805000D03*
%TO.P,J2,19,Pin_19*%
%TO.N,/MOSI*%
X128575000Y-98265000D03*
%TO.P,J2,20,Pin_20*%
%TO.N,GND*%
X126035000Y-98265000D03*
%TO.P,J2,21,Pin_21*%
%TO.N,/MISO*%
X128575000Y-95725000D03*
%TO.P,J2,22,Pin_22*%
%TO.N,unconnected-(J2-Pad22)*%
X126035000Y-95725000D03*
%TO.P,J2,23,Pin_23*%
%TO.N,/SCLK*%
X128575000Y-93185000D03*
%TO.P,J2,24,Pin_24*%
%TO.N,unconnected-(J2-Pad24)*%
X126035000Y-93185000D03*
%TO.P,J2,25,Pin_25*%
%TO.N,GND*%
X128575000Y-90645000D03*
%TO.P,J2,26,Pin_26*%
%TO.N,unconnected-(J2-Pad26)*%
X126035000Y-90645000D03*
%TO.P,J2,27,Pin_27*%
%TO.N,unconnected-(J2-Pad27)*%
X128575000Y-88105000D03*
%TO.P,J2,28,Pin_28*%
%TO.N,unconnected-(J2-Pad28)*%
X126035000Y-88105000D03*
%TO.P,J2,29,Pin_29*%
%TO.N,unconnected-(J2-Pad29)*%
X128575000Y-85565000D03*
%TO.P,J2,30,Pin_30*%
%TO.N,GND*%
X126035000Y-85565000D03*
%TO.P,J2,31,Pin_31*%
%TO.N,unconnected-(J2-Pad31)*%
X128575000Y-83025000D03*
%TO.P,J2,32,Pin_32*%
%TO.N,unconnected-(J2-Pad32)*%
X126035000Y-83025000D03*
%TO.P,J2,33,Pin_33*%
%TO.N,unconnected-(J2-Pad33)*%
X128575000Y-80485000D03*
%TO.P,J2,34,Pin_34*%
%TO.N,GND*%
X126035000Y-80485000D03*
%TO.P,J2,35,Pin_35*%
%TO.N,unconnected-(J2-Pad35)*%
X128575000Y-77945000D03*
%TO.P,J2,36,Pin_36*%
%TO.N,unconnected-(J2-Pad36)*%
X126035000Y-77945000D03*
%TO.P,J2,37,Pin_37*%
%TO.N,unconnected-(J2-Pad37)*%
X128575000Y-75405000D03*
%TO.P,J2,38,Pin_38*%
%TO.N,unconnected-(J2-Pad38)*%
X126035000Y-75405000D03*
%TO.P,J2,39,Pin_39*%
%TO.N,GND*%
X128575000Y-72865000D03*
%TO.P,J2,40,Pin_40*%
%TO.N,unconnected-(J2-Pad40)*%
X126035000Y-72865000D03*
%TD*%
D16*
%TO.P,U7,1,VDD*%
%TO.N,/Pi_3v3*%
X116825000Y-80725000D03*
%TO.P,U7,2,PS*%
%TO.N,GND*%
X116825000Y-81975000D03*
%TO.P,U7,3,GND*%
X116825000Y-83225000D03*
%TO.P,U7,4,CSB*%
X116825000Y-84475000D03*
%TO.P,U7,5,CSB*%
X118975000Y-84475000D03*
%TO.P,U7,6,SDO*%
%TO.N,/MISO*%
X118975000Y-83225000D03*
%TO.P,U7,7,SDI/SDA*%
%TO.N,/MOSI*%
X118975000Y-81975000D03*
%TO.P,U7,8,SCLK*%
%TO.N,/SCLK*%
X118975000Y-80725000D03*
%TD*%
D17*
%TO.P,C12,1*%
%TO.N,/Pi_3v3*%
X115000000Y-80980000D03*
%TO.P,C12,2*%
%TO.N,GND*%
X115000000Y-81620000D03*
%TD*%
D10*
%TO.P,GND,1,1*%
%TO.N,GND*%
X99400000Y-71800000D03*
%TD*%
%TO.P,5V,1,1*%
%TO.N,+5V*%
X121125000Y-119950000D03*
%TD*%
D18*
%TO.N,GND*%
X99950000Y-83575000D03*
X137550000Y-116175000D03*
X109975000Y-108675000D03*
X99950000Y-116175000D03*
X122950000Y-80475000D03*
X120000000Y-116225000D03*
X137575000Y-108625000D03*
X137525000Y-83650000D03*
X99975000Y-108625000D03*
X99900000Y-76125000D03*
X100100000Y-98600000D03*
X120050000Y-68525000D03*
X137575000Y-68625000D03*
X120000000Y-108600000D03*
X110050000Y-68575000D03*
X110075000Y-76075000D03*
X110075000Y-116125000D03*
X110000000Y-83600000D03*
%TO.N,/MOSI*%
X122700000Y-94400000D03*
X121900000Y-89100000D03*
%TD*%
D19*
%TO.N,GND*%
X115000000Y-81620000D02*
X115000000Y-81775000D01*
X115000000Y-81775000D02*
X115225000Y-82000000D01*
X116800000Y-82000000D02*
X116825000Y-81975000D01*
X115225000Y-82000000D02*
X116800000Y-82000000D01*
D20*
X93000000Y-71800000D02*
X99400000Y-71800000D01*
%TO.N,+5V*%
X87275000Y-75175000D02*
X87275000Y-118700000D01*
X122490000Y-118585000D02*
X126035000Y-118585000D01*
X87275000Y-118700000D02*
X88850000Y-120275000D01*
X122335000Y-124825000D02*
X126035000Y-121125000D01*
X92500000Y-124825000D02*
X122335000Y-124825000D01*
X90460000Y-120275000D02*
X90460000Y-122785000D01*
X89265000Y-73185000D02*
X87275000Y-75175000D01*
X121125000Y-119950000D02*
X122490000Y-118585000D01*
X90460000Y-73185000D02*
X89265000Y-73185000D01*
X126035000Y-121125000D02*
X126035000Y-118585000D01*
X88850000Y-120275000D02*
X90460000Y-120275000D01*
X90460000Y-122785000D02*
X92500000Y-124825000D01*
D19*
%TO.N,/Pi_3v3*%
X115200000Y-80625000D02*
X116725000Y-80625000D01*
X130925000Y-79225000D02*
X120800000Y-79225000D01*
X116825000Y-80325000D02*
X116825000Y-80725000D01*
X120800000Y-79225000D02*
X117925000Y-79225000D01*
X116725000Y-80625000D02*
X116825000Y-80725000D01*
X115000000Y-80825000D02*
X115200000Y-80625000D01*
X130270000Y-100805000D02*
X131700000Y-99375000D01*
X117925000Y-79225000D02*
X116825000Y-80325000D01*
X131700000Y-99375000D02*
X131700000Y-80000000D01*
X120800000Y-76450000D02*
X120800000Y-79225000D01*
X128575000Y-100805000D02*
X130270000Y-100805000D01*
X131700000Y-80000000D02*
X130925000Y-79225000D01*
X115000000Y-80980000D02*
X115000000Y-80825000D01*
%TO.N,/MOSI*%
X128565000Y-98265000D02*
X127300000Y-97000000D01*
X127300000Y-97000000D02*
X124100000Y-97000000D01*
X122700000Y-95600000D02*
X122700000Y-94400000D01*
X118975000Y-81975000D02*
X121375000Y-81975000D01*
X128575000Y-98265000D02*
X128565000Y-98265000D01*
X124100000Y-97000000D02*
X122700000Y-95600000D01*
X121900000Y-82500000D02*
X121375000Y-81975000D01*
X121900000Y-89100000D02*
X121900000Y-82500000D01*
%TO.N,/MISO*%
X128575000Y-95725000D02*
X127250000Y-94400000D01*
X127250000Y-94400000D02*
X125000000Y-94400000D01*
X119000000Y-83200000D02*
X118975000Y-83225000D01*
X120400000Y-89800000D02*
X120400000Y-83600000D01*
X120000000Y-83200000D02*
X119000000Y-83200000D01*
X120400000Y-83600000D02*
X120000000Y-83200000D01*
X125000000Y-94400000D02*
X120400000Y-89800000D01*
%TO.N,/SCLK*%
X121425000Y-80725000D02*
X118975000Y-80725000D01*
X128575000Y-93175000D02*
X127300000Y-91900000D01*
X128575000Y-93185000D02*
X128575000Y-93175000D01*
X123300000Y-82600000D02*
X121425000Y-80725000D01*
X124300000Y-91900000D02*
X123300000Y-90900000D01*
X127300000Y-91900000D02*
X124300000Y-91900000D01*
X123300000Y-90900000D02*
X123300000Y-82600000D01*
%TD*%
%TA.AperFunction,Conductor*%
%TO.N,GND*%
G36*
X149004451Y-53000159D02*
G01*
X149050105Y-53001789D01*
X149561825Y-53020066D01*
X149579553Y-53021334D01*
X149940642Y-53060154D01*
X150129676Y-53080477D01*
X150147251Y-53083003D01*
X150625780Y-53169340D01*
X150691781Y-53181248D01*
X150709149Y-53185027D01*
X151245233Y-53321854D01*
X151262285Y-53326860D01*
X151787286Y-53501597D01*
X151803928Y-53507805D01*
X152300325Y-53713419D01*
X152315102Y-53719540D01*
X152331271Y-53726924D01*
X152826037Y-53974586D01*
X152841637Y-53983104D01*
X153317482Y-54265436D01*
X153332435Y-54275046D01*
X153786912Y-54590595D01*
X153801142Y-54601247D01*
X154231964Y-54948425D01*
X154245397Y-54960066D01*
X154650345Y-55337087D01*
X154662913Y-55349655D01*
X155039934Y-55754603D01*
X155051575Y-55768036D01*
X155398753Y-56198858D01*
X155409405Y-56213088D01*
X155724954Y-56667565D01*
X155734564Y-56682518D01*
X156016896Y-57158363D01*
X156025414Y-57173963D01*
X156273076Y-57668729D01*
X156280460Y-57684898D01*
X156492193Y-58196066D01*
X156498405Y-58212720D01*
X156673139Y-58737712D01*
X156678146Y-58754767D01*
X156814973Y-59290851D01*
X156818752Y-59308219D01*
X156916995Y-59852738D01*
X156919524Y-59870333D01*
X156978666Y-60420447D01*
X156979934Y-60438175D01*
X156999841Y-60995547D01*
X157000000Y-61004435D01*
X157000000Y-132595565D01*
X156999841Y-132604453D01*
X156979934Y-133161825D01*
X156978666Y-133179553D01*
X156919524Y-133729667D01*
X156916995Y-133747262D01*
X156818752Y-134291781D01*
X156814973Y-134309149D01*
X156678146Y-134845233D01*
X156673139Y-134862288D01*
X156498405Y-135387280D01*
X156492193Y-135403934D01*
X156280460Y-135915102D01*
X156273076Y-135931271D01*
X156025414Y-136426037D01*
X156016896Y-136441637D01*
X155734564Y-136917482D01*
X155724954Y-136932435D01*
X155409405Y-137386912D01*
X155398753Y-137401142D01*
X155051575Y-137831964D01*
X155039934Y-137845397D01*
X154662913Y-138250345D01*
X154650345Y-138262913D01*
X154245397Y-138639934D01*
X154231964Y-138651575D01*
X153801142Y-138998753D01*
X153786912Y-139009405D01*
X153332435Y-139324954D01*
X153317482Y-139334564D01*
X152841637Y-139616896D01*
X152826037Y-139625414D01*
X152331271Y-139873076D01*
X152315102Y-139880460D01*
X151803928Y-140092195D01*
X151787286Y-140098403D01*
X151262288Y-140273139D01*
X151245233Y-140278146D01*
X150709149Y-140414973D01*
X150691779Y-140418752D01*
X150147251Y-140516997D01*
X150129676Y-140519523D01*
X149940642Y-140539846D01*
X149579553Y-140578666D01*
X149561825Y-140579934D01*
X149050105Y-140598211D01*
X149004451Y-140599841D01*
X148995565Y-140600000D01*
X91004435Y-140600000D01*
X90995549Y-140599841D01*
X90949895Y-140598211D01*
X90438175Y-140579934D01*
X90420447Y-140578666D01*
X90059358Y-140539846D01*
X89870324Y-140519523D01*
X89852749Y-140516997D01*
X89308221Y-140418752D01*
X89290851Y-140414973D01*
X88754767Y-140278146D01*
X88737712Y-140273139D01*
X88212714Y-140098403D01*
X88196072Y-140092195D01*
X87684898Y-139880460D01*
X87668729Y-139873076D01*
X87173963Y-139625414D01*
X87158363Y-139616896D01*
X86682518Y-139334564D01*
X86667565Y-139324954D01*
X86213088Y-139009405D01*
X86198858Y-138998753D01*
X85768036Y-138651575D01*
X85754603Y-138639934D01*
X85349655Y-138262913D01*
X85337087Y-138250345D01*
X84960066Y-137845397D01*
X84948425Y-137831964D01*
X84601247Y-137401142D01*
X84590595Y-137386912D01*
X84275046Y-136932435D01*
X84265436Y-136917482D01*
X83983104Y-136441637D01*
X83974586Y-136426037D01*
X83726924Y-135931271D01*
X83719540Y-135915102D01*
X83507807Y-135403934D01*
X83501595Y-135387280D01*
X83326861Y-134862288D01*
X83321854Y-134845233D01*
X83185027Y-134309149D01*
X83181248Y-134291781D01*
X83083005Y-133747262D01*
X83080476Y-133729667D01*
X83021334Y-133179553D01*
X83020066Y-133161825D01*
X83000159Y-132604453D01*
X83000000Y-132595565D01*
X83000000Y-130709756D01*
X89865208Y-130709756D01*
X89874133Y-130723113D01*
X89891526Y-130738939D01*
X89902660Y-130747956D01*
X90163352Y-130935281D01*
X90175443Y-130942955D01*
X90455930Y-131099073D01*
X90468836Y-131105311D01*
X90765413Y-131228157D01*
X90778924Y-131232862D01*
X91087669Y-131320811D01*
X91101642Y-131323934D01*
X91418432Y-131375811D01*
X91432683Y-131377309D01*
X91753348Y-131392431D01*
X91767659Y-131392280D01*
X92087918Y-131370448D01*
X92102152Y-131368650D01*
X92417774Y-131310152D01*
X92431691Y-131306733D01*
X92738496Y-131212348D01*
X92751942Y-131207348D01*
X93045868Y-131078324D01*
X93058639Y-131071817D01*
X93335811Y-130909851D01*
X93347710Y-130901945D01*
X93582281Y-130725825D01*
X93596194Y-130710290D01*
X93591681Y-130700891D01*
X91747341Y-128856551D01*
X91730000Y-128844964D01*
X91712659Y-128856551D01*
X89876795Y-130692415D01*
X89865208Y-130709756D01*
X83000000Y-130709756D01*
X83000000Y-128395670D01*
X88818697Y-128395670D01*
X88827100Y-128716576D01*
X88828299Y-128730852D01*
X88873531Y-129048663D01*
X88876360Y-129062697D01*
X88957823Y-129373214D01*
X88962245Y-129386822D01*
X89078855Y-129685911D01*
X89084818Y-129698937D01*
X89235026Y-129982631D01*
X89242453Y-129994894D01*
X89424268Y-130259436D01*
X89433053Y-130270762D01*
X89485411Y-130330780D01*
X89501922Y-130343518D01*
X89514476Y-130336314D01*
X91353449Y-128497341D01*
X91365036Y-128480000D01*
X92094964Y-128480000D01*
X92106551Y-128497341D01*
X93940744Y-130331534D01*
X93958085Y-130343121D01*
X93968987Y-130335836D01*
X94063949Y-130222262D01*
X94072486Y-130210767D01*
X94248731Y-129942460D01*
X94255893Y-129930056D01*
X94400136Y-129643260D01*
X94405815Y-129630135D01*
X94516138Y-129328664D01*
X94520277Y-129314956D01*
X94595217Y-129002809D01*
X94597752Y-128988719D01*
X94636515Y-128668395D01*
X94637354Y-128657369D01*
X94642754Y-128485549D01*
X94642608Y-128474458D01*
X94624036Y-128152365D01*
X94622388Y-128138120D01*
X94567200Y-127821905D01*
X94563926Y-127807946D01*
X94472756Y-127500162D01*
X94467904Y-127486683D01*
X94341954Y-127191399D01*
X94335592Y-127178582D01*
X94176543Y-126899740D01*
X94168738Y-126887722D01*
X93978703Y-126629019D01*
X93975285Y-126624888D01*
X93961388Y-126614847D01*
X93941767Y-126627443D01*
X92106551Y-128462659D01*
X92094964Y-128480000D01*
X91365036Y-128480000D01*
X91353449Y-128462659D01*
X89518133Y-126627343D01*
X89500792Y-126615756D01*
X89491315Y-126622089D01*
X89342477Y-126811907D01*
X89334305Y-126823665D01*
X89166569Y-127097387D01*
X89159809Y-127109994D01*
X89024652Y-127401165D01*
X89019373Y-127414499D01*
X88918583Y-127719261D01*
X88914871Y-127733115D01*
X88849775Y-128047448D01*
X88847684Y-128061612D01*
X88819147Y-128381357D01*
X88818697Y-128395670D01*
X83000000Y-128395670D01*
X83000000Y-118673630D01*
X86519852Y-118673630D01*
X86521025Y-118688048D01*
X86523680Y-118720695D01*
X86524033Y-118729386D01*
X86524081Y-118729383D01*
X86524500Y-118736596D01*
X86524500Y-118743822D01*
X86525336Y-118750996D01*
X86525337Y-118751006D01*
X86527508Y-118769629D01*
X86528363Y-118778275D01*
X86532690Y-118831467D01*
X86534039Y-118848059D01*
X86538122Y-118860663D01*
X86539657Y-118873828D01*
X86544591Y-118887422D01*
X86544593Y-118887429D01*
X86563565Y-118939697D01*
X86566387Y-118947914D01*
X86587973Y-119014546D01*
X86594848Y-119025875D01*
X86599369Y-119038331D01*
X86637796Y-119096942D01*
X86642413Y-119104261D01*
X86653602Y-119122699D01*
X86678761Y-119164160D01*
X86686085Y-119172452D01*
X86688797Y-119175164D01*
X86689735Y-119176162D01*
X86695323Y-119184685D01*
X86718140Y-119206300D01*
X86749700Y-119236197D01*
X86754527Y-119240894D01*
X88265750Y-120752117D01*
X88285777Y-120775421D01*
X88288806Y-120778670D01*
X88297383Y-120790324D01*
X88308407Y-120799689D01*
X88308411Y-120799694D01*
X88333379Y-120820906D01*
X88339759Y-120826788D01*
X88339791Y-120826752D01*
X88345197Y-120831564D01*
X88350303Y-120836670D01*
X88370665Y-120852780D01*
X88377352Y-120858263D01*
X88430755Y-120903632D01*
X88442555Y-120909657D01*
X88452949Y-120917881D01*
X88466058Y-120924008D01*
X88466065Y-120924012D01*
X88516425Y-120947549D01*
X88524232Y-120951365D01*
X88573725Y-120976637D01*
X88573728Y-120976638D01*
X88586616Y-120983219D01*
X88599490Y-120986369D01*
X88611493Y-120991979D01*
X88625656Y-120994925D01*
X88680058Y-121006241D01*
X88688530Y-121008158D01*
X88745829Y-121022178D01*
X88756606Y-121024815D01*
X88767648Y-121025500D01*
X88771492Y-121025500D01*
X88772855Y-121025542D01*
X88782830Y-121027617D01*
X88797287Y-121027226D01*
X88797289Y-121027226D01*
X88857714Y-121025591D01*
X88864448Y-121025500D01*
X89237945Y-121025500D01*
X89333233Y-121044454D01*
X89414015Y-121098430D01*
X89428693Y-121114450D01*
X89434497Y-121121367D01*
X89440730Y-121130269D01*
X89604731Y-121294270D01*
X89613633Y-121300503D01*
X89620550Y-121306307D01*
X89681363Y-121382075D01*
X89708552Y-121475348D01*
X89709500Y-121497055D01*
X89709500Y-122709244D01*
X89707182Y-122739894D01*
X89707027Y-122744332D01*
X89704852Y-122758630D01*
X89706025Y-122773048D01*
X89708680Y-122805695D01*
X89709033Y-122814386D01*
X89709081Y-122814383D01*
X89709500Y-122821596D01*
X89709500Y-122828822D01*
X89710336Y-122835996D01*
X89710337Y-122836006D01*
X89712508Y-122854629D01*
X89713363Y-122863275D01*
X89719039Y-122933059D01*
X89723122Y-122945663D01*
X89724657Y-122958828D01*
X89729591Y-122972422D01*
X89729593Y-122972429D01*
X89748565Y-123024697D01*
X89751387Y-123032914D01*
X89772973Y-123099546D01*
X89779848Y-123110875D01*
X89784369Y-123123331D01*
X89822796Y-123181942D01*
X89827413Y-123189261D01*
X89863761Y-123249160D01*
X89871085Y-123257452D01*
X89873797Y-123260164D01*
X89874735Y-123261162D01*
X89880323Y-123269685D01*
X89890830Y-123279638D01*
X89934699Y-123321196D01*
X89939526Y-123325893D01*
X91759418Y-125145786D01*
X91813394Y-125226568D01*
X91832348Y-125321856D01*
X91813394Y-125417144D01*
X91759418Y-125497926D01*
X91678636Y-125551902D01*
X91607780Y-125567228D01*
X91608019Y-125569627D01*
X91281457Y-125602222D01*
X91267304Y-125604464D01*
X90953671Y-125672847D01*
X90939864Y-125676702D01*
X90636158Y-125780684D01*
X90622909Y-125786091D01*
X90333161Y-125924294D01*
X90320605Y-125931197D01*
X90048680Y-126101774D01*
X90036991Y-126110081D01*
X89879745Y-126236059D01*
X89866324Y-126252025D01*
X89871825Y-126262615D01*
X91712659Y-128103449D01*
X91730000Y-128115036D01*
X91747341Y-128103449D01*
X93581613Y-126269177D01*
X93593200Y-126251836D01*
X93585551Y-126240389D01*
X93496604Y-126164421D01*
X93485205Y-126155768D01*
X93299788Y-126031173D01*
X93231269Y-125962294D01*
X93201780Y-125890569D01*
X125513292Y-125890569D01*
X125513638Y-125899366D01*
X125515606Y-125949468D01*
X125521591Y-126101774D01*
X125523691Y-126155231D01*
X125571277Y-126415788D01*
X125655101Y-126667040D01*
X125673166Y-126703194D01*
X125769558Y-126896107D01*
X125769562Y-126896114D01*
X125773490Y-126903975D01*
X125778489Y-126911208D01*
X125778492Y-126911213D01*
X125915879Y-127109994D01*
X125924083Y-127121864D01*
X126103875Y-127316361D01*
X126110695Y-127321913D01*
X126110701Y-127321919D01*
X126208040Y-127401165D01*
X126309277Y-127483585D01*
X126316826Y-127488130D01*
X126316829Y-127488132D01*
X126336811Y-127500162D01*
X126536193Y-127620200D01*
X126780094Y-127723478D01*
X126788601Y-127725734D01*
X126788608Y-127725736D01*
X127027607Y-127789106D01*
X127027612Y-127789107D01*
X127036113Y-127791361D01*
X127299143Y-127822492D01*
X127563936Y-127816252D01*
X127707270Y-127792395D01*
X127816529Y-127774210D01*
X127816535Y-127774209D01*
X127825208Y-127772765D01*
X128077746Y-127692897D01*
X128316511Y-127578244D01*
X128536739Y-127431092D01*
X128570152Y-127401165D01*
X128727481Y-127260250D01*
X128727487Y-127260244D01*
X128734036Y-127254378D01*
X128904466Y-127051628D01*
X129044627Y-126826886D01*
X129151724Y-126584638D01*
X129223620Y-126329716D01*
X129258879Y-126067207D01*
X129260012Y-126031173D01*
X129262379Y-125955825D01*
X129262579Y-125949468D01*
X129261286Y-125931197D01*
X129258409Y-125890569D01*
X148513292Y-125890569D01*
X148513638Y-125899366D01*
X148515606Y-125949468D01*
X148521591Y-126101774D01*
X148523691Y-126155231D01*
X148571277Y-126415788D01*
X148655101Y-126667040D01*
X148673166Y-126703194D01*
X148769558Y-126896107D01*
X148769562Y-126896114D01*
X148773490Y-126903975D01*
X148778489Y-126911208D01*
X148778492Y-126911213D01*
X148915879Y-127109994D01*
X148924083Y-127121864D01*
X149103875Y-127316361D01*
X149110695Y-127321913D01*
X149110701Y-127321919D01*
X149208040Y-127401165D01*
X149309277Y-127483585D01*
X149316826Y-127488130D01*
X149316829Y-127488132D01*
X149336811Y-127500162D01*
X149536193Y-127620200D01*
X149780094Y-127723478D01*
X149788601Y-127725734D01*
X149788608Y-127725736D01*
X150027607Y-127789106D01*
X150027612Y-127789107D01*
X150036113Y-127791361D01*
X150299143Y-127822492D01*
X150563936Y-127816252D01*
X150707270Y-127792395D01*
X150816529Y-127774210D01*
X150816535Y-127774209D01*
X150825208Y-127772765D01*
X151077746Y-127692897D01*
X151316511Y-127578244D01*
X151536739Y-127431092D01*
X151570152Y-127401165D01*
X151727481Y-127260250D01*
X151727487Y-127260244D01*
X151734036Y-127254378D01*
X151904466Y-127051628D01*
X152044627Y-126826886D01*
X152151724Y-126584638D01*
X152223620Y-126329716D01*
X152258879Y-126067207D01*
X152260012Y-126031173D01*
X152262379Y-125955825D01*
X152262579Y-125949468D01*
X152261286Y-125931197D01*
X152244494Y-125694051D01*
X152243872Y-125685263D01*
X152231346Y-125627083D01*
X152189978Y-125434935D01*
X152189977Y-125434930D01*
X152188125Y-125426330D01*
X152184737Y-125417144D01*
X152099495Y-125186086D01*
X152099495Y-125186085D01*
X152096451Y-125177835D01*
X152045771Y-125083908D01*
X151974858Y-124952485D01*
X151970677Y-124944736D01*
X151934313Y-124895502D01*
X151818544Y-124738764D01*
X151813315Y-124731684D01*
X151627503Y-124542930D01*
X151416949Y-124382241D01*
X151185854Y-124252821D01*
X150938830Y-124157255D01*
X150786962Y-124122054D01*
X150689378Y-124099435D01*
X150689373Y-124099434D01*
X150680804Y-124097448D01*
X150416926Y-124074593D01*
X150257603Y-124083361D01*
X150161249Y-124088664D01*
X150161245Y-124088665D01*
X150152460Y-124089148D01*
X149892683Y-124140821D01*
X149884391Y-124143733D01*
X149884387Y-124143734D01*
X149651081Y-124225665D01*
X149651074Y-124225668D01*
X149642779Y-124228581D01*
X149634972Y-124232636D01*
X149634966Y-124232639D01*
X149426761Y-124340793D01*
X149407733Y-124350677D01*
X149192235Y-124504674D01*
X149000586Y-124687498D01*
X148836609Y-124895502D01*
X148832187Y-124903115D01*
X148832185Y-124903118D01*
X148727174Y-125083908D01*
X148703576Y-125124535D01*
X148604141Y-125370028D01*
X148540289Y-125627083D01*
X148526790Y-125758826D01*
X148515150Y-125872438D01*
X148513292Y-125890569D01*
X129258409Y-125890569D01*
X129244494Y-125694051D01*
X129243872Y-125685263D01*
X129231346Y-125627083D01*
X129189978Y-125434935D01*
X129189977Y-125434930D01*
X129188125Y-125426330D01*
X129184737Y-125417144D01*
X129099495Y-125186086D01*
X129099495Y-125186085D01*
X129096451Y-125177835D01*
X129045771Y-125083908D01*
X128974858Y-124952485D01*
X128970677Y-124944736D01*
X128934313Y-124895502D01*
X128818544Y-124738764D01*
X128813315Y-124731684D01*
X128627503Y-124542930D01*
X128416949Y-124382241D01*
X128185854Y-124252821D01*
X127938830Y-124157255D01*
X127786962Y-124122054D01*
X127689378Y-124099435D01*
X127689373Y-124099434D01*
X127680804Y-124097448D01*
X127416926Y-124074593D01*
X127257603Y-124083361D01*
X127161249Y-124088664D01*
X127161245Y-124088665D01*
X127152460Y-124089148D01*
X126892683Y-124140821D01*
X126884391Y-124143733D01*
X126884387Y-124143734D01*
X126651081Y-124225665D01*
X126651074Y-124225668D01*
X126642779Y-124228581D01*
X126634972Y-124232636D01*
X126634966Y-124232639D01*
X126426761Y-124340793D01*
X126407733Y-124350677D01*
X126192235Y-124504674D01*
X126000586Y-124687498D01*
X125836609Y-124895502D01*
X125832187Y-124903115D01*
X125832185Y-124903118D01*
X125727174Y-125083908D01*
X125703576Y-125124535D01*
X125604141Y-125370028D01*
X125540289Y-125627083D01*
X125526790Y-125758826D01*
X125515150Y-125872438D01*
X125513292Y-125890569D01*
X93201780Y-125890569D01*
X93194325Y-125872438D01*
X93194580Y-125775283D01*
X93231994Y-125685621D01*
X93300873Y-125617102D01*
X93390729Y-125580158D01*
X93438667Y-125575500D01*
X122259244Y-125575500D01*
X122289894Y-125577818D01*
X122294332Y-125577973D01*
X122308630Y-125580148D01*
X122355695Y-125576320D01*
X122364386Y-125575967D01*
X122364383Y-125575919D01*
X122371596Y-125575500D01*
X122378822Y-125575500D01*
X122385996Y-125574664D01*
X122386006Y-125574663D01*
X122404629Y-125572492D01*
X122413275Y-125571637D01*
X122468642Y-125567134D01*
X122468646Y-125567133D01*
X122483059Y-125565961D01*
X122495663Y-125561878D01*
X122508828Y-125560343D01*
X122522422Y-125555409D01*
X122522429Y-125555407D01*
X122574697Y-125536435D01*
X122582914Y-125533613D01*
X122593390Y-125530219D01*
X122649546Y-125512027D01*
X122660875Y-125505152D01*
X122673331Y-125500631D01*
X122731942Y-125462204D01*
X122739261Y-125457587D01*
X122789675Y-125426995D01*
X122789677Y-125426993D01*
X122799160Y-125421239D01*
X122807452Y-125413915D01*
X122810164Y-125411203D01*
X122811162Y-125410265D01*
X122819685Y-125404677D01*
X122871197Y-125350300D01*
X122875894Y-125345473D01*
X125682282Y-122539085D01*
X125763064Y-122485109D01*
X125858352Y-122466155D01*
X125880054Y-122467103D01*
X126024164Y-122479711D01*
X126024165Y-122479711D01*
X126035000Y-122480659D01*
X126045835Y-122479711D01*
X126259574Y-122461011D01*
X126259575Y-122461011D01*
X126270408Y-122460063D01*
X126384535Y-122429483D01*
X126488162Y-122401717D01*
X126488165Y-122401716D01*
X126498663Y-122398903D01*
X126669601Y-122319193D01*
X126702983Y-122303627D01*
X126702985Y-122303626D01*
X126712830Y-122299035D01*
X126906401Y-122163495D01*
X126912676Y-122157220D01*
X126997075Y-122110917D01*
X127093652Y-122100341D01*
X127186926Y-122127527D01*
X127262695Y-122188339D01*
X127279806Y-122213375D01*
X127281474Y-122217824D01*
X127367454Y-122332546D01*
X127482176Y-122418526D01*
X127498787Y-122424753D01*
X127601804Y-122463372D01*
X127601805Y-122463372D01*
X127616420Y-122468851D01*
X127677623Y-122475500D01*
X128574400Y-122475500D01*
X129472376Y-122475499D01*
X129533580Y-122468851D01*
X129667824Y-122418526D01*
X129782546Y-122332546D01*
X129868526Y-122217824D01*
X129918851Y-122083580D01*
X129925500Y-122022377D01*
X129925499Y-120227624D01*
X129918851Y-120166420D01*
X129868526Y-120032176D01*
X129782546Y-119917454D01*
X129671472Y-119834208D01*
X129671466Y-119834203D01*
X129667824Y-119831474D01*
X129667972Y-119831277D01*
X129604334Y-119777970D01*
X129559400Y-119691831D01*
X129550850Y-119595053D01*
X129579986Y-119502369D01*
X129606884Y-119463012D01*
X129613495Y-119456401D01*
X129749035Y-119262829D01*
X129780833Y-119194638D01*
X129844307Y-119058520D01*
X129844309Y-119058516D01*
X129848903Y-119048663D01*
X129910063Y-118820408D01*
X129911426Y-118804835D01*
X129925578Y-118643076D01*
X129930659Y-118585000D01*
X129921805Y-118483802D01*
X129911011Y-118360426D01*
X129911011Y-118360425D01*
X129910063Y-118349592D01*
X129848903Y-118121337D01*
X129822404Y-118064509D01*
X129753631Y-117917027D01*
X129749035Y-117907171D01*
X129613495Y-117713599D01*
X129446401Y-117546505D01*
X129437497Y-117540270D01*
X129407075Y-117518968D01*
X129339892Y-117448786D01*
X129304680Y-117358237D01*
X129306800Y-117261105D01*
X129345929Y-117172178D01*
X129407075Y-117111032D01*
X129437497Y-117089730D01*
X129437499Y-117089728D01*
X129446401Y-117083495D01*
X129613495Y-116916401D01*
X129749035Y-116722829D01*
X129783035Y-116649917D01*
X129844307Y-116518520D01*
X129844309Y-116518516D01*
X129848903Y-116508663D01*
X129910063Y-116280408D01*
X129919335Y-116174437D01*
X129929711Y-116055835D01*
X129930659Y-116045000D01*
X129917739Y-115897332D01*
X129911011Y-115820426D01*
X129911011Y-115820425D01*
X129910063Y-115809592D01*
X129848903Y-115581337D01*
X129841381Y-115565205D01*
X129753631Y-115377027D01*
X129749035Y-115367171D01*
X129613495Y-115173599D01*
X129446401Y-115006505D01*
X129437497Y-115000270D01*
X129407075Y-114978968D01*
X129339892Y-114908786D01*
X129304680Y-114818237D01*
X129306800Y-114721105D01*
X129345929Y-114632178D01*
X129407075Y-114571032D01*
X129437497Y-114549730D01*
X129437499Y-114549728D01*
X129446401Y-114543495D01*
X129613495Y-114376401D01*
X129749035Y-114182829D01*
X129797188Y-114079566D01*
X129844307Y-113978520D01*
X129844309Y-113978516D01*
X129848903Y-113968663D01*
X129910063Y-113740408D01*
X129912768Y-113709497D01*
X129925319Y-113566040D01*
X129930659Y-113505000D01*
X129910063Y-113269592D01*
X129848903Y-113041337D01*
X129827983Y-112996473D01*
X129753631Y-112837027D01*
X129749035Y-112827171D01*
X129613495Y-112633599D01*
X129446401Y-112466505D01*
X129437494Y-112460268D01*
X129413174Y-112443238D01*
X129345991Y-112373056D01*
X129310779Y-112282506D01*
X129312900Y-112185375D01*
X129352030Y-112096448D01*
X129411403Y-112036555D01*
X129446220Y-112011721D01*
X129461776Y-111998575D01*
X129605477Y-111855374D01*
X129618674Y-111839867D01*
X129737064Y-111675110D01*
X129747547Y-111657664D01*
X129837438Y-111475784D01*
X129844933Y-111456854D01*
X129903912Y-111262732D01*
X129908141Y-111243172D01*
X129906786Y-111222503D01*
X129896466Y-111219000D01*
X128570000Y-111219000D01*
X128474712Y-111200046D01*
X128393930Y-111146070D01*
X128339954Y-111065288D01*
X128321000Y-110970000D01*
X128321000Y-110960000D01*
X128339954Y-110864712D01*
X128393930Y-110783930D01*
X128474712Y-110729954D01*
X128570000Y-110711000D01*
X129886932Y-110711000D01*
X129907390Y-110706931D01*
X129908419Y-110701755D01*
X129907723Y-110696127D01*
X129867444Y-110535773D01*
X129860880Y-110516492D01*
X129779986Y-110330446D01*
X129770364Y-110312502D01*
X129660168Y-110142164D01*
X129647737Y-110126022D01*
X129511209Y-109975980D01*
X129496305Y-109962082D01*
X129400862Y-109886706D01*
X129337829Y-109812774D01*
X129307887Y-109720348D01*
X129315594Y-109623499D01*
X129359776Y-109536972D01*
X129412367Y-109487326D01*
X129437497Y-109469730D01*
X129437499Y-109469728D01*
X129446401Y-109463495D01*
X129613495Y-109296401D01*
X129715118Y-109151268D01*
X129742797Y-109111738D01*
X129742798Y-109111737D01*
X129749035Y-109102829D01*
X129762861Y-109073180D01*
X129844307Y-108898520D01*
X129844309Y-108898516D01*
X129848903Y-108888663D01*
X129910063Y-108660408D01*
X129930659Y-108425000D01*
X129910063Y-108189592D01*
X129848903Y-107961337D01*
X129818047Y-107895165D01*
X129753631Y-107757027D01*
X129749035Y-107747171D01*
X129613495Y-107553599D01*
X129446401Y-107386505D01*
X129437497Y-107380270D01*
X129407075Y-107358968D01*
X129339892Y-107288786D01*
X129304680Y-107198237D01*
X129306800Y-107101105D01*
X129345929Y-107012178D01*
X129407075Y-106951032D01*
X129437497Y-106929730D01*
X129437499Y-106929728D01*
X129446401Y-106923495D01*
X129613495Y-106756401D01*
X129749035Y-106562829D01*
X129808243Y-106435859D01*
X129844307Y-106358520D01*
X129844309Y-106358516D01*
X129848903Y-106348663D01*
X129910063Y-106120408D01*
X129930659Y-105885000D01*
X129910063Y-105649592D01*
X129848903Y-105421337D01*
X129841626Y-105405730D01*
X129753631Y-105217027D01*
X129749035Y-105207171D01*
X129613495Y-105013599D01*
X129446401Y-104846505D01*
X129437497Y-104840270D01*
X129407075Y-104818968D01*
X129339892Y-104748786D01*
X129304680Y-104658237D01*
X129306800Y-104561105D01*
X129345929Y-104472178D01*
X129407075Y-104411032D01*
X129437497Y-104389730D01*
X129437499Y-104389728D01*
X129446401Y-104383495D01*
X129613495Y-104216401D01*
X129734394Y-104043739D01*
X129742797Y-104031738D01*
X129742798Y-104031737D01*
X129749035Y-104022829D01*
X129812817Y-103886050D01*
X129844307Y-103818520D01*
X129844309Y-103818516D01*
X129848903Y-103808663D01*
X129910063Y-103580408D01*
X129930659Y-103345000D01*
X129910063Y-103109592D01*
X129848903Y-102881337D01*
X129771556Y-102715466D01*
X129753631Y-102677027D01*
X129749035Y-102667171D01*
X129722656Y-102629497D01*
X129646428Y-102520633D01*
X129613495Y-102473599D01*
X129446401Y-102306505D01*
X129437497Y-102300270D01*
X129407075Y-102278968D01*
X129339892Y-102208786D01*
X129304680Y-102118237D01*
X129306800Y-102021105D01*
X129345929Y-101932178D01*
X129407075Y-101871032D01*
X129437497Y-101849730D01*
X129437499Y-101849728D01*
X129446401Y-101843495D01*
X129613495Y-101676401D01*
X129711329Y-101536679D01*
X129781509Y-101469496D01*
X129872058Y-101434283D01*
X129915297Y-101430500D01*
X130196801Y-101430500D01*
X130202054Y-101430748D01*
X130210667Y-101432673D01*
X130226325Y-101432181D01*
X130226326Y-101432181D01*
X130275900Y-101430623D01*
X130283721Y-101430500D01*
X130309350Y-101430500D01*
X130317113Y-101429519D01*
X130319274Y-101429383D01*
X130327095Y-101429014D01*
X130343809Y-101428489D01*
X130368627Y-101427709D01*
X130383678Y-101423336D01*
X130392690Y-101421909D01*
X130402430Y-101419892D01*
X130411248Y-101417628D01*
X130426792Y-101415664D01*
X130461918Y-101401756D01*
X130484106Y-101394160D01*
X130505341Y-101387991D01*
X130505348Y-101387988D01*
X130520390Y-101383618D01*
X130533876Y-101375642D01*
X130542253Y-101372017D01*
X130551185Y-101367641D01*
X130559170Y-101363251D01*
X130573732Y-101357486D01*
X130591159Y-101344825D01*
X130604303Y-101335275D01*
X130623906Y-101322399D01*
X130642940Y-101311142D01*
X130656420Y-101303170D01*
X130667491Y-101292099D01*
X130674685Y-101286519D01*
X130682261Y-101280048D01*
X130688909Y-101273805D01*
X130701587Y-101264594D01*
X130725663Y-101235491D01*
X130741451Y-101218139D01*
X132090546Y-99869045D01*
X132094426Y-99865515D01*
X132101877Y-99860786D01*
X132146529Y-99813237D01*
X132151971Y-99807620D01*
X132170120Y-99789471D01*
X132174907Y-99783299D01*
X132176376Y-99781633D01*
X132181622Y-99775867D01*
X132210062Y-99745582D01*
X132217608Y-99731855D01*
X132222969Y-99724477D01*
X132228417Y-99716183D01*
X132233068Y-99708318D01*
X132242673Y-99695936D01*
X132257680Y-99661257D01*
X132267995Y-99640202D01*
X132278650Y-99620820D01*
X132286197Y-99607092D01*
X132290093Y-99591917D01*
X132293442Y-99583459D01*
X132296675Y-99574016D01*
X132299214Y-99565276D01*
X132305437Y-99550896D01*
X132311345Y-99513594D01*
X132316102Y-99490625D01*
X132321603Y-99469202D01*
X132321604Y-99469191D01*
X132325500Y-99454019D01*
X132325500Y-99438349D01*
X132326642Y-99429308D01*
X132327423Y-99419395D01*
X132327710Y-99410275D01*
X132330160Y-99394804D01*
X132326605Y-99357195D01*
X132325500Y-99333764D01*
X132325500Y-80073200D01*
X132325748Y-80067946D01*
X132327673Y-80059333D01*
X132325623Y-79994087D01*
X132325500Y-79986267D01*
X132325500Y-79960650D01*
X132324518Y-79952879D01*
X132324384Y-79950751D01*
X132324015Y-79942923D01*
X132323202Y-79917031D01*
X132323202Y-79917030D01*
X132322710Y-79901373D01*
X132318340Y-79886332D01*
X132316915Y-79877335D01*
X132314896Y-79867588D01*
X132312628Y-79858753D01*
X132310664Y-79843208D01*
X132296759Y-79808089D01*
X132289160Y-79785894D01*
X132282990Y-79764657D01*
X132282988Y-79764653D01*
X132278618Y-79749610D01*
X132270645Y-79736128D01*
X132267026Y-79727765D01*
X132262644Y-79718820D01*
X132258252Y-79710832D01*
X132252486Y-79696268D01*
X132230284Y-79665710D01*
X132217403Y-79646101D01*
X132216797Y-79645076D01*
X132198171Y-79613580D01*
X132187093Y-79602502D01*
X132181516Y-79595312D01*
X132175040Y-79587729D01*
X132168800Y-79581084D01*
X132159594Y-79568413D01*
X132147528Y-79558431D01*
X132147525Y-79558428D01*
X132130497Y-79544342D01*
X132113145Y-79528554D01*
X131419045Y-78834454D01*
X131415515Y-78830574D01*
X131410786Y-78823123D01*
X131363237Y-78778471D01*
X131357620Y-78773029D01*
X131339471Y-78754880D01*
X131333299Y-78750093D01*
X131331633Y-78748624D01*
X131325867Y-78743378D01*
X131295582Y-78714938D01*
X131281855Y-78707392D01*
X131274477Y-78702031D01*
X131266184Y-78696584D01*
X131258320Y-78691933D01*
X131245936Y-78682327D01*
X131223260Y-78672514D01*
X131211254Y-78667318D01*
X131190203Y-78657006D01*
X131157092Y-78638803D01*
X131141915Y-78634906D01*
X131133431Y-78631547D01*
X131124017Y-78628324D01*
X131115273Y-78625783D01*
X131100896Y-78619562D01*
X131085426Y-78617112D01*
X131085423Y-78617111D01*
X131063581Y-78613652D01*
X131040602Y-78608893D01*
X131019198Y-78603397D01*
X131019195Y-78603397D01*
X131004019Y-78599500D01*
X130988351Y-78599500D01*
X130979304Y-78598357D01*
X130969373Y-78597576D01*
X130960274Y-78597290D01*
X130944804Y-78594840D01*
X130907195Y-78598395D01*
X130883764Y-78599500D01*
X130122271Y-78599500D01*
X130026983Y-78580546D01*
X129946201Y-78526570D01*
X129892225Y-78445788D01*
X129873271Y-78350500D01*
X129881754Y-78286058D01*
X129910063Y-78180408D01*
X129930659Y-77945000D01*
X129910063Y-77709592D01*
X129848903Y-77481337D01*
X129826386Y-77433048D01*
X129753631Y-77277027D01*
X129749035Y-77267171D01*
X129613495Y-77073599D01*
X129446401Y-76906505D01*
X129437497Y-76900270D01*
X129407075Y-76878968D01*
X129339892Y-76808786D01*
X129304680Y-76718237D01*
X129306800Y-76621105D01*
X129345929Y-76532178D01*
X129407075Y-76471032D01*
X129437497Y-76449730D01*
X129437499Y-76449728D01*
X129446401Y-76443495D01*
X129613495Y-76276401D01*
X129749035Y-76082829D01*
X129768930Y-76040165D01*
X129844307Y-75878520D01*
X129844309Y-75878516D01*
X129848903Y-75868663D01*
X129910063Y-75640408D01*
X129930659Y-75405000D01*
X129911934Y-75190981D01*
X129911011Y-75180426D01*
X129911011Y-75180425D01*
X129910063Y-75169592D01*
X129848903Y-74941337D01*
X129843856Y-74930512D01*
X129753631Y-74737027D01*
X129749035Y-74727171D01*
X129613495Y-74533599D01*
X129446401Y-74366505D01*
X129437494Y-74360268D01*
X129413174Y-74343238D01*
X129345991Y-74273056D01*
X129310779Y-74182506D01*
X129312900Y-74085375D01*
X129352030Y-73996448D01*
X129411403Y-73936555D01*
X129446220Y-73911721D01*
X129461776Y-73898575D01*
X129605477Y-73755374D01*
X129618674Y-73739867D01*
X129737064Y-73575110D01*
X129747547Y-73557664D01*
X129837438Y-73375784D01*
X129844933Y-73356854D01*
X129903912Y-73162732D01*
X129908141Y-73143172D01*
X129906786Y-73122503D01*
X129896466Y-73119000D01*
X128570000Y-73119000D01*
X128474712Y-73100046D01*
X128393930Y-73046070D01*
X128339954Y-72965288D01*
X128321000Y-72870000D01*
X128321000Y-72586473D01*
X128829000Y-72586473D01*
X128833069Y-72606931D01*
X128853527Y-72611000D01*
X129886932Y-72611000D01*
X129907390Y-72606931D01*
X129908419Y-72601755D01*
X129907723Y-72596127D01*
X129867444Y-72435773D01*
X129860880Y-72416492D01*
X129779986Y-72230446D01*
X129770364Y-72212502D01*
X129660168Y-72042164D01*
X129647737Y-72026022D01*
X129511209Y-71875980D01*
X129496305Y-71862082D01*
X129337098Y-71736349D01*
X129320141Y-71725082D01*
X129142526Y-71627033D01*
X129123952Y-71618685D01*
X128932719Y-71550966D01*
X128913018Y-71545761D01*
X128853147Y-71535096D01*
X128832291Y-71535515D01*
X128829000Y-71543935D01*
X128829000Y-72586473D01*
X128321000Y-72586473D01*
X128321000Y-71554514D01*
X128316931Y-71534056D01*
X128307138Y-71532108D01*
X128269301Y-71537898D01*
X128249503Y-71542615D01*
X128056657Y-71605646D01*
X128037892Y-71613534D01*
X127857937Y-71707213D01*
X127840700Y-71718068D01*
X127678476Y-71839870D01*
X127663235Y-71853401D01*
X127523080Y-72000065D01*
X127510259Y-72015899D01*
X127505456Y-72022939D01*
X127436100Y-72090975D01*
X127345988Y-72127290D01*
X127248837Y-72126357D01*
X127159439Y-72088316D01*
X127095791Y-72025441D01*
X127079731Y-72002505D01*
X127073495Y-71993599D01*
X126906401Y-71826505D01*
X126897503Y-71820275D01*
X126897500Y-71820272D01*
X126721729Y-71697196D01*
X126721728Y-71697195D01*
X126712830Y-71690965D01*
X126702985Y-71686374D01*
X126702983Y-71686373D01*
X126626055Y-71650501D01*
X126498663Y-71591097D01*
X126488165Y-71588284D01*
X126488162Y-71588283D01*
X126384536Y-71560517D01*
X126270408Y-71529937D01*
X126259575Y-71528989D01*
X126259574Y-71528989D01*
X126045835Y-71510289D01*
X126035000Y-71509341D01*
X126024165Y-71510289D01*
X125810426Y-71528989D01*
X125810425Y-71528989D01*
X125799592Y-71529937D01*
X125571337Y-71591097D01*
X125561484Y-71595691D01*
X125561480Y-71595693D01*
X125367027Y-71686369D01*
X125357171Y-71690965D01*
X125163599Y-71826505D01*
X124996505Y-71993599D01*
X124860965Y-72187171D01*
X124856369Y-72197027D01*
X124794488Y-72329731D01*
X124761097Y-72401337D01*
X124699937Y-72629592D01*
X124698989Y-72640425D01*
X124698989Y-72640426D01*
X124696551Y-72668296D01*
X124679341Y-72865000D01*
X124699937Y-73100408D01*
X124761097Y-73328663D01*
X124765691Y-73338516D01*
X124765693Y-73338520D01*
X124802615Y-73417699D01*
X124860965Y-73542829D01*
X124867202Y-73551737D01*
X124867203Y-73551738D01*
X124883568Y-73575110D01*
X124996505Y-73736401D01*
X125163599Y-73903495D01*
X125172501Y-73909728D01*
X125172503Y-73909730D01*
X125202923Y-73931030D01*
X125270108Y-74001211D01*
X125305321Y-74091760D01*
X125303202Y-74188892D01*
X125264074Y-74277819D01*
X125202926Y-74338968D01*
X125163599Y-74366505D01*
X124996505Y-74533599D01*
X124860965Y-74727171D01*
X124856369Y-74737027D01*
X124766145Y-74930512D01*
X124761097Y-74941337D01*
X124699937Y-75169592D01*
X124698989Y-75180425D01*
X124698989Y-75180426D01*
X124698066Y-75190981D01*
X124679341Y-75405000D01*
X124699937Y-75640408D01*
X124761097Y-75868663D01*
X124765691Y-75878516D01*
X124765693Y-75878520D01*
X124841070Y-76040165D01*
X124860965Y-76082829D01*
X124996505Y-76276401D01*
X125163599Y-76443495D01*
X125172501Y-76449728D01*
X125172503Y-76449730D01*
X125202923Y-76471030D01*
X125270108Y-76541211D01*
X125305321Y-76631760D01*
X125303202Y-76728892D01*
X125264074Y-76817819D01*
X125202926Y-76878968D01*
X125163599Y-76906505D01*
X124996505Y-77073599D01*
X124860965Y-77267171D01*
X124856369Y-77277027D01*
X124783615Y-77433048D01*
X124761097Y-77481337D01*
X124699937Y-77709592D01*
X124679341Y-77945000D01*
X124699937Y-78180408D01*
X124728245Y-78286057D01*
X124734599Y-78383001D01*
X124703369Y-78475000D01*
X124639311Y-78548045D01*
X124552175Y-78591016D01*
X124487729Y-78599500D01*
X121674500Y-78599500D01*
X121579212Y-78580546D01*
X121498430Y-78526570D01*
X121444454Y-78445788D01*
X121425500Y-78350500D01*
X121425500Y-77969835D01*
X121444454Y-77874547D01*
X121498430Y-77793765D01*
X121553733Y-77754245D01*
X121553000Y-77753015D01*
X121561778Y-77747783D01*
X121570954Y-77743287D01*
X121632345Y-77699497D01*
X121763512Y-77605937D01*
X121763516Y-77605934D01*
X121771829Y-77600004D01*
X121946605Y-77425837D01*
X122090588Y-77225463D01*
X122199911Y-77004264D01*
X122205317Y-76986473D01*
X122268669Y-76777956D01*
X122268669Y-76777954D01*
X122271639Y-76768180D01*
X122276812Y-76728892D01*
X122302981Y-76530114D01*
X122302981Y-76530111D01*
X122303845Y-76523550D01*
X122304577Y-76493632D01*
X122305481Y-76456625D01*
X122305643Y-76450000D01*
X122285425Y-76204089D01*
X122225316Y-75964783D01*
X122126928Y-75738507D01*
X121992905Y-75531339D01*
X121826846Y-75348842D01*
X121633210Y-75195918D01*
X121605147Y-75180426D01*
X121473641Y-75107831D01*
X121417198Y-75076673D01*
X121407572Y-75073264D01*
X121407567Y-75073262D01*
X121194240Y-74997719D01*
X121194238Y-74997718D01*
X121184610Y-74994309D01*
X120941694Y-74951039D01*
X120931474Y-74950914D01*
X120931472Y-74950914D01*
X120791179Y-74949200D01*
X120694972Y-74948025D01*
X120505826Y-74976968D01*
X120461166Y-74983802D01*
X120461165Y-74983802D01*
X120451070Y-74985347D01*
X120441359Y-74988521D01*
X120226250Y-75058829D01*
X120226247Y-75058830D01*
X120216540Y-75062003D01*
X119997679Y-75175935D01*
X119800364Y-75324083D01*
X119793312Y-75331463D01*
X119793307Y-75331467D01*
X119645760Y-75485867D01*
X119629896Y-75502468D01*
X119624134Y-75510915D01*
X119535800Y-75640408D01*
X119490851Y-75706300D01*
X119386965Y-75930104D01*
X119384238Y-75939939D01*
X119384236Y-75939943D01*
X119329149Y-76138580D01*
X119321026Y-76167871D01*
X119316067Y-76214271D01*
X119296263Y-76399583D01*
X119294806Y-76413214D01*
X119309010Y-76659545D01*
X119311257Y-76669514D01*
X119311257Y-76669517D01*
X119357582Y-76875076D01*
X119363255Y-76900249D01*
X119456084Y-77128861D01*
X119461421Y-77137571D01*
X119461422Y-77137572D01*
X119483791Y-77174075D01*
X119585006Y-77339241D01*
X119746557Y-77525741D01*
X119936399Y-77683351D01*
X119945220Y-77688505D01*
X119945222Y-77688507D01*
X120051128Y-77750394D01*
X120123836Y-77814834D01*
X120166350Y-77902194D01*
X120174500Y-77965379D01*
X120174500Y-78350500D01*
X120155546Y-78445788D01*
X120101570Y-78526570D01*
X120020788Y-78580546D01*
X119925500Y-78599500D01*
X117998199Y-78599500D01*
X117992946Y-78599252D01*
X117984333Y-78597327D01*
X117968675Y-78597819D01*
X117968674Y-78597819D01*
X117919100Y-78599377D01*
X117911279Y-78599500D01*
X117885650Y-78599500D01*
X117877887Y-78600481D01*
X117875726Y-78600617D01*
X117867905Y-78600986D01*
X117851191Y-78601511D01*
X117826373Y-78602291D01*
X117811322Y-78606664D01*
X117802310Y-78608091D01*
X117792570Y-78610108D01*
X117783752Y-78612372D01*
X117768208Y-78614336D01*
X117733082Y-78628244D01*
X117710894Y-78635840D01*
X117689659Y-78642009D01*
X117689652Y-78642012D01*
X117674610Y-78646382D01*
X117661124Y-78654358D01*
X117652747Y-78657983D01*
X117643815Y-78662359D01*
X117635830Y-78666749D01*
X117621268Y-78672514D01*
X117608599Y-78681718D01*
X117608598Y-78681719D01*
X117590697Y-78694725D01*
X117571094Y-78707601D01*
X117538580Y-78726830D01*
X117527509Y-78737901D01*
X117520315Y-78743481D01*
X117512739Y-78749952D01*
X117506091Y-78756195D01*
X117493413Y-78765406D01*
X117483425Y-78777480D01*
X117469337Y-78794509D01*
X117453549Y-78811861D01*
X116434454Y-79830955D01*
X116430574Y-79834485D01*
X116423123Y-79839214D01*
X116382734Y-79882224D01*
X116303690Y-79938709D01*
X116258820Y-79954017D01*
X116256946Y-79954463D01*
X116241420Y-79956149D01*
X116168042Y-79983657D01*
X116080642Y-79999500D01*
X115273200Y-79999500D01*
X115267946Y-79999252D01*
X115259333Y-79997327D01*
X115243674Y-79997819D01*
X115194087Y-79999377D01*
X115186267Y-79999500D01*
X115160650Y-79999500D01*
X115152879Y-80000482D01*
X115150751Y-80000616D01*
X115142933Y-80000985D01*
X115130187Y-80001385D01*
X115117031Y-80001798D01*
X115117030Y-80001798D01*
X115101373Y-80002290D01*
X115086332Y-80006660D01*
X115077335Y-80008085D01*
X115067588Y-80010104D01*
X115058753Y-80012372D01*
X115043208Y-80014336D01*
X115028641Y-80020104D01*
X115028640Y-80020104D01*
X115008089Y-80028241D01*
X114985894Y-80035840D01*
X114964658Y-80042010D01*
X114964656Y-80042011D01*
X114949610Y-80046382D01*
X114936123Y-80054358D01*
X114927747Y-80057983D01*
X114918815Y-80062359D01*
X114910830Y-80066749D01*
X114896268Y-80072514D01*
X114883599Y-80081718D01*
X114883598Y-80081719D01*
X114865697Y-80094725D01*
X114846094Y-80107601D01*
X114813580Y-80126830D01*
X114802509Y-80137901D01*
X114795315Y-80143481D01*
X114787728Y-80149961D01*
X114781084Y-80156200D01*
X114768413Y-80165406D01*
X114758431Y-80177472D01*
X114758430Y-80177473D01*
X114744335Y-80194511D01*
X114728548Y-80211861D01*
X114656599Y-80283810D01*
X114608359Y-80320825D01*
X114597159Y-80325464D01*
X114584213Y-80335398D01*
X114584211Y-80335399D01*
X114566576Y-80348931D01*
X114471718Y-80421718D01*
X114461778Y-80434672D01*
X114385401Y-80534208D01*
X114385399Y-80534211D01*
X114375464Y-80547159D01*
X114314956Y-80693238D01*
X114299500Y-80810639D01*
X114299501Y-81149360D01*
X114308814Y-81220100D01*
X114312507Y-81248155D01*
X114307062Y-81331203D01*
X114307650Y-81331280D01*
X114306470Y-81340247D01*
X114306151Y-81345105D01*
X114305520Y-81347461D01*
X114293064Y-81442074D01*
X114292000Y-81458304D01*
X114292001Y-81781694D01*
X114293065Y-81797929D01*
X114305520Y-81892537D01*
X114313897Y-81923801D01*
X114362668Y-82041547D01*
X114378847Y-82069569D01*
X114456433Y-82170680D01*
X114479320Y-82193567D01*
X114580431Y-82271153D01*
X114608453Y-82287332D01*
X114726204Y-82336105D01*
X114757458Y-82344480D01*
X114852074Y-82356936D01*
X114868303Y-82358000D01*
X115131694Y-82357999D01*
X115147929Y-82356935D01*
X115242537Y-82344480D01*
X115273801Y-82336103D01*
X115391547Y-82287332D01*
X115419569Y-82271153D01*
X115461393Y-82239060D01*
X115548529Y-82196089D01*
X115645476Y-82189734D01*
X115737475Y-82220963D01*
X115810520Y-82285021D01*
X115846653Y-82360992D01*
X115848748Y-82360207D01*
X115893602Y-82479854D01*
X115893914Y-82480424D01*
X115894425Y-82482050D01*
X115899828Y-82496462D01*
X115899047Y-82496755D01*
X115923049Y-82573108D01*
X115914496Y-82669886D01*
X115893914Y-82719576D01*
X115893602Y-82720146D01*
X115854227Y-82825178D01*
X115847062Y-82855309D01*
X115842727Y-82895214D01*
X115842000Y-82908650D01*
X115842000Y-82946473D01*
X115846069Y-82966931D01*
X115866527Y-82971000D01*
X116546473Y-82971000D01*
X116566931Y-82966931D01*
X116571000Y-82946473D01*
X116571000Y-81970000D01*
X116589954Y-81874712D01*
X116643930Y-81793930D01*
X116724712Y-81739954D01*
X116820000Y-81721000D01*
X116830000Y-81721000D01*
X116925288Y-81739954D01*
X117006070Y-81793930D01*
X117060046Y-81874712D01*
X117079000Y-81970000D01*
X117079000Y-85233472D01*
X117083069Y-85253930D01*
X117103527Y-85257999D01*
X117341346Y-85257999D01*
X117354792Y-85257271D01*
X117394685Y-85252938D01*
X117424826Y-85245772D01*
X117529850Y-85206400D01*
X117560660Y-85189531D01*
X117648703Y-85123547D01*
X117673544Y-85098706D01*
X117700748Y-85062408D01*
X117773062Y-84997525D01*
X117864701Y-84965254D01*
X117961714Y-84970508D01*
X118049331Y-85012487D01*
X118099252Y-85062408D01*
X118126456Y-85098706D01*
X118151297Y-85123547D01*
X118239340Y-85189531D01*
X118270150Y-85206400D01*
X118375178Y-85245773D01*
X118405309Y-85252938D01*
X118445214Y-85257273D01*
X118458650Y-85258000D01*
X118696473Y-85258000D01*
X118716931Y-85253931D01*
X118721000Y-85233473D01*
X118721000Y-84470000D01*
X118739954Y-84374712D01*
X118793930Y-84293930D01*
X118874712Y-84239954D01*
X118970000Y-84221000D01*
X118980000Y-84221000D01*
X119075288Y-84239954D01*
X119156070Y-84293930D01*
X119210046Y-84374712D01*
X119229000Y-84470000D01*
X119229000Y-85233472D01*
X119233069Y-85253930D01*
X119253527Y-85257999D01*
X119491346Y-85257999D01*
X119511511Y-85256907D01*
X119511629Y-85259091D01*
X119595401Y-85266499D01*
X119681536Y-85311441D01*
X119743917Y-85385924D01*
X119773045Y-85478610D01*
X119774500Y-85505486D01*
X119774500Y-89726801D01*
X119774252Y-89732054D01*
X119772327Y-89740667D01*
X119772819Y-89756325D01*
X119772819Y-89756326D01*
X119774377Y-89805900D01*
X119774500Y-89813721D01*
X119774500Y-89839350D01*
X119775481Y-89847113D01*
X119775617Y-89849274D01*
X119775986Y-89857095D01*
X119777291Y-89898627D01*
X119781664Y-89913678D01*
X119783091Y-89922690D01*
X119785108Y-89932430D01*
X119787372Y-89941248D01*
X119789336Y-89956792D01*
X119803241Y-89991910D01*
X119810840Y-90014106D01*
X119817009Y-90035341D01*
X119817012Y-90035348D01*
X119821382Y-90050390D01*
X119829358Y-90063876D01*
X119832983Y-90072253D01*
X119837359Y-90081185D01*
X119841749Y-90089170D01*
X119847514Y-90103732D01*
X119856718Y-90116401D01*
X119856719Y-90116402D01*
X119869725Y-90134303D01*
X119882601Y-90153906D01*
X119901830Y-90186420D01*
X119912901Y-90197491D01*
X119918481Y-90204685D01*
X119924952Y-90212261D01*
X119931195Y-90218909D01*
X119940406Y-90231587D01*
X119952480Y-90241575D01*
X119969509Y-90255663D01*
X119986861Y-90271451D01*
X122700602Y-92985192D01*
X122754578Y-93065974D01*
X122773532Y-93161262D01*
X122754578Y-93256550D01*
X122700602Y-93337332D01*
X122619820Y-93391308D01*
X122547099Y-93409237D01*
X122511618Y-93412466D01*
X122499942Y-93415902D01*
X122499939Y-93415903D01*
X122335076Y-93464425D01*
X122335072Y-93464427D01*
X122323393Y-93467864D01*
X122149512Y-93558767D01*
X122140025Y-93566395D01*
X122140023Y-93566396D01*
X122006088Y-93674082D01*
X122006085Y-93674085D01*
X121996600Y-93681711D01*
X121988778Y-93691034D01*
X121988775Y-93691036D01*
X121928740Y-93762584D01*
X121870480Y-93832016D01*
X121858959Y-93852973D01*
X121806071Y-93949176D01*
X121775956Y-94003954D01*
X121762883Y-94045165D01*
X121730581Y-94146993D01*
X121683702Y-94232090D01*
X121607827Y-94292769D01*
X121514506Y-94319793D01*
X121417947Y-94309047D01*
X121332850Y-94262168D01*
X121272171Y-94186293D01*
X121255827Y-94146787D01*
X121213970Y-94014437D01*
X121197038Y-93960899D01*
X121101780Y-93718451D01*
X120986928Y-93426133D01*
X120986926Y-93426128D01*
X120985377Y-93422186D01*
X120982401Y-93415903D01*
X120804274Y-93039924D01*
X120737564Y-92899117D01*
X120454749Y-92394114D01*
X120138241Y-91909516D01*
X119789506Y-91447569D01*
X119688862Y-91331587D01*
X119412938Y-91013612D01*
X119412931Y-91013605D01*
X119410159Y-91010410D01*
X119367034Y-90967058D01*
X119146550Y-90745417D01*
X119001956Y-90600064D01*
X118566790Y-90218434D01*
X118558702Y-90212261D01*
X118110052Y-89869862D01*
X118106674Y-89867284D01*
X117752644Y-89633401D01*
X117627278Y-89550580D01*
X117627272Y-89550576D01*
X117623740Y-89548243D01*
X117120225Y-89262788D01*
X117116402Y-89260952D01*
X117116392Y-89260947D01*
X116602293Y-89014080D01*
X116602290Y-89014079D01*
X116598461Y-89012240D01*
X116060864Y-88797761D01*
X115749844Y-88697604D01*
X115513953Y-88621640D01*
X115513941Y-88621637D01*
X115509924Y-88620343D01*
X114948192Y-88480808D01*
X114605086Y-88420000D01*
X114382437Y-88380540D01*
X114382427Y-88380539D01*
X114378271Y-88379802D01*
X114374076Y-88379350D01*
X114374069Y-88379349D01*
X113806999Y-88318246D01*
X113806986Y-88318245D01*
X113802800Y-88317794D01*
X113798582Y-88317628D01*
X113798578Y-88317628D01*
X113567625Y-88308554D01*
X113224444Y-88295071D01*
X113220207Y-88295193D01*
X113220200Y-88295193D01*
X112786428Y-88307688D01*
X112645881Y-88311737D01*
X112641663Y-88312147D01*
X112641661Y-88312147D01*
X112614667Y-88314770D01*
X112069792Y-88367715D01*
X112065606Y-88368412D01*
X112065604Y-88368412D01*
X111997174Y-88379802D01*
X111498845Y-88462747D01*
X110935683Y-88596392D01*
X110931621Y-88597653D01*
X110931622Y-88597653D01*
X110386962Y-88766774D01*
X110386952Y-88766777D01*
X110382915Y-88768031D01*
X110378962Y-88769560D01*
X110378960Y-88769561D01*
X110133343Y-88864583D01*
X109843101Y-88976869D01*
X109839264Y-88978662D01*
X109839260Y-88978664D01*
X109435594Y-89167326D01*
X109318742Y-89221939D01*
X108812265Y-89502106D01*
X108326017Y-89816072D01*
X108322625Y-89818605D01*
X107940794Y-90103732D01*
X107862249Y-90162384D01*
X107859038Y-90165141D01*
X107515122Y-90460434D01*
X107423110Y-90539437D01*
X107420093Y-90542407D01*
X107420081Y-90542418D01*
X107053123Y-90903657D01*
X107010633Y-90945485D01*
X107007822Y-90948657D01*
X107007816Y-90948663D01*
X106727762Y-91264651D01*
X106626729Y-91378648D01*
X106624147Y-91381995D01*
X106624141Y-91382002D01*
X106596286Y-91418108D01*
X106273176Y-91836919D01*
X105951610Y-92318175D01*
X105663522Y-92820189D01*
X105410246Y-93340634D01*
X105192955Y-93877101D01*
X105012655Y-94427104D01*
X105011610Y-94431218D01*
X105011609Y-94431222D01*
X104971593Y-94588786D01*
X104870180Y-94988098D01*
X104766192Y-95557482D01*
X104765716Y-95561696D01*
X104765715Y-95561700D01*
X104746266Y-95733739D01*
X104701172Y-96132621D01*
X104675420Y-96710850D01*
X104678753Y-96852271D01*
X104689057Y-97289492D01*
X104742018Y-97865866D01*
X104742688Y-97870028D01*
X104742690Y-97870041D01*
X104780402Y-98104176D01*
X104834059Y-98437303D01*
X104835016Y-98441431D01*
X104835017Y-98441437D01*
X104856118Y-98532471D01*
X104964753Y-99001157D01*
X104965988Y-99005210D01*
X104965992Y-99005224D01*
X105127586Y-99535425D01*
X105133496Y-99554816D01*
X105135005Y-99558778D01*
X105135006Y-99558781D01*
X105337997Y-100091758D01*
X105338003Y-100091772D01*
X105339505Y-100095716D01*
X105581826Y-100621351D01*
X105859337Y-101129288D01*
X106170753Y-101617173D01*
X106173264Y-101620572D01*
X106173267Y-101620577D01*
X106188237Y-101640845D01*
X106514632Y-102082748D01*
X106889381Y-102523855D01*
X106998365Y-102635730D01*
X107290174Y-102935281D01*
X107293263Y-102938452D01*
X107296413Y-102941273D01*
X107296422Y-102941282D01*
X107585187Y-103199921D01*
X107724410Y-103324619D01*
X107727741Y-103327216D01*
X107727746Y-103327221D01*
X108161933Y-103665836D01*
X108180823Y-103680568D01*
X108660389Y-104004648D01*
X108664056Y-104006778D01*
X108664064Y-104006783D01*
X109144639Y-104285923D01*
X109160888Y-104295361D01*
X109339606Y-104383495D01*
X109676207Y-104549489D01*
X109676219Y-104549494D01*
X109680000Y-104551359D01*
X110215321Y-104771456D01*
X110219329Y-104772793D01*
X110219342Y-104772798D01*
X110760338Y-104953288D01*
X110760343Y-104953289D01*
X110764373Y-104954634D01*
X111324613Y-105100043D01*
X111573916Y-105146924D01*
X111889274Y-105206227D01*
X111889284Y-105206229D01*
X111893445Y-105207011D01*
X112324023Y-105257973D01*
X112464018Y-105274543D01*
X112464021Y-105274543D01*
X112468235Y-105275042D01*
X112598942Y-105281549D01*
X113042097Y-105303611D01*
X113042107Y-105303611D01*
X113046322Y-105303821D01*
X113584865Y-105293950D01*
X113620773Y-105293292D01*
X113620774Y-105293292D01*
X113625027Y-105293214D01*
X113629259Y-105292847D01*
X113629268Y-105292847D01*
X114197446Y-105243637D01*
X114197448Y-105243637D01*
X114201671Y-105243271D01*
X114490745Y-105198262D01*
X114769397Y-105154876D01*
X114769408Y-105154874D01*
X114773582Y-105154224D01*
X115338113Y-105026484D01*
X115542535Y-104965349D01*
X115888594Y-104861856D01*
X115888610Y-104861851D01*
X115892648Y-104860643D01*
X116434619Y-104657469D01*
X116961516Y-104417903D01*
X117470898Y-104143055D01*
X117960408Y-103834198D01*
X117963824Y-103831702D01*
X117963832Y-103831697D01*
X118293428Y-103590909D01*
X118427776Y-103492761D01*
X118431002Y-103490049D01*
X118431010Y-103490043D01*
X118867596Y-103123055D01*
X118867598Y-103123053D01*
X118870840Y-103120328D01*
X119107859Y-102891840D01*
X119284486Y-102721571D01*
X119284488Y-102721569D01*
X119287546Y-102718621D01*
X119325195Y-102677027D01*
X119673109Y-102292659D01*
X119673118Y-102292648D01*
X119675965Y-102289503D01*
X119823957Y-102101776D01*
X120031677Y-101838284D01*
X120031680Y-101838280D01*
X120034298Y-101834959D01*
X120360886Y-101357096D01*
X120377769Y-101328378D01*
X120566803Y-101006820D01*
X120654215Y-100858127D01*
X120912927Y-100340363D01*
X121135824Y-99806201D01*
X121149299Y-99766505D01*
X121320518Y-99262111D01*
X121320522Y-99262099D01*
X121321874Y-99258115D01*
X121470215Y-98698645D01*
X121473446Y-98681949D01*
X121579358Y-98134526D01*
X121580160Y-98130381D01*
X121580720Y-98125859D01*
X121645079Y-97605438D01*
X121651199Y-97555954D01*
X121683005Y-96978026D01*
X121684323Y-96852178D01*
X121684841Y-96802698D01*
X121684841Y-96802690D01*
X121684870Y-96799912D01*
X121683843Y-96769730D01*
X121669741Y-96355546D01*
X121665175Y-96221445D01*
X121645723Y-96031587D01*
X121637592Y-95952230D01*
X121646735Y-95855506D01*
X121692197Y-95769644D01*
X121767056Y-95707715D01*
X121803876Y-95696388D01*
X121730212Y-95681735D01*
X121649430Y-95627759D01*
X121595454Y-95546977D01*
X121580097Y-95493858D01*
X121571237Y-95442294D01*
X121548058Y-95307402D01*
X121550601Y-95210283D01*
X121590117Y-95121527D01*
X121660590Y-95054650D01*
X121751292Y-95019833D01*
X121848414Y-95022376D01*
X121937170Y-95061892D01*
X121970717Y-95090671D01*
X121976818Y-95098369D01*
X121986086Y-95106256D01*
X121986092Y-95106263D01*
X121986880Y-95106933D01*
X121987516Y-95107737D01*
X121994552Y-95115023D01*
X121993831Y-95115719D01*
X122047162Y-95183125D01*
X122073698Y-95276586D01*
X122074500Y-95296557D01*
X122074500Y-95451689D01*
X122055546Y-95546977D01*
X122001570Y-95627759D01*
X121920788Y-95681735D01*
X121909995Y-95683882D01*
X121956640Y-95688291D01*
X122042502Y-95733753D01*
X122104431Y-95808612D01*
X122113815Y-95827960D01*
X122117012Y-95835347D01*
X122121382Y-95850390D01*
X122129358Y-95863876D01*
X122132980Y-95872246D01*
X122137359Y-95881185D01*
X122141749Y-95889170D01*
X122147514Y-95903732D01*
X122156718Y-95916401D01*
X122156719Y-95916402D01*
X122169725Y-95934303D01*
X122182601Y-95953906D01*
X122201830Y-95986420D01*
X122212901Y-95997491D01*
X122218481Y-96004685D01*
X122224952Y-96012261D01*
X122231195Y-96018909D01*
X122240406Y-96031587D01*
X122252480Y-96041575D01*
X122269509Y-96055663D01*
X122286861Y-96071451D01*
X122956233Y-96740824D01*
X123605955Y-97390546D01*
X123609485Y-97394426D01*
X123614214Y-97401877D01*
X123625636Y-97412603D01*
X123661763Y-97446529D01*
X123667380Y-97451971D01*
X123685529Y-97470120D01*
X123691701Y-97474907D01*
X123693367Y-97476376D01*
X123699133Y-97481622D01*
X123729418Y-97510062D01*
X123743145Y-97517608D01*
X123750523Y-97522969D01*
X123758816Y-97528416D01*
X123766680Y-97533067D01*
X123779064Y-97542673D01*
X123793449Y-97548898D01*
X123813746Y-97557682D01*
X123834797Y-97567994D01*
X123867908Y-97586197D01*
X123883085Y-97590094D01*
X123891569Y-97593453D01*
X123900983Y-97596676D01*
X123909727Y-97599217D01*
X123924104Y-97605438D01*
X123939574Y-97607888D01*
X123939577Y-97607889D01*
X123961419Y-97611348D01*
X123984398Y-97616107D01*
X124005802Y-97621603D01*
X124005805Y-97621603D01*
X124020981Y-97625500D01*
X124036649Y-97625500D01*
X124045696Y-97626643D01*
X124055627Y-97627424D01*
X124064726Y-97627710D01*
X124080196Y-97630160D01*
X124117805Y-97626605D01*
X124141236Y-97625500D01*
X124475568Y-97625500D01*
X124570856Y-97644454D01*
X124651638Y-97698430D01*
X124705614Y-97779212D01*
X124724568Y-97874500D01*
X124715512Y-97941041D01*
X124699911Y-97997299D01*
X124700818Y-98007388D01*
X124712374Y-98011000D01*
X126040000Y-98011000D01*
X126135288Y-98029954D01*
X126216070Y-98083930D01*
X126270046Y-98164712D01*
X126289000Y-98260000D01*
X126289000Y-98270000D01*
X126270046Y-98365288D01*
X126216070Y-98446070D01*
X126135288Y-98500046D01*
X126040000Y-98519000D01*
X124724637Y-98519000D01*
X124704179Y-98523069D01*
X124702846Y-98529774D01*
X124703146Y-98532471D01*
X124732456Y-98662529D01*
X124738542Y-98681949D01*
X124814867Y-98869917D01*
X124824057Y-98888110D01*
X124930053Y-99061079D01*
X124942081Y-99077513D01*
X125074909Y-99230853D01*
X125089462Y-99245105D01*
X125213042Y-99347703D01*
X125274249Y-99423153D01*
X125301923Y-99516283D01*
X125291852Y-99612915D01*
X125245568Y-99698337D01*
X125196808Y-99743252D01*
X125163599Y-99766505D01*
X124996505Y-99933599D01*
X124860965Y-100127171D01*
X124761097Y-100341337D01*
X124699937Y-100569592D01*
X124698989Y-100580425D01*
X124698989Y-100580426D01*
X124691449Y-100666603D01*
X124679341Y-100805000D01*
X124680289Y-100815835D01*
X124692872Y-100959651D01*
X124699937Y-101040408D01*
X124761097Y-101268663D01*
X124765691Y-101278516D01*
X124765693Y-101278520D01*
X124836563Y-101430500D01*
X124860965Y-101482829D01*
X124996505Y-101676401D01*
X125163599Y-101843495D01*
X125172501Y-101849728D01*
X125172503Y-101849730D01*
X125202923Y-101871030D01*
X125270108Y-101941211D01*
X125305321Y-102031760D01*
X125303202Y-102128892D01*
X125264074Y-102217819D01*
X125202926Y-102278968D01*
X125187880Y-102289503D01*
X125163599Y-102306505D01*
X124996505Y-102473599D01*
X124963572Y-102520633D01*
X124887345Y-102629497D01*
X124860965Y-102667171D01*
X124856369Y-102677027D01*
X124838445Y-102715466D01*
X124761097Y-102881337D01*
X124699937Y-103109592D01*
X124679341Y-103345000D01*
X124699937Y-103580408D01*
X124761097Y-103808663D01*
X124765691Y-103818516D01*
X124765693Y-103818520D01*
X124797183Y-103886050D01*
X124860965Y-104022829D01*
X124867202Y-104031737D01*
X124867203Y-104031738D01*
X124875606Y-104043739D01*
X124996505Y-104216401D01*
X125163599Y-104383495D01*
X125172497Y-104389725D01*
X125172500Y-104389728D01*
X125197646Y-104407335D01*
X125264830Y-104477517D01*
X125300042Y-104568066D01*
X125297923Y-104665198D01*
X125258794Y-104754125D01*
X125204330Y-104810425D01*
X125138476Y-104859870D01*
X125123235Y-104873401D01*
X124983080Y-105020065D01*
X124970257Y-105035901D01*
X124855937Y-105203487D01*
X124845877Y-105221196D01*
X124760463Y-105405205D01*
X124753428Y-105424327D01*
X124699911Y-105617301D01*
X124700818Y-105627388D01*
X124712374Y-105631000D01*
X126040000Y-105631000D01*
X126135288Y-105649954D01*
X126216070Y-105703930D01*
X126270046Y-105784712D01*
X126289000Y-105880000D01*
X126289000Y-105890000D01*
X126270046Y-105985288D01*
X126216070Y-106066070D01*
X126135288Y-106120046D01*
X126040000Y-106139000D01*
X124724637Y-106139000D01*
X124704179Y-106143069D01*
X124702846Y-106149774D01*
X124703146Y-106152471D01*
X124732456Y-106282529D01*
X124738542Y-106301949D01*
X124814867Y-106489917D01*
X124824057Y-106508110D01*
X124930053Y-106681079D01*
X124942081Y-106697513D01*
X125074909Y-106850853D01*
X125089462Y-106865105D01*
X125213042Y-106967703D01*
X125274249Y-107043153D01*
X125301923Y-107136283D01*
X125291852Y-107232915D01*
X125245568Y-107318337D01*
X125196808Y-107363252D01*
X125163599Y-107386505D01*
X124996505Y-107553599D01*
X124860965Y-107747171D01*
X124856369Y-107757027D01*
X124791954Y-107895165D01*
X124761097Y-107961337D01*
X124699937Y-108189592D01*
X124679341Y-108425000D01*
X124699937Y-108660408D01*
X124761097Y-108888663D01*
X124765691Y-108898516D01*
X124765693Y-108898520D01*
X124847139Y-109073180D01*
X124860965Y-109102829D01*
X124867202Y-109111737D01*
X124867203Y-109111738D01*
X124894882Y-109151268D01*
X124996505Y-109296401D01*
X125163599Y-109463495D01*
X125172501Y-109469728D01*
X125172503Y-109469730D01*
X125202923Y-109491030D01*
X125270108Y-109561211D01*
X125305321Y-109651760D01*
X125303202Y-109748892D01*
X125264074Y-109837819D01*
X125202926Y-109898968D01*
X125163599Y-109926505D01*
X124996505Y-110093599D01*
X124860965Y-110287171D01*
X124856369Y-110297027D01*
X124781222Y-110458180D01*
X124761097Y-110501337D01*
X124699937Y-110729592D01*
X124698989Y-110740425D01*
X124698989Y-110740426D01*
X124693281Y-110805669D01*
X124679341Y-110965000D01*
X124699937Y-111200408D01*
X124761097Y-111428663D01*
X124765691Y-111438516D01*
X124765693Y-111438520D01*
X124833533Y-111584002D01*
X124860965Y-111642829D01*
X124867202Y-111651737D01*
X124867203Y-111651738D01*
X124873985Y-111661424D01*
X124996505Y-111836401D01*
X125163599Y-112003495D01*
X125172501Y-112009728D01*
X125172503Y-112009730D01*
X125202923Y-112031030D01*
X125270108Y-112101211D01*
X125305321Y-112191760D01*
X125303202Y-112288892D01*
X125264074Y-112377819D01*
X125202926Y-112438968D01*
X125163599Y-112466505D01*
X124996505Y-112633599D01*
X124860965Y-112827171D01*
X124856369Y-112837027D01*
X124782018Y-112996473D01*
X124761097Y-113041337D01*
X124699937Y-113269592D01*
X124679341Y-113505000D01*
X124684681Y-113566040D01*
X124697233Y-113709497D01*
X124699937Y-113740408D01*
X124761097Y-113968663D01*
X124765691Y-113978516D01*
X124765693Y-113978520D01*
X124812812Y-114079566D01*
X124860965Y-114182829D01*
X124996505Y-114376401D01*
X125163599Y-114543495D01*
X125172497Y-114549725D01*
X125172500Y-114549728D01*
X125197646Y-114567335D01*
X125264830Y-114637517D01*
X125300042Y-114728066D01*
X125297923Y-114825198D01*
X125258794Y-114914125D01*
X125204330Y-114970425D01*
X125138476Y-115019870D01*
X125123235Y-115033401D01*
X124983080Y-115180065D01*
X124970257Y-115195901D01*
X124855937Y-115363487D01*
X124845877Y-115381196D01*
X124760463Y-115565205D01*
X124753428Y-115584327D01*
X124699911Y-115777301D01*
X124700818Y-115787388D01*
X124712374Y-115791000D01*
X126040000Y-115791000D01*
X126135288Y-115809954D01*
X126216070Y-115863930D01*
X126270046Y-115944712D01*
X126289000Y-116040000D01*
X126289000Y-116050000D01*
X126270046Y-116145288D01*
X126216070Y-116226070D01*
X126135288Y-116280046D01*
X126040000Y-116299000D01*
X124724637Y-116299000D01*
X124704179Y-116303069D01*
X124702846Y-116309774D01*
X124703146Y-116312471D01*
X124732456Y-116442529D01*
X124738542Y-116461949D01*
X124814867Y-116649917D01*
X124824057Y-116668110D01*
X124930053Y-116841079D01*
X124942081Y-116857513D01*
X125074909Y-117010853D01*
X125089462Y-117025105D01*
X125213042Y-117127703D01*
X125274249Y-117203153D01*
X125301923Y-117296283D01*
X125291852Y-117392915D01*
X125245568Y-117478337D01*
X125196808Y-117523252D01*
X125163599Y-117546505D01*
X124996505Y-117713599D01*
X124990271Y-117722503D01*
X124990267Y-117722507D01*
X124986195Y-117728323D01*
X124916013Y-117795506D01*
X124825464Y-117830718D01*
X124782228Y-117834500D01*
X122565763Y-117834500D01*
X122535091Y-117832180D01*
X122530665Y-117832026D01*
X122516370Y-117829851D01*
X122470223Y-117833605D01*
X122469296Y-117833680D01*
X122460616Y-117834033D01*
X122460619Y-117834081D01*
X122453409Y-117834500D01*
X122446178Y-117834500D01*
X122420357Y-117837510D01*
X122411780Y-117838358D01*
X122341941Y-117844039D01*
X122329337Y-117848122D01*
X122316172Y-117849657D01*
X122302578Y-117854591D01*
X122302571Y-117854593D01*
X122250303Y-117873565D01*
X122242086Y-117876387D01*
X122231610Y-117879781D01*
X122175454Y-117897973D01*
X122164125Y-117904848D01*
X122151669Y-117909369D01*
X122093059Y-117947796D01*
X122085739Y-117952414D01*
X122035316Y-117983011D01*
X122035313Y-117983013D01*
X122025841Y-117988761D01*
X122017548Y-117996084D01*
X122014837Y-117998795D01*
X122013833Y-117999738D01*
X122005315Y-118005323D01*
X121995368Y-118015823D01*
X121995367Y-118015824D01*
X121953820Y-118059682D01*
X121949123Y-118064509D01*
X121609705Y-118403927D01*
X121528923Y-118457903D01*
X121433635Y-118476857D01*
X121389974Y-118472999D01*
X121319693Y-118460480D01*
X121276756Y-118452831D01*
X121276752Y-118452831D01*
X121266694Y-118451039D01*
X121256474Y-118450914D01*
X121256472Y-118450914D01*
X121116179Y-118449200D01*
X121019972Y-118448025D01*
X120856772Y-118472998D01*
X120786166Y-118483802D01*
X120786165Y-118483802D01*
X120776070Y-118485347D01*
X120766359Y-118488521D01*
X120551250Y-118558829D01*
X120551247Y-118558830D01*
X120541540Y-118562003D01*
X120375475Y-118648451D01*
X120339732Y-118667058D01*
X120322679Y-118675935D01*
X120125364Y-118824083D01*
X120118312Y-118831463D01*
X120118307Y-118831467D01*
X119980987Y-118975165D01*
X119954896Y-119002468D01*
X119939744Y-119024680D01*
X119824531Y-119193576D01*
X119815851Y-119206300D01*
X119711965Y-119430104D01*
X119709238Y-119439939D01*
X119709236Y-119439943D01*
X119652741Y-119643658D01*
X119646026Y-119667871D01*
X119636933Y-119752952D01*
X119621049Y-119901587D01*
X119619806Y-119913214D01*
X119634010Y-120159545D01*
X119636257Y-120169514D01*
X119636257Y-120169517D01*
X119662471Y-120285836D01*
X119688255Y-120400249D01*
X119781084Y-120628861D01*
X119910006Y-120839241D01*
X120071557Y-121025741D01*
X120261399Y-121183351D01*
X120410497Y-121270477D01*
X120426702Y-121279946D01*
X120474433Y-121307838D01*
X120704939Y-121395859D01*
X120714950Y-121397896D01*
X120714954Y-121397897D01*
X120936713Y-121443015D01*
X120936715Y-121443015D01*
X120946726Y-121445052D01*
X121049353Y-121448815D01*
X121183087Y-121453719D01*
X121183093Y-121453719D01*
X121193300Y-121454093D01*
X121203431Y-121452795D01*
X121203436Y-121452795D01*
X121338670Y-121435471D01*
X121438041Y-121422741D01*
X121674374Y-121351838D01*
X121895954Y-121243287D01*
X122043631Y-121137950D01*
X122088512Y-121105937D01*
X122088516Y-121105934D01*
X122096829Y-121100004D01*
X122271605Y-120925837D01*
X122415588Y-120725463D01*
X122524911Y-120504264D01*
X122529079Y-120490548D01*
X122593669Y-120277956D01*
X122593669Y-120277954D01*
X122596639Y-120268180D01*
X122599571Y-120245913D01*
X122627981Y-120030114D01*
X122627981Y-120030111D01*
X122628845Y-120023550D01*
X122629376Y-120001850D01*
X122630481Y-119956625D01*
X122630643Y-119950000D01*
X122629135Y-119931652D01*
X122611262Y-119714271D01*
X122610425Y-119704089D01*
X122607935Y-119694177D01*
X122606267Y-119684100D01*
X122608310Y-119683762D01*
X122604222Y-119601574D01*
X122636896Y-119510078D01*
X122674479Y-119461888D01*
X122727937Y-119408430D01*
X122808719Y-119354454D01*
X122904007Y-119335500D01*
X124782228Y-119335500D01*
X124877516Y-119354454D01*
X124958298Y-119408430D01*
X124986195Y-119441677D01*
X124990267Y-119447493D01*
X124990269Y-119447495D01*
X124996505Y-119456401D01*
X125163599Y-119623495D01*
X125172502Y-119629729D01*
X125178316Y-119633800D01*
X125245502Y-119703980D01*
X125280716Y-119794529D01*
X125284500Y-119837772D01*
X125284500Y-119872228D01*
X125265546Y-119967516D01*
X125211570Y-120048298D01*
X125178323Y-120076195D01*
X125172507Y-120080267D01*
X125172503Y-120080271D01*
X125163599Y-120086505D01*
X124996505Y-120253599D01*
X124860965Y-120447171D01*
X124856369Y-120457027D01*
X124772179Y-120637572D01*
X124761097Y-120661337D01*
X124699937Y-120889592D01*
X124698989Y-120900425D01*
X124698989Y-120900426D01*
X124691658Y-120984222D01*
X124679341Y-121125000D01*
X124680289Y-121135835D01*
X124680289Y-121135836D01*
X124692897Y-121279946D01*
X124682321Y-121376524D01*
X124635590Y-121461702D01*
X124620915Y-121477718D01*
X122097063Y-124001570D01*
X122016281Y-124055546D01*
X121920993Y-124074500D01*
X92914008Y-124074500D01*
X92818720Y-124055546D01*
X92737938Y-124001570D01*
X91501417Y-122765050D01*
X92259914Y-122765050D01*
X92264974Y-122772622D01*
X92322051Y-122812588D01*
X92340807Y-122823416D01*
X92532491Y-122912800D01*
X92552846Y-122920208D01*
X92757145Y-122974950D01*
X92778475Y-122978711D01*
X92989165Y-122997144D01*
X93010835Y-122997144D01*
X93221525Y-122978711D01*
X93242855Y-122974950D01*
X93447154Y-122920208D01*
X93467509Y-122912800D01*
X93659193Y-122823416D01*
X93677949Y-122812588D01*
X93725753Y-122779115D01*
X93740174Y-122764051D01*
X93736507Y-122755717D01*
X93017341Y-122036551D01*
X93000000Y-122024964D01*
X92982659Y-122036551D01*
X92271501Y-122747709D01*
X92259914Y-122765050D01*
X91501417Y-122765050D01*
X91283430Y-122547063D01*
X91229454Y-122466281D01*
X91210500Y-122370993D01*
X91210500Y-122023155D01*
X91229454Y-121927867D01*
X91283430Y-121847085D01*
X91364212Y-121793109D01*
X91459500Y-121774155D01*
X91554788Y-121793109D01*
X91635570Y-121847085D01*
X91689546Y-121927867D01*
X91700016Y-121958709D01*
X91739792Y-122107154D01*
X91747200Y-122127509D01*
X91836584Y-122319193D01*
X91847412Y-122337949D01*
X91880885Y-122385753D01*
X91895949Y-122400174D01*
X91904283Y-122396507D01*
X92623449Y-121677341D01*
X92635036Y-121660000D01*
X93364964Y-121660000D01*
X93376551Y-121677341D01*
X94087709Y-122388499D01*
X94105050Y-122400086D01*
X94112622Y-122395026D01*
X94152588Y-122337949D01*
X94163416Y-122319193D01*
X94252800Y-122127509D01*
X94260208Y-122107154D01*
X94314950Y-121902855D01*
X94318711Y-121881525D01*
X94337144Y-121670835D01*
X94337144Y-121649165D01*
X94318711Y-121438475D01*
X94314950Y-121417145D01*
X94260208Y-121212846D01*
X94252800Y-121192491D01*
X94163416Y-121000807D01*
X94152588Y-120982051D01*
X94119115Y-120934247D01*
X94104051Y-120919826D01*
X94095717Y-120923493D01*
X93376551Y-121642659D01*
X93364964Y-121660000D01*
X92635036Y-121660000D01*
X92623449Y-121642659D01*
X91912291Y-120931501D01*
X91859804Y-120896431D01*
X91842581Y-120889297D01*
X91773882Y-120820598D01*
X91736702Y-120730839D01*
X91736701Y-120633684D01*
X91740402Y-120617813D01*
X91769759Y-120508254D01*
X91776849Y-120493877D01*
X91774017Y-120481103D01*
X91774906Y-120453969D01*
X91789616Y-120285836D01*
X91789616Y-120285824D01*
X91790563Y-120275000D01*
X91789616Y-120264176D01*
X91789616Y-120264164D01*
X91779906Y-120153180D01*
X91790482Y-120056603D01*
X91837213Y-119971424D01*
X91912982Y-119910612D01*
X92006256Y-119883426D01*
X92102833Y-119894002D01*
X92170779Y-119927510D01*
X92325811Y-120036065D01*
X92325817Y-120036069D01*
X92334718Y-120042301D01*
X92344565Y-120046893D01*
X92353986Y-120052332D01*
X92352995Y-120054049D01*
X92419262Y-120102636D01*
X92469665Y-120185694D01*
X92484447Y-120281717D01*
X92461357Y-120376089D01*
X92403910Y-120454440D01*
X92349873Y-120490548D01*
X92350220Y-120491149D01*
X92341057Y-120496439D01*
X92340918Y-120496532D01*
X92340804Y-120496585D01*
X92322051Y-120507412D01*
X92274247Y-120540885D01*
X92259826Y-120555949D01*
X92263493Y-120564283D01*
X92982659Y-121283449D01*
X93000000Y-121295036D01*
X93017341Y-121283449D01*
X93728499Y-120572291D01*
X93740086Y-120554950D01*
X93735026Y-120547378D01*
X93677949Y-120507412D01*
X93659196Y-120496585D01*
X93659082Y-120496532D01*
X93659001Y-120496473D01*
X93649780Y-120491149D01*
X93650363Y-120490139D01*
X93580732Y-120439082D01*
X93530332Y-120356023D01*
X93515553Y-120259999D01*
X93538646Y-120165628D01*
X93596096Y-120087278D01*
X93646678Y-120053482D01*
X93646014Y-120052332D01*
X93655436Y-120046892D01*
X93665282Y-120042301D01*
X93679742Y-120032176D01*
X93846368Y-119915503D01*
X93846371Y-119915500D01*
X93855269Y-119909270D01*
X94019270Y-119745269D01*
X94045261Y-119708151D01*
X94146069Y-119564181D01*
X94152301Y-119555281D01*
X94166655Y-119524500D01*
X94210672Y-119430104D01*
X94250320Y-119345079D01*
X94310349Y-119121050D01*
X94315846Y-119058224D01*
X94329616Y-118900824D01*
X94330563Y-118890000D01*
X94316511Y-118729383D01*
X94311296Y-118669773D01*
X94311296Y-118669772D01*
X94310349Y-118658950D01*
X94301050Y-118624244D01*
X94274261Y-118524270D01*
X94250320Y-118434921D01*
X94152301Y-118224719D01*
X94107288Y-118160434D01*
X94025503Y-118043632D01*
X94025500Y-118043629D01*
X94019270Y-118034731D01*
X93855269Y-117870730D01*
X93846371Y-117864500D01*
X93846368Y-117864497D01*
X93674181Y-117743930D01*
X93674180Y-117743929D01*
X93665282Y-117737699D01*
X93650211Y-117730671D01*
X93646489Y-117727942D01*
X93646014Y-117727668D01*
X93646044Y-117727616D01*
X93571862Y-117673224D01*
X93521459Y-117590165D01*
X93506679Y-117494141D01*
X93529770Y-117399770D01*
X93587218Y-117321420D01*
X93650211Y-117279329D01*
X93665282Y-117272301D01*
X93674188Y-117266065D01*
X93846368Y-117145503D01*
X93846371Y-117145500D01*
X93855269Y-117139270D01*
X94019270Y-116975269D01*
X94066728Y-116907493D01*
X94146069Y-116794181D01*
X94152301Y-116785281D01*
X94250320Y-116575079D01*
X94310349Y-116351050D01*
X94315846Y-116288224D01*
X94329616Y-116130824D01*
X94330563Y-116120000D01*
X94318780Y-115985320D01*
X94311296Y-115899773D01*
X94311296Y-115899772D01*
X94310349Y-115888950D01*
X94250320Y-115664921D01*
X94152301Y-115454719D01*
X94100820Y-115381196D01*
X94025503Y-115273632D01*
X94025500Y-115273629D01*
X94019270Y-115264731D01*
X93855269Y-115100730D01*
X93846371Y-115094500D01*
X93846368Y-115094497D01*
X93674181Y-114973930D01*
X93674180Y-114973929D01*
X93665282Y-114967699D01*
X93650211Y-114960671D01*
X93646489Y-114957942D01*
X93646014Y-114957668D01*
X93646044Y-114957616D01*
X93571862Y-114903224D01*
X93521459Y-114820165D01*
X93506679Y-114724141D01*
X93529770Y-114629770D01*
X93587218Y-114551420D01*
X93650211Y-114509329D01*
X93665282Y-114502301D01*
X93677921Y-114493451D01*
X93846368Y-114375503D01*
X93846371Y-114375500D01*
X93855269Y-114369270D01*
X94019270Y-114205269D01*
X94152301Y-114015281D01*
X94170137Y-113977033D01*
X94245729Y-113814924D01*
X94250320Y-113805079D01*
X94310349Y-113581050D01*
X94315846Y-113518224D01*
X94329616Y-113360824D01*
X94330563Y-113350000D01*
X94318780Y-113215320D01*
X94311296Y-113129773D01*
X94311296Y-113129772D01*
X94310349Y-113118950D01*
X94250320Y-112894921D01*
X94152301Y-112684719D01*
X94019270Y-112494731D01*
X93855269Y-112330730D01*
X93846371Y-112324500D01*
X93846368Y-112324497D01*
X93674181Y-112203930D01*
X93674180Y-112203929D01*
X93665282Y-112197699D01*
X93650211Y-112190671D01*
X93646489Y-112187942D01*
X93646014Y-112187668D01*
X93646044Y-112187616D01*
X93571862Y-112133224D01*
X93521459Y-112050165D01*
X93506679Y-111954141D01*
X93529770Y-111859770D01*
X93587218Y-111781420D01*
X93650211Y-111739329D01*
X93665282Y-111732301D01*
X93746959Y-111675110D01*
X93846368Y-111605503D01*
X93846371Y-111605500D01*
X93855269Y-111599270D01*
X94019270Y-111435269D01*
X94152301Y-111245281D01*
X94173395Y-111200046D01*
X94245729Y-111044924D01*
X94250320Y-111035079D01*
X94310349Y-110811050D01*
X94315846Y-110748224D01*
X94329616Y-110590824D01*
X94330563Y-110580000D01*
X94318780Y-110445320D01*
X94311296Y-110359773D01*
X94311296Y-110359772D01*
X94310349Y-110348950D01*
X94250320Y-110124921D01*
X94152301Y-109914719D01*
X94098455Y-109837819D01*
X94025503Y-109733632D01*
X94025500Y-109733629D01*
X94019270Y-109724731D01*
X93855269Y-109560730D01*
X93846371Y-109554500D01*
X93846368Y-109554497D01*
X93674181Y-109433930D01*
X93674180Y-109433929D01*
X93665282Y-109427699D01*
X93650211Y-109420671D01*
X93646489Y-109417942D01*
X93646014Y-109417668D01*
X93646044Y-109417616D01*
X93571862Y-109363224D01*
X93521459Y-109280165D01*
X93506679Y-109184141D01*
X93529770Y-109089770D01*
X93587218Y-109011420D01*
X93650211Y-108969329D01*
X93665282Y-108962301D01*
X93677921Y-108953451D01*
X93846368Y-108835503D01*
X93846371Y-108835500D01*
X93855269Y-108829270D01*
X94019270Y-108665269D01*
X94152301Y-108475281D01*
X94175748Y-108425000D01*
X94245729Y-108274924D01*
X94250320Y-108265079D01*
X94310349Y-108041050D01*
X94315846Y-107978224D01*
X94329616Y-107820824D01*
X94330563Y-107810000D01*
X94316922Y-107654075D01*
X94311296Y-107589773D01*
X94311296Y-107589772D01*
X94310349Y-107578950D01*
X94250320Y-107354921D01*
X94193428Y-107232915D01*
X94156893Y-107154566D01*
X94156892Y-107154564D01*
X94152301Y-107144719D01*
X94099521Y-107069341D01*
X94025503Y-106963632D01*
X94025500Y-106963629D01*
X94019270Y-106954731D01*
X93855269Y-106790730D01*
X93846371Y-106784500D01*
X93846368Y-106784497D01*
X93674181Y-106663930D01*
X93674180Y-106663929D01*
X93665282Y-106657699D01*
X93650211Y-106650671D01*
X93646489Y-106647942D01*
X93646014Y-106647668D01*
X93646044Y-106647616D01*
X93571862Y-106593224D01*
X93521459Y-106510165D01*
X93506679Y-106414141D01*
X93529770Y-106319770D01*
X93587218Y-106241420D01*
X93650211Y-106199329D01*
X93665282Y-106192301D01*
X93726017Y-106149774D01*
X93846368Y-106065503D01*
X93846371Y-106065500D01*
X93855269Y-106059270D01*
X94019270Y-105895269D01*
X94026461Y-105885000D01*
X94146069Y-105714181D01*
X94152301Y-105705281D01*
X94178101Y-105649954D01*
X94245729Y-105504924D01*
X94250320Y-105495079D01*
X94304410Y-105293214D01*
X94307536Y-105281549D01*
X94307536Y-105281547D01*
X94310349Y-105271050D01*
X94315846Y-105208224D01*
X94329616Y-105050824D01*
X94330563Y-105040000D01*
X94315988Y-104873401D01*
X94311296Y-104819773D01*
X94311296Y-104819772D01*
X94310349Y-104808950D01*
X94300303Y-104771456D01*
X94272820Y-104668892D01*
X94250320Y-104584921D01*
X94172438Y-104417903D01*
X94156893Y-104384566D01*
X94156892Y-104384564D01*
X94152301Y-104374719D01*
X94095244Y-104293233D01*
X94025503Y-104193632D01*
X94025500Y-104193629D01*
X94019270Y-104184731D01*
X93855269Y-104020730D01*
X93846371Y-104014500D01*
X93846368Y-104014497D01*
X93674181Y-103893930D01*
X93674180Y-103893929D01*
X93665282Y-103887699D01*
X93650211Y-103880671D01*
X93646489Y-103877942D01*
X93646014Y-103877668D01*
X93646044Y-103877616D01*
X93571862Y-103823224D01*
X93521459Y-103740165D01*
X93506679Y-103644141D01*
X93529770Y-103549770D01*
X93587218Y-103471420D01*
X93650211Y-103429329D01*
X93665282Y-103422301D01*
X93674188Y-103416065D01*
X93846368Y-103295503D01*
X93846371Y-103295500D01*
X93855269Y-103289270D01*
X94019270Y-103125269D01*
X94030248Y-103109592D01*
X94146069Y-102944181D01*
X94152301Y-102935281D01*
X94250320Y-102725079D01*
X94290916Y-102573576D01*
X94307536Y-102511549D01*
X94307536Y-102511547D01*
X94310349Y-102501050D01*
X94315846Y-102438224D01*
X94329616Y-102280824D01*
X94330563Y-102270000D01*
X94317286Y-102118237D01*
X94311296Y-102049773D01*
X94311296Y-102049772D01*
X94310349Y-102038950D01*
X94305568Y-102021105D01*
X94274261Y-101904270D01*
X94250320Y-101814921D01*
X94185727Y-101676401D01*
X94156893Y-101614566D01*
X94156892Y-101614564D01*
X94152301Y-101604719D01*
X94066953Y-101482829D01*
X94025503Y-101423632D01*
X94025500Y-101423629D01*
X94019270Y-101414731D01*
X93855269Y-101250730D01*
X93846371Y-101244500D01*
X93846368Y-101244497D01*
X93674181Y-101123930D01*
X93674180Y-101123929D01*
X93665282Y-101117699D01*
X93650211Y-101110671D01*
X93646489Y-101107942D01*
X93646014Y-101107668D01*
X93646044Y-101107616D01*
X93571862Y-101053224D01*
X93521459Y-100970165D01*
X93506679Y-100874141D01*
X93529770Y-100779770D01*
X93587218Y-100701420D01*
X93650211Y-100659329D01*
X93665282Y-100652301D01*
X93714964Y-100617513D01*
X93846368Y-100525503D01*
X93846371Y-100525500D01*
X93855269Y-100519270D01*
X94019270Y-100355269D01*
X94029026Y-100341337D01*
X94146069Y-100174181D01*
X94152301Y-100165281D01*
X94174227Y-100118262D01*
X94241999Y-99972924D01*
X94250320Y-99955079D01*
X94300849Y-99766505D01*
X94307536Y-99741549D01*
X94307536Y-99741547D01*
X94310349Y-99731050D01*
X94315846Y-99668224D01*
X94329616Y-99510824D01*
X94330563Y-99500000D01*
X94321920Y-99401211D01*
X94311296Y-99279773D01*
X94311296Y-99279772D01*
X94310349Y-99268950D01*
X94306351Y-99254027D01*
X94272445Y-99127493D01*
X94250320Y-99044921D01*
X94152301Y-98834719D01*
X94054109Y-98694486D01*
X94025503Y-98653632D01*
X94025500Y-98653629D01*
X94019270Y-98644731D01*
X93855269Y-98480730D01*
X93846371Y-98474500D01*
X93846368Y-98474497D01*
X93674181Y-98353930D01*
X93674180Y-98353929D01*
X93665282Y-98347699D01*
X93650211Y-98340671D01*
X93646489Y-98337942D01*
X93646014Y-98337668D01*
X93646044Y-98337616D01*
X93571862Y-98283224D01*
X93521459Y-98200165D01*
X93506679Y-98104141D01*
X93529770Y-98009770D01*
X93587218Y-97931420D01*
X93650211Y-97889329D01*
X93665282Y-97882301D01*
X93685903Y-97867862D01*
X93846368Y-97755503D01*
X93846371Y-97755500D01*
X93855269Y-97749270D01*
X94019270Y-97585269D01*
X94031362Y-97568001D01*
X94146069Y-97404181D01*
X94152301Y-97395281D01*
X94250320Y-97185079D01*
X94310349Y-96961050D01*
X94315846Y-96898224D01*
X94329616Y-96740824D01*
X94330563Y-96730000D01*
X94318095Y-96587493D01*
X94311296Y-96509773D01*
X94311296Y-96509772D01*
X94310349Y-96498950D01*
X94250320Y-96274921D01*
X94152301Y-96064719D01*
X94107288Y-96000434D01*
X94025503Y-95883632D01*
X94025500Y-95883629D01*
X94019270Y-95874731D01*
X93855269Y-95710730D01*
X93846371Y-95704500D01*
X93846368Y-95704497D01*
X93674181Y-95583930D01*
X93674180Y-95583929D01*
X93665282Y-95577699D01*
X93650211Y-95570671D01*
X93646489Y-95567942D01*
X93646014Y-95567668D01*
X93646044Y-95567616D01*
X93571862Y-95513224D01*
X93521459Y-95430165D01*
X93506679Y-95334141D01*
X93529770Y-95239770D01*
X93587218Y-95161420D01*
X93650211Y-95119329D01*
X93665282Y-95112301D01*
X93685179Y-95098369D01*
X93846368Y-94985503D01*
X93846371Y-94985500D01*
X93855269Y-94979270D01*
X94019270Y-94815269D01*
X94028648Y-94801877D01*
X94146069Y-94634181D01*
X94152301Y-94625281D01*
X94172725Y-94581483D01*
X94231704Y-94455000D01*
X94250320Y-94415079D01*
X94310349Y-94191050D01*
X94314204Y-94146993D01*
X94329616Y-93970824D01*
X94330563Y-93960000D01*
X94321357Y-93854770D01*
X94311296Y-93739773D01*
X94311296Y-93739772D01*
X94310349Y-93728950D01*
X94250320Y-93504921D01*
X94172172Y-93337332D01*
X94156893Y-93304566D01*
X94156892Y-93304564D01*
X94152301Y-93294719D01*
X94067888Y-93174165D01*
X94025503Y-93113632D01*
X94025500Y-93113629D01*
X94019270Y-93104731D01*
X93855269Y-92940730D01*
X93846371Y-92934500D01*
X93846368Y-92934497D01*
X93674181Y-92813930D01*
X93674180Y-92813929D01*
X93665282Y-92807699D01*
X93650211Y-92800671D01*
X93646489Y-92797942D01*
X93646014Y-92797668D01*
X93646044Y-92797616D01*
X93571862Y-92743224D01*
X93521459Y-92660165D01*
X93506679Y-92564141D01*
X93529770Y-92469770D01*
X93587218Y-92391420D01*
X93650211Y-92349329D01*
X93665282Y-92342301D01*
X93694493Y-92321847D01*
X93846368Y-92215503D01*
X93846371Y-92215500D01*
X93855269Y-92209270D01*
X94019270Y-92045269D01*
X94152301Y-91855281D01*
X94160864Y-91836919D01*
X94228570Y-91691721D01*
X94250320Y-91645079D01*
X94302337Y-91450950D01*
X94307536Y-91431549D01*
X94307536Y-91431547D01*
X94310349Y-91421050D01*
X94315846Y-91358224D01*
X94329616Y-91200824D01*
X94330563Y-91190000D01*
X94316323Y-91027234D01*
X94311296Y-90969773D01*
X94311296Y-90969772D01*
X94310349Y-90958950D01*
X94306004Y-90942732D01*
X94275931Y-90830503D01*
X94250320Y-90734921D01*
X94202820Y-90633058D01*
X94156893Y-90534566D01*
X94156892Y-90534564D01*
X94152301Y-90524719D01*
X94071688Y-90409592D01*
X94025503Y-90343632D01*
X94025500Y-90343629D01*
X94019270Y-90334731D01*
X93855269Y-90170730D01*
X93846371Y-90164500D01*
X93846368Y-90164497D01*
X93674181Y-90043930D01*
X93674180Y-90043929D01*
X93665282Y-90037699D01*
X93650211Y-90030671D01*
X93646489Y-90027942D01*
X93646014Y-90027668D01*
X93646044Y-90027616D01*
X93571862Y-89973224D01*
X93521459Y-89890165D01*
X93506679Y-89794141D01*
X93529770Y-89699770D01*
X93587218Y-89621420D01*
X93650211Y-89579329D01*
X93665282Y-89572301D01*
X93696303Y-89550580D01*
X93846368Y-89445503D01*
X93846371Y-89445500D01*
X93855269Y-89439270D01*
X94019270Y-89275269D01*
X94028010Y-89262788D01*
X94146069Y-89094181D01*
X94152301Y-89085281D01*
X94250320Y-88875079D01*
X94310349Y-88651050D01*
X94313036Y-88620343D01*
X94329616Y-88430824D01*
X94330563Y-88420000D01*
X94318780Y-88285320D01*
X94311296Y-88199773D01*
X94311296Y-88199772D01*
X94310349Y-88188950D01*
X94250320Y-87964921D01*
X94152301Y-87754719D01*
X94107288Y-87690434D01*
X94025503Y-87573632D01*
X94025500Y-87573629D01*
X94019270Y-87564731D01*
X93855269Y-87400730D01*
X93846371Y-87394500D01*
X93846368Y-87394497D01*
X93674181Y-87273930D01*
X93674180Y-87273929D01*
X93665282Y-87267699D01*
X93650211Y-87260671D01*
X93646489Y-87257942D01*
X93646014Y-87257668D01*
X93646044Y-87257616D01*
X93571862Y-87203224D01*
X93521459Y-87120165D01*
X93506679Y-87024141D01*
X93529770Y-86929770D01*
X93587218Y-86851420D01*
X93650211Y-86809329D01*
X93665282Y-86802301D01*
X93695553Y-86781105D01*
X93846368Y-86675503D01*
X93846371Y-86675500D01*
X93855269Y-86669270D01*
X94019270Y-86505269D01*
X94073730Y-86427493D01*
X94146069Y-86324181D01*
X94152301Y-86315281D01*
X94157839Y-86303406D01*
X94245729Y-86114924D01*
X94250320Y-86105079D01*
X94310349Y-85881050D01*
X94315846Y-85818224D01*
X94329616Y-85660824D01*
X94330563Y-85650000D01*
X94317920Y-85505486D01*
X94311296Y-85429773D01*
X94311296Y-85429772D01*
X94310349Y-85418950D01*
X94250320Y-85194921D01*
X94202085Y-85091480D01*
X94156893Y-84994566D01*
X94156892Y-84994564D01*
X94152301Y-84984719D01*
X94093818Y-84901196D01*
X94025503Y-84803632D01*
X94025500Y-84803629D01*
X94019270Y-84794731D01*
X94015885Y-84791346D01*
X115842001Y-84791346D01*
X115842729Y-84804792D01*
X115847062Y-84844685D01*
X115854228Y-84874826D01*
X115893600Y-84979850D01*
X115910469Y-85010660D01*
X115976453Y-85098703D01*
X116001297Y-85123547D01*
X116089340Y-85189531D01*
X116120150Y-85206400D01*
X116225178Y-85245773D01*
X116255309Y-85252938D01*
X116295214Y-85257273D01*
X116308650Y-85258000D01*
X116546473Y-85258000D01*
X116566931Y-85253931D01*
X116571000Y-85233473D01*
X116571000Y-84753527D01*
X116566931Y-84733069D01*
X116546473Y-84729000D01*
X115866528Y-84729000D01*
X115846070Y-84733069D01*
X115842001Y-84753527D01*
X115842001Y-84791346D01*
X94015885Y-84791346D01*
X93855269Y-84630730D01*
X93846371Y-84624500D01*
X93846368Y-84624497D01*
X93674181Y-84503930D01*
X93674180Y-84503929D01*
X93665282Y-84497699D01*
X93650211Y-84490671D01*
X93646489Y-84487942D01*
X93646014Y-84487668D01*
X93646044Y-84487616D01*
X93571862Y-84433224D01*
X93521459Y-84350165D01*
X93506679Y-84254141D01*
X93520789Y-84196473D01*
X115842000Y-84196473D01*
X115846069Y-84216931D01*
X115866527Y-84221000D01*
X116546473Y-84221000D01*
X116566931Y-84216931D01*
X116571000Y-84196473D01*
X116571000Y-83503527D01*
X116566931Y-83483069D01*
X116546473Y-83479000D01*
X115866528Y-83479000D01*
X115846070Y-83483069D01*
X115842001Y-83503527D01*
X115842001Y-83541346D01*
X115842729Y-83554792D01*
X115847062Y-83594685D01*
X115854228Y-83624826D01*
X115893602Y-83729854D01*
X115893914Y-83730424D01*
X115894425Y-83732050D01*
X115899828Y-83746462D01*
X115899047Y-83746755D01*
X115923049Y-83823108D01*
X115914496Y-83919886D01*
X115893914Y-83969576D01*
X115893602Y-83970146D01*
X115854227Y-84075178D01*
X115847062Y-84105309D01*
X115842727Y-84145214D01*
X115842000Y-84158650D01*
X115842000Y-84196473D01*
X93520789Y-84196473D01*
X93529770Y-84159770D01*
X93587218Y-84081420D01*
X93650211Y-84039329D01*
X93665282Y-84032301D01*
X93677921Y-84023451D01*
X93846368Y-83905503D01*
X93846371Y-83905500D01*
X93855269Y-83899270D01*
X94019270Y-83735269D01*
X94152301Y-83545281D01*
X94174800Y-83497033D01*
X94245729Y-83344924D01*
X94250320Y-83335079D01*
X94290916Y-83183576D01*
X94307536Y-83121549D01*
X94307536Y-83121547D01*
X94310349Y-83111050D01*
X94313110Y-83079497D01*
X94329616Y-82890824D01*
X94330563Y-82880000D01*
X94316528Y-82719576D01*
X94311296Y-82659773D01*
X94311296Y-82659772D01*
X94310349Y-82648950D01*
X94302446Y-82619454D01*
X94274261Y-82514270D01*
X94250320Y-82424921D01*
X94186161Y-82287332D01*
X94156893Y-82224566D01*
X94156892Y-82224564D01*
X94152301Y-82214719D01*
X94019270Y-82024731D01*
X93855269Y-81860730D01*
X93846371Y-81854500D01*
X93846368Y-81854497D01*
X93674181Y-81733930D01*
X93674180Y-81733929D01*
X93665282Y-81727699D01*
X93650211Y-81720671D01*
X93646489Y-81717942D01*
X93646014Y-81717668D01*
X93646044Y-81717616D01*
X93571862Y-81663224D01*
X93521459Y-81580165D01*
X93506679Y-81484141D01*
X93529770Y-81389770D01*
X93587218Y-81311420D01*
X93650211Y-81269329D01*
X93665282Y-81262301D01*
X93677921Y-81253451D01*
X93846368Y-81135503D01*
X93846371Y-81135500D01*
X93855269Y-81129270D01*
X94019270Y-80965269D01*
X94152301Y-80775281D01*
X94162938Y-80752471D01*
X94245729Y-80574924D01*
X94250320Y-80565079D01*
X94310349Y-80341050D01*
X94311918Y-80323123D01*
X94329616Y-80120824D01*
X94330563Y-80110000D01*
X94324032Y-80035349D01*
X94311296Y-79889773D01*
X94311296Y-79889772D01*
X94310349Y-79878950D01*
X94303725Y-79854227D01*
X94274261Y-79744270D01*
X94250320Y-79654921D01*
X94152301Y-79444719D01*
X94019270Y-79254731D01*
X93855269Y-79090730D01*
X93846371Y-79084500D01*
X93846368Y-79084497D01*
X93674181Y-78963930D01*
X93674180Y-78963929D01*
X93665282Y-78957699D01*
X93650211Y-78950671D01*
X93646489Y-78947942D01*
X93646014Y-78947668D01*
X93646044Y-78947616D01*
X93571862Y-78893224D01*
X93521459Y-78810165D01*
X93506679Y-78714141D01*
X93529770Y-78619770D01*
X93587218Y-78541420D01*
X93650211Y-78499329D01*
X93665282Y-78492301D01*
X93677921Y-78483451D01*
X93846368Y-78365503D01*
X93846371Y-78365500D01*
X93855269Y-78359270D01*
X94019270Y-78195269D01*
X94152301Y-78005281D01*
X94250320Y-77795079D01*
X94310349Y-77571050D01*
X94315846Y-77508224D01*
X94329616Y-77350824D01*
X94330563Y-77340000D01*
X94316047Y-77174075D01*
X94311296Y-77119773D01*
X94311296Y-77119772D01*
X94310349Y-77108950D01*
X94250320Y-76884921D01*
X94195883Y-76768180D01*
X94156893Y-76684566D01*
X94156892Y-76684564D01*
X94152301Y-76674719D01*
X94107288Y-76610434D01*
X94025503Y-76493632D01*
X94025500Y-76493629D01*
X94019270Y-76484731D01*
X93855269Y-76320730D01*
X93846371Y-76314500D01*
X93846368Y-76314497D01*
X93674181Y-76193930D01*
X93674180Y-76193929D01*
X93665282Y-76187699D01*
X93650211Y-76180671D01*
X93646489Y-76177942D01*
X93646014Y-76177668D01*
X93646044Y-76177616D01*
X93571862Y-76123224D01*
X93521459Y-76040165D01*
X93506679Y-75944141D01*
X93529770Y-75849770D01*
X93587218Y-75771420D01*
X93650211Y-75729329D01*
X93665282Y-75722301D01*
X93674188Y-75716065D01*
X93846368Y-75595503D01*
X93846371Y-75595500D01*
X93855269Y-75589270D01*
X94019270Y-75425269D01*
X94041050Y-75394165D01*
X94146069Y-75244181D01*
X94152301Y-75235281D01*
X94172959Y-75190981D01*
X94227852Y-75073262D01*
X94250320Y-75025079D01*
X94298478Y-74845354D01*
X94307536Y-74811549D01*
X94307536Y-74811547D01*
X94310349Y-74801050D01*
X94312809Y-74772938D01*
X94329616Y-74580824D01*
X94330563Y-74570000D01*
X94318780Y-74435320D01*
X94311296Y-74349773D01*
X94311296Y-74349772D01*
X94310349Y-74338950D01*
X94250320Y-74114921D01*
X94172345Y-73947703D01*
X94156893Y-73914566D01*
X94156892Y-73914564D01*
X94152301Y-73904719D01*
X94110559Y-73845105D01*
X94025503Y-73723632D01*
X94025500Y-73723629D01*
X94019270Y-73714731D01*
X93855269Y-73550730D01*
X93852948Y-73549105D01*
X93794382Y-73476133D01*
X93767195Y-73382859D01*
X93777773Y-73286282D01*
X93824503Y-73201104D01*
X93900273Y-73140292D01*
X93935543Y-73127149D01*
X93935207Y-73126252D01*
X94054850Y-73081400D01*
X94085660Y-73064531D01*
X94127596Y-73033102D01*
X98531862Y-73033102D01*
X98535165Y-73038044D01*
X98538627Y-73040773D01*
X98704923Y-73142681D01*
X98722305Y-73151537D01*
X98923523Y-73234884D01*
X98942073Y-73240912D01*
X99153849Y-73291755D01*
X99173128Y-73294808D01*
X99390241Y-73311895D01*
X99409759Y-73311895D01*
X99626872Y-73294808D01*
X99646151Y-73291755D01*
X99857927Y-73240912D01*
X99876477Y-73234884D01*
X100077695Y-73151537D01*
X100095077Y-73142681D01*
X100252981Y-73045916D01*
X100268296Y-73031759D01*
X100266239Y-73026181D01*
X100263512Y-73022722D01*
X99417341Y-72176551D01*
X99400000Y-72164964D01*
X99382659Y-72176551D01*
X98543449Y-73015761D01*
X98531862Y-73033102D01*
X94127596Y-73033102D01*
X94173703Y-72998547D01*
X94198547Y-72973703D01*
X94264531Y-72885660D01*
X94281400Y-72854850D01*
X94320773Y-72749822D01*
X94327938Y-72719691D01*
X94332273Y-72679786D01*
X94333000Y-72666350D01*
X94333000Y-72078527D01*
X94328931Y-72058069D01*
X94308473Y-72054000D01*
X91691528Y-72054000D01*
X91669877Y-72058307D01*
X91649341Y-72089042D01*
X91580643Y-72157742D01*
X91490884Y-72194922D01*
X91393729Y-72194923D01*
X91299483Y-72154676D01*
X91134181Y-72038930D01*
X91134180Y-72038929D01*
X91125282Y-72032699D01*
X90915079Y-71934680D01*
X90772456Y-71896464D01*
X90701549Y-71877464D01*
X90701547Y-71877464D01*
X90691050Y-71874651D01*
X90680228Y-71873704D01*
X90680227Y-71873704D01*
X90470824Y-71855384D01*
X90460000Y-71854437D01*
X90449176Y-71855384D01*
X90239773Y-71873704D01*
X90239772Y-71873704D01*
X90228950Y-71874651D01*
X90218453Y-71877464D01*
X90218451Y-71877464D01*
X90147544Y-71896464D01*
X90004921Y-71934680D01*
X89995076Y-71939271D01*
X89804566Y-72028107D01*
X89804564Y-72028108D01*
X89794719Y-72032699D01*
X89785819Y-72038931D01*
X89613632Y-72159497D01*
X89613629Y-72159500D01*
X89604731Y-72165730D01*
X89440730Y-72329731D01*
X89434495Y-72338636D01*
X89429707Y-72344342D01*
X89353939Y-72405156D01*
X89259145Y-72432473D01*
X89244304Y-72433680D01*
X89235614Y-72434033D01*
X89235617Y-72434081D01*
X89228404Y-72434500D01*
X89221178Y-72434500D01*
X89214004Y-72435336D01*
X89213994Y-72435337D01*
X89195371Y-72437508D01*
X89186725Y-72438363D01*
X89131358Y-72442866D01*
X89131354Y-72442867D01*
X89116941Y-72444039D01*
X89104337Y-72448122D01*
X89091172Y-72449657D01*
X89077578Y-72454591D01*
X89077571Y-72454593D01*
X89025303Y-72473565D01*
X89017086Y-72476387D01*
X88950454Y-72497973D01*
X88939125Y-72504848D01*
X88926669Y-72509369D01*
X88868058Y-72547796D01*
X88860739Y-72552413D01*
X88810325Y-72583005D01*
X88810323Y-72583007D01*
X88800840Y-72588761D01*
X88792548Y-72596085D01*
X88789836Y-72598797D01*
X88788838Y-72599735D01*
X88780315Y-72605323D01*
X88757325Y-72629592D01*
X88728803Y-72659700D01*
X88724106Y-72664527D01*
X86797883Y-74590750D01*
X86774579Y-74610777D01*
X86771330Y-74613806D01*
X86759676Y-74622383D01*
X86750311Y-74633407D01*
X86750306Y-74633411D01*
X86729094Y-74658379D01*
X86723212Y-74664759D01*
X86723248Y-74664791D01*
X86718436Y-74670197D01*
X86713330Y-74675303D01*
X86697220Y-74695665D01*
X86691737Y-74702352D01*
X86646368Y-74755755D01*
X86640343Y-74767555D01*
X86632119Y-74777949D01*
X86625992Y-74791058D01*
X86625988Y-74791065D01*
X86602451Y-74841425D01*
X86598635Y-74849232D01*
X86586205Y-74873576D01*
X86566781Y-74911616D01*
X86563631Y-74924490D01*
X86558021Y-74936493D01*
X86555075Y-74950658D01*
X86555074Y-74950660D01*
X86543755Y-75005078D01*
X86541844Y-75013525D01*
X86525185Y-75081606D01*
X86524500Y-75092648D01*
X86524500Y-75096526D01*
X86524459Y-75097845D01*
X86522382Y-75107831D01*
X86522773Y-75122291D01*
X86522773Y-75122294D01*
X86524409Y-75182737D01*
X86524500Y-75189473D01*
X86524500Y-118624244D01*
X86522182Y-118654894D01*
X86522027Y-118659332D01*
X86519852Y-118673630D01*
X83000000Y-118673630D01*
X83000000Y-71809759D01*
X97888105Y-71809759D01*
X97905192Y-72026872D01*
X97908245Y-72046151D01*
X97959088Y-72257927D01*
X97965116Y-72276477D01*
X98048463Y-72477695D01*
X98057319Y-72495077D01*
X98154084Y-72652981D01*
X98168241Y-72668296D01*
X98173819Y-72666239D01*
X98177278Y-72663512D01*
X99023449Y-71817341D01*
X99035036Y-71800000D01*
X99764964Y-71800000D01*
X99776551Y-71817341D01*
X100615761Y-72656551D01*
X100633102Y-72668138D01*
X100638044Y-72664835D01*
X100640773Y-72661373D01*
X100742681Y-72495077D01*
X100751537Y-72477695D01*
X100834884Y-72276477D01*
X100840912Y-72257927D01*
X100891755Y-72046151D01*
X100894808Y-72026872D01*
X100911895Y-71809759D01*
X100911895Y-71790241D01*
X100894808Y-71573128D01*
X100891755Y-71553849D01*
X100840912Y-71342073D01*
X100834884Y-71323523D01*
X100751537Y-71122305D01*
X100742681Y-71104923D01*
X100645916Y-70947019D01*
X100631759Y-70931704D01*
X100626181Y-70933761D01*
X100622722Y-70936488D01*
X99776551Y-71782659D01*
X99764964Y-71800000D01*
X99035036Y-71800000D01*
X99023449Y-71782659D01*
X98184239Y-70943449D01*
X98166898Y-70931862D01*
X98161956Y-70935165D01*
X98159227Y-70938627D01*
X98057319Y-71104923D01*
X98048463Y-71122305D01*
X97965116Y-71323523D01*
X97959088Y-71342073D01*
X97908245Y-71553849D01*
X97905192Y-71573128D01*
X97888105Y-71790241D01*
X97888105Y-71809759D01*
X83000000Y-71809759D01*
X83000000Y-71521473D01*
X91667000Y-71521473D01*
X91671069Y-71541931D01*
X91691527Y-71546000D01*
X92721473Y-71546000D01*
X92741931Y-71541931D01*
X92746000Y-71521473D01*
X93254000Y-71521473D01*
X93258069Y-71541931D01*
X93278527Y-71546000D01*
X94308472Y-71546000D01*
X94328930Y-71541931D01*
X94332999Y-71521473D01*
X94332999Y-70933654D01*
X94332271Y-70920208D01*
X94327938Y-70880315D01*
X94320772Y-70850174D01*
X94281400Y-70745150D01*
X94264531Y-70714340D01*
X94198547Y-70626297D01*
X94173703Y-70601453D01*
X94129388Y-70568241D01*
X98531704Y-70568241D01*
X98533761Y-70573819D01*
X98536488Y-70577278D01*
X99382659Y-71423449D01*
X99400000Y-71435036D01*
X99417341Y-71423449D01*
X100256551Y-70584239D01*
X100268138Y-70566898D01*
X100264835Y-70561956D01*
X100261373Y-70559227D01*
X100095077Y-70457319D01*
X100077695Y-70448463D01*
X99876477Y-70365116D01*
X99857927Y-70359088D01*
X99646151Y-70308245D01*
X99626872Y-70305192D01*
X99409759Y-70288105D01*
X99390241Y-70288105D01*
X99173128Y-70305192D01*
X99153849Y-70308245D01*
X98942073Y-70359088D01*
X98923523Y-70365116D01*
X98722305Y-70448463D01*
X98704923Y-70457319D01*
X98547019Y-70554084D01*
X98531704Y-70568241D01*
X94129388Y-70568241D01*
X94085660Y-70535469D01*
X94054850Y-70518600D01*
X93949822Y-70479227D01*
X93919691Y-70472062D01*
X93879786Y-70467727D01*
X93866350Y-70467000D01*
X93278527Y-70467000D01*
X93258069Y-70471069D01*
X93254000Y-70491527D01*
X93254000Y-71521473D01*
X92746000Y-71521473D01*
X92746000Y-70491528D01*
X92741931Y-70471070D01*
X92721473Y-70467001D01*
X92133654Y-70467001D01*
X92120208Y-70467729D01*
X92080315Y-70472062D01*
X92050174Y-70479228D01*
X91945150Y-70518600D01*
X91914340Y-70535469D01*
X91826297Y-70601453D01*
X91801453Y-70626297D01*
X91735469Y-70714340D01*
X91718600Y-70745150D01*
X91679227Y-70850178D01*
X91672062Y-70880309D01*
X91667727Y-70920214D01*
X91667000Y-70933650D01*
X91667000Y-71521473D01*
X83000000Y-71521473D01*
X83000000Y-67209756D01*
X89865208Y-67209756D01*
X89874133Y-67223113D01*
X89891526Y-67238939D01*
X89902660Y-67247956D01*
X90163352Y-67435281D01*
X90175443Y-67442955D01*
X90455930Y-67599073D01*
X90468836Y-67605311D01*
X90765413Y-67728157D01*
X90778924Y-67732862D01*
X91087669Y-67820811D01*
X91101642Y-67823934D01*
X91418432Y-67875811D01*
X91432683Y-67877309D01*
X91753348Y-67892431D01*
X91767659Y-67892280D01*
X91792758Y-67890569D01*
X125513292Y-67890569D01*
X125513638Y-67899366D01*
X125515606Y-67949468D01*
X125519983Y-68060852D01*
X125523691Y-68155231D01*
X125571277Y-68415788D01*
X125655101Y-68667040D01*
X125673166Y-68703194D01*
X125769558Y-68896107D01*
X125769562Y-68896114D01*
X125773490Y-68903975D01*
X125778489Y-68911208D01*
X125778492Y-68911213D01*
X125880197Y-69058367D01*
X125924083Y-69121864D01*
X126103875Y-69316361D01*
X126110695Y-69321913D01*
X126110701Y-69321919D01*
X126233485Y-69421881D01*
X126309277Y-69483585D01*
X126316826Y-69488130D01*
X126316829Y-69488132D01*
X126419359Y-69549860D01*
X126536193Y-69620200D01*
X126780094Y-69723478D01*
X126788601Y-69725734D01*
X126788608Y-69725736D01*
X127027607Y-69789106D01*
X127027612Y-69789107D01*
X127036113Y-69791361D01*
X127299143Y-69822492D01*
X127563936Y-69816252D01*
X127707270Y-69792395D01*
X127816529Y-69774210D01*
X127816535Y-69774209D01*
X127825208Y-69772765D01*
X128077746Y-69692897D01*
X128316511Y-69578244D01*
X128536739Y-69431092D01*
X128543294Y-69425221D01*
X128727481Y-69260250D01*
X128727487Y-69260244D01*
X128734036Y-69254378D01*
X128904466Y-69051628D01*
X129044627Y-68826886D01*
X129151724Y-68584638D01*
X129223620Y-68329716D01*
X129258879Y-68067207D01*
X129262579Y-67949468D01*
X129258409Y-67890569D01*
X148513292Y-67890569D01*
X148513638Y-67899366D01*
X148515606Y-67949468D01*
X148519983Y-68060852D01*
X148523691Y-68155231D01*
X148571277Y-68415788D01*
X148655101Y-68667040D01*
X148673166Y-68703194D01*
X148769558Y-68896107D01*
X148769562Y-68896114D01*
X148773490Y-68903975D01*
X148778489Y-68911208D01*
X148778492Y-68911213D01*
X148880197Y-69058367D01*
X148924083Y-69121864D01*
X149103875Y-69316361D01*
X149110695Y-69321913D01*
X149110701Y-69321919D01*
X149233485Y-69421881D01*
X149309277Y-69483585D01*
X149316826Y-69488130D01*
X149316829Y-69488132D01*
X149419359Y-69549860D01*
X149536193Y-69620200D01*
X149780094Y-69723478D01*
X149788601Y-69725734D01*
X149788608Y-69725736D01*
X150027607Y-69789106D01*
X150027612Y-69789107D01*
X150036113Y-69791361D01*
X150299143Y-69822492D01*
X150563936Y-69816252D01*
X150707270Y-69792395D01*
X150816529Y-69774210D01*
X150816535Y-69774209D01*
X150825208Y-69772765D01*
X151077746Y-69692897D01*
X151316511Y-69578244D01*
X151536739Y-69431092D01*
X151543294Y-69425221D01*
X151727481Y-69260250D01*
X151727487Y-69260244D01*
X151734036Y-69254378D01*
X151904466Y-69051628D01*
X152044627Y-68826886D01*
X152151724Y-68584638D01*
X152223620Y-68329716D01*
X152258879Y-68067207D01*
X152262579Y-67949468D01*
X152257789Y-67881810D01*
X152244494Y-67694051D01*
X152243872Y-67685263D01*
X152231346Y-67627083D01*
X152189978Y-67434935D01*
X152189977Y-67434930D01*
X152188125Y-67426330D01*
X152170511Y-67378583D01*
X152099495Y-67186086D01*
X152099495Y-67186085D01*
X152096451Y-67177835D01*
X152045771Y-67083908D01*
X151974858Y-66952485D01*
X151970677Y-66944736D01*
X151934313Y-66895502D01*
X151818544Y-66738764D01*
X151813315Y-66731684D01*
X151627503Y-66542930D01*
X151416949Y-66382241D01*
X151185854Y-66252821D01*
X150938830Y-66157255D01*
X150786962Y-66122054D01*
X150689378Y-66099435D01*
X150689373Y-66099434D01*
X150680804Y-66097448D01*
X150416926Y-66074593D01*
X150257603Y-66083361D01*
X150161249Y-66088664D01*
X150161245Y-66088665D01*
X150152460Y-66089148D01*
X149892683Y-66140821D01*
X149884391Y-66143733D01*
X149884387Y-66143734D01*
X149651081Y-66225665D01*
X149651074Y-66225668D01*
X149642779Y-66228581D01*
X149634972Y-66232636D01*
X149634966Y-66232639D01*
X149426761Y-66340793D01*
X149407733Y-66350677D01*
X149192235Y-66504674D01*
X149000586Y-66687498D01*
X148965753Y-66731684D01*
X148887632Y-66830780D01*
X148836609Y-66895502D01*
X148832187Y-66903115D01*
X148832185Y-66903118D01*
X148727174Y-67083908D01*
X148703576Y-67124535D01*
X148604141Y-67370028D01*
X148540289Y-67627083D01*
X148532065Y-67707348D01*
X148514651Y-67877309D01*
X148513292Y-67890569D01*
X129258409Y-67890569D01*
X129257789Y-67881810D01*
X129244494Y-67694051D01*
X129243872Y-67685263D01*
X129231346Y-67627083D01*
X129189978Y-67434935D01*
X129189977Y-67434930D01*
X129188125Y-67426330D01*
X129170511Y-67378583D01*
X129099495Y-67186086D01*
X129099495Y-67186085D01*
X129096451Y-67177835D01*
X129045771Y-67083908D01*
X128974858Y-66952485D01*
X128970677Y-66944736D01*
X128934313Y-66895502D01*
X128818544Y-66738764D01*
X128813315Y-66731684D01*
X128627503Y-66542930D01*
X128416949Y-66382241D01*
X128185854Y-66252821D01*
X127938830Y-66157255D01*
X127786962Y-66122054D01*
X127689378Y-66099435D01*
X127689373Y-66099434D01*
X127680804Y-66097448D01*
X127416926Y-66074593D01*
X127257603Y-66083361D01*
X127161249Y-66088664D01*
X127161245Y-66088665D01*
X127152460Y-66089148D01*
X126892683Y-66140821D01*
X126884391Y-66143733D01*
X126884387Y-66143734D01*
X126651081Y-66225665D01*
X126651074Y-66225668D01*
X126642779Y-66228581D01*
X126634972Y-66232636D01*
X126634966Y-66232639D01*
X126426761Y-66340793D01*
X126407733Y-66350677D01*
X126192235Y-66504674D01*
X126000586Y-66687498D01*
X125965753Y-66731684D01*
X125887632Y-66830780D01*
X125836609Y-66895502D01*
X125832187Y-66903115D01*
X125832185Y-66903118D01*
X125727174Y-67083908D01*
X125703576Y-67124535D01*
X125604141Y-67370028D01*
X125540289Y-67627083D01*
X125532065Y-67707348D01*
X125514651Y-67877309D01*
X125513292Y-67890569D01*
X91792758Y-67890569D01*
X92087918Y-67870448D01*
X92102152Y-67868650D01*
X92417774Y-67810152D01*
X92431691Y-67806733D01*
X92738496Y-67712348D01*
X92751942Y-67707348D01*
X93045868Y-67578324D01*
X93058639Y-67571817D01*
X93335811Y-67409851D01*
X93347710Y-67401945D01*
X93582281Y-67225825D01*
X93596194Y-67210290D01*
X93591681Y-67200891D01*
X91747341Y-65356551D01*
X91730000Y-65344964D01*
X91712659Y-65356551D01*
X89876795Y-67192415D01*
X89865208Y-67209756D01*
X83000000Y-67209756D01*
X83000000Y-64895670D01*
X88818697Y-64895670D01*
X88827100Y-65216576D01*
X88828299Y-65230852D01*
X88873531Y-65548663D01*
X88876360Y-65562697D01*
X88957823Y-65873214D01*
X88962245Y-65886822D01*
X89078855Y-66185911D01*
X89084818Y-66198937D01*
X89235026Y-66482631D01*
X89242453Y-66494894D01*
X89424268Y-66759436D01*
X89433053Y-66770762D01*
X89485411Y-66830780D01*
X89501922Y-66843518D01*
X89514476Y-66836314D01*
X91353449Y-64997341D01*
X91365036Y-64980000D01*
X92094964Y-64980000D01*
X92106551Y-64997341D01*
X93940744Y-66831534D01*
X93958085Y-66843121D01*
X93968987Y-66835836D01*
X94063949Y-66722262D01*
X94072486Y-66710767D01*
X94248731Y-66442460D01*
X94255893Y-66430056D01*
X94400136Y-66143260D01*
X94405815Y-66130135D01*
X94516138Y-65828664D01*
X94520277Y-65814956D01*
X94595217Y-65502809D01*
X94597752Y-65488719D01*
X94636515Y-65168395D01*
X94637354Y-65157369D01*
X94642754Y-64985549D01*
X94642608Y-64974458D01*
X94624036Y-64652365D01*
X94622388Y-64638120D01*
X94567200Y-64321905D01*
X94563926Y-64307946D01*
X94472756Y-64000162D01*
X94467904Y-63986683D01*
X94341954Y-63691399D01*
X94335592Y-63678582D01*
X94176543Y-63399740D01*
X94168738Y-63387722D01*
X93978703Y-63129019D01*
X93975285Y-63124888D01*
X93961388Y-63114847D01*
X93941767Y-63127443D01*
X92106551Y-64962659D01*
X92094964Y-64980000D01*
X91365036Y-64980000D01*
X91353449Y-64962659D01*
X89518133Y-63127343D01*
X89500792Y-63115756D01*
X89491315Y-63122089D01*
X89342477Y-63311907D01*
X89334305Y-63323665D01*
X89166569Y-63597387D01*
X89159809Y-63609994D01*
X89024652Y-63901165D01*
X89019373Y-63914499D01*
X88918583Y-64219261D01*
X88914871Y-64233115D01*
X88849775Y-64547448D01*
X88847684Y-64561612D01*
X88819147Y-64881357D01*
X88818697Y-64895670D01*
X83000000Y-64895670D01*
X83000000Y-62752025D01*
X89866324Y-62752025D01*
X89871825Y-62762615D01*
X91712659Y-64603449D01*
X91730000Y-64615036D01*
X91747341Y-64603449D01*
X93581613Y-62769177D01*
X93593200Y-62751836D01*
X93585551Y-62740389D01*
X93496604Y-62664421D01*
X93485205Y-62655768D01*
X93218754Y-62476720D01*
X93206430Y-62469431D01*
X92921163Y-62322195D01*
X92908091Y-62316375D01*
X92607788Y-62202900D01*
X92594129Y-62198620D01*
X92282786Y-62120416D01*
X92268718Y-62117732D01*
X91950454Y-62075832D01*
X91936157Y-62074782D01*
X91615198Y-62069740D01*
X91600879Y-62070340D01*
X91281457Y-62102222D01*
X91267304Y-62104464D01*
X90953671Y-62172847D01*
X90939864Y-62176702D01*
X90636158Y-62280684D01*
X90622909Y-62286091D01*
X90333161Y-62424294D01*
X90320605Y-62431197D01*
X90048680Y-62601774D01*
X90036991Y-62610081D01*
X89879745Y-62736059D01*
X89866324Y-62752025D01*
X83000000Y-62752025D01*
X83000000Y-61004435D01*
X83000159Y-60995547D01*
X83020066Y-60438175D01*
X83021334Y-60420447D01*
X83080476Y-59870333D01*
X83083005Y-59852738D01*
X83181248Y-59308219D01*
X83185027Y-59290851D01*
X83321854Y-58754767D01*
X83326861Y-58737712D01*
X83501595Y-58212720D01*
X83507807Y-58196066D01*
X83719540Y-57684898D01*
X83726924Y-57668729D01*
X83974586Y-57173963D01*
X83983104Y-57158363D01*
X84265436Y-56682518D01*
X84275046Y-56667565D01*
X84590595Y-56213088D01*
X84601247Y-56198858D01*
X84948425Y-55768036D01*
X84960066Y-55754603D01*
X85337087Y-55349655D01*
X85349655Y-55337087D01*
X85754603Y-54960066D01*
X85768036Y-54948425D01*
X86198858Y-54601247D01*
X86213088Y-54590595D01*
X86667565Y-54275046D01*
X86682518Y-54265436D01*
X87158363Y-53983104D01*
X87173963Y-53974586D01*
X87668729Y-53726924D01*
X87684898Y-53719540D01*
X87699675Y-53713419D01*
X88196072Y-53507805D01*
X88212714Y-53501597D01*
X88737715Y-53326860D01*
X88754767Y-53321854D01*
X89290851Y-53185027D01*
X89308219Y-53181248D01*
X89374220Y-53169340D01*
X89852749Y-53083003D01*
X89870324Y-53080477D01*
X90059358Y-53060154D01*
X90420447Y-53021334D01*
X90438175Y-53020066D01*
X90949895Y-53001789D01*
X90995549Y-53000159D01*
X91004435Y-53000000D01*
X148995565Y-53000000D01*
X149004451Y-53000159D01*
G37*
%TD.AperFunction*%
%TA.AperFunction,Conductor*%
G36*
X130658058Y-79869454D02*
G01*
X130738840Y-79923430D01*
X131001570Y-80186160D01*
X131055546Y-80266942D01*
X131074500Y-80362230D01*
X131074500Y-99012769D01*
X131055546Y-99108057D01*
X131001570Y-99188839D01*
X130088267Y-100102142D01*
X130007485Y-100156118D01*
X129912197Y-100175072D01*
X129816909Y-100156118D01*
X129736127Y-100102142D01*
X129708228Y-100068892D01*
X129675427Y-100022048D01*
X129613495Y-99933599D01*
X129446401Y-99766505D01*
X129437497Y-99760270D01*
X129407075Y-99738968D01*
X129339892Y-99668786D01*
X129304680Y-99578237D01*
X129306800Y-99481105D01*
X129345929Y-99392178D01*
X129407075Y-99331032D01*
X129437497Y-99309730D01*
X129437499Y-99309728D01*
X129446401Y-99303495D01*
X129613495Y-99136401D01*
X129749035Y-98942829D01*
X129848903Y-98728663D01*
X129910063Y-98500408D01*
X129911113Y-98488413D01*
X129929711Y-98275835D01*
X129930659Y-98265000D01*
X129918881Y-98130381D01*
X129911011Y-98040426D01*
X129911011Y-98040425D01*
X129910063Y-98029592D01*
X129848903Y-97801337D01*
X129825250Y-97750612D01*
X129753631Y-97597027D01*
X129749035Y-97587171D01*
X129613495Y-97393599D01*
X129446401Y-97226505D01*
X129437497Y-97220270D01*
X129407075Y-97198968D01*
X129339892Y-97128786D01*
X129304680Y-97038237D01*
X129306800Y-96941105D01*
X129345929Y-96852178D01*
X129407075Y-96791032D01*
X129437497Y-96769730D01*
X129437499Y-96769728D01*
X129446401Y-96763495D01*
X129613495Y-96596401D01*
X129749035Y-96402829D01*
X129766201Y-96366016D01*
X129844307Y-96198520D01*
X129844309Y-96198516D01*
X129848903Y-96188663D01*
X129910063Y-95960408D01*
X129911517Y-95943796D01*
X129929711Y-95735835D01*
X129930659Y-95725000D01*
X129917370Y-95573108D01*
X129911011Y-95500426D01*
X129911011Y-95500425D01*
X129910063Y-95489592D01*
X129848903Y-95261337D01*
X129839417Y-95240993D01*
X129753631Y-95057027D01*
X129749035Y-95047171D01*
X129731674Y-95022376D01*
X129676527Y-94943618D01*
X129613495Y-94853599D01*
X129446401Y-94686505D01*
X129436710Y-94679719D01*
X129407075Y-94658968D01*
X129339892Y-94588786D01*
X129304680Y-94498237D01*
X129306800Y-94401105D01*
X129345929Y-94312178D01*
X129407075Y-94251032D01*
X129437497Y-94229730D01*
X129437499Y-94229728D01*
X129446401Y-94223495D01*
X129613495Y-94056401D01*
X129749035Y-93862829D01*
X129760529Y-93838180D01*
X129844307Y-93658520D01*
X129844309Y-93658516D01*
X129848903Y-93648663D01*
X129910063Y-93420408D01*
X129917043Y-93340634D01*
X129929711Y-93195835D01*
X129930659Y-93185000D01*
X129910063Y-92949592D01*
X129848903Y-92721337D01*
X129843468Y-92709680D01*
X129753631Y-92517027D01*
X129749035Y-92507171D01*
X129613495Y-92313599D01*
X129446401Y-92146505D01*
X129437494Y-92140268D01*
X129413174Y-92123238D01*
X129345991Y-92053056D01*
X129310779Y-91962506D01*
X129312900Y-91865375D01*
X129352030Y-91776448D01*
X129411403Y-91716555D01*
X129446220Y-91691721D01*
X129461776Y-91678575D01*
X129605477Y-91535374D01*
X129618674Y-91519867D01*
X129737064Y-91355110D01*
X129747547Y-91337664D01*
X129837438Y-91155784D01*
X129844933Y-91136854D01*
X129903912Y-90942732D01*
X129908141Y-90923172D01*
X129906786Y-90902503D01*
X129896466Y-90899000D01*
X128570000Y-90899000D01*
X128474712Y-90880046D01*
X128393930Y-90826070D01*
X128339954Y-90745288D01*
X128321000Y-90650000D01*
X128321000Y-90640000D01*
X128339954Y-90544712D01*
X128393930Y-90463930D01*
X128474712Y-90409954D01*
X128570000Y-90391000D01*
X129886932Y-90391000D01*
X129907390Y-90386931D01*
X129908419Y-90381755D01*
X129907723Y-90376127D01*
X129867444Y-90215773D01*
X129860880Y-90196492D01*
X129779986Y-90010446D01*
X129770364Y-89992502D01*
X129660168Y-89822164D01*
X129647737Y-89806022D01*
X129511209Y-89655980D01*
X129496305Y-89642082D01*
X129400862Y-89566706D01*
X129337829Y-89492774D01*
X129307887Y-89400348D01*
X129315594Y-89303499D01*
X129359776Y-89216972D01*
X129412367Y-89167326D01*
X129437497Y-89149730D01*
X129437499Y-89149728D01*
X129446401Y-89143495D01*
X129613495Y-88976401D01*
X129749035Y-88782829D01*
X129755222Y-88769561D01*
X129844307Y-88578520D01*
X129844309Y-88578516D01*
X129848903Y-88568663D01*
X129910063Y-88340408D01*
X129912572Y-88311737D01*
X129929711Y-88115835D01*
X129930659Y-88105000D01*
X129910063Y-87869592D01*
X129848903Y-87641337D01*
X129817332Y-87573632D01*
X129753631Y-87437027D01*
X129749035Y-87427171D01*
X129613495Y-87233599D01*
X129446401Y-87066505D01*
X129437497Y-87060270D01*
X129407075Y-87038968D01*
X129339892Y-86968786D01*
X129304680Y-86878237D01*
X129306800Y-86781105D01*
X129345929Y-86692178D01*
X129407075Y-86631032D01*
X129437497Y-86609730D01*
X129437499Y-86609728D01*
X129446401Y-86603495D01*
X129613495Y-86436401D01*
X129749035Y-86242829D01*
X129808679Y-86114924D01*
X129844307Y-86038520D01*
X129844309Y-86038516D01*
X129848903Y-86028663D01*
X129910063Y-85800408D01*
X129930659Y-85565000D01*
X129910063Y-85329592D01*
X129848903Y-85101337D01*
X129841381Y-85085205D01*
X129753631Y-84897027D01*
X129749035Y-84887171D01*
X129613495Y-84693599D01*
X129446401Y-84526505D01*
X129437497Y-84520270D01*
X129407075Y-84498968D01*
X129339892Y-84428786D01*
X129304680Y-84338237D01*
X129306800Y-84241105D01*
X129345929Y-84152178D01*
X129407075Y-84091032D01*
X129437497Y-84069730D01*
X129437499Y-84069728D01*
X129446401Y-84063495D01*
X129613495Y-83896401D01*
X129749035Y-83702829D01*
X129792525Y-83609566D01*
X129844307Y-83498520D01*
X129844309Y-83498516D01*
X129848903Y-83488663D01*
X129910063Y-83260408D01*
X129930659Y-83025000D01*
X129922736Y-82934437D01*
X129911011Y-82800426D01*
X129911011Y-82800425D01*
X129910063Y-82789592D01*
X129848903Y-82561337D01*
X129844021Y-82550866D01*
X129753631Y-82357027D01*
X129749035Y-82347171D01*
X129613495Y-82153599D01*
X129446401Y-81986505D01*
X129437497Y-81980270D01*
X129407075Y-81958968D01*
X129339892Y-81888786D01*
X129304680Y-81798237D01*
X129306800Y-81701105D01*
X129345929Y-81612178D01*
X129407075Y-81551032D01*
X129437497Y-81529730D01*
X129437499Y-81529728D01*
X129446401Y-81523495D01*
X129613495Y-81356401D01*
X129749035Y-81162829D01*
X129802872Y-81047376D01*
X129844307Y-80958520D01*
X129844309Y-80958516D01*
X129848903Y-80948663D01*
X129910063Y-80720408D01*
X129917122Y-80639731D01*
X129929711Y-80495835D01*
X129930659Y-80485000D01*
X129910063Y-80249592D01*
X129887114Y-80163944D01*
X129880760Y-80066999D01*
X129911990Y-79975000D01*
X129976048Y-79901955D01*
X130063184Y-79858984D01*
X130127630Y-79850500D01*
X130562770Y-79850500D01*
X130658058Y-79869454D01*
G37*
%TD.AperFunction*%
%TA.AperFunction,Conductor*%
G36*
X124569470Y-79869454D02*
G01*
X124650252Y-79923430D01*
X124704228Y-80004212D01*
X124723182Y-80099500D01*
X124714126Y-80166044D01*
X124699911Y-80217302D01*
X124700818Y-80227388D01*
X124712374Y-80231000D01*
X126040000Y-80231000D01*
X126135288Y-80249954D01*
X126216070Y-80303930D01*
X126270046Y-80384712D01*
X126289000Y-80480000D01*
X126289000Y-80490000D01*
X126270046Y-80585288D01*
X126216070Y-80666070D01*
X126135288Y-80720046D01*
X126040000Y-80739000D01*
X124724637Y-80739000D01*
X124704179Y-80743069D01*
X124702846Y-80749774D01*
X124703146Y-80752471D01*
X124732456Y-80882529D01*
X124738542Y-80901949D01*
X124814867Y-81089917D01*
X124824057Y-81108110D01*
X124930053Y-81281079D01*
X124942081Y-81297513D01*
X125074909Y-81450853D01*
X125089462Y-81465105D01*
X125213042Y-81567703D01*
X125274249Y-81643153D01*
X125301923Y-81736283D01*
X125291852Y-81832915D01*
X125245568Y-81918337D01*
X125196808Y-81963252D01*
X125163599Y-81986505D01*
X124996505Y-82153599D01*
X124860965Y-82347171D01*
X124856369Y-82357027D01*
X124765980Y-82550866D01*
X124761097Y-82561337D01*
X124699937Y-82789592D01*
X124698989Y-82800425D01*
X124698989Y-82800426D01*
X124687264Y-82934437D01*
X124679341Y-83025000D01*
X124699937Y-83260408D01*
X124761097Y-83488663D01*
X124765691Y-83498516D01*
X124765693Y-83498520D01*
X124817475Y-83609566D01*
X124860965Y-83702829D01*
X124996505Y-83896401D01*
X125163599Y-84063495D01*
X125172497Y-84069725D01*
X125172500Y-84069728D01*
X125197646Y-84087335D01*
X125264830Y-84157517D01*
X125300042Y-84248066D01*
X125297923Y-84345198D01*
X125258794Y-84434125D01*
X125204330Y-84490425D01*
X125138476Y-84539870D01*
X125123235Y-84553401D01*
X124983080Y-84700065D01*
X124970257Y-84715901D01*
X124855937Y-84883487D01*
X124845877Y-84901196D01*
X124760463Y-85085205D01*
X124753428Y-85104327D01*
X124699911Y-85297301D01*
X124700818Y-85307388D01*
X124712374Y-85311000D01*
X126040000Y-85311000D01*
X126135288Y-85329954D01*
X126216070Y-85383930D01*
X126270046Y-85464712D01*
X126289000Y-85560000D01*
X126289000Y-85570000D01*
X126270046Y-85665288D01*
X126216070Y-85746070D01*
X126135288Y-85800046D01*
X126040000Y-85819000D01*
X124724637Y-85819000D01*
X124704179Y-85823069D01*
X124702846Y-85829774D01*
X124703146Y-85832471D01*
X124732456Y-85962529D01*
X124738542Y-85981949D01*
X124814867Y-86169917D01*
X124824057Y-86188110D01*
X124930053Y-86361079D01*
X124942081Y-86377513D01*
X125074909Y-86530853D01*
X125089462Y-86545105D01*
X125213042Y-86647703D01*
X125274249Y-86723153D01*
X125301923Y-86816283D01*
X125291852Y-86912915D01*
X125245568Y-86998337D01*
X125196808Y-87043252D01*
X125163599Y-87066505D01*
X124996505Y-87233599D01*
X124860965Y-87427171D01*
X124856369Y-87437027D01*
X124792669Y-87573632D01*
X124761097Y-87641337D01*
X124699937Y-87869592D01*
X124679341Y-88105000D01*
X124680289Y-88115835D01*
X124697429Y-88311737D01*
X124699937Y-88340408D01*
X124761097Y-88568663D01*
X124765691Y-88578516D01*
X124765693Y-88578520D01*
X124854778Y-88769561D01*
X124860965Y-88782829D01*
X124996505Y-88976401D01*
X125163599Y-89143495D01*
X125172501Y-89149728D01*
X125172503Y-89149730D01*
X125202923Y-89171030D01*
X125270108Y-89241211D01*
X125305321Y-89331760D01*
X125303202Y-89428892D01*
X125264074Y-89517819D01*
X125202926Y-89578968D01*
X125194636Y-89584773D01*
X125163599Y-89606505D01*
X124996505Y-89773599D01*
X124950466Y-89839350D01*
X124873803Y-89948837D01*
X124860965Y-89967171D01*
X124856369Y-89977027D01*
X124768950Y-90164497D01*
X124761097Y-90181337D01*
X124699937Y-90409592D01*
X124679341Y-90645000D01*
X124680289Y-90655834D01*
X124691600Y-90785115D01*
X124681024Y-90881693D01*
X124634294Y-90966872D01*
X124558524Y-91027683D01*
X124465251Y-91054870D01*
X124368673Y-91044294D01*
X124283494Y-90997564D01*
X124267478Y-90982888D01*
X124243540Y-90958950D01*
X123998428Y-90713837D01*
X123944454Y-90633058D01*
X123925500Y-90537770D01*
X123925500Y-82673187D01*
X123925747Y-82667943D01*
X123927672Y-82659332D01*
X123925623Y-82594118D01*
X123925500Y-82586298D01*
X123925500Y-82560650D01*
X123924520Y-82552896D01*
X123924381Y-82550679D01*
X123924013Y-82542871D01*
X123923201Y-82517034D01*
X123922709Y-82501372D01*
X123918337Y-82486325D01*
X123916910Y-82477313D01*
X123914895Y-82467580D01*
X123912627Y-82458748D01*
X123910664Y-82443208D01*
X123896750Y-82408066D01*
X123889158Y-82385893D01*
X123878617Y-82349610D01*
X123870643Y-82336126D01*
X123867026Y-82327767D01*
X123862633Y-82318799D01*
X123858252Y-82310830D01*
X123852486Y-82296268D01*
X123843279Y-82283596D01*
X123843276Y-82283590D01*
X123830281Y-82265704D01*
X123817402Y-82246098D01*
X123806147Y-82227067D01*
X123806146Y-82227065D01*
X123798170Y-82213579D01*
X123787093Y-82202502D01*
X123781509Y-82195303D01*
X123775040Y-82187729D01*
X123768800Y-82181084D01*
X123759594Y-82168413D01*
X123747528Y-82158431D01*
X123747525Y-82158428D01*
X123730497Y-82144342D01*
X123713145Y-82128554D01*
X121919045Y-80334454D01*
X121915515Y-80330574D01*
X121910786Y-80323123D01*
X121865940Y-80281010D01*
X121809456Y-80201965D01*
X121787519Y-80107319D01*
X121803471Y-80011483D01*
X121854884Y-79929046D01*
X121933931Y-79872560D01*
X122036396Y-79850500D01*
X124474182Y-79850500D01*
X124569470Y-79869454D01*
G37*
%TD.AperFunction*%
%TD*%
M02*
