%FSLAX45Y45*%
G04 Gerber Fmt 4.5, Leading zero omitted, Abs format (unit mm)*
G04 Created by KiCad (PCBNEW (6.0.1)) date 2022-04-29 11:25:00*
%MOMM*%
%LPD*%
G01*
G04 APERTURE LIST*
%TA.AperFunction,Profile*%
%ADD10C,0.050000*%
%TD*%
%ADD11C,0.200000*%
G04 APERTURE END LIST*
D10*
X14999991Y-14359991D02*
X8999991Y-14359991D01*
X7999991Y-13359991D02*
X7999991Y-5999991D01*
X8999991Y-4999991D02*
G75*
G03*
X7999991Y-5999991I0J-1000000D01*
G01*
X7999991Y-13359991D02*
G75*
G03*
X8999991Y-14359991I1000000J0D01*
G01*
X12875780Y-6794947D02*
G75*
G03*
X12875780Y-6794947I-137033J0D01*
G01*
X15999991Y-5999991D02*
X15999991Y-13359991D01*
X15999991Y-5999991D02*
G75*
G03*
X14999991Y-4999991I-1000000J0D01*
G01*
X12875780Y-12594947D02*
G75*
G03*
X12875780Y-12594947I-137033J0D01*
G01*
X8999991Y-4999991D02*
X14999991Y-4999991D01*
X14999991Y-14359991D02*
G75*
G03*
X15999991Y-13359991I0J1000000D01*
G01*
X15175780Y-12594947D02*
G75*
G03*
X15175780Y-12594947I-137033J0D01*
G01*
X12117991Y-9679991D02*
G75*
G03*
X12117991Y-9679991I-800000J0D01*
G01*
X15175780Y-6794947D02*
G75*
G03*
X15175780Y-6794947I-137033J0D01*
G01*
D11*
X8255110Y-14672967D02*
X8255110Y-14472967D01*
X8302729Y-14472967D01*
X8331301Y-14482491D01*
X8350348Y-14501539D01*
X8359872Y-14520586D01*
X8369396Y-14558682D01*
X8369396Y-14587253D01*
X8359872Y-14625348D01*
X8350348Y-14644396D01*
X8331301Y-14663443D01*
X8302729Y-14672967D01*
X8255110Y-14672967D01*
X8455110Y-14672967D02*
X8455110Y-14539634D01*
X8455110Y-14577729D02*
X8464634Y-14558682D01*
X8474158Y-14549158D01*
X8493205Y-14539634D01*
X8512253Y-14539634D01*
X8578920Y-14672967D02*
X8578920Y-14539634D01*
X8578920Y-14472967D02*
X8569396Y-14482491D01*
X8578920Y-14492015D01*
X8588444Y-14482491D01*
X8578920Y-14472967D01*
X8578920Y-14492015D01*
X8702729Y-14672967D02*
X8683682Y-14663443D01*
X8674158Y-14644396D01*
X8674158Y-14472967D01*
X8807491Y-14672967D02*
X8788444Y-14663443D01*
X8778920Y-14644396D01*
X8778920Y-14472967D01*
X9036063Y-14672967D02*
X9036063Y-14472967D01*
X9102729Y-14615824D01*
X9169396Y-14472967D01*
X9169396Y-14672967D01*
X9350348Y-14672967D02*
X9350348Y-14568205D01*
X9340825Y-14549158D01*
X9321777Y-14539634D01*
X9283682Y-14539634D01*
X9264634Y-14549158D01*
X9350348Y-14663443D02*
X9331301Y-14672967D01*
X9283682Y-14672967D01*
X9264634Y-14663443D01*
X9255110Y-14644396D01*
X9255110Y-14625348D01*
X9264634Y-14606301D01*
X9283682Y-14596777D01*
X9331301Y-14596777D01*
X9350348Y-14587253D01*
X9445586Y-14539634D02*
X9445586Y-14739634D01*
X9445586Y-14549158D02*
X9464634Y-14539634D01*
X9502729Y-14539634D01*
X9521777Y-14549158D01*
X9531301Y-14558682D01*
X9540825Y-14577729D01*
X9540825Y-14634872D01*
X9531301Y-14653920D01*
X9521777Y-14663443D01*
X9502729Y-14672967D01*
X9464634Y-14672967D01*
X9445586Y-14663443D01*
X9626539Y-14653920D02*
X9636063Y-14663443D01*
X9626539Y-14672967D01*
X9617015Y-14663443D01*
X9626539Y-14653920D01*
X9626539Y-14672967D01*
X9626539Y-14549158D02*
X9636063Y-14558682D01*
X9626539Y-14568205D01*
X9617015Y-14558682D01*
X9626539Y-14549158D01*
X9626539Y-14568205D01*
M02*
