%TF.GenerationSoftware,KiCad,Pcbnew,(6.0.1)*%
%TF.CreationDate,2022-04-29T11:18:45-05:00*%
%TF.ProjectId,Payload_Altimeter,5061796c-6f61-4645-9f41-6c74696d6574,rev?*%
%TF.SameCoordinates,Original*%
%TF.FileFunction,Copper,L2,Bot*%
%TF.FilePolarity,Positive*%
%FSLAX46Y46*%
G04 Gerber Fmt 4.6, Leading zero omitted, Abs format (unit mm)*
G04 Created by KiCad (PCBNEW (6.0.1)) date 2022-04-29 11:18:45*
%MOMM*%
%LPD*%
G01*
G04 APERTURE LIST*
%TA.AperFunction,ComponentPad*%
%ADD10R,1.650000X1.650000*%
%TD*%
%TA.AperFunction,ComponentPad*%
%ADD11C,1.650000*%
%TD*%
%TA.AperFunction,ComponentPad*%
%ADD12C,4.800000*%
%TD*%
%TA.AperFunction,ComponentPad*%
%ADD13R,1.700000X1.700000*%
%TD*%
%TA.AperFunction,ComponentPad*%
%ADD14O,1.700000X1.700000*%
%TD*%
%TA.AperFunction,SMDPad,CuDef*%
%ADD15C,2.000000*%
%TD*%
%TA.AperFunction,ViaPad*%
%ADD16C,1.000000*%
%TD*%
%TA.AperFunction,Conductor*%
%ADD17C,0.250000*%
%TD*%
G04 APERTURE END LIST*
D10*
%TO.P,J1,1,1*%
%TO.N,GND*%
X93000000Y-71800000D03*
D11*
%TO.P,J1,2,2*%
%TO.N,+3V3*%
X93000000Y-74570000D03*
%TO.P,J1,3,3*%
%TO.N,/DSUB/t_miso*%
X93000000Y-77340000D03*
%TO.P,J1,4,4*%
%TO.N,/DSUB/SWDIO*%
X93000000Y-80110000D03*
%TO.P,J1,5,5*%
%TO.N,/DSUB/Alert_scl*%
X93000000Y-82880000D03*
%TO.P,J1,6,6*%
%TO.N,/DSUB/Alert_Active*%
X93000000Y-85650000D03*
%TO.P,J1,7,7*%
%TO.N,/DSUB/Fire*%
X93000000Y-88420000D03*
%TO.P,J1,8,8*%
%TO.N,unconnected-(J1-Pad8)*%
X93000000Y-91190000D03*
%TO.P,J1,9,9*%
%TO.N,unconnected-(J1-Pad9)*%
X93000000Y-93960000D03*
%TO.P,J1,10,10*%
%TO.N,unconnected-(J1-Pad10)*%
X93000000Y-96730000D03*
%TO.P,J1,11,11*%
%TO.N,unconnected-(J1-Pad11)*%
X93000000Y-99500000D03*
%TO.P,J1,12,12*%
%TO.N,unconnected-(J1-Pad12)*%
X93000000Y-102270000D03*
%TO.P,J1,13,13*%
%TO.N,unconnected-(J1-Pad13)*%
X93000000Y-105040000D03*
%TO.P,J1,14,14*%
%TO.N,unconnected-(J1-Pad14)*%
X93000000Y-107810000D03*
%TO.P,J1,15,15*%
%TO.N,unconnected-(J1-Pad15)*%
X93000000Y-110580000D03*
%TO.P,J1,16,16*%
%TO.N,unconnected-(J1-Pad16)*%
X93000000Y-113350000D03*
%TO.P,J1,17,17*%
%TO.N,unconnected-(J1-Pad17)*%
X93000000Y-116120000D03*
%TO.P,J1,18,18*%
%TO.N,+3V3*%
X93000000Y-118890000D03*
%TO.P,J1,19,19*%
%TO.N,GND*%
X93000000Y-121660000D03*
%TO.P,J1,20,20*%
%TO.N,+5V*%
X90460000Y-73185000D03*
%TO.P,J1,21,21*%
%TO.N,/DSUB/t_mosi*%
X90460000Y-75955000D03*
%TO.P,J1,22,22*%
%TO.N,/DSUB/t_clk*%
X90460000Y-78725000D03*
%TO.P,J1,23,23*%
%TO.N,/DSUB/SWCLK*%
X90460000Y-81495000D03*
%TO.P,J1,24,24*%
%TO.N,/DSUB/Alert_sda*%
X90460000Y-84265000D03*
%TO.P,J1,25,25*%
%TO.N,/DSUB/NRST*%
X90460000Y-87035000D03*
%TO.P,J1,26,26*%
%TO.N,/DSUB/Fire_redundant*%
X90460000Y-89805000D03*
%TO.P,J1,27,27*%
%TO.N,unconnected-(J1-Pad27)*%
X90460000Y-92575000D03*
%TO.P,J1,28,28*%
%TO.N,unconnected-(J1-Pad28)*%
X90460000Y-95345000D03*
%TO.P,J1,29,29*%
%TO.N,unconnected-(J1-Pad29)*%
X90460000Y-98115000D03*
%TO.P,J1,30,30*%
%TO.N,unconnected-(J1-Pad30)*%
X90460000Y-100885000D03*
%TO.P,J1,31,31*%
%TO.N,unconnected-(J1-Pad31)*%
X90460000Y-103655000D03*
%TO.P,J1,32,32*%
%TO.N,unconnected-(J1-Pad32)*%
X90460000Y-106425000D03*
%TO.P,J1,33,33*%
%TO.N,unconnected-(J1-Pad33)*%
X90460000Y-109195000D03*
%TO.P,J1,34,34*%
%TO.N,unconnected-(J1-Pad34)*%
X90460000Y-111965000D03*
%TO.P,J1,35,35*%
%TO.N,unconnected-(J1-Pad35)*%
X90460000Y-114735000D03*
%TO.P,J1,36,36*%
%TO.N,unconnected-(J1-Pad36)*%
X90460000Y-117505000D03*
%TO.P,J1,37,37*%
%TO.N,+5V*%
X90460000Y-120275000D03*
D12*
%TO.P,J1,MH1,MH1*%
%TO.N,GND*%
X91730000Y-64980000D03*
%TO.P,J1,MH2,MH2*%
X91730000Y-128480000D03*
%TD*%
D13*
%TO.P,J2,1,3v3*%
%TO.N,unconnected-(J2-Pad1)*%
X128575000Y-121125000D03*
D14*
%TO.P,J2,2,Pin_2*%
%TO.N,+5V*%
X126035000Y-121125000D03*
%TO.P,J2,3,Pin_3*%
%TO.N,unconnected-(J2-Pad3)*%
X128575000Y-118585000D03*
%TO.P,J2,4,Pin_4*%
%TO.N,+5V*%
X126035000Y-118585000D03*
%TO.P,J2,5,Pin_5*%
%TO.N,unconnected-(J2-Pad5)*%
X128575000Y-116045000D03*
%TO.P,J2,6,Pin_6*%
%TO.N,GND*%
X126035000Y-116045000D03*
%TO.P,J2,7,Pin_7*%
%TO.N,unconnected-(J2-Pad7)*%
X128575000Y-113505000D03*
%TO.P,J2,8,Pin_8*%
%TO.N,unconnected-(J2-Pad8)*%
X126035000Y-113505000D03*
%TO.P,J2,9,Pin_9*%
%TO.N,GND*%
X128575000Y-110965000D03*
%TO.P,J2,10,Pin_10*%
%TO.N,unconnected-(J2-Pad10)*%
X126035000Y-110965000D03*
%TO.P,J2,11,Pin_11*%
%TO.N,unconnected-(J2-Pad11)*%
X128575000Y-108425000D03*
%TO.P,J2,12,Pin_12*%
%TO.N,unconnected-(J2-Pad12)*%
X126035000Y-108425000D03*
%TO.P,J2,13,Pin_13*%
%TO.N,unconnected-(J2-Pad13)*%
X128575000Y-105885000D03*
%TO.P,J2,14,Pin_14*%
%TO.N,GND*%
X126035000Y-105885000D03*
%TO.P,J2,15,Pin_15*%
%TO.N,unconnected-(J2-Pad15)*%
X128575000Y-103345000D03*
%TO.P,J2,16,Pin_16*%
%TO.N,unconnected-(J2-Pad16)*%
X126035000Y-103345000D03*
%TO.P,J2,17,Pin_17*%
%TO.N,/Pi_3v3*%
X128575000Y-100805000D03*
%TO.P,J2,18,Pin_18*%
%TO.N,unconnected-(J2-Pad18)*%
X126035000Y-100805000D03*
%TO.P,J2,19,Pin_19*%
%TO.N,/MOSI*%
X128575000Y-98265000D03*
%TO.P,J2,20,Pin_20*%
%TO.N,GND*%
X126035000Y-98265000D03*
%TO.P,J2,21,Pin_21*%
%TO.N,/MISO*%
X128575000Y-95725000D03*
%TO.P,J2,22,Pin_22*%
%TO.N,unconnected-(J2-Pad22)*%
X126035000Y-95725000D03*
%TO.P,J2,23,Pin_23*%
%TO.N,/SCLK*%
X128575000Y-93185000D03*
%TO.P,J2,24,Pin_24*%
%TO.N,unconnected-(J2-Pad24)*%
X126035000Y-93185000D03*
%TO.P,J2,25,Pin_25*%
%TO.N,GND*%
X128575000Y-90645000D03*
%TO.P,J2,26,Pin_26*%
%TO.N,unconnected-(J2-Pad26)*%
X126035000Y-90645000D03*
%TO.P,J2,27,Pin_27*%
%TO.N,unconnected-(J2-Pad27)*%
X128575000Y-88105000D03*
%TO.P,J2,28,Pin_28*%
%TO.N,unconnected-(J2-Pad28)*%
X126035000Y-88105000D03*
%TO.P,J2,29,Pin_29*%
%TO.N,unconnected-(J2-Pad29)*%
X128575000Y-85565000D03*
%TO.P,J2,30,Pin_30*%
%TO.N,GND*%
X126035000Y-85565000D03*
%TO.P,J2,31,Pin_31*%
%TO.N,unconnected-(J2-Pad31)*%
X128575000Y-83025000D03*
%TO.P,J2,32,Pin_32*%
%TO.N,unconnected-(J2-Pad32)*%
X126035000Y-83025000D03*
%TO.P,J2,33,Pin_33*%
%TO.N,unconnected-(J2-Pad33)*%
X128575000Y-80485000D03*
%TO.P,J2,34,Pin_34*%
%TO.N,GND*%
X126035000Y-80485000D03*
%TO.P,J2,35,Pin_35*%
%TO.N,unconnected-(J2-Pad35)*%
X128575000Y-77945000D03*
%TO.P,J2,36,Pin_36*%
%TO.N,unconnected-(J2-Pad36)*%
X126035000Y-77945000D03*
%TO.P,J2,37,Pin_37*%
%TO.N,unconnected-(J2-Pad37)*%
X128575000Y-75405000D03*
%TO.P,J2,38,Pin_38*%
%TO.N,unconnected-(J2-Pad38)*%
X126035000Y-75405000D03*
%TO.P,J2,39,Pin_39*%
%TO.N,GND*%
X128575000Y-72865000D03*
%TO.P,J2,40,Pin_40*%
%TO.N,unconnected-(J2-Pad40)*%
X126035000Y-72865000D03*
%TD*%
D15*
%TO.P,MISO,1,1*%
%TO.N,/MISO*%
X140850000Y-95750000D03*
%TD*%
%TO.P,SCLK,1,1*%
%TO.N,/SCLK*%
X140750000Y-91025000D03*
%TD*%
%TO.P,MOSI,1,1*%
%TO.N,/MOSI*%
X140775000Y-100225000D03*
%TD*%
D16*
%TO.N,GND*%
X99950000Y-83575000D03*
X137550000Y-116175000D03*
X109975000Y-108675000D03*
X99950000Y-116175000D03*
X122950000Y-80475000D03*
X120000000Y-116225000D03*
X137575000Y-108625000D03*
X137525000Y-83650000D03*
X99975000Y-108625000D03*
X99900000Y-76125000D03*
X100100000Y-98600000D03*
X120050000Y-68525000D03*
X137575000Y-68625000D03*
X120000000Y-108600000D03*
X110050000Y-68575000D03*
X110075000Y-76075000D03*
X110075000Y-116125000D03*
X110000000Y-83600000D03*
%TO.N,/MOSI*%
X122700000Y-94400000D03*
X121900000Y-89100000D03*
%TD*%
D17*
%TO.N,/MOSI*%
X133490000Y-98265000D02*
X135450000Y-100225000D01*
X122700000Y-89900000D02*
X121900000Y-89100000D01*
X128575000Y-98265000D02*
X133490000Y-98265000D01*
X135450000Y-100225000D02*
X140775000Y-100225000D01*
X122700000Y-94400000D02*
X122700000Y-89900000D01*
%TO.N,/MISO*%
X128575000Y-95725000D02*
X140825000Y-95725000D01*
X140825000Y-95725000D02*
X140850000Y-95750000D01*
%TO.N,/DSUB/Alert_sda*%
X90450000Y-83794345D02*
X90450000Y-84265000D01*
%TO.N,/SCLK*%
X128575000Y-93185000D02*
X133915000Y-93185000D01*
X133915000Y-93185000D02*
X136075000Y-91025000D01*
X136075000Y-91025000D02*
X140750000Y-91025000D01*
%TD*%
%TA.AperFunction,Conductor*%
%TO.N,GND*%
G36*
X149004451Y-53000159D02*
G01*
X149050105Y-53001789D01*
X149561825Y-53020066D01*
X149579553Y-53021334D01*
X149940642Y-53060154D01*
X150129676Y-53080477D01*
X150147251Y-53083003D01*
X150625780Y-53169340D01*
X150691781Y-53181248D01*
X150709149Y-53185027D01*
X151245233Y-53321854D01*
X151262285Y-53326860D01*
X151787286Y-53501597D01*
X151803928Y-53507805D01*
X152300325Y-53713419D01*
X152315102Y-53719540D01*
X152331271Y-53726924D01*
X152826037Y-53974586D01*
X152841637Y-53983104D01*
X153317482Y-54265436D01*
X153332435Y-54275046D01*
X153786912Y-54590595D01*
X153801142Y-54601247D01*
X154231964Y-54948425D01*
X154245397Y-54960066D01*
X154650345Y-55337087D01*
X154662913Y-55349655D01*
X155039934Y-55754603D01*
X155051575Y-55768036D01*
X155398753Y-56198858D01*
X155409405Y-56213088D01*
X155724954Y-56667565D01*
X155734564Y-56682518D01*
X156016896Y-57158363D01*
X156025414Y-57173963D01*
X156273076Y-57668729D01*
X156280460Y-57684898D01*
X156492193Y-58196066D01*
X156498405Y-58212720D01*
X156673139Y-58737712D01*
X156678146Y-58754767D01*
X156814973Y-59290851D01*
X156818752Y-59308219D01*
X156916995Y-59852738D01*
X156919524Y-59870333D01*
X156978666Y-60420447D01*
X156979934Y-60438175D01*
X156999841Y-60995547D01*
X157000000Y-61004435D01*
X157000000Y-132595565D01*
X156999841Y-132604453D01*
X156979934Y-133161825D01*
X156978666Y-133179553D01*
X156919524Y-133729667D01*
X156916995Y-133747262D01*
X156818752Y-134291781D01*
X156814973Y-134309149D01*
X156678146Y-134845233D01*
X156673139Y-134862288D01*
X156498405Y-135387280D01*
X156492193Y-135403934D01*
X156280460Y-135915102D01*
X156273076Y-135931271D01*
X156025414Y-136426037D01*
X156016896Y-136441637D01*
X155734564Y-136917482D01*
X155724954Y-136932435D01*
X155409405Y-137386912D01*
X155398753Y-137401142D01*
X155051575Y-137831964D01*
X155039934Y-137845397D01*
X154662913Y-138250345D01*
X154650345Y-138262913D01*
X154245397Y-138639934D01*
X154231964Y-138651575D01*
X153801142Y-138998753D01*
X153786912Y-139009405D01*
X153332435Y-139324954D01*
X153317482Y-139334564D01*
X152841637Y-139616896D01*
X152826037Y-139625414D01*
X152331271Y-139873076D01*
X152315102Y-139880460D01*
X151803928Y-140092195D01*
X151787286Y-140098403D01*
X151262288Y-140273139D01*
X151245233Y-140278146D01*
X150709149Y-140414973D01*
X150691779Y-140418752D01*
X150147251Y-140516997D01*
X150129676Y-140519523D01*
X149940642Y-140539846D01*
X149579553Y-140578666D01*
X149561825Y-140579934D01*
X149050105Y-140598211D01*
X149004451Y-140599841D01*
X148995565Y-140600000D01*
X91004435Y-140600000D01*
X90995549Y-140599841D01*
X90949895Y-140598211D01*
X90438175Y-140579934D01*
X90420447Y-140578666D01*
X90059358Y-140539846D01*
X89870324Y-140519523D01*
X89852749Y-140516997D01*
X89308221Y-140418752D01*
X89290851Y-140414973D01*
X88754767Y-140278146D01*
X88737712Y-140273139D01*
X88212714Y-140098403D01*
X88196072Y-140092195D01*
X87684898Y-139880460D01*
X87668729Y-139873076D01*
X87173963Y-139625414D01*
X87158363Y-139616896D01*
X86682518Y-139334564D01*
X86667565Y-139324954D01*
X86213088Y-139009405D01*
X86198858Y-138998753D01*
X85768036Y-138651575D01*
X85754603Y-138639934D01*
X85349655Y-138262913D01*
X85337087Y-138250345D01*
X84960066Y-137845397D01*
X84948425Y-137831964D01*
X84601247Y-137401142D01*
X84590595Y-137386912D01*
X84275046Y-136932435D01*
X84265436Y-136917482D01*
X83983104Y-136441637D01*
X83974586Y-136426037D01*
X83726924Y-135931271D01*
X83719540Y-135915102D01*
X83507807Y-135403934D01*
X83501595Y-135387280D01*
X83326861Y-134862288D01*
X83321854Y-134845233D01*
X83185027Y-134309149D01*
X83181248Y-134291781D01*
X83083005Y-133747262D01*
X83080476Y-133729667D01*
X83021334Y-133179553D01*
X83020066Y-133161825D01*
X83000159Y-132604453D01*
X83000000Y-132595565D01*
X83000000Y-130709756D01*
X89865208Y-130709756D01*
X89874133Y-130723113D01*
X89891526Y-130738939D01*
X89902660Y-130747956D01*
X90163352Y-130935281D01*
X90175443Y-130942955D01*
X90455930Y-131099073D01*
X90468836Y-131105311D01*
X90765413Y-131228157D01*
X90778924Y-131232862D01*
X91087669Y-131320811D01*
X91101642Y-131323934D01*
X91418432Y-131375811D01*
X91432683Y-131377309D01*
X91753348Y-131392431D01*
X91767659Y-131392280D01*
X92087918Y-131370448D01*
X92102152Y-131368650D01*
X92417774Y-131310152D01*
X92431691Y-131306733D01*
X92738496Y-131212348D01*
X92751942Y-131207348D01*
X93045868Y-131078324D01*
X93058639Y-131071817D01*
X93335811Y-130909851D01*
X93347710Y-130901945D01*
X93582281Y-130725825D01*
X93596194Y-130710290D01*
X93591681Y-130700891D01*
X91747341Y-128856551D01*
X91730000Y-128844964D01*
X91712659Y-128856551D01*
X89876795Y-130692415D01*
X89865208Y-130709756D01*
X83000000Y-130709756D01*
X83000000Y-128395670D01*
X88818697Y-128395670D01*
X88827100Y-128716576D01*
X88828299Y-128730852D01*
X88873531Y-129048663D01*
X88876360Y-129062697D01*
X88957823Y-129373214D01*
X88962245Y-129386822D01*
X89078855Y-129685911D01*
X89084818Y-129698937D01*
X89235026Y-129982631D01*
X89242453Y-129994894D01*
X89424268Y-130259436D01*
X89433053Y-130270762D01*
X89485411Y-130330780D01*
X89501922Y-130343518D01*
X89514476Y-130336314D01*
X91353449Y-128497341D01*
X91365036Y-128480000D01*
X92094964Y-128480000D01*
X92106551Y-128497341D01*
X93940744Y-130331534D01*
X93958085Y-130343121D01*
X93968987Y-130335836D01*
X94063949Y-130222262D01*
X94072486Y-130210767D01*
X94248731Y-129942460D01*
X94255893Y-129930056D01*
X94400136Y-129643260D01*
X94405815Y-129630135D01*
X94516138Y-129328664D01*
X94520277Y-129314956D01*
X94595217Y-129002809D01*
X94597752Y-128988719D01*
X94636515Y-128668395D01*
X94637354Y-128657369D01*
X94642754Y-128485549D01*
X94642608Y-128474458D01*
X94624036Y-128152365D01*
X94622388Y-128138120D01*
X94567200Y-127821905D01*
X94563926Y-127807946D01*
X94472756Y-127500162D01*
X94467904Y-127486683D01*
X94341954Y-127191399D01*
X94335592Y-127178582D01*
X94176543Y-126899740D01*
X94168738Y-126887722D01*
X93978703Y-126629019D01*
X93975285Y-126624888D01*
X93961388Y-126614847D01*
X93941767Y-126627443D01*
X92106551Y-128462659D01*
X92094964Y-128480000D01*
X91365036Y-128480000D01*
X91353449Y-128462659D01*
X89518133Y-126627343D01*
X89500792Y-126615756D01*
X89491315Y-126622089D01*
X89342477Y-126811907D01*
X89334305Y-126823665D01*
X89166569Y-127097387D01*
X89159809Y-127109994D01*
X89024652Y-127401165D01*
X89019373Y-127414499D01*
X88918583Y-127719261D01*
X88914871Y-127733115D01*
X88849775Y-128047448D01*
X88847684Y-128061612D01*
X88819147Y-128381357D01*
X88818697Y-128395670D01*
X83000000Y-128395670D01*
X83000000Y-126252025D01*
X89866324Y-126252025D01*
X89871825Y-126262615D01*
X91712659Y-128103449D01*
X91730000Y-128115036D01*
X91747341Y-128103449D01*
X93581613Y-126269177D01*
X93593200Y-126251836D01*
X93585551Y-126240389D01*
X93496604Y-126164421D01*
X93485205Y-126155768D01*
X93218754Y-125976720D01*
X93206430Y-125969431D01*
X93053636Y-125890569D01*
X125513292Y-125890569D01*
X125513638Y-125899366D01*
X125515606Y-125949468D01*
X125521591Y-126101774D01*
X125523691Y-126155231D01*
X125571277Y-126415788D01*
X125655101Y-126667040D01*
X125673166Y-126703194D01*
X125769558Y-126896107D01*
X125769562Y-126896114D01*
X125773490Y-126903975D01*
X125778489Y-126911208D01*
X125778492Y-126911213D01*
X125915879Y-127109994D01*
X125924083Y-127121864D01*
X126103875Y-127316361D01*
X126110695Y-127321913D01*
X126110701Y-127321919D01*
X126208040Y-127401165D01*
X126309277Y-127483585D01*
X126316826Y-127488130D01*
X126316829Y-127488132D01*
X126336811Y-127500162D01*
X126536193Y-127620200D01*
X126780094Y-127723478D01*
X126788601Y-127725734D01*
X126788608Y-127725736D01*
X127027607Y-127789106D01*
X127027612Y-127789107D01*
X127036113Y-127791361D01*
X127299143Y-127822492D01*
X127563936Y-127816252D01*
X127707270Y-127792395D01*
X127816529Y-127774210D01*
X127816535Y-127774209D01*
X127825208Y-127772765D01*
X128077746Y-127692897D01*
X128316511Y-127578244D01*
X128536739Y-127431092D01*
X128570152Y-127401165D01*
X128727481Y-127260250D01*
X128727487Y-127260244D01*
X128734036Y-127254378D01*
X128904466Y-127051628D01*
X129044627Y-126826886D01*
X129151724Y-126584638D01*
X129223620Y-126329716D01*
X129258879Y-126067207D01*
X129262579Y-125949468D01*
X129261286Y-125931197D01*
X129258409Y-125890569D01*
X148513292Y-125890569D01*
X148513638Y-125899366D01*
X148515606Y-125949468D01*
X148521591Y-126101774D01*
X148523691Y-126155231D01*
X148571277Y-126415788D01*
X148655101Y-126667040D01*
X148673166Y-126703194D01*
X148769558Y-126896107D01*
X148769562Y-126896114D01*
X148773490Y-126903975D01*
X148778489Y-126911208D01*
X148778492Y-126911213D01*
X148915879Y-127109994D01*
X148924083Y-127121864D01*
X149103875Y-127316361D01*
X149110695Y-127321913D01*
X149110701Y-127321919D01*
X149208040Y-127401165D01*
X149309277Y-127483585D01*
X149316826Y-127488130D01*
X149316829Y-127488132D01*
X149336811Y-127500162D01*
X149536193Y-127620200D01*
X149780094Y-127723478D01*
X149788601Y-127725734D01*
X149788608Y-127725736D01*
X150027607Y-127789106D01*
X150027612Y-127789107D01*
X150036113Y-127791361D01*
X150299143Y-127822492D01*
X150563936Y-127816252D01*
X150707270Y-127792395D01*
X150816529Y-127774210D01*
X150816535Y-127774209D01*
X150825208Y-127772765D01*
X151077746Y-127692897D01*
X151316511Y-127578244D01*
X151536739Y-127431092D01*
X151570152Y-127401165D01*
X151727481Y-127260250D01*
X151727487Y-127260244D01*
X151734036Y-127254378D01*
X151904466Y-127051628D01*
X152044627Y-126826886D01*
X152151724Y-126584638D01*
X152223620Y-126329716D01*
X152258879Y-126067207D01*
X152262579Y-125949468D01*
X152261286Y-125931197D01*
X152244494Y-125694051D01*
X152243872Y-125685263D01*
X152229911Y-125620416D01*
X152189978Y-125434935D01*
X152189977Y-125434930D01*
X152188125Y-125426330D01*
X152170511Y-125378583D01*
X152099495Y-125186086D01*
X152099495Y-125186085D01*
X152096451Y-125177835D01*
X152045771Y-125083908D01*
X151974858Y-124952485D01*
X151970677Y-124944736D01*
X151934313Y-124895502D01*
X151818544Y-124738764D01*
X151813315Y-124731684D01*
X151627503Y-124542930D01*
X151416949Y-124382241D01*
X151185854Y-124252821D01*
X150938830Y-124157255D01*
X150786962Y-124122054D01*
X150689378Y-124099435D01*
X150689373Y-124099434D01*
X150680804Y-124097448D01*
X150416926Y-124074593D01*
X150257603Y-124083361D01*
X150161249Y-124088664D01*
X150161245Y-124088665D01*
X150152460Y-124089148D01*
X149892683Y-124140821D01*
X149884391Y-124143733D01*
X149884387Y-124143734D01*
X149651081Y-124225665D01*
X149651074Y-124225668D01*
X149642779Y-124228581D01*
X149634972Y-124232636D01*
X149634966Y-124232639D01*
X149426761Y-124340793D01*
X149407733Y-124350677D01*
X149192235Y-124504674D01*
X149000586Y-124687498D01*
X148836609Y-124895502D01*
X148832187Y-124903115D01*
X148832185Y-124903118D01*
X148727174Y-125083908D01*
X148703576Y-125124535D01*
X148604141Y-125370028D01*
X148540289Y-125627083D01*
X148532959Y-125698620D01*
X148520298Y-125822195D01*
X148513292Y-125890569D01*
X129258409Y-125890569D01*
X129244494Y-125694051D01*
X129243872Y-125685263D01*
X129229911Y-125620416D01*
X129189978Y-125434935D01*
X129189977Y-125434930D01*
X129188125Y-125426330D01*
X129170511Y-125378583D01*
X129099495Y-125186086D01*
X129099495Y-125186085D01*
X129096451Y-125177835D01*
X129045771Y-125083908D01*
X128974858Y-124952485D01*
X128970677Y-124944736D01*
X128934313Y-124895502D01*
X128818544Y-124738764D01*
X128813315Y-124731684D01*
X128627503Y-124542930D01*
X128416949Y-124382241D01*
X128185854Y-124252821D01*
X127938830Y-124157255D01*
X127786962Y-124122054D01*
X127689378Y-124099435D01*
X127689373Y-124099434D01*
X127680804Y-124097448D01*
X127416926Y-124074593D01*
X127257603Y-124083361D01*
X127161249Y-124088664D01*
X127161245Y-124088665D01*
X127152460Y-124089148D01*
X126892683Y-124140821D01*
X126884391Y-124143733D01*
X126884387Y-124143734D01*
X126651081Y-124225665D01*
X126651074Y-124225668D01*
X126642779Y-124228581D01*
X126634972Y-124232636D01*
X126634966Y-124232639D01*
X126426761Y-124340793D01*
X126407733Y-124350677D01*
X126192235Y-124504674D01*
X126000586Y-124687498D01*
X125836609Y-124895502D01*
X125832187Y-124903115D01*
X125832185Y-124903118D01*
X125727174Y-125083908D01*
X125703576Y-125124535D01*
X125604141Y-125370028D01*
X125540289Y-125627083D01*
X125532959Y-125698620D01*
X125520298Y-125822195D01*
X125513292Y-125890569D01*
X93053636Y-125890569D01*
X92921163Y-125822195D01*
X92908091Y-125816375D01*
X92607788Y-125702900D01*
X92594129Y-125698620D01*
X92282786Y-125620416D01*
X92268718Y-125617732D01*
X91950454Y-125575832D01*
X91936157Y-125574782D01*
X91615198Y-125569740D01*
X91600879Y-125570340D01*
X91281457Y-125602222D01*
X91267304Y-125604464D01*
X90953671Y-125672847D01*
X90939864Y-125676702D01*
X90636158Y-125780684D01*
X90622909Y-125786091D01*
X90333161Y-125924294D01*
X90320605Y-125931197D01*
X90048680Y-126101774D01*
X90036991Y-126110081D01*
X89879745Y-126236059D01*
X89866324Y-126252025D01*
X83000000Y-126252025D01*
X83000000Y-122765050D01*
X92259914Y-122765050D01*
X92264974Y-122772622D01*
X92322051Y-122812588D01*
X92340807Y-122823416D01*
X92532491Y-122912800D01*
X92552846Y-122920208D01*
X92757145Y-122974950D01*
X92778475Y-122978711D01*
X92989165Y-122997144D01*
X93010835Y-122997144D01*
X93221525Y-122978711D01*
X93242855Y-122974950D01*
X93447154Y-122920208D01*
X93467509Y-122912800D01*
X93659193Y-122823416D01*
X93677949Y-122812588D01*
X93725753Y-122779115D01*
X93740174Y-122764051D01*
X93736507Y-122755717D01*
X93017341Y-122036551D01*
X93000000Y-122024964D01*
X92982659Y-122036551D01*
X92271501Y-122747709D01*
X92259914Y-122765050D01*
X83000000Y-122765050D01*
X83000000Y-120275000D01*
X89129437Y-120275000D01*
X89130384Y-120285824D01*
X89145095Y-120453969D01*
X89149651Y-120506050D01*
X89152464Y-120516547D01*
X89152464Y-120516549D01*
X89165255Y-120564283D01*
X89209680Y-120730079D01*
X89214271Y-120739924D01*
X89299871Y-120923493D01*
X89307699Y-120940281D01*
X89313931Y-120949181D01*
X89429454Y-121114165D01*
X89440730Y-121130269D01*
X89604731Y-121294270D01*
X89613629Y-121300500D01*
X89613632Y-121300503D01*
X89780214Y-121417145D01*
X89794718Y-121427301D01*
X90004921Y-121525320D01*
X90147544Y-121563536D01*
X90218451Y-121582536D01*
X90218453Y-121582536D01*
X90228950Y-121585349D01*
X90239772Y-121586296D01*
X90239773Y-121586296D01*
X90449176Y-121604616D01*
X90460000Y-121605563D01*
X90470824Y-121604616D01*
X90680227Y-121586296D01*
X90680228Y-121586296D01*
X90691050Y-121585349D01*
X90701547Y-121582536D01*
X90701549Y-121582536D01*
X90772456Y-121563536D01*
X90915079Y-121525320D01*
X91125282Y-121427301D01*
X91134183Y-121421069D01*
X91134189Y-121421065D01*
X91281202Y-121318125D01*
X91370129Y-121278995D01*
X91467261Y-121276876D01*
X91557810Y-121312088D01*
X91627991Y-121379272D01*
X91667121Y-121468199D01*
X91672075Y-121543796D01*
X91662856Y-121649166D01*
X91662856Y-121670835D01*
X91681289Y-121881525D01*
X91685050Y-121902855D01*
X91739792Y-122107154D01*
X91747200Y-122127509D01*
X91836584Y-122319193D01*
X91847412Y-122337949D01*
X91880885Y-122385753D01*
X91895949Y-122400174D01*
X91904283Y-122396507D01*
X92623449Y-121677341D01*
X92635036Y-121660000D01*
X93364964Y-121660000D01*
X93376551Y-121677341D01*
X94087709Y-122388499D01*
X94105050Y-122400086D01*
X94112622Y-122395026D01*
X94152588Y-122337949D01*
X94163416Y-122319193D01*
X94252800Y-122127509D01*
X94260208Y-122107154D01*
X94314950Y-121902855D01*
X94318711Y-121881525D01*
X94337144Y-121670835D01*
X94337144Y-121649165D01*
X94318711Y-121438475D01*
X94314950Y-121417145D01*
X94260208Y-121212846D01*
X94252800Y-121192491D01*
X94221328Y-121125000D01*
X124679341Y-121125000D01*
X124680289Y-121135835D01*
X124694218Y-121295036D01*
X124699937Y-121360408D01*
X124761097Y-121588663D01*
X124765691Y-121598516D01*
X124765693Y-121598520D01*
X124845499Y-121769663D01*
X124860965Y-121802829D01*
X124996505Y-121996401D01*
X125163599Y-122163495D01*
X125172497Y-122169725D01*
X125172500Y-122169728D01*
X125348271Y-122292804D01*
X125357170Y-122299035D01*
X125367015Y-122303626D01*
X125367017Y-122303627D01*
X125400399Y-122319193D01*
X125571337Y-122398903D01*
X125581835Y-122401716D01*
X125581838Y-122401717D01*
X125685465Y-122429483D01*
X125799592Y-122460063D01*
X125810425Y-122461011D01*
X125810426Y-122461011D01*
X126024165Y-122479711D01*
X126035000Y-122480659D01*
X126045835Y-122479711D01*
X126259574Y-122461011D01*
X126259575Y-122461011D01*
X126270408Y-122460063D01*
X126384535Y-122429483D01*
X126488162Y-122401717D01*
X126488165Y-122401716D01*
X126498663Y-122398903D01*
X126669601Y-122319193D01*
X126702983Y-122303627D01*
X126702985Y-122303626D01*
X126712830Y-122299035D01*
X126897500Y-122169728D01*
X126897502Y-122169726D01*
X126906401Y-122163495D01*
X126912676Y-122157220D01*
X126997075Y-122110917D01*
X127093652Y-122100341D01*
X127186926Y-122127527D01*
X127262695Y-122188339D01*
X127279806Y-122213375D01*
X127281474Y-122217824D01*
X127367454Y-122332546D01*
X127482176Y-122418526D01*
X127498787Y-122424753D01*
X127601804Y-122463372D01*
X127601805Y-122463372D01*
X127616420Y-122468851D01*
X127677623Y-122475500D01*
X128574400Y-122475500D01*
X129472376Y-122475499D01*
X129533580Y-122468851D01*
X129667824Y-122418526D01*
X129782546Y-122332546D01*
X129868526Y-122217824D01*
X129918851Y-122083580D01*
X129925500Y-122022377D01*
X129925499Y-120227624D01*
X129918851Y-120166420D01*
X129868526Y-120032176D01*
X129782546Y-119917454D01*
X129671472Y-119834208D01*
X129671466Y-119834203D01*
X129667824Y-119831474D01*
X129667972Y-119831277D01*
X129604334Y-119777970D01*
X129559400Y-119691831D01*
X129550850Y-119595053D01*
X129579986Y-119502369D01*
X129606884Y-119463012D01*
X129613495Y-119456401D01*
X129749035Y-119262829D01*
X129760851Y-119237490D01*
X129844307Y-119058520D01*
X129844309Y-119058516D01*
X129848903Y-119048663D01*
X129910063Y-118820408D01*
X129911426Y-118804835D01*
X129929711Y-118595835D01*
X129930659Y-118585000D01*
X129918447Y-118445417D01*
X129911011Y-118360426D01*
X129911011Y-118360425D01*
X129910063Y-118349592D01*
X129848903Y-118121337D01*
X129812669Y-118043632D01*
X129753631Y-117917027D01*
X129749035Y-117907171D01*
X129613495Y-117713599D01*
X129446401Y-117546505D01*
X129437497Y-117540270D01*
X129407075Y-117518968D01*
X129339892Y-117448786D01*
X129304680Y-117358237D01*
X129306800Y-117261105D01*
X129345929Y-117172178D01*
X129407075Y-117111032D01*
X129437497Y-117089730D01*
X129437499Y-117089728D01*
X129446401Y-117083495D01*
X129613495Y-116916401D01*
X129749035Y-116722829D01*
X129783035Y-116649917D01*
X129844307Y-116518520D01*
X129844309Y-116518516D01*
X129848903Y-116508663D01*
X129910063Y-116280408D01*
X129919335Y-116174437D01*
X129929711Y-116055835D01*
X129930659Y-116045000D01*
X129917739Y-115897332D01*
X129911011Y-115820426D01*
X129911011Y-115820425D01*
X129910063Y-115809592D01*
X129848903Y-115581337D01*
X129841381Y-115565205D01*
X129753631Y-115377027D01*
X129749035Y-115367171D01*
X129613495Y-115173599D01*
X129446401Y-115006505D01*
X129437497Y-115000270D01*
X129407075Y-114978968D01*
X129339892Y-114908786D01*
X129304680Y-114818237D01*
X129306800Y-114721105D01*
X129345929Y-114632178D01*
X129407075Y-114571032D01*
X129437497Y-114549730D01*
X129437499Y-114549728D01*
X129446401Y-114543495D01*
X129613495Y-114376401D01*
X129749035Y-114182829D01*
X129797188Y-114079566D01*
X129844307Y-113978520D01*
X129844309Y-113978516D01*
X129848903Y-113968663D01*
X129910063Y-113740408D01*
X129912768Y-113709497D01*
X129925319Y-113566040D01*
X129930659Y-113505000D01*
X129910063Y-113269592D01*
X129848903Y-113041337D01*
X129827983Y-112996473D01*
X129753631Y-112837027D01*
X129749035Y-112827171D01*
X129613495Y-112633599D01*
X129446401Y-112466505D01*
X129437494Y-112460268D01*
X129413174Y-112443238D01*
X129345991Y-112373056D01*
X129310779Y-112282506D01*
X129312900Y-112185375D01*
X129352030Y-112096448D01*
X129411403Y-112036555D01*
X129446220Y-112011721D01*
X129461776Y-111998575D01*
X129605477Y-111855374D01*
X129618674Y-111839867D01*
X129737064Y-111675110D01*
X129747547Y-111657664D01*
X129837438Y-111475784D01*
X129844933Y-111456854D01*
X129903912Y-111262732D01*
X129908141Y-111243172D01*
X129906786Y-111222503D01*
X129896466Y-111219000D01*
X128570000Y-111219000D01*
X128474712Y-111200046D01*
X128393930Y-111146070D01*
X128339954Y-111065288D01*
X128321000Y-110970000D01*
X128321000Y-110960000D01*
X128339954Y-110864712D01*
X128393930Y-110783930D01*
X128474712Y-110729954D01*
X128570000Y-110711000D01*
X129886932Y-110711000D01*
X129907390Y-110706931D01*
X129908419Y-110701755D01*
X129907723Y-110696127D01*
X129867444Y-110535773D01*
X129860880Y-110516492D01*
X129779986Y-110330446D01*
X129770364Y-110312502D01*
X129660168Y-110142164D01*
X129647737Y-110126022D01*
X129511209Y-109975980D01*
X129496305Y-109962082D01*
X129400862Y-109886706D01*
X129337829Y-109812774D01*
X129307887Y-109720348D01*
X129315594Y-109623499D01*
X129359776Y-109536972D01*
X129412367Y-109487326D01*
X129437497Y-109469730D01*
X129437499Y-109469728D01*
X129446401Y-109463495D01*
X129613495Y-109296401D01*
X129715118Y-109151268D01*
X129742797Y-109111738D01*
X129742798Y-109111737D01*
X129749035Y-109102829D01*
X129762861Y-109073180D01*
X129844307Y-108898520D01*
X129844309Y-108898516D01*
X129848903Y-108888663D01*
X129910063Y-108660408D01*
X129930659Y-108425000D01*
X129910063Y-108189592D01*
X129848903Y-107961337D01*
X129818047Y-107895165D01*
X129753631Y-107757027D01*
X129749035Y-107747171D01*
X129613495Y-107553599D01*
X129446401Y-107386505D01*
X129437497Y-107380270D01*
X129407075Y-107358968D01*
X129339892Y-107288786D01*
X129304680Y-107198237D01*
X129306800Y-107101105D01*
X129345929Y-107012178D01*
X129407075Y-106951032D01*
X129437497Y-106929730D01*
X129437499Y-106929728D01*
X129446401Y-106923495D01*
X129613495Y-106756401D01*
X129749035Y-106562829D01*
X129808243Y-106435859D01*
X129844307Y-106358520D01*
X129844309Y-106358516D01*
X129848903Y-106348663D01*
X129910063Y-106120408D01*
X129930659Y-105885000D01*
X129910063Y-105649592D01*
X129848903Y-105421337D01*
X129841626Y-105405730D01*
X129753631Y-105217027D01*
X129749035Y-105207171D01*
X129613495Y-105013599D01*
X129446401Y-104846505D01*
X129437497Y-104840270D01*
X129407075Y-104818968D01*
X129339892Y-104748786D01*
X129304680Y-104658237D01*
X129306800Y-104561105D01*
X129345929Y-104472178D01*
X129407075Y-104411032D01*
X129437497Y-104389730D01*
X129437499Y-104389728D01*
X129446401Y-104383495D01*
X129613495Y-104216401D01*
X129734394Y-104043739D01*
X129742797Y-104031738D01*
X129742798Y-104031737D01*
X129749035Y-104022829D01*
X129812817Y-103886050D01*
X129844307Y-103818520D01*
X129844309Y-103818516D01*
X129848903Y-103808663D01*
X129910063Y-103580408D01*
X129930659Y-103345000D01*
X129910063Y-103109592D01*
X129848903Y-102881337D01*
X129771556Y-102715466D01*
X129753631Y-102677027D01*
X129749035Y-102667171D01*
X129722656Y-102629497D01*
X129646428Y-102520633D01*
X129613495Y-102473599D01*
X129446401Y-102306505D01*
X129437497Y-102300270D01*
X129407075Y-102278968D01*
X129339892Y-102208786D01*
X129304680Y-102118237D01*
X129306800Y-102021105D01*
X129345929Y-101932178D01*
X129407075Y-101871032D01*
X129437497Y-101849730D01*
X129437499Y-101849728D01*
X129446401Y-101843495D01*
X129613495Y-101676401D01*
X129749035Y-101482829D01*
X129753631Y-101472973D01*
X129844307Y-101278520D01*
X129844309Y-101278516D01*
X129848903Y-101268663D01*
X129910063Y-101040408D01*
X129917129Y-100959651D01*
X129929711Y-100815835D01*
X129930659Y-100805000D01*
X129918551Y-100666603D01*
X129911011Y-100580426D01*
X129911011Y-100580425D01*
X129910063Y-100569592D01*
X129848903Y-100341337D01*
X129825866Y-100291933D01*
X129753631Y-100137027D01*
X129749035Y-100127171D01*
X129613495Y-99933599D01*
X129446401Y-99766505D01*
X129437497Y-99760270D01*
X129407075Y-99738968D01*
X129339892Y-99668786D01*
X129304680Y-99578237D01*
X129306800Y-99481105D01*
X129345929Y-99392178D01*
X129407075Y-99331032D01*
X129437497Y-99309730D01*
X129437499Y-99309728D01*
X129446401Y-99303495D01*
X129613495Y-99136401D01*
X129711329Y-98996679D01*
X129781509Y-98929496D01*
X129872058Y-98894283D01*
X129915297Y-98890500D01*
X133127770Y-98890500D01*
X133223058Y-98909454D01*
X133303840Y-98963430D01*
X134955953Y-100615543D01*
X134959485Y-100619424D01*
X134964214Y-100626877D01*
X134993043Y-100653950D01*
X135011780Y-100671545D01*
X135017397Y-100676987D01*
X135035530Y-100695120D01*
X135041705Y-100699911D01*
X135043363Y-100701372D01*
X135049115Y-100706605D01*
X135079418Y-100735062D01*
X135093144Y-100742608D01*
X135100545Y-100747985D01*
X135108828Y-100753425D01*
X135116686Y-100758073D01*
X135129064Y-100767674D01*
X135157017Y-100779770D01*
X135163746Y-100782682D01*
X135184805Y-100792999D01*
X135197240Y-100799835D01*
X135217908Y-100811197D01*
X135233078Y-100815092D01*
X135241562Y-100818451D01*
X135250956Y-100821667D01*
X135259722Y-100824214D01*
X135274105Y-100830438D01*
X135311436Y-100836351D01*
X135334372Y-100841100D01*
X135370981Y-100850500D01*
X135386647Y-100850500D01*
X135395678Y-100851641D01*
X135405627Y-100852424D01*
X135414726Y-100852710D01*
X135430196Y-100855160D01*
X135467805Y-100851605D01*
X135491236Y-100850500D01*
X139258938Y-100850500D01*
X139354226Y-100869454D01*
X139435008Y-100923430D01*
X139471244Y-100969396D01*
X139560006Y-101114241D01*
X139721557Y-101300741D01*
X139843964Y-101402365D01*
X139858859Y-101414731D01*
X139911399Y-101458351D01*
X140124433Y-101582838D01*
X140354939Y-101670859D01*
X140364950Y-101672896D01*
X140364954Y-101672897D01*
X140586713Y-101718015D01*
X140586715Y-101718015D01*
X140596726Y-101720052D01*
X140699353Y-101723815D01*
X140833087Y-101728719D01*
X140833093Y-101728719D01*
X140843300Y-101729093D01*
X140853431Y-101727795D01*
X140853436Y-101727795D01*
X140988670Y-101710471D01*
X141088041Y-101697741D01*
X141133553Y-101684087D01*
X141188863Y-101667493D01*
X141324374Y-101626838D01*
X141545954Y-101518287D01*
X141639132Y-101451824D01*
X141738512Y-101380937D01*
X141738516Y-101380934D01*
X141746829Y-101375004D01*
X141921605Y-101200837D01*
X142065588Y-101000463D01*
X142174911Y-100779264D01*
X142178433Y-100767674D01*
X142243669Y-100552956D01*
X142243669Y-100552954D01*
X142246639Y-100543180D01*
X142250799Y-100511587D01*
X142277981Y-100305114D01*
X142277981Y-100305111D01*
X142278845Y-100298550D01*
X142280643Y-100225000D01*
X142260425Y-99979089D01*
X142200316Y-99739783D01*
X142101928Y-99513507D01*
X141967905Y-99306339D01*
X141801846Y-99123842D01*
X141608210Y-98970918D01*
X141590911Y-98961368D01*
X141401143Y-98856611D01*
X141401144Y-98856611D01*
X141392198Y-98851673D01*
X141382572Y-98848264D01*
X141382567Y-98848262D01*
X141169240Y-98772719D01*
X141169238Y-98772718D01*
X141159610Y-98769309D01*
X140916694Y-98726039D01*
X140906474Y-98725914D01*
X140906472Y-98725914D01*
X140766179Y-98724200D01*
X140669972Y-98723025D01*
X140480826Y-98751968D01*
X140436166Y-98758802D01*
X140436165Y-98758802D01*
X140426070Y-98760347D01*
X140416359Y-98763521D01*
X140201250Y-98833829D01*
X140201247Y-98833830D01*
X140191540Y-98837003D01*
X139972679Y-98950935D01*
X139775364Y-99099083D01*
X139768312Y-99106463D01*
X139768307Y-99106467D01*
X139739702Y-99136401D01*
X139604896Y-99277468D01*
X139470909Y-99473886D01*
X139470905Y-99473890D01*
X139465851Y-99481300D01*
X139465000Y-99480720D01*
X139407703Y-99546982D01*
X139320869Y-99590560D01*
X139254746Y-99599500D01*
X135812230Y-99599500D01*
X135716942Y-99580546D01*
X135636160Y-99526570D01*
X134838254Y-98728663D01*
X133984045Y-97874454D01*
X133980515Y-97870574D01*
X133975786Y-97863123D01*
X133928237Y-97818471D01*
X133922620Y-97813029D01*
X133904471Y-97794880D01*
X133898299Y-97790093D01*
X133896633Y-97788624D01*
X133890867Y-97783378D01*
X133860582Y-97754938D01*
X133846855Y-97747392D01*
X133839477Y-97742031D01*
X133831184Y-97736584D01*
X133823320Y-97731933D01*
X133810936Y-97722327D01*
X133796551Y-97716102D01*
X133776254Y-97707318D01*
X133755203Y-97697006D01*
X133722092Y-97678803D01*
X133706915Y-97674906D01*
X133698431Y-97671547D01*
X133689017Y-97668324D01*
X133680273Y-97665783D01*
X133665896Y-97659562D01*
X133650426Y-97657112D01*
X133650423Y-97657111D01*
X133628581Y-97653652D01*
X133605602Y-97648893D01*
X133584198Y-97643397D01*
X133584195Y-97643397D01*
X133569019Y-97639500D01*
X133553351Y-97639500D01*
X133544304Y-97638357D01*
X133534373Y-97637576D01*
X133525274Y-97637290D01*
X133509804Y-97634840D01*
X133472195Y-97638395D01*
X133448764Y-97639500D01*
X129915297Y-97639500D01*
X129820009Y-97620546D01*
X129739227Y-97566570D01*
X129711328Y-97533320D01*
X129613495Y-97393599D01*
X129446401Y-97226505D01*
X129437497Y-97220270D01*
X129407075Y-97198968D01*
X129339892Y-97128786D01*
X129304680Y-97038237D01*
X129306800Y-96941105D01*
X129345929Y-96852178D01*
X129407075Y-96791032D01*
X129437497Y-96769730D01*
X129437499Y-96769728D01*
X129446401Y-96763495D01*
X129613495Y-96596401D01*
X129711329Y-96456679D01*
X129781509Y-96389496D01*
X129872058Y-96354283D01*
X129915297Y-96350500D01*
X139318618Y-96350500D01*
X139413906Y-96369454D01*
X139494688Y-96423430D01*
X139530924Y-96469395D01*
X139635006Y-96639241D01*
X139796557Y-96825741D01*
X139914307Y-96923499D01*
X139976643Y-96975251D01*
X139986399Y-96983351D01*
X140098559Y-97048892D01*
X140178713Y-97095730D01*
X140199433Y-97107838D01*
X140429939Y-97195859D01*
X140439950Y-97197896D01*
X140439954Y-97197897D01*
X140661713Y-97243015D01*
X140661715Y-97243015D01*
X140671726Y-97245052D01*
X140774353Y-97248815D01*
X140908087Y-97253719D01*
X140908093Y-97253719D01*
X140918300Y-97254093D01*
X140928431Y-97252795D01*
X140928436Y-97252795D01*
X141063670Y-97235471D01*
X141163041Y-97222741D01*
X141399374Y-97151838D01*
X141620954Y-97043287D01*
X141708580Y-96980784D01*
X141813512Y-96905937D01*
X141813516Y-96905934D01*
X141821829Y-96900004D01*
X141996605Y-96725837D01*
X142140588Y-96525463D01*
X142249911Y-96304264D01*
X142255638Y-96285417D01*
X142318669Y-96077956D01*
X142318669Y-96077954D01*
X142321639Y-96068180D01*
X142323267Y-96055819D01*
X142352981Y-95830114D01*
X142352981Y-95830111D01*
X142353845Y-95823550D01*
X142355643Y-95750000D01*
X142354479Y-95735835D01*
X142341341Y-95576050D01*
X142335425Y-95504089D01*
X142275316Y-95264783D01*
X142176928Y-95038507D01*
X142042905Y-94831339D01*
X141876846Y-94648842D01*
X141683210Y-94495918D01*
X141672003Y-94489731D01*
X141517757Y-94404583D01*
X141467198Y-94376673D01*
X141457572Y-94373264D01*
X141457567Y-94373262D01*
X141244240Y-94297719D01*
X141244238Y-94297718D01*
X141234610Y-94294309D01*
X140991694Y-94251039D01*
X140981474Y-94250914D01*
X140981472Y-94250914D01*
X140841179Y-94249200D01*
X140744972Y-94248025D01*
X140555826Y-94276968D01*
X140511166Y-94283802D01*
X140511165Y-94283802D01*
X140501070Y-94285347D01*
X140491359Y-94288521D01*
X140276250Y-94358829D01*
X140276247Y-94358830D01*
X140266540Y-94362003D01*
X140047679Y-94475935D01*
X139850364Y-94624083D01*
X139843312Y-94631463D01*
X139843307Y-94631467D01*
X139710836Y-94770091D01*
X139679896Y-94802468D01*
X139674134Y-94810915D01*
X139551412Y-94990818D01*
X139482057Y-95058854D01*
X139391945Y-95095171D01*
X139345714Y-95099500D01*
X129915297Y-95099500D01*
X129820009Y-95080546D01*
X129739227Y-95026570D01*
X129711328Y-94993320D01*
X129707672Y-94988098D01*
X129613495Y-94853599D01*
X129446401Y-94686505D01*
X129437497Y-94680270D01*
X129407075Y-94658968D01*
X129339892Y-94588786D01*
X129304680Y-94498237D01*
X129306800Y-94401105D01*
X129345929Y-94312178D01*
X129407075Y-94251032D01*
X129437497Y-94229730D01*
X129437499Y-94229728D01*
X129446401Y-94223495D01*
X129613495Y-94056401D01*
X129711329Y-93916679D01*
X129781509Y-93849496D01*
X129872058Y-93814283D01*
X129915297Y-93810500D01*
X133841801Y-93810500D01*
X133847054Y-93810748D01*
X133855667Y-93812673D01*
X133871325Y-93812181D01*
X133871326Y-93812181D01*
X133920900Y-93810623D01*
X133928721Y-93810500D01*
X133954350Y-93810500D01*
X133962113Y-93809519D01*
X133964274Y-93809383D01*
X133972095Y-93809014D01*
X133988809Y-93808489D01*
X134013627Y-93807709D01*
X134028678Y-93803336D01*
X134037690Y-93801909D01*
X134047430Y-93799892D01*
X134056248Y-93797628D01*
X134071792Y-93795664D01*
X134106918Y-93781756D01*
X134129106Y-93774160D01*
X134150341Y-93767991D01*
X134150348Y-93767988D01*
X134165390Y-93763618D01*
X134178876Y-93755642D01*
X134187253Y-93752017D01*
X134196185Y-93747641D01*
X134204170Y-93743251D01*
X134218732Y-93737486D01*
X134249303Y-93715275D01*
X134268906Y-93702399D01*
X134287940Y-93691142D01*
X134301420Y-93683170D01*
X134312491Y-93672099D01*
X134319685Y-93666519D01*
X134327261Y-93660048D01*
X134333909Y-93653805D01*
X134346587Y-93644594D01*
X134370663Y-93615491D01*
X134386451Y-93598139D01*
X136261161Y-91723430D01*
X136341943Y-91669454D01*
X136437231Y-91650500D01*
X139233938Y-91650500D01*
X139329226Y-91669454D01*
X139410008Y-91723430D01*
X139446244Y-91769396D01*
X139535006Y-91914241D01*
X139696557Y-92100741D01*
X139886399Y-92258351D01*
X140014917Y-92333451D01*
X140051406Y-92354773D01*
X140099433Y-92382838D01*
X140329939Y-92470859D01*
X140339950Y-92472896D01*
X140339954Y-92472897D01*
X140561713Y-92518015D01*
X140561715Y-92518015D01*
X140571726Y-92520052D01*
X140674353Y-92523815D01*
X140808087Y-92528719D01*
X140808093Y-92528719D01*
X140818300Y-92529093D01*
X140828431Y-92527795D01*
X140828436Y-92527795D01*
X140989428Y-92507171D01*
X141063041Y-92497741D01*
X141299374Y-92426838D01*
X141520954Y-92318287D01*
X141559547Y-92290759D01*
X141713512Y-92180937D01*
X141713516Y-92180934D01*
X141721829Y-92175004D01*
X141896605Y-92000837D01*
X142040588Y-91800463D01*
X142149911Y-91579264D01*
X142157062Y-91555730D01*
X142218669Y-91352956D01*
X142218669Y-91352954D01*
X142221639Y-91343180D01*
X142223146Y-91331738D01*
X142252981Y-91105114D01*
X142252981Y-91105111D01*
X142253845Y-91098550D01*
X142254588Y-91068180D01*
X142255481Y-91031625D01*
X142255643Y-91025000D01*
X142254444Y-91010410D01*
X142236262Y-90789271D01*
X142235425Y-90779089D01*
X142175316Y-90539783D01*
X142076928Y-90313507D01*
X141942905Y-90106339D01*
X141776846Y-89923842D01*
X141583210Y-89770918D01*
X141574144Y-89765913D01*
X141376143Y-89656611D01*
X141376144Y-89656611D01*
X141367198Y-89651673D01*
X141357572Y-89648264D01*
X141357567Y-89648262D01*
X141144240Y-89572719D01*
X141144238Y-89572718D01*
X141134610Y-89569309D01*
X140891694Y-89526039D01*
X140881474Y-89525914D01*
X140881472Y-89525914D01*
X140741179Y-89524200D01*
X140644972Y-89523025D01*
X140480171Y-89548243D01*
X140411166Y-89558802D01*
X140411165Y-89558802D01*
X140401070Y-89560347D01*
X140391359Y-89563521D01*
X140176250Y-89633829D01*
X140176247Y-89633830D01*
X140166540Y-89637003D01*
X139947679Y-89750935D01*
X139750364Y-89899083D01*
X139743312Y-89906463D01*
X139743307Y-89906467D01*
X139609443Y-90046549D01*
X139579896Y-90077468D01*
X139574134Y-90085915D01*
X139485551Y-90215773D01*
X139445909Y-90273886D01*
X139445905Y-90273890D01*
X139440851Y-90281300D01*
X139440000Y-90280720D01*
X139382703Y-90346982D01*
X139295869Y-90390560D01*
X139229746Y-90399500D01*
X136148187Y-90399500D01*
X136142943Y-90399253D01*
X136134332Y-90397328D01*
X136118671Y-90397820D01*
X136069118Y-90399377D01*
X136061298Y-90399500D01*
X136035650Y-90399500D01*
X136027896Y-90400480D01*
X136025679Y-90400619D01*
X136017871Y-90400987D01*
X135999501Y-90401564D01*
X135976373Y-90402291D01*
X135961330Y-90406662D01*
X135952316Y-90408089D01*
X135942568Y-90410108D01*
X135933745Y-90412373D01*
X135918208Y-90414336D01*
X135903647Y-90420101D01*
X135883070Y-90428248D01*
X135860890Y-90435842D01*
X135824610Y-90446383D01*
X135811126Y-90454357D01*
X135802767Y-90457974D01*
X135793799Y-90462367D01*
X135785830Y-90466748D01*
X135771268Y-90472514D01*
X135758596Y-90481721D01*
X135758590Y-90481724D01*
X135740704Y-90494719D01*
X135721098Y-90507598D01*
X135702067Y-90518853D01*
X135702065Y-90518854D01*
X135688579Y-90526830D01*
X135677502Y-90537907D01*
X135670303Y-90543491D01*
X135662729Y-90549960D01*
X135656084Y-90556200D01*
X135643413Y-90565406D01*
X135633431Y-90577472D01*
X135633428Y-90577475D01*
X135619342Y-90594503D01*
X135603554Y-90611855D01*
X133728839Y-92486570D01*
X133648057Y-92540546D01*
X133552769Y-92559500D01*
X129915297Y-92559500D01*
X129820009Y-92540546D01*
X129739227Y-92486570D01*
X129711328Y-92453320D01*
X129711230Y-92453180D01*
X129613495Y-92313599D01*
X129446401Y-92146505D01*
X129437494Y-92140268D01*
X129413174Y-92123238D01*
X129345991Y-92053056D01*
X129310779Y-91962506D01*
X129312900Y-91865375D01*
X129352030Y-91776448D01*
X129411403Y-91716555D01*
X129446220Y-91691721D01*
X129461776Y-91678575D01*
X129605477Y-91535374D01*
X129618674Y-91519867D01*
X129737064Y-91355110D01*
X129747547Y-91337664D01*
X129837438Y-91155784D01*
X129844933Y-91136854D01*
X129903912Y-90942732D01*
X129908141Y-90923172D01*
X129906786Y-90902503D01*
X129896466Y-90899000D01*
X128570000Y-90899000D01*
X128474712Y-90880046D01*
X128393930Y-90826070D01*
X128339954Y-90745288D01*
X128321000Y-90650000D01*
X128321000Y-90640000D01*
X128339954Y-90544712D01*
X128393930Y-90463930D01*
X128474712Y-90409954D01*
X128570000Y-90391000D01*
X129886932Y-90391000D01*
X129907390Y-90386931D01*
X129908419Y-90381755D01*
X129907723Y-90376127D01*
X129867444Y-90215773D01*
X129860880Y-90196492D01*
X129779983Y-90010440D01*
X129770364Y-89992502D01*
X129660168Y-89822164D01*
X129647737Y-89806022D01*
X129511209Y-89655980D01*
X129496305Y-89642082D01*
X129400862Y-89566706D01*
X129337829Y-89492774D01*
X129307887Y-89400348D01*
X129315594Y-89303499D01*
X129359776Y-89216972D01*
X129412367Y-89167326D01*
X129437497Y-89149730D01*
X129437499Y-89149728D01*
X129446401Y-89143495D01*
X129613495Y-88976401D01*
X129749035Y-88782829D01*
X129755222Y-88769561D01*
X129844307Y-88578520D01*
X129844309Y-88578516D01*
X129848903Y-88568663D01*
X129910063Y-88340408D01*
X129912572Y-88311737D01*
X129929711Y-88115835D01*
X129930659Y-88105000D01*
X129910063Y-87869592D01*
X129848903Y-87641337D01*
X129817332Y-87573632D01*
X129753631Y-87437027D01*
X129749035Y-87427171D01*
X129613495Y-87233599D01*
X129446401Y-87066505D01*
X129437497Y-87060270D01*
X129407075Y-87038968D01*
X129339892Y-86968786D01*
X129304680Y-86878237D01*
X129306800Y-86781105D01*
X129345929Y-86692178D01*
X129407075Y-86631032D01*
X129437497Y-86609730D01*
X129437499Y-86609728D01*
X129446401Y-86603495D01*
X129613495Y-86436401D01*
X129749035Y-86242829D01*
X129808679Y-86114924D01*
X129844307Y-86038520D01*
X129844309Y-86038516D01*
X129848903Y-86028663D01*
X129910063Y-85800408D01*
X129930659Y-85565000D01*
X129910063Y-85329592D01*
X129848903Y-85101337D01*
X129841381Y-85085205D01*
X129753631Y-84897027D01*
X129749035Y-84887171D01*
X129613495Y-84693599D01*
X129446401Y-84526505D01*
X129437497Y-84520270D01*
X129407075Y-84498968D01*
X129339892Y-84428786D01*
X129304680Y-84338237D01*
X129306800Y-84241105D01*
X129345929Y-84152178D01*
X129407075Y-84091032D01*
X129437497Y-84069730D01*
X129437499Y-84069728D01*
X129446401Y-84063495D01*
X129613495Y-83896401D01*
X129749035Y-83702829D01*
X129792525Y-83609566D01*
X129844307Y-83498520D01*
X129844309Y-83498516D01*
X129848903Y-83488663D01*
X129910063Y-83260408D01*
X129930659Y-83025000D01*
X129910063Y-82789592D01*
X129848903Y-82561337D01*
X129823373Y-82506587D01*
X129753631Y-82357027D01*
X129749035Y-82347171D01*
X129613495Y-82153599D01*
X129446401Y-81986505D01*
X129437497Y-81980270D01*
X129407075Y-81958968D01*
X129339892Y-81888786D01*
X129304680Y-81798237D01*
X129306800Y-81701105D01*
X129345929Y-81612178D01*
X129407075Y-81551032D01*
X129437497Y-81529730D01*
X129437499Y-81529728D01*
X129446401Y-81523495D01*
X129613495Y-81356401D01*
X129749035Y-81162829D01*
X129801454Y-81050417D01*
X129844307Y-80958520D01*
X129844309Y-80958516D01*
X129848903Y-80948663D01*
X129910063Y-80720408D01*
X129917122Y-80639731D01*
X129929711Y-80495835D01*
X129930659Y-80485000D01*
X129910063Y-80249592D01*
X129848903Y-80021337D01*
X129841381Y-80005205D01*
X129753631Y-79817027D01*
X129749035Y-79807171D01*
X129613495Y-79613599D01*
X129446401Y-79446505D01*
X129437497Y-79440270D01*
X129407075Y-79418968D01*
X129339892Y-79348786D01*
X129304680Y-79258237D01*
X129306800Y-79161105D01*
X129345929Y-79072178D01*
X129407075Y-79011032D01*
X129437497Y-78989730D01*
X129437499Y-78989728D01*
X129446401Y-78983495D01*
X129613495Y-78816401D01*
X129749035Y-78622829D01*
X129786997Y-78541420D01*
X129844307Y-78418520D01*
X129844309Y-78418516D01*
X129848903Y-78408663D01*
X129910063Y-78180408D01*
X129930659Y-77945000D01*
X129910063Y-77709592D01*
X129848903Y-77481337D01*
X129822710Y-77425165D01*
X129753631Y-77277027D01*
X129749035Y-77267171D01*
X129613495Y-77073599D01*
X129446401Y-76906505D01*
X129437497Y-76900270D01*
X129407075Y-76878968D01*
X129339892Y-76808786D01*
X129304680Y-76718237D01*
X129306800Y-76621105D01*
X129345929Y-76532178D01*
X129407075Y-76471032D01*
X129437497Y-76449730D01*
X129437499Y-76449728D01*
X129446401Y-76443495D01*
X129613495Y-76276401D01*
X129749035Y-76082829D01*
X129768930Y-76040165D01*
X129844307Y-75878520D01*
X129844309Y-75878516D01*
X129848903Y-75868663D01*
X129910063Y-75640408D01*
X129930659Y-75405000D01*
X129910063Y-75169592D01*
X129848903Y-74941337D01*
X129817306Y-74873576D01*
X129753631Y-74737027D01*
X129749035Y-74727171D01*
X129613495Y-74533599D01*
X129446401Y-74366505D01*
X129437494Y-74360268D01*
X129413174Y-74343238D01*
X129345991Y-74273056D01*
X129310779Y-74182506D01*
X129312900Y-74085375D01*
X129352030Y-73996448D01*
X129411403Y-73936555D01*
X129446220Y-73911721D01*
X129461776Y-73898575D01*
X129605477Y-73755374D01*
X129618674Y-73739867D01*
X129737064Y-73575110D01*
X129747547Y-73557664D01*
X129837438Y-73375784D01*
X129844933Y-73356854D01*
X129903912Y-73162732D01*
X129908141Y-73143172D01*
X129906786Y-73122503D01*
X129896466Y-73119000D01*
X128570000Y-73119000D01*
X128474712Y-73100046D01*
X128393930Y-73046070D01*
X128339954Y-72965288D01*
X128321000Y-72870000D01*
X128321000Y-72586473D01*
X128829000Y-72586473D01*
X128833069Y-72606931D01*
X128853527Y-72611000D01*
X129886932Y-72611000D01*
X129907390Y-72606931D01*
X129908419Y-72601755D01*
X129907723Y-72596127D01*
X129867444Y-72435773D01*
X129860880Y-72416492D01*
X129779986Y-72230446D01*
X129770364Y-72212502D01*
X129660168Y-72042164D01*
X129647737Y-72026022D01*
X129511209Y-71875980D01*
X129496305Y-71862082D01*
X129337098Y-71736349D01*
X129320141Y-71725082D01*
X129142526Y-71627033D01*
X129123952Y-71618685D01*
X128932719Y-71550966D01*
X128913018Y-71545761D01*
X128853147Y-71535096D01*
X128832291Y-71535515D01*
X128829000Y-71543935D01*
X128829000Y-72586473D01*
X128321000Y-72586473D01*
X128321000Y-71554514D01*
X128316931Y-71534056D01*
X128307138Y-71532108D01*
X128269301Y-71537898D01*
X128249503Y-71542615D01*
X128056657Y-71605646D01*
X128037892Y-71613534D01*
X127857937Y-71707213D01*
X127840700Y-71718068D01*
X127678476Y-71839870D01*
X127663235Y-71853401D01*
X127523080Y-72000065D01*
X127510259Y-72015899D01*
X127505456Y-72022939D01*
X127436100Y-72090975D01*
X127345988Y-72127290D01*
X127248837Y-72126357D01*
X127159439Y-72088316D01*
X127095791Y-72025441D01*
X127079731Y-72002505D01*
X127073495Y-71993599D01*
X126906401Y-71826505D01*
X126897503Y-71820275D01*
X126897500Y-71820272D01*
X126721729Y-71697196D01*
X126721728Y-71697195D01*
X126712830Y-71690965D01*
X126702985Y-71686374D01*
X126702983Y-71686373D01*
X126626055Y-71650501D01*
X126498663Y-71591097D01*
X126488165Y-71588284D01*
X126488162Y-71588283D01*
X126384536Y-71560517D01*
X126270408Y-71529937D01*
X126259575Y-71528989D01*
X126259574Y-71528989D01*
X126045835Y-71510289D01*
X126035000Y-71509341D01*
X126024165Y-71510289D01*
X125810426Y-71528989D01*
X125810425Y-71528989D01*
X125799592Y-71529937D01*
X125571337Y-71591097D01*
X125561484Y-71595691D01*
X125561480Y-71595693D01*
X125367027Y-71686369D01*
X125357171Y-71690965D01*
X125163599Y-71826505D01*
X124996505Y-71993599D01*
X124860965Y-72187171D01*
X124856369Y-72197027D01*
X124794488Y-72329731D01*
X124761097Y-72401337D01*
X124699937Y-72629592D01*
X124679341Y-72865000D01*
X124699937Y-73100408D01*
X124761097Y-73328663D01*
X124765691Y-73338516D01*
X124765693Y-73338520D01*
X124802615Y-73417699D01*
X124860965Y-73542829D01*
X124867202Y-73551737D01*
X124867203Y-73551738D01*
X124883568Y-73575110D01*
X124996505Y-73736401D01*
X125163599Y-73903495D01*
X125172501Y-73909728D01*
X125172503Y-73909730D01*
X125202923Y-73931030D01*
X125270108Y-74001211D01*
X125305321Y-74091760D01*
X125303202Y-74188892D01*
X125264074Y-74277819D01*
X125202926Y-74338968D01*
X125163599Y-74366505D01*
X124996505Y-74533599D01*
X124860965Y-74727171D01*
X124856369Y-74737027D01*
X124792695Y-74873576D01*
X124761097Y-74941337D01*
X124699937Y-75169592D01*
X124679341Y-75405000D01*
X124699937Y-75640408D01*
X124761097Y-75868663D01*
X124765691Y-75878516D01*
X124765693Y-75878520D01*
X124841070Y-76040165D01*
X124860965Y-76082829D01*
X124996505Y-76276401D01*
X125163599Y-76443495D01*
X125172501Y-76449728D01*
X125172503Y-76449730D01*
X125202923Y-76471030D01*
X125270108Y-76541211D01*
X125305321Y-76631760D01*
X125303202Y-76728892D01*
X125264074Y-76817819D01*
X125202926Y-76878968D01*
X125163599Y-76906505D01*
X124996505Y-77073599D01*
X124860965Y-77267171D01*
X124856369Y-77277027D01*
X124787291Y-77425165D01*
X124761097Y-77481337D01*
X124699937Y-77709592D01*
X124679341Y-77945000D01*
X124699937Y-78180408D01*
X124761097Y-78408663D01*
X124765691Y-78418516D01*
X124765693Y-78418520D01*
X124823003Y-78541420D01*
X124860965Y-78622829D01*
X124996505Y-78816401D01*
X125163599Y-78983495D01*
X125172497Y-78989725D01*
X125172500Y-78989728D01*
X125197646Y-79007335D01*
X125264830Y-79077517D01*
X125300042Y-79168066D01*
X125297923Y-79265198D01*
X125258794Y-79354125D01*
X125204330Y-79410425D01*
X125138476Y-79459870D01*
X125123235Y-79473401D01*
X124983080Y-79620065D01*
X124970257Y-79635901D01*
X124855937Y-79803487D01*
X124845877Y-79821196D01*
X124760463Y-80005205D01*
X124753428Y-80024327D01*
X124699911Y-80217301D01*
X124700818Y-80227388D01*
X124712374Y-80231000D01*
X126040000Y-80231000D01*
X126135288Y-80249954D01*
X126216070Y-80303930D01*
X126270046Y-80384712D01*
X126289000Y-80480000D01*
X126289000Y-80490000D01*
X126270046Y-80585288D01*
X126216070Y-80666070D01*
X126135288Y-80720046D01*
X126040000Y-80739000D01*
X124724637Y-80739000D01*
X124704179Y-80743069D01*
X124702846Y-80749774D01*
X124703146Y-80752471D01*
X124732456Y-80882529D01*
X124738542Y-80901949D01*
X124814867Y-81089917D01*
X124824057Y-81108110D01*
X124930053Y-81281079D01*
X124942081Y-81297513D01*
X125074909Y-81450853D01*
X125089462Y-81465105D01*
X125213042Y-81567703D01*
X125274249Y-81643153D01*
X125301923Y-81736283D01*
X125291852Y-81832915D01*
X125245568Y-81918337D01*
X125196808Y-81963252D01*
X125163599Y-81986505D01*
X124996505Y-82153599D01*
X124860965Y-82347171D01*
X124856369Y-82357027D01*
X124786628Y-82506587D01*
X124761097Y-82561337D01*
X124699937Y-82789592D01*
X124679341Y-83025000D01*
X124699937Y-83260408D01*
X124761097Y-83488663D01*
X124765691Y-83498516D01*
X124765693Y-83498520D01*
X124817475Y-83609566D01*
X124860965Y-83702829D01*
X124996505Y-83896401D01*
X125163599Y-84063495D01*
X125172497Y-84069725D01*
X125172500Y-84069728D01*
X125197646Y-84087335D01*
X125264830Y-84157517D01*
X125300042Y-84248066D01*
X125297923Y-84345198D01*
X125258794Y-84434125D01*
X125204330Y-84490425D01*
X125138476Y-84539870D01*
X125123235Y-84553401D01*
X124983080Y-84700065D01*
X124970257Y-84715901D01*
X124855937Y-84883487D01*
X124845877Y-84901196D01*
X124760463Y-85085205D01*
X124753428Y-85104327D01*
X124699911Y-85297301D01*
X124700818Y-85307388D01*
X124712374Y-85311000D01*
X126040000Y-85311000D01*
X126135288Y-85329954D01*
X126216070Y-85383930D01*
X126270046Y-85464712D01*
X126289000Y-85560000D01*
X126289000Y-85570000D01*
X126270046Y-85665288D01*
X126216070Y-85746070D01*
X126135288Y-85800046D01*
X126040000Y-85819000D01*
X124724637Y-85819000D01*
X124704179Y-85823069D01*
X124702846Y-85829774D01*
X124703146Y-85832471D01*
X124732456Y-85962529D01*
X124738542Y-85981949D01*
X124814867Y-86169917D01*
X124824057Y-86188110D01*
X124930053Y-86361079D01*
X124942081Y-86377513D01*
X125074909Y-86530853D01*
X125089462Y-86545105D01*
X125213042Y-86647703D01*
X125274249Y-86723153D01*
X125301923Y-86816283D01*
X125291852Y-86912915D01*
X125245568Y-86998337D01*
X125196808Y-87043252D01*
X125163599Y-87066505D01*
X124996505Y-87233599D01*
X124860965Y-87427171D01*
X124856369Y-87437027D01*
X124792669Y-87573632D01*
X124761097Y-87641337D01*
X124699937Y-87869592D01*
X124679341Y-88105000D01*
X124680289Y-88115835D01*
X124697429Y-88311737D01*
X124699937Y-88340408D01*
X124761097Y-88568663D01*
X124765691Y-88578516D01*
X124765693Y-88578520D01*
X124854778Y-88769561D01*
X124860965Y-88782829D01*
X124996505Y-88976401D01*
X125163599Y-89143495D01*
X125172501Y-89149728D01*
X125172503Y-89149730D01*
X125202923Y-89171030D01*
X125270108Y-89241211D01*
X125305321Y-89331760D01*
X125303202Y-89428892D01*
X125264074Y-89517819D01*
X125202926Y-89578968D01*
X125196314Y-89583598D01*
X125163599Y-89606505D01*
X124996505Y-89773599D01*
X124860965Y-89967171D01*
X124856369Y-89977027D01*
X124768950Y-90164497D01*
X124761097Y-90181337D01*
X124699937Y-90409592D01*
X124698989Y-90420425D01*
X124698989Y-90420426D01*
X124688316Y-90542418D01*
X124679341Y-90645000D01*
X124680289Y-90655835D01*
X124691073Y-90779089D01*
X124699937Y-90880408D01*
X124761097Y-91108663D01*
X124765691Y-91118516D01*
X124765693Y-91118520D01*
X124804078Y-91200836D01*
X124860965Y-91322829D01*
X124867202Y-91331737D01*
X124867203Y-91331738D01*
X124875215Y-91343180D01*
X124996505Y-91516401D01*
X125163599Y-91683495D01*
X125172501Y-91689728D01*
X125172503Y-91689730D01*
X125202923Y-91711030D01*
X125270108Y-91781211D01*
X125305321Y-91871760D01*
X125303202Y-91968892D01*
X125264074Y-92057819D01*
X125202926Y-92118968D01*
X125163599Y-92146505D01*
X124996505Y-92313599D01*
X124860965Y-92507171D01*
X124856369Y-92517027D01*
X124766533Y-92709680D01*
X124761097Y-92721337D01*
X124699937Y-92949592D01*
X124679341Y-93185000D01*
X124680289Y-93195835D01*
X124692958Y-93340634D01*
X124699937Y-93420408D01*
X124761097Y-93648663D01*
X124765691Y-93658516D01*
X124765693Y-93658520D01*
X124847623Y-93834217D01*
X124860965Y-93862829D01*
X124996505Y-94056401D01*
X125163599Y-94223495D01*
X125172501Y-94229728D01*
X125172503Y-94229730D01*
X125202923Y-94251030D01*
X125270108Y-94321211D01*
X125305321Y-94411760D01*
X125303202Y-94508892D01*
X125264074Y-94597819D01*
X125202926Y-94658968D01*
X125163599Y-94686505D01*
X124996505Y-94853599D01*
X124963723Y-94900417D01*
X124878327Y-95022376D01*
X124860965Y-95047171D01*
X124856369Y-95057027D01*
X124766926Y-95248837D01*
X124761097Y-95261337D01*
X124699937Y-95489592D01*
X124698989Y-95500425D01*
X124698989Y-95500426D01*
X124692630Y-95573108D01*
X124679341Y-95725000D01*
X124699937Y-95960408D01*
X124761097Y-96188663D01*
X124765691Y-96198516D01*
X124765693Y-96198520D01*
X124845402Y-96369454D01*
X124860965Y-96402829D01*
X124996505Y-96596401D01*
X125163599Y-96763495D01*
X125172497Y-96769725D01*
X125172500Y-96769728D01*
X125197646Y-96787335D01*
X125264830Y-96857517D01*
X125300042Y-96948066D01*
X125297923Y-97045198D01*
X125258794Y-97134125D01*
X125204330Y-97190425D01*
X125138476Y-97239870D01*
X125123235Y-97253401D01*
X124983080Y-97400065D01*
X124970257Y-97415901D01*
X124855937Y-97583487D01*
X124845877Y-97601196D01*
X124760463Y-97785205D01*
X124753428Y-97804327D01*
X124699911Y-97997301D01*
X124700818Y-98007388D01*
X124712374Y-98011000D01*
X126040000Y-98011000D01*
X126135288Y-98029954D01*
X126216070Y-98083930D01*
X126270046Y-98164712D01*
X126289000Y-98260000D01*
X126289000Y-98270000D01*
X126270046Y-98365288D01*
X126216070Y-98446070D01*
X126135288Y-98500046D01*
X126040000Y-98519000D01*
X124724637Y-98519000D01*
X124704179Y-98523069D01*
X124702846Y-98529774D01*
X124703146Y-98532471D01*
X124732456Y-98662529D01*
X124738542Y-98681949D01*
X124814867Y-98869917D01*
X124824057Y-98888110D01*
X124930053Y-99061079D01*
X124942081Y-99077513D01*
X125074909Y-99230853D01*
X125089462Y-99245105D01*
X125213042Y-99347703D01*
X125274249Y-99423153D01*
X125301923Y-99516283D01*
X125291852Y-99612915D01*
X125245568Y-99698337D01*
X125196808Y-99743252D01*
X125163599Y-99766505D01*
X124996505Y-99933599D01*
X124860965Y-100127171D01*
X124856369Y-100137027D01*
X124784135Y-100291933D01*
X124761097Y-100341337D01*
X124699937Y-100569592D01*
X124698989Y-100580425D01*
X124698989Y-100580426D01*
X124691449Y-100666603D01*
X124679341Y-100805000D01*
X124680289Y-100815835D01*
X124692872Y-100959651D01*
X124699937Y-101040408D01*
X124761097Y-101268663D01*
X124765691Y-101278516D01*
X124765693Y-101278520D01*
X124856369Y-101472973D01*
X124860965Y-101482829D01*
X124996505Y-101676401D01*
X125163599Y-101843495D01*
X125172501Y-101849728D01*
X125172503Y-101849730D01*
X125202923Y-101871030D01*
X125270108Y-101941211D01*
X125305321Y-102031760D01*
X125303202Y-102128892D01*
X125264074Y-102217819D01*
X125202926Y-102278968D01*
X125187880Y-102289503D01*
X125163599Y-102306505D01*
X124996505Y-102473599D01*
X124963572Y-102520633D01*
X124887345Y-102629497D01*
X124860965Y-102667171D01*
X124856369Y-102677027D01*
X124838445Y-102715466D01*
X124761097Y-102881337D01*
X124699937Y-103109592D01*
X124679341Y-103345000D01*
X124699937Y-103580408D01*
X124761097Y-103808663D01*
X124765691Y-103818516D01*
X124765693Y-103818520D01*
X124797183Y-103886050D01*
X124860965Y-104022829D01*
X124867202Y-104031737D01*
X124867203Y-104031738D01*
X124875606Y-104043739D01*
X124996505Y-104216401D01*
X125163599Y-104383495D01*
X125172497Y-104389725D01*
X125172500Y-104389728D01*
X125197646Y-104407335D01*
X125264830Y-104477517D01*
X125300042Y-104568066D01*
X125297923Y-104665198D01*
X125258794Y-104754125D01*
X125204330Y-104810425D01*
X125138476Y-104859870D01*
X125123235Y-104873401D01*
X124983080Y-105020065D01*
X124970257Y-105035901D01*
X124855937Y-105203487D01*
X124845877Y-105221196D01*
X124760463Y-105405205D01*
X124753428Y-105424327D01*
X124699911Y-105617301D01*
X124700818Y-105627388D01*
X124712374Y-105631000D01*
X126040000Y-105631000D01*
X126135288Y-105649954D01*
X126216070Y-105703930D01*
X126270046Y-105784712D01*
X126289000Y-105880000D01*
X126289000Y-105890000D01*
X126270046Y-105985288D01*
X126216070Y-106066070D01*
X126135288Y-106120046D01*
X126040000Y-106139000D01*
X124724637Y-106139000D01*
X124704179Y-106143069D01*
X124702846Y-106149774D01*
X124703146Y-106152471D01*
X124732456Y-106282529D01*
X124738542Y-106301949D01*
X124814867Y-106489917D01*
X124824057Y-106508110D01*
X124930053Y-106681079D01*
X124942081Y-106697513D01*
X125074909Y-106850853D01*
X125089462Y-106865105D01*
X125213042Y-106967703D01*
X125274249Y-107043153D01*
X125301923Y-107136283D01*
X125291852Y-107232915D01*
X125245568Y-107318337D01*
X125196808Y-107363252D01*
X125163599Y-107386505D01*
X124996505Y-107553599D01*
X124860965Y-107747171D01*
X124856369Y-107757027D01*
X124791954Y-107895165D01*
X124761097Y-107961337D01*
X124699937Y-108189592D01*
X124679341Y-108425000D01*
X124699937Y-108660408D01*
X124761097Y-108888663D01*
X124765691Y-108898516D01*
X124765693Y-108898520D01*
X124847139Y-109073180D01*
X124860965Y-109102829D01*
X124867202Y-109111737D01*
X124867203Y-109111738D01*
X124894882Y-109151268D01*
X124996505Y-109296401D01*
X125163599Y-109463495D01*
X125172501Y-109469728D01*
X125172503Y-109469730D01*
X125202923Y-109491030D01*
X125270108Y-109561211D01*
X125305321Y-109651760D01*
X125303202Y-109748892D01*
X125264074Y-109837819D01*
X125202926Y-109898968D01*
X125163599Y-109926505D01*
X124996505Y-110093599D01*
X124860965Y-110287171D01*
X124856369Y-110297027D01*
X124781222Y-110458180D01*
X124761097Y-110501337D01*
X124699937Y-110729592D01*
X124698989Y-110740425D01*
X124698989Y-110740426D01*
X124693281Y-110805669D01*
X124679341Y-110965000D01*
X124699937Y-111200408D01*
X124761097Y-111428663D01*
X124765691Y-111438516D01*
X124765693Y-111438520D01*
X124833533Y-111584002D01*
X124860965Y-111642829D01*
X124867202Y-111651737D01*
X124867203Y-111651738D01*
X124873985Y-111661424D01*
X124996505Y-111836401D01*
X125163599Y-112003495D01*
X125172501Y-112009728D01*
X125172503Y-112009730D01*
X125202923Y-112031030D01*
X125270108Y-112101211D01*
X125305321Y-112191760D01*
X125303202Y-112288892D01*
X125264074Y-112377819D01*
X125202926Y-112438968D01*
X125163599Y-112466505D01*
X124996505Y-112633599D01*
X124860965Y-112827171D01*
X124856369Y-112837027D01*
X124782018Y-112996473D01*
X124761097Y-113041337D01*
X124699937Y-113269592D01*
X124679341Y-113505000D01*
X124684681Y-113566040D01*
X124697233Y-113709497D01*
X124699937Y-113740408D01*
X124761097Y-113968663D01*
X124765691Y-113978516D01*
X124765693Y-113978520D01*
X124812812Y-114079566D01*
X124860965Y-114182829D01*
X124996505Y-114376401D01*
X125163599Y-114543495D01*
X125172497Y-114549725D01*
X125172500Y-114549728D01*
X125197646Y-114567335D01*
X125264830Y-114637517D01*
X125300042Y-114728066D01*
X125297923Y-114825198D01*
X125258794Y-114914125D01*
X125204330Y-114970425D01*
X125138476Y-115019870D01*
X125123235Y-115033401D01*
X124983080Y-115180065D01*
X124970257Y-115195901D01*
X124855937Y-115363487D01*
X124845877Y-115381196D01*
X124760463Y-115565205D01*
X124753428Y-115584327D01*
X124699911Y-115777301D01*
X124700818Y-115787388D01*
X124712374Y-115791000D01*
X126040000Y-115791000D01*
X126135288Y-115809954D01*
X126216070Y-115863930D01*
X126270046Y-115944712D01*
X126289000Y-116040000D01*
X126289000Y-116050000D01*
X126270046Y-116145288D01*
X126216070Y-116226070D01*
X126135288Y-116280046D01*
X126040000Y-116299000D01*
X124724637Y-116299000D01*
X124704179Y-116303069D01*
X124702846Y-116309774D01*
X124703146Y-116312471D01*
X124732456Y-116442529D01*
X124738542Y-116461949D01*
X124814867Y-116649917D01*
X124824057Y-116668110D01*
X124930053Y-116841079D01*
X124942081Y-116857513D01*
X125074909Y-117010853D01*
X125089462Y-117025105D01*
X125213042Y-117127703D01*
X125274249Y-117203153D01*
X125301923Y-117296283D01*
X125291852Y-117392915D01*
X125245568Y-117478337D01*
X125196808Y-117523252D01*
X125163599Y-117546505D01*
X124996505Y-117713599D01*
X124860965Y-117907171D01*
X124856369Y-117917027D01*
X124797332Y-118043632D01*
X124761097Y-118121337D01*
X124699937Y-118349592D01*
X124698989Y-118360425D01*
X124698989Y-118360426D01*
X124691553Y-118445417D01*
X124679341Y-118585000D01*
X124680289Y-118595835D01*
X124698575Y-118804835D01*
X124699937Y-118820408D01*
X124761097Y-119048663D01*
X124765691Y-119058516D01*
X124765693Y-119058520D01*
X124849149Y-119237490D01*
X124860965Y-119262829D01*
X124996505Y-119456401D01*
X125163599Y-119623495D01*
X125172501Y-119629728D01*
X125172503Y-119629730D01*
X125202923Y-119651030D01*
X125270108Y-119721211D01*
X125305321Y-119811760D01*
X125303202Y-119908892D01*
X125264074Y-119997819D01*
X125202926Y-120058968D01*
X125163599Y-120086505D01*
X124996505Y-120253599D01*
X124860965Y-120447171D01*
X124856369Y-120457027D01*
X124781393Y-120617813D01*
X124761097Y-120661337D01*
X124699937Y-120889592D01*
X124698989Y-120900425D01*
X124698989Y-120900426D01*
X124691848Y-120982051D01*
X124679341Y-121125000D01*
X94221328Y-121125000D01*
X94163416Y-121000807D01*
X94152588Y-120982051D01*
X94119115Y-120934247D01*
X94104051Y-120919826D01*
X94095717Y-120923493D01*
X93376551Y-121642659D01*
X93364964Y-121660000D01*
X92635036Y-121660000D01*
X92623449Y-121642659D01*
X91912291Y-120931501D01*
X91859804Y-120896431D01*
X91842581Y-120889297D01*
X91773882Y-120820598D01*
X91736702Y-120730839D01*
X91736701Y-120633684D01*
X91740402Y-120617813D01*
X91769759Y-120508254D01*
X91776849Y-120493877D01*
X91774017Y-120481103D01*
X91774906Y-120453969D01*
X91789616Y-120285836D01*
X91789616Y-120285824D01*
X91790563Y-120275000D01*
X91789616Y-120264176D01*
X91789616Y-120264164D01*
X91779906Y-120153180D01*
X91790482Y-120056603D01*
X91837213Y-119971424D01*
X91912982Y-119910612D01*
X92006256Y-119883426D01*
X92102833Y-119894002D01*
X92170779Y-119927510D01*
X92325811Y-120036065D01*
X92325817Y-120036069D01*
X92334718Y-120042301D01*
X92344565Y-120046893D01*
X92353986Y-120052332D01*
X92352995Y-120054049D01*
X92419262Y-120102636D01*
X92469665Y-120185694D01*
X92484447Y-120281717D01*
X92461357Y-120376089D01*
X92403910Y-120454440D01*
X92349873Y-120490548D01*
X92350220Y-120491149D01*
X92341057Y-120496439D01*
X92340918Y-120496532D01*
X92340804Y-120496585D01*
X92322051Y-120507412D01*
X92274247Y-120540885D01*
X92259826Y-120555949D01*
X92263493Y-120564283D01*
X92982659Y-121283449D01*
X93000000Y-121295036D01*
X93017341Y-121283449D01*
X93728499Y-120572291D01*
X93740086Y-120554950D01*
X93735026Y-120547378D01*
X93677949Y-120507412D01*
X93659196Y-120496585D01*
X93659082Y-120496532D01*
X93659001Y-120496473D01*
X93649780Y-120491149D01*
X93650363Y-120490139D01*
X93580732Y-120439082D01*
X93530332Y-120356023D01*
X93515553Y-120259999D01*
X93538646Y-120165628D01*
X93596096Y-120087278D01*
X93646678Y-120053482D01*
X93646014Y-120052332D01*
X93655436Y-120046892D01*
X93665282Y-120042301D01*
X93679742Y-120032176D01*
X93846368Y-119915503D01*
X93846371Y-119915500D01*
X93855269Y-119909270D01*
X94019270Y-119745269D01*
X94085256Y-119651032D01*
X94146069Y-119564181D01*
X94152301Y-119555281D01*
X94250320Y-119345079D01*
X94310349Y-119121050D01*
X94315846Y-119058224D01*
X94329616Y-118900824D01*
X94330563Y-118890000D01*
X94318780Y-118755320D01*
X94311296Y-118669773D01*
X94311296Y-118669772D01*
X94310349Y-118658950D01*
X94250320Y-118434921D01*
X94152301Y-118224719D01*
X94107288Y-118160434D01*
X94025503Y-118043632D01*
X94025500Y-118043629D01*
X94019270Y-118034731D01*
X93855269Y-117870730D01*
X93846371Y-117864500D01*
X93846368Y-117864497D01*
X93674181Y-117743930D01*
X93674180Y-117743929D01*
X93665282Y-117737699D01*
X93650211Y-117730671D01*
X93646489Y-117727942D01*
X93646014Y-117727668D01*
X93646044Y-117727616D01*
X93571862Y-117673224D01*
X93521459Y-117590165D01*
X93506679Y-117494141D01*
X93529770Y-117399770D01*
X93587218Y-117321420D01*
X93650211Y-117279329D01*
X93665282Y-117272301D01*
X93674188Y-117266065D01*
X93846368Y-117145503D01*
X93846371Y-117145500D01*
X93855269Y-117139270D01*
X94019270Y-116975269D01*
X94066728Y-116907493D01*
X94146069Y-116794181D01*
X94152301Y-116785281D01*
X94250320Y-116575079D01*
X94310349Y-116351050D01*
X94315846Y-116288224D01*
X94329616Y-116130824D01*
X94330563Y-116120000D01*
X94318780Y-115985320D01*
X94311296Y-115899773D01*
X94311296Y-115899772D01*
X94310349Y-115888950D01*
X94250320Y-115664921D01*
X94152301Y-115454719D01*
X94100820Y-115381196D01*
X94025503Y-115273632D01*
X94025500Y-115273629D01*
X94019270Y-115264731D01*
X93855269Y-115100730D01*
X93846371Y-115094500D01*
X93846368Y-115094497D01*
X93674181Y-114973930D01*
X93674180Y-114973929D01*
X93665282Y-114967699D01*
X93650211Y-114960671D01*
X93646489Y-114957942D01*
X93646014Y-114957668D01*
X93646044Y-114957616D01*
X93571862Y-114903224D01*
X93521459Y-114820165D01*
X93506679Y-114724141D01*
X93529770Y-114629770D01*
X93587218Y-114551420D01*
X93650211Y-114509329D01*
X93665282Y-114502301D01*
X93677921Y-114493451D01*
X93846368Y-114375503D01*
X93846371Y-114375500D01*
X93855269Y-114369270D01*
X94019270Y-114205269D01*
X94152301Y-114015281D01*
X94170137Y-113977033D01*
X94245729Y-113814924D01*
X94250320Y-113805079D01*
X94310349Y-113581050D01*
X94315846Y-113518224D01*
X94329616Y-113360824D01*
X94330563Y-113350000D01*
X94318780Y-113215320D01*
X94311296Y-113129773D01*
X94311296Y-113129772D01*
X94310349Y-113118950D01*
X94250320Y-112894921D01*
X94152301Y-112684719D01*
X94019270Y-112494731D01*
X93855269Y-112330730D01*
X93846371Y-112324500D01*
X93846368Y-112324497D01*
X93674181Y-112203930D01*
X93674180Y-112203929D01*
X93665282Y-112197699D01*
X93650211Y-112190671D01*
X93646489Y-112187942D01*
X93646014Y-112187668D01*
X93646044Y-112187616D01*
X93571862Y-112133224D01*
X93521459Y-112050165D01*
X93506679Y-111954141D01*
X93529770Y-111859770D01*
X93587218Y-111781420D01*
X93650211Y-111739329D01*
X93665282Y-111732301D01*
X93746959Y-111675110D01*
X93846368Y-111605503D01*
X93846371Y-111605500D01*
X93855269Y-111599270D01*
X94019270Y-111435269D01*
X94152301Y-111245281D01*
X94173395Y-111200046D01*
X94245729Y-111044924D01*
X94250320Y-111035079D01*
X94310349Y-110811050D01*
X94315846Y-110748224D01*
X94329616Y-110590824D01*
X94330563Y-110580000D01*
X94318780Y-110445320D01*
X94311296Y-110359773D01*
X94311296Y-110359772D01*
X94310349Y-110348950D01*
X94250320Y-110124921D01*
X94152301Y-109914719D01*
X94098455Y-109837819D01*
X94025503Y-109733632D01*
X94025500Y-109733629D01*
X94019270Y-109724731D01*
X93855269Y-109560730D01*
X93846371Y-109554500D01*
X93846368Y-109554497D01*
X93674181Y-109433930D01*
X93674180Y-109433929D01*
X93665282Y-109427699D01*
X93650211Y-109420671D01*
X93646489Y-109417942D01*
X93646014Y-109417668D01*
X93646044Y-109417616D01*
X93571862Y-109363224D01*
X93521459Y-109280165D01*
X93506679Y-109184141D01*
X93529770Y-109089770D01*
X93587218Y-109011420D01*
X93650211Y-108969329D01*
X93665282Y-108962301D01*
X93677921Y-108953451D01*
X93846368Y-108835503D01*
X93846371Y-108835500D01*
X93855269Y-108829270D01*
X94019270Y-108665269D01*
X94152301Y-108475281D01*
X94175748Y-108425000D01*
X94245729Y-108274924D01*
X94250320Y-108265079D01*
X94310349Y-108041050D01*
X94315846Y-107978224D01*
X94329616Y-107820824D01*
X94330563Y-107810000D01*
X94316922Y-107654075D01*
X94311296Y-107589773D01*
X94311296Y-107589772D01*
X94310349Y-107578950D01*
X94250320Y-107354921D01*
X94193428Y-107232915D01*
X94156893Y-107154566D01*
X94156892Y-107154564D01*
X94152301Y-107144719D01*
X94099521Y-107069341D01*
X94025503Y-106963632D01*
X94025500Y-106963629D01*
X94019270Y-106954731D01*
X93855269Y-106790730D01*
X93846371Y-106784500D01*
X93846368Y-106784497D01*
X93674181Y-106663930D01*
X93674180Y-106663929D01*
X93665282Y-106657699D01*
X93650211Y-106650671D01*
X93646489Y-106647942D01*
X93646014Y-106647668D01*
X93646044Y-106647616D01*
X93571862Y-106593224D01*
X93521459Y-106510165D01*
X93506679Y-106414141D01*
X93529770Y-106319770D01*
X93587218Y-106241420D01*
X93650211Y-106199329D01*
X93665282Y-106192301D01*
X93726017Y-106149774D01*
X93846368Y-106065503D01*
X93846371Y-106065500D01*
X93855269Y-106059270D01*
X94019270Y-105895269D01*
X94026461Y-105885000D01*
X94146069Y-105714181D01*
X94152301Y-105705281D01*
X94178101Y-105649954D01*
X94245729Y-105504924D01*
X94250320Y-105495079D01*
X94304410Y-105293214D01*
X94307536Y-105281549D01*
X94307536Y-105281547D01*
X94310349Y-105271050D01*
X94315846Y-105208224D01*
X94329616Y-105050824D01*
X94330563Y-105040000D01*
X94315988Y-104873401D01*
X94311296Y-104819773D01*
X94311296Y-104819772D01*
X94310349Y-104808950D01*
X94300303Y-104771456D01*
X94272820Y-104668892D01*
X94250320Y-104584921D01*
X94172438Y-104417903D01*
X94156893Y-104384566D01*
X94156892Y-104384564D01*
X94152301Y-104374719D01*
X94095244Y-104293233D01*
X94025503Y-104193632D01*
X94025500Y-104193629D01*
X94019270Y-104184731D01*
X93855269Y-104020730D01*
X93846371Y-104014500D01*
X93846368Y-104014497D01*
X93674181Y-103893930D01*
X93674180Y-103893929D01*
X93665282Y-103887699D01*
X93650211Y-103880671D01*
X93646489Y-103877942D01*
X93646014Y-103877668D01*
X93646044Y-103877616D01*
X93571862Y-103823224D01*
X93521459Y-103740165D01*
X93506679Y-103644141D01*
X93529770Y-103549770D01*
X93587218Y-103471420D01*
X93650211Y-103429329D01*
X93665282Y-103422301D01*
X93674188Y-103416065D01*
X93846368Y-103295503D01*
X93846371Y-103295500D01*
X93855269Y-103289270D01*
X94019270Y-103125269D01*
X94030248Y-103109592D01*
X94146069Y-102944181D01*
X94152301Y-102935281D01*
X94250320Y-102725079D01*
X94290916Y-102573576D01*
X94307536Y-102511549D01*
X94307536Y-102511547D01*
X94310349Y-102501050D01*
X94315846Y-102438224D01*
X94329616Y-102280824D01*
X94330563Y-102270000D01*
X94317286Y-102118237D01*
X94311296Y-102049773D01*
X94311296Y-102049772D01*
X94310349Y-102038950D01*
X94305568Y-102021105D01*
X94274261Y-101904270D01*
X94250320Y-101814921D01*
X94183143Y-101670859D01*
X94156893Y-101614566D01*
X94156892Y-101614564D01*
X94152301Y-101604719D01*
X94066953Y-101482829D01*
X94025503Y-101423632D01*
X94025500Y-101423629D01*
X94019270Y-101414731D01*
X93855269Y-101250730D01*
X93846371Y-101244500D01*
X93846368Y-101244497D01*
X93674181Y-101123930D01*
X93674180Y-101123929D01*
X93665282Y-101117699D01*
X93650211Y-101110671D01*
X93646489Y-101107942D01*
X93646014Y-101107668D01*
X93646044Y-101107616D01*
X93571862Y-101053224D01*
X93521459Y-100970165D01*
X93506679Y-100874141D01*
X93529770Y-100779770D01*
X93587218Y-100701420D01*
X93650211Y-100659329D01*
X93665282Y-100652301D01*
X93677921Y-100643451D01*
X93846368Y-100525503D01*
X93846371Y-100525500D01*
X93855269Y-100519270D01*
X94019270Y-100355269D01*
X94029026Y-100341337D01*
X94146069Y-100174181D01*
X94152301Y-100165281D01*
X94174227Y-100118262D01*
X94241999Y-99972924D01*
X94250320Y-99955079D01*
X94300849Y-99766505D01*
X94307536Y-99741549D01*
X94307536Y-99741547D01*
X94310349Y-99731050D01*
X94315846Y-99668224D01*
X94329616Y-99510824D01*
X94330563Y-99500000D01*
X94321920Y-99401211D01*
X94311296Y-99279773D01*
X94311296Y-99279772D01*
X94310349Y-99268950D01*
X94306351Y-99254027D01*
X94272445Y-99127493D01*
X94250320Y-99044921D01*
X94168714Y-98869917D01*
X94156893Y-98844566D01*
X94156892Y-98844564D01*
X94152301Y-98834719D01*
X94077458Y-98727832D01*
X94025503Y-98653632D01*
X94025500Y-98653629D01*
X94019270Y-98644731D01*
X93855269Y-98480730D01*
X93846371Y-98474500D01*
X93846368Y-98474497D01*
X93674181Y-98353930D01*
X93674180Y-98353929D01*
X93665282Y-98347699D01*
X93650211Y-98340671D01*
X93646489Y-98337942D01*
X93646014Y-98337668D01*
X93646044Y-98337616D01*
X93571862Y-98283224D01*
X93521459Y-98200165D01*
X93506679Y-98104141D01*
X93529770Y-98009770D01*
X93587218Y-97931420D01*
X93650211Y-97889329D01*
X93665282Y-97882301D01*
X93682791Y-97870041D01*
X93846368Y-97755503D01*
X93846371Y-97755500D01*
X93855269Y-97749270D01*
X94019270Y-97585269D01*
X94032364Y-97566570D01*
X94146069Y-97404181D01*
X94152301Y-97395281D01*
X94250320Y-97185079D01*
X94302993Y-96988504D01*
X94307536Y-96971549D01*
X94307536Y-96971547D01*
X94310349Y-96961050D01*
X94315846Y-96898224D01*
X94329616Y-96740824D01*
X94330563Y-96730000D01*
X94328888Y-96710850D01*
X104675420Y-96710850D01*
X104678753Y-96852271D01*
X104689057Y-97289492D01*
X104742018Y-97865866D01*
X104742688Y-97870028D01*
X104742690Y-97870041D01*
X104780402Y-98104176D01*
X104834059Y-98437303D01*
X104835016Y-98441431D01*
X104835017Y-98441437D01*
X104856118Y-98532471D01*
X104964753Y-99001157D01*
X104965988Y-99005210D01*
X104965992Y-99005224D01*
X105131108Y-99546982D01*
X105133496Y-99554816D01*
X105135005Y-99558778D01*
X105135006Y-99558781D01*
X105337997Y-100091758D01*
X105338003Y-100091772D01*
X105339505Y-100095716D01*
X105581826Y-100621351D01*
X105859337Y-101129288D01*
X106170753Y-101617173D01*
X106173264Y-101620572D01*
X106173267Y-101620577D01*
X106188237Y-101640845D01*
X106514632Y-102082748D01*
X106889381Y-102523855D01*
X106998365Y-102635730D01*
X107290174Y-102935281D01*
X107293263Y-102938452D01*
X107296413Y-102941273D01*
X107296422Y-102941282D01*
X107585187Y-103199921D01*
X107724410Y-103324619D01*
X107727741Y-103327216D01*
X107727746Y-103327221D01*
X108161933Y-103665836D01*
X108180823Y-103680568D01*
X108660389Y-104004648D01*
X108664056Y-104006778D01*
X108664064Y-104006783D01*
X109144639Y-104285923D01*
X109160888Y-104295361D01*
X109339606Y-104383495D01*
X109676207Y-104549489D01*
X109676219Y-104549494D01*
X109680000Y-104551359D01*
X110215321Y-104771456D01*
X110219329Y-104772793D01*
X110219342Y-104772798D01*
X110760338Y-104953288D01*
X110760343Y-104953289D01*
X110764373Y-104954634D01*
X111324613Y-105100043D01*
X111573916Y-105146924D01*
X111889274Y-105206227D01*
X111889284Y-105206229D01*
X111893445Y-105207011D01*
X112324023Y-105257973D01*
X112464018Y-105274543D01*
X112464021Y-105274543D01*
X112468235Y-105275042D01*
X112598942Y-105281549D01*
X113042097Y-105303611D01*
X113042107Y-105303611D01*
X113046322Y-105303821D01*
X113584865Y-105293950D01*
X113620773Y-105293292D01*
X113620774Y-105293292D01*
X113625027Y-105293214D01*
X113629259Y-105292847D01*
X113629268Y-105292847D01*
X114197446Y-105243637D01*
X114197448Y-105243637D01*
X114201671Y-105243271D01*
X114490745Y-105198262D01*
X114769397Y-105154876D01*
X114769408Y-105154874D01*
X114773582Y-105154224D01*
X115338113Y-105026484D01*
X115542535Y-104965349D01*
X115888594Y-104861856D01*
X115888610Y-104861851D01*
X115892648Y-104860643D01*
X116434619Y-104657469D01*
X116961516Y-104417903D01*
X117470898Y-104143055D01*
X117960408Y-103834198D01*
X117963824Y-103831702D01*
X117963832Y-103831697D01*
X118293428Y-103590909D01*
X118427776Y-103492761D01*
X118431002Y-103490049D01*
X118431010Y-103490043D01*
X118867596Y-103123055D01*
X118867598Y-103123053D01*
X118870840Y-103120328D01*
X119107859Y-102891840D01*
X119284486Y-102721571D01*
X119284488Y-102721569D01*
X119287546Y-102718621D01*
X119325195Y-102677027D01*
X119673109Y-102292659D01*
X119673118Y-102292648D01*
X119675965Y-102289503D01*
X119823957Y-102101776D01*
X120031677Y-101838284D01*
X120031680Y-101838280D01*
X120034298Y-101834959D01*
X120360886Y-101357096D01*
X120394016Y-101300741D01*
X120575925Y-100991303D01*
X120654215Y-100858127D01*
X120912927Y-100340363D01*
X121135824Y-99806201D01*
X121149299Y-99766505D01*
X121320518Y-99262111D01*
X121320522Y-99262099D01*
X121321874Y-99258115D01*
X121470215Y-98698645D01*
X121473446Y-98681949D01*
X121579358Y-98134526D01*
X121580160Y-98130381D01*
X121580720Y-98125859D01*
X121650679Y-97560158D01*
X121651199Y-97555954D01*
X121683005Y-96978026D01*
X121683841Y-96898224D01*
X121684841Y-96802698D01*
X121684841Y-96802690D01*
X121684870Y-96799912D01*
X121684442Y-96787326D01*
X121669569Y-96350500D01*
X121665175Y-96221445D01*
X121606181Y-95645657D01*
X121548058Y-95307402D01*
X121550601Y-95210283D01*
X121590117Y-95121527D01*
X121660591Y-95054650D01*
X121751293Y-95019833D01*
X121848414Y-95022376D01*
X121937170Y-95061892D01*
X121970717Y-95090671D01*
X121976818Y-95098369D01*
X122126238Y-95225535D01*
X122297513Y-95321257D01*
X122484118Y-95381889D01*
X122678946Y-95405121D01*
X122691085Y-95404187D01*
X122691087Y-95404187D01*
X122745874Y-95399971D01*
X122874576Y-95390068D01*
X122997222Y-95355824D01*
X123051824Y-95340579D01*
X123051827Y-95340578D01*
X123063556Y-95337303D01*
X123238689Y-95248837D01*
X123260913Y-95231474D01*
X123383705Y-95135539D01*
X123383707Y-95135538D01*
X123393303Y-95128040D01*
X123521509Y-94979511D01*
X123530320Y-94964002D01*
X123612408Y-94819501D01*
X123612408Y-94819500D01*
X123618425Y-94808909D01*
X123658125Y-94689566D01*
X123676514Y-94634288D01*
X123676514Y-94634286D01*
X123680358Y-94622732D01*
X123704949Y-94428071D01*
X123705046Y-94421131D01*
X123705244Y-94406956D01*
X123705244Y-94406954D01*
X123705341Y-94400000D01*
X123686194Y-94204728D01*
X123682563Y-94192699D01*
X123633003Y-94028549D01*
X123633002Y-94028547D01*
X123629484Y-94016894D01*
X123605007Y-93970859D01*
X123543087Y-93854404D01*
X123543084Y-93854400D01*
X123537370Y-93843653D01*
X123443821Y-93728950D01*
X123421061Y-93701043D01*
X123421060Y-93701042D01*
X123413361Y-93691602D01*
X123403972Y-93683835D01*
X123397819Y-93677639D01*
X123344124Y-93596670D01*
X123325500Y-93502182D01*
X123325500Y-89973199D01*
X123325748Y-89967946D01*
X123327673Y-89959333D01*
X123325623Y-89894100D01*
X123325500Y-89886279D01*
X123325500Y-89860650D01*
X123324519Y-89852887D01*
X123324383Y-89850726D01*
X123324014Y-89842905D01*
X123323201Y-89817037D01*
X123322709Y-89801373D01*
X123318336Y-89786322D01*
X123316909Y-89777310D01*
X123314892Y-89767570D01*
X123312628Y-89758752D01*
X123310664Y-89743208D01*
X123296756Y-89708082D01*
X123289160Y-89685894D01*
X123282991Y-89664659D01*
X123282988Y-89664652D01*
X123278618Y-89649610D01*
X123270642Y-89636124D01*
X123267017Y-89627747D01*
X123262641Y-89618815D01*
X123258251Y-89610830D01*
X123252486Y-89596268D01*
X123240179Y-89579328D01*
X123230275Y-89565697D01*
X123217399Y-89546094D01*
X123206142Y-89527060D01*
X123198170Y-89513580D01*
X123187099Y-89502509D01*
X123181519Y-89495315D01*
X123175039Y-89487728D01*
X123168801Y-89481085D01*
X123159594Y-89468413D01*
X123130487Y-89444334D01*
X123113149Y-89428558D01*
X122978052Y-89293462D01*
X122924077Y-89212681D01*
X122905147Y-89113922D01*
X122905244Y-89106960D01*
X122905244Y-89106957D01*
X122905341Y-89100000D01*
X122886194Y-88904728D01*
X122858070Y-88811574D01*
X122833003Y-88728549D01*
X122833002Y-88728547D01*
X122829484Y-88716894D01*
X122798667Y-88658935D01*
X122743087Y-88554404D01*
X122743084Y-88554400D01*
X122737370Y-88543653D01*
X122613361Y-88391602D01*
X122462180Y-88266535D01*
X122289585Y-88173213D01*
X122261196Y-88164425D01*
X122113791Y-88118796D01*
X122113792Y-88118796D01*
X122102152Y-88115193D01*
X121944254Y-88098597D01*
X121919131Y-88095956D01*
X121919130Y-88095956D01*
X121907019Y-88094683D01*
X121711618Y-88112466D01*
X121699942Y-88115902D01*
X121699939Y-88115903D01*
X121535076Y-88164425D01*
X121535072Y-88164427D01*
X121523393Y-88167864D01*
X121498142Y-88181065D01*
X121362885Y-88251776D01*
X121349512Y-88258767D01*
X121340025Y-88266395D01*
X121340023Y-88266396D01*
X121206088Y-88374082D01*
X121206085Y-88374085D01*
X121196600Y-88381711D01*
X121188778Y-88391034D01*
X121188775Y-88391036D01*
X121155360Y-88430859D01*
X121070480Y-88532016D01*
X121058172Y-88554404D01*
X121000708Y-88658931D01*
X120975956Y-88703954D01*
X120968154Y-88728549D01*
X120920312Y-88879363D01*
X120920311Y-88879368D01*
X120916628Y-88890978D01*
X120894757Y-89085963D01*
X120895776Y-89098098D01*
X120895776Y-89098100D01*
X120909451Y-89260947D01*
X120911175Y-89281483D01*
X120914530Y-89293184D01*
X120914531Y-89293188D01*
X120956805Y-89440612D01*
X120965258Y-89470091D01*
X120970824Y-89480921D01*
X120970825Y-89480924D01*
X121044340Y-89623968D01*
X121054944Y-89644601D01*
X121176818Y-89798369D01*
X121186085Y-89806256D01*
X121186089Y-89806260D01*
X121316810Y-89917511D01*
X121326238Y-89925535D01*
X121497513Y-90021257D01*
X121684118Y-90081889D01*
X121763401Y-90091343D01*
X121854983Y-90102264D01*
X121947357Y-90132367D01*
X122021179Y-90195529D01*
X122065210Y-90282133D01*
X122074500Y-90349512D01*
X122074500Y-93502419D01*
X122055546Y-93597707D01*
X122001370Y-93677876D01*
X121996600Y-93681711D01*
X121988772Y-93691040D01*
X121988771Y-93691041D01*
X121941279Y-93747641D01*
X121870480Y-93832016D01*
X121860870Y-93849496D01*
X121806071Y-93949176D01*
X121775956Y-94003954D01*
X121762883Y-94045165D01*
X121730581Y-94146993D01*
X121683702Y-94232090D01*
X121607827Y-94292769D01*
X121514506Y-94319793D01*
X121417947Y-94309047D01*
X121332850Y-94262168D01*
X121272171Y-94186293D01*
X121255827Y-94146787D01*
X121211347Y-94006145D01*
X121197038Y-93960899D01*
X121081376Y-93666519D01*
X120986928Y-93426133D01*
X120986926Y-93426128D01*
X120985377Y-93422186D01*
X120946741Y-93340634D01*
X120804274Y-93039924D01*
X120737564Y-92899117D01*
X120454749Y-92394114D01*
X120138241Y-91909516D01*
X119789506Y-91447569D01*
X119688993Y-91331738D01*
X119412938Y-91013612D01*
X119412931Y-91013605D01*
X119410159Y-91010410D01*
X119367034Y-90967058D01*
X119146550Y-90745417D01*
X119001956Y-90600064D01*
X118566790Y-90218434D01*
X118554146Y-90208784D01*
X118110052Y-89869862D01*
X118106674Y-89867284D01*
X117808529Y-89670320D01*
X117627278Y-89550580D01*
X117627272Y-89550576D01*
X117623740Y-89548243D01*
X117120225Y-89262788D01*
X117116402Y-89260952D01*
X117116392Y-89260947D01*
X116602293Y-89014080D01*
X116602290Y-89014079D01*
X116598461Y-89012240D01*
X116060864Y-88797761D01*
X115736432Y-88693285D01*
X115513953Y-88621640D01*
X115513941Y-88621637D01*
X115509924Y-88620343D01*
X114948192Y-88480808D01*
X114605086Y-88420000D01*
X114382437Y-88380540D01*
X114382427Y-88380539D01*
X114378271Y-88379802D01*
X114374076Y-88379350D01*
X114374069Y-88379349D01*
X113806999Y-88318246D01*
X113806986Y-88318245D01*
X113802800Y-88317794D01*
X113798582Y-88317628D01*
X113798578Y-88317628D01*
X113567625Y-88308554D01*
X113224444Y-88295071D01*
X113220207Y-88295193D01*
X113220200Y-88295193D01*
X112786428Y-88307688D01*
X112645881Y-88311737D01*
X112641663Y-88312147D01*
X112641661Y-88312147D01*
X112614667Y-88314770D01*
X112069792Y-88367715D01*
X112065606Y-88368412D01*
X112065604Y-88368412D01*
X111997174Y-88379802D01*
X111498845Y-88462747D01*
X110935683Y-88596392D01*
X110931621Y-88597653D01*
X110931622Y-88597653D01*
X110386962Y-88766774D01*
X110386952Y-88766777D01*
X110382915Y-88768031D01*
X110378962Y-88769560D01*
X110378960Y-88769561D01*
X110133343Y-88864583D01*
X109843101Y-88976869D01*
X109839264Y-88978662D01*
X109839260Y-88978664D01*
X109435594Y-89167326D01*
X109318742Y-89221939D01*
X108812265Y-89502106D01*
X108326017Y-89816072D01*
X108322625Y-89818605D01*
X107866659Y-90159091D01*
X107862249Y-90162384D01*
X107859038Y-90165141D01*
X107460192Y-90507598D01*
X107423110Y-90539437D01*
X107420093Y-90542407D01*
X107420081Y-90542418D01*
X107053123Y-90903657D01*
X107010633Y-90945485D01*
X107007822Y-90948657D01*
X107007816Y-90948663D01*
X106649499Y-91352956D01*
X106626729Y-91378648D01*
X106624147Y-91381995D01*
X106624141Y-91382002D01*
X106520453Y-91516401D01*
X106273176Y-91836919D01*
X105951610Y-92318175D01*
X105663522Y-92820189D01*
X105410246Y-93340634D01*
X105192955Y-93877101D01*
X105012655Y-94427104D01*
X105011610Y-94431218D01*
X105011609Y-94431222D01*
X104971593Y-94588786D01*
X104870180Y-94988098D01*
X104766192Y-95557482D01*
X104765716Y-95561696D01*
X104765715Y-95561700D01*
X104746266Y-95733739D01*
X104701172Y-96132621D01*
X104675420Y-96710850D01*
X94328888Y-96710850D01*
X94318095Y-96587493D01*
X94311296Y-96509773D01*
X94311296Y-96509772D01*
X94310349Y-96498950D01*
X94250320Y-96274921D01*
X94152301Y-96064719D01*
X94019270Y-95874731D01*
X93855269Y-95710730D01*
X93846371Y-95704500D01*
X93846368Y-95704497D01*
X93674181Y-95583930D01*
X93674180Y-95583929D01*
X93665282Y-95577699D01*
X93650211Y-95570671D01*
X93646489Y-95567942D01*
X93646014Y-95567668D01*
X93646044Y-95567616D01*
X93571862Y-95513224D01*
X93521459Y-95430165D01*
X93506679Y-95334141D01*
X93529770Y-95239770D01*
X93587218Y-95161420D01*
X93650211Y-95119329D01*
X93665282Y-95112301D01*
X93689746Y-95095171D01*
X93846368Y-94985503D01*
X93846371Y-94985500D01*
X93855269Y-94979270D01*
X94019270Y-94815269D01*
X94028234Y-94802468D01*
X94128713Y-94658968D01*
X94152301Y-94625281D01*
X94172725Y-94581483D01*
X94244262Y-94428071D01*
X94250320Y-94415079D01*
X94295049Y-94248150D01*
X94307536Y-94201549D01*
X94307536Y-94201547D01*
X94310349Y-94191050D01*
X94314204Y-94146993D01*
X94329616Y-93970824D01*
X94330563Y-93960000D01*
X94321325Y-93854404D01*
X94311296Y-93739773D01*
X94311296Y-93739772D01*
X94310349Y-93728950D01*
X94293621Y-93666519D01*
X94284510Y-93632520D01*
X94250320Y-93504921D01*
X94173712Y-93340634D01*
X94156893Y-93304566D01*
X94156892Y-93304564D01*
X94152301Y-93294719D01*
X94019270Y-93104731D01*
X93855269Y-92940730D01*
X93846371Y-92934500D01*
X93846368Y-92934497D01*
X93674181Y-92813930D01*
X93674180Y-92813929D01*
X93665282Y-92807699D01*
X93650211Y-92800671D01*
X93646489Y-92797942D01*
X93646014Y-92797668D01*
X93646044Y-92797616D01*
X93571862Y-92743224D01*
X93521459Y-92660165D01*
X93506679Y-92564141D01*
X93529770Y-92469770D01*
X93587218Y-92391420D01*
X93650211Y-92349329D01*
X93665282Y-92342301D01*
X93694493Y-92321847D01*
X93846368Y-92215503D01*
X93846371Y-92215500D01*
X93855269Y-92209270D01*
X94019270Y-92045269D01*
X94045333Y-92008048D01*
X94146069Y-91864181D01*
X94152301Y-91855281D01*
X94160864Y-91836919D01*
X94219092Y-91712048D01*
X94250320Y-91645079D01*
X94303243Y-91447569D01*
X94307536Y-91431549D01*
X94307536Y-91431547D01*
X94310349Y-91421050D01*
X94315846Y-91358224D01*
X94329616Y-91200824D01*
X94330563Y-91190000D01*
X94316128Y-91025000D01*
X94311296Y-90969773D01*
X94311296Y-90969772D01*
X94310349Y-90958950D01*
X94306004Y-90942732D01*
X94275931Y-90830503D01*
X94250320Y-90734921D01*
X94189064Y-90603557D01*
X94156893Y-90534566D01*
X94156892Y-90534564D01*
X94152301Y-90524719D01*
X94075010Y-90414336D01*
X94025503Y-90343632D01*
X94025500Y-90343629D01*
X94019270Y-90334731D01*
X93855269Y-90170730D01*
X93846371Y-90164500D01*
X93846368Y-90164497D01*
X93674181Y-90043930D01*
X93674180Y-90043929D01*
X93665282Y-90037699D01*
X93650211Y-90030671D01*
X93646489Y-90027942D01*
X93646014Y-90027668D01*
X93646044Y-90027616D01*
X93571862Y-89973224D01*
X93521459Y-89890165D01*
X93506679Y-89794141D01*
X93529770Y-89699770D01*
X93587218Y-89621420D01*
X93650211Y-89579329D01*
X93665282Y-89572301D01*
X93674188Y-89566065D01*
X93846368Y-89445503D01*
X93846371Y-89445500D01*
X93855269Y-89439270D01*
X94019270Y-89275269D01*
X94028010Y-89262788D01*
X94146069Y-89094181D01*
X94152301Y-89085281D01*
X94250320Y-88875079D01*
X94310349Y-88651050D01*
X94313036Y-88620343D01*
X94329616Y-88430824D01*
X94330563Y-88420000D01*
X94315964Y-88253128D01*
X94311296Y-88199773D01*
X94311296Y-88199772D01*
X94310349Y-88188950D01*
X94306211Y-88173505D01*
X94274261Y-88054270D01*
X94250320Y-87964921D01*
X94152301Y-87754719D01*
X94107288Y-87690434D01*
X94025503Y-87573632D01*
X94025500Y-87573629D01*
X94019270Y-87564731D01*
X93855269Y-87400730D01*
X93846371Y-87394500D01*
X93846368Y-87394497D01*
X93674181Y-87273930D01*
X93674180Y-87273929D01*
X93665282Y-87267699D01*
X93650211Y-87260671D01*
X93646489Y-87257942D01*
X93646014Y-87257668D01*
X93646044Y-87257616D01*
X93571862Y-87203224D01*
X93521459Y-87120165D01*
X93506679Y-87024141D01*
X93529770Y-86929770D01*
X93587218Y-86851420D01*
X93650211Y-86809329D01*
X93665282Y-86802301D01*
X93695553Y-86781105D01*
X93846368Y-86675503D01*
X93846371Y-86675500D01*
X93855269Y-86669270D01*
X94019270Y-86505269D01*
X94073730Y-86427493D01*
X94146069Y-86324181D01*
X94152301Y-86315281D01*
X94157839Y-86303406D01*
X94245729Y-86114924D01*
X94250320Y-86105079D01*
X94310349Y-85881050D01*
X94315846Y-85818224D01*
X94329616Y-85660824D01*
X94330563Y-85650000D01*
X94318780Y-85515320D01*
X94311296Y-85429773D01*
X94311296Y-85429772D01*
X94310349Y-85418950D01*
X94250320Y-85194921D01*
X94202085Y-85091480D01*
X94156893Y-84994566D01*
X94156892Y-84994564D01*
X94152301Y-84984719D01*
X94093818Y-84901196D01*
X94025503Y-84803632D01*
X94025500Y-84803629D01*
X94019270Y-84794731D01*
X93855269Y-84630730D01*
X93846371Y-84624500D01*
X93846368Y-84624497D01*
X93674181Y-84503930D01*
X93674180Y-84503929D01*
X93665282Y-84497699D01*
X93650211Y-84490671D01*
X93646489Y-84487942D01*
X93646014Y-84487668D01*
X93646044Y-84487616D01*
X93571862Y-84433224D01*
X93521459Y-84350165D01*
X93506679Y-84254141D01*
X93529770Y-84159770D01*
X93587218Y-84081420D01*
X93650211Y-84039329D01*
X93665282Y-84032301D01*
X93677921Y-84023451D01*
X93846368Y-83905503D01*
X93846371Y-83905500D01*
X93855269Y-83899270D01*
X94019270Y-83735269D01*
X94152301Y-83545281D01*
X94174800Y-83497033D01*
X94245729Y-83344924D01*
X94250320Y-83335079D01*
X94310349Y-83111050D01*
X94315846Y-83048224D01*
X94329616Y-82890824D01*
X94330563Y-82880000D01*
X94318780Y-82745320D01*
X94311296Y-82659773D01*
X94311296Y-82659772D01*
X94310349Y-82648950D01*
X94250320Y-82424921D01*
X94152301Y-82214719D01*
X94019270Y-82024731D01*
X93855269Y-81860730D01*
X93846371Y-81854500D01*
X93846368Y-81854497D01*
X93674181Y-81733930D01*
X93674180Y-81733929D01*
X93665282Y-81727699D01*
X93650211Y-81720671D01*
X93646489Y-81717942D01*
X93646014Y-81717668D01*
X93646044Y-81717616D01*
X93571862Y-81663224D01*
X93521459Y-81580165D01*
X93506679Y-81484141D01*
X93529770Y-81389770D01*
X93587218Y-81311420D01*
X93650211Y-81269329D01*
X93665282Y-81262301D01*
X93725551Y-81220100D01*
X93846368Y-81135503D01*
X93846371Y-81135500D01*
X93855269Y-81129270D01*
X94019270Y-80965269D01*
X94152301Y-80775281D01*
X94162938Y-80752471D01*
X94245729Y-80574924D01*
X94250320Y-80565079D01*
X94310349Y-80341050D01*
X94315846Y-80278224D01*
X94329616Y-80120824D01*
X94330563Y-80110000D01*
X94318780Y-79975320D01*
X94311296Y-79889773D01*
X94311296Y-79889772D01*
X94310349Y-79878950D01*
X94250320Y-79654921D01*
X94207946Y-79564050D01*
X94156893Y-79454566D01*
X94156892Y-79454564D01*
X94152301Y-79444719D01*
X94091453Y-79357819D01*
X94025503Y-79263632D01*
X94025500Y-79263629D01*
X94019270Y-79254731D01*
X93855269Y-79090730D01*
X93846371Y-79084500D01*
X93846368Y-79084497D01*
X93674181Y-78963930D01*
X93674180Y-78963929D01*
X93665282Y-78957699D01*
X93650211Y-78950671D01*
X93646489Y-78947942D01*
X93646014Y-78947668D01*
X93646044Y-78947616D01*
X93571862Y-78893224D01*
X93521459Y-78810165D01*
X93506679Y-78714141D01*
X93529770Y-78619770D01*
X93587218Y-78541420D01*
X93650211Y-78499329D01*
X93665282Y-78492301D01*
X93677921Y-78483451D01*
X93846368Y-78365503D01*
X93846371Y-78365500D01*
X93855269Y-78359270D01*
X94019270Y-78195269D01*
X94152301Y-78005281D01*
X94250320Y-77795079D01*
X94310349Y-77571050D01*
X94315846Y-77508224D01*
X94329616Y-77350824D01*
X94330563Y-77340000D01*
X94316047Y-77174075D01*
X94311296Y-77119773D01*
X94311296Y-77119772D01*
X94310349Y-77108950D01*
X94250320Y-76884921D01*
X94152301Y-76674719D01*
X94107288Y-76610434D01*
X94025503Y-76493632D01*
X94025500Y-76493629D01*
X94019270Y-76484731D01*
X93855269Y-76320730D01*
X93846371Y-76314500D01*
X93846368Y-76314497D01*
X93674181Y-76193930D01*
X93674180Y-76193929D01*
X93665282Y-76187699D01*
X93650211Y-76180671D01*
X93646489Y-76177942D01*
X93646014Y-76177668D01*
X93646044Y-76177616D01*
X93571862Y-76123224D01*
X93521459Y-76040165D01*
X93506679Y-75944141D01*
X93529770Y-75849770D01*
X93587218Y-75771420D01*
X93650211Y-75729329D01*
X93665282Y-75722301D01*
X93677921Y-75713451D01*
X93846368Y-75595503D01*
X93846371Y-75595500D01*
X93855269Y-75589270D01*
X94019270Y-75425269D01*
X94041050Y-75394165D01*
X94146069Y-75244181D01*
X94152301Y-75235281D01*
X94177881Y-75180426D01*
X94245729Y-75034924D01*
X94250320Y-75025079D01*
X94310349Y-74801050D01*
X94315846Y-74738224D01*
X94329616Y-74580824D01*
X94330563Y-74570000D01*
X94318780Y-74435320D01*
X94311296Y-74349773D01*
X94311296Y-74349772D01*
X94310349Y-74338950D01*
X94250320Y-74114921D01*
X94172345Y-73947703D01*
X94156893Y-73914566D01*
X94156892Y-73914564D01*
X94152301Y-73904719D01*
X94107288Y-73840434D01*
X94025503Y-73723632D01*
X94025500Y-73723629D01*
X94019270Y-73714731D01*
X93855269Y-73550730D01*
X93852948Y-73549105D01*
X93794382Y-73476133D01*
X93767195Y-73382859D01*
X93777773Y-73286282D01*
X93824503Y-73201104D01*
X93900273Y-73140292D01*
X93935543Y-73127149D01*
X93935207Y-73126252D01*
X94054850Y-73081400D01*
X94085660Y-73064531D01*
X94173703Y-72998547D01*
X94198547Y-72973703D01*
X94264531Y-72885660D01*
X94281400Y-72854850D01*
X94320773Y-72749822D01*
X94327938Y-72719691D01*
X94332273Y-72679786D01*
X94333000Y-72666350D01*
X94333000Y-72078527D01*
X94328931Y-72058069D01*
X94308473Y-72054000D01*
X91691528Y-72054000D01*
X91669877Y-72058307D01*
X91649341Y-72089042D01*
X91580643Y-72157742D01*
X91490884Y-72194922D01*
X91393729Y-72194923D01*
X91299483Y-72154676D01*
X91134181Y-72038930D01*
X91134180Y-72038929D01*
X91125282Y-72032699D01*
X90915079Y-71934680D01*
X90772456Y-71896464D01*
X90701549Y-71877464D01*
X90701547Y-71877464D01*
X90691050Y-71874651D01*
X90680228Y-71873704D01*
X90680227Y-71873704D01*
X90470824Y-71855384D01*
X90460000Y-71854437D01*
X90449176Y-71855384D01*
X90239773Y-71873704D01*
X90239772Y-71873704D01*
X90228950Y-71874651D01*
X90218453Y-71877464D01*
X90218451Y-71877464D01*
X90147544Y-71896464D01*
X90004921Y-71934680D01*
X89995076Y-71939271D01*
X89804566Y-72028107D01*
X89804564Y-72028108D01*
X89794719Y-72032699D01*
X89785819Y-72038931D01*
X89613632Y-72159497D01*
X89613629Y-72159500D01*
X89604731Y-72165730D01*
X89440730Y-72329731D01*
X89434500Y-72338629D01*
X89434497Y-72338632D01*
X89344509Y-72467148D01*
X89307699Y-72519719D01*
X89209680Y-72729921D01*
X89149651Y-72953950D01*
X89148704Y-72964772D01*
X89148704Y-72964773D01*
X89138501Y-73081400D01*
X89129437Y-73185000D01*
X89149651Y-73416050D01*
X89209680Y-73640079D01*
X89214271Y-73649924D01*
X89298640Y-73830853D01*
X89307699Y-73850281D01*
X89313931Y-73859181D01*
X89375915Y-73947703D01*
X89440730Y-74040269D01*
X89604731Y-74204270D01*
X89613629Y-74210500D01*
X89613632Y-74210503D01*
X89739072Y-74298337D01*
X89794718Y-74337301D01*
X89809789Y-74344329D01*
X89813511Y-74347058D01*
X89813986Y-74347332D01*
X89813956Y-74347384D01*
X89888138Y-74401776D01*
X89938541Y-74484835D01*
X89953321Y-74580859D01*
X89930230Y-74675230D01*
X89872782Y-74753580D01*
X89809793Y-74795669D01*
X89804573Y-74798103D01*
X89804564Y-74798108D01*
X89794719Y-74802699D01*
X89785819Y-74808931D01*
X89613632Y-74929497D01*
X89613629Y-74929500D01*
X89604731Y-74935730D01*
X89440730Y-75099731D01*
X89434500Y-75108629D01*
X89434497Y-75108632D01*
X89391813Y-75169592D01*
X89307699Y-75289719D01*
X89209680Y-75499921D01*
X89149651Y-75723950D01*
X89148704Y-75734772D01*
X89148704Y-75734773D01*
X89141220Y-75820320D01*
X89129437Y-75955000D01*
X89130384Y-75965824D01*
X89145157Y-76134678D01*
X89149651Y-76186050D01*
X89152464Y-76196547D01*
X89152464Y-76196549D01*
X89164467Y-76241343D01*
X89209680Y-76410079D01*
X89214271Y-76419924D01*
X89288466Y-76579035D01*
X89307699Y-76620281D01*
X89313931Y-76629181D01*
X89376289Y-76718237D01*
X89440730Y-76810269D01*
X89604731Y-76974270D01*
X89613629Y-76980500D01*
X89613632Y-76980503D01*
X89782079Y-77098451D01*
X89794718Y-77107301D01*
X89809789Y-77114329D01*
X89813511Y-77117058D01*
X89813986Y-77117332D01*
X89813956Y-77117384D01*
X89888138Y-77171776D01*
X89938541Y-77254835D01*
X89953321Y-77350859D01*
X89930230Y-77445230D01*
X89872782Y-77523580D01*
X89809793Y-77565669D01*
X89804573Y-77568103D01*
X89804564Y-77568108D01*
X89794719Y-77572699D01*
X89785819Y-77578931D01*
X89613632Y-77699497D01*
X89613629Y-77699500D01*
X89604731Y-77705730D01*
X89440730Y-77869731D01*
X89307699Y-78059719D01*
X89209680Y-78269921D01*
X89149651Y-78493950D01*
X89148704Y-78504772D01*
X89148704Y-78504773D01*
X89141220Y-78590320D01*
X89129437Y-78725000D01*
X89130384Y-78735824D01*
X89144155Y-78893224D01*
X89149651Y-78956050D01*
X89152464Y-78966547D01*
X89152464Y-78966549D01*
X89164467Y-79011343D01*
X89209680Y-79180079D01*
X89214271Y-79189924D01*
X89292562Y-79357819D01*
X89307699Y-79390281D01*
X89440730Y-79580269D01*
X89604731Y-79744270D01*
X89613629Y-79750500D01*
X89613632Y-79750503D01*
X89782079Y-79868451D01*
X89794718Y-79877301D01*
X89809789Y-79884329D01*
X89813511Y-79887058D01*
X89813986Y-79887332D01*
X89813956Y-79887384D01*
X89888138Y-79941776D01*
X89938541Y-80024835D01*
X89953321Y-80120859D01*
X89930230Y-80215230D01*
X89872782Y-80293580D01*
X89809793Y-80335669D01*
X89804573Y-80338103D01*
X89804564Y-80338108D01*
X89794719Y-80342699D01*
X89785819Y-80348931D01*
X89613632Y-80469497D01*
X89613629Y-80469500D01*
X89604731Y-80475730D01*
X89440730Y-80639731D01*
X89307699Y-80829719D01*
X89303108Y-80839564D01*
X89303107Y-80839566D01*
X89257132Y-80938160D01*
X89209680Y-81039921D01*
X89149651Y-81263950D01*
X89148704Y-81274772D01*
X89148704Y-81274773D01*
X89142342Y-81347493D01*
X89129437Y-81495000D01*
X89130384Y-81505824D01*
X89146492Y-81689937D01*
X89149651Y-81726050D01*
X89209680Y-81950079D01*
X89307699Y-82160281D01*
X89313931Y-82169181D01*
X89432323Y-82338262D01*
X89440730Y-82350269D01*
X89604731Y-82514270D01*
X89613629Y-82520500D01*
X89613632Y-82520503D01*
X89782079Y-82638451D01*
X89794718Y-82647301D01*
X89809789Y-82654329D01*
X89813511Y-82657058D01*
X89813986Y-82657332D01*
X89813956Y-82657384D01*
X89888138Y-82711776D01*
X89938541Y-82794835D01*
X89953321Y-82890859D01*
X89930230Y-82985230D01*
X89872782Y-83063580D01*
X89809793Y-83105669D01*
X89804573Y-83108103D01*
X89804564Y-83108108D01*
X89794719Y-83112699D01*
X89785819Y-83118931D01*
X89613632Y-83239497D01*
X89613629Y-83239500D01*
X89604731Y-83245730D01*
X89440730Y-83409731D01*
X89434500Y-83418629D01*
X89434497Y-83418632D01*
X89385461Y-83488663D01*
X89307699Y-83599719D01*
X89209680Y-83809921D01*
X89149651Y-84033950D01*
X89148704Y-84044772D01*
X89148704Y-84044773D01*
X89138840Y-84157517D01*
X89129437Y-84265000D01*
X89130384Y-84275824D01*
X89144557Y-84437819D01*
X89149651Y-84496050D01*
X89152464Y-84506547D01*
X89152464Y-84506549D01*
X89156141Y-84520270D01*
X89209680Y-84720079D01*
X89214271Y-84729924D01*
X89285879Y-84883487D01*
X89307699Y-84930281D01*
X89313931Y-84939181D01*
X89427474Y-85101337D01*
X89440730Y-85120269D01*
X89604731Y-85284270D01*
X89613629Y-85290500D01*
X89613632Y-85290503D01*
X89782079Y-85408451D01*
X89794718Y-85417301D01*
X89809789Y-85424329D01*
X89813511Y-85427058D01*
X89813986Y-85427332D01*
X89813956Y-85427384D01*
X89888138Y-85481776D01*
X89938541Y-85564835D01*
X89953321Y-85660859D01*
X89930230Y-85755230D01*
X89872782Y-85833580D01*
X89809793Y-85875669D01*
X89804573Y-85878103D01*
X89804564Y-85878108D01*
X89794719Y-85882699D01*
X89785819Y-85888931D01*
X89613632Y-86009497D01*
X89613629Y-86009500D01*
X89604731Y-86015730D01*
X89440730Y-86179731D01*
X89434500Y-86188629D01*
X89434497Y-86188632D01*
X89396548Y-86242829D01*
X89307699Y-86369719D01*
X89303108Y-86379564D01*
X89303107Y-86379566D01*
X89267757Y-86455374D01*
X89209680Y-86579921D01*
X89149651Y-86803950D01*
X89148704Y-86814772D01*
X89148704Y-86814773D01*
X89143152Y-86878237D01*
X89129437Y-87035000D01*
X89130384Y-87045824D01*
X89146140Y-87225913D01*
X89149651Y-87266050D01*
X89209680Y-87490079D01*
X89214271Y-87499924D01*
X89285111Y-87651840D01*
X89307699Y-87700281D01*
X89313931Y-87709181D01*
X89433838Y-87880426D01*
X89440730Y-87890269D01*
X89604731Y-88054270D01*
X89613629Y-88060500D01*
X89613632Y-88060503D01*
X89785812Y-88181065D01*
X89794718Y-88187301D01*
X89809789Y-88194329D01*
X89813511Y-88197058D01*
X89813986Y-88197332D01*
X89813956Y-88197384D01*
X89888138Y-88251776D01*
X89938541Y-88334835D01*
X89953321Y-88430859D01*
X89930230Y-88525230D01*
X89872782Y-88603580D01*
X89809793Y-88645669D01*
X89804573Y-88648103D01*
X89804564Y-88648108D01*
X89794719Y-88652699D01*
X89785819Y-88658931D01*
X89613632Y-88779497D01*
X89613629Y-88779500D01*
X89604731Y-88785730D01*
X89440730Y-88949731D01*
X89434500Y-88958629D01*
X89434497Y-88958632D01*
X89395672Y-89014080D01*
X89307699Y-89139719D01*
X89303108Y-89149564D01*
X89303107Y-89149566D01*
X89294821Y-89167335D01*
X89209680Y-89349921D01*
X89149651Y-89573950D01*
X89148704Y-89584772D01*
X89148704Y-89584773D01*
X89144135Y-89637003D01*
X89129437Y-89805000D01*
X89130384Y-89815824D01*
X89145761Y-89991581D01*
X89149651Y-90036050D01*
X89209680Y-90260079D01*
X89234594Y-90313507D01*
X89290114Y-90432569D01*
X89307699Y-90470281D01*
X89324811Y-90494719D01*
X89433540Y-90650000D01*
X89440730Y-90660269D01*
X89604731Y-90824270D01*
X89613629Y-90830500D01*
X89613632Y-90830503D01*
X89785812Y-90951065D01*
X89794718Y-90957301D01*
X89809789Y-90964329D01*
X89813511Y-90967058D01*
X89813986Y-90967332D01*
X89813956Y-90967384D01*
X89888138Y-91021776D01*
X89938541Y-91104835D01*
X89953321Y-91200859D01*
X89930230Y-91295230D01*
X89872782Y-91373580D01*
X89809793Y-91415669D01*
X89804573Y-91418103D01*
X89804564Y-91418108D01*
X89794719Y-91422699D01*
X89785819Y-91428931D01*
X89613632Y-91549497D01*
X89613629Y-91549500D01*
X89604731Y-91555730D01*
X89440730Y-91719731D01*
X89434500Y-91728629D01*
X89434497Y-91728632D01*
X89363980Y-91829341D01*
X89307699Y-91909719D01*
X89303108Y-91919564D01*
X89303107Y-91919566D01*
X89283084Y-91962506D01*
X89209680Y-92119921D01*
X89185739Y-92209270D01*
X89155574Y-92321847D01*
X89149651Y-92343950D01*
X89148704Y-92354772D01*
X89148704Y-92354773D01*
X89143516Y-92414075D01*
X89129437Y-92575000D01*
X89130384Y-92585824D01*
X89144155Y-92743224D01*
X89149651Y-92806050D01*
X89152464Y-92816547D01*
X89152464Y-92816549D01*
X89154459Y-92823995D01*
X89209680Y-93030079D01*
X89214271Y-93039924D01*
X89276869Y-93174165D01*
X89307699Y-93240281D01*
X89440730Y-93430269D01*
X89604731Y-93594270D01*
X89613629Y-93600500D01*
X89613632Y-93600503D01*
X89757218Y-93701043D01*
X89794718Y-93727301D01*
X89809789Y-93734329D01*
X89813511Y-93737058D01*
X89813986Y-93737332D01*
X89813956Y-93737384D01*
X89888138Y-93791776D01*
X89938541Y-93874835D01*
X89953321Y-93970859D01*
X89930230Y-94065230D01*
X89872782Y-94143580D01*
X89809793Y-94185669D01*
X89804573Y-94188103D01*
X89804564Y-94188108D01*
X89794719Y-94192699D01*
X89785819Y-94198931D01*
X89613632Y-94319497D01*
X89613629Y-94319500D01*
X89604731Y-94325730D01*
X89440730Y-94489731D01*
X89434500Y-94498629D01*
X89434497Y-94498632D01*
X89371371Y-94588786D01*
X89307699Y-94679719D01*
X89303108Y-94689564D01*
X89303107Y-94689566D01*
X89283025Y-94732632D01*
X89209680Y-94889921D01*
X89181974Y-94993320D01*
X89165541Y-95054650D01*
X89149651Y-95113950D01*
X89148704Y-95124772D01*
X89148704Y-95124773D01*
X89137369Y-95254330D01*
X89129437Y-95345000D01*
X89130384Y-95355824D01*
X89148396Y-95561700D01*
X89149651Y-95576050D01*
X89209680Y-95800079D01*
X89307699Y-96010281D01*
X89313931Y-96019181D01*
X89355086Y-96077956D01*
X89440730Y-96200269D01*
X89604731Y-96364270D01*
X89613629Y-96370500D01*
X89613632Y-96370503D01*
X89754867Y-96469397D01*
X89794718Y-96497301D01*
X89809789Y-96504329D01*
X89813511Y-96507058D01*
X89813986Y-96507332D01*
X89813956Y-96507384D01*
X89888138Y-96561776D01*
X89938541Y-96644835D01*
X89953321Y-96740859D01*
X89930230Y-96835230D01*
X89872782Y-96913580D01*
X89809793Y-96955669D01*
X89804573Y-96958103D01*
X89804564Y-96958108D01*
X89794719Y-96962699D01*
X89772830Y-96978026D01*
X89613632Y-97089497D01*
X89613629Y-97089500D01*
X89604731Y-97095730D01*
X89440730Y-97259731D01*
X89434500Y-97268629D01*
X89434497Y-97268632D01*
X89346995Y-97393599D01*
X89307699Y-97449719D01*
X89303108Y-97459564D01*
X89303107Y-97459566D01*
X89258161Y-97555954D01*
X89209680Y-97659921D01*
X89172037Y-97800405D01*
X89152979Y-97871531D01*
X89149651Y-97883950D01*
X89148704Y-97894772D01*
X89148704Y-97894773D01*
X89141220Y-97980320D01*
X89129437Y-98115000D01*
X89130384Y-98125824D01*
X89144155Y-98283224D01*
X89149651Y-98346050D01*
X89209680Y-98570079D01*
X89214271Y-98579924D01*
X89302583Y-98769309D01*
X89307699Y-98780281D01*
X89313931Y-98789181D01*
X89383202Y-98888110D01*
X89440730Y-98970269D01*
X89604731Y-99134270D01*
X89613629Y-99140500D01*
X89613632Y-99140503D01*
X89742665Y-99230853D01*
X89794718Y-99267301D01*
X89809789Y-99274329D01*
X89813511Y-99277058D01*
X89813986Y-99277332D01*
X89813956Y-99277384D01*
X89888138Y-99331776D01*
X89938541Y-99414835D01*
X89953321Y-99510859D01*
X89930230Y-99605230D01*
X89872782Y-99683580D01*
X89809793Y-99725669D01*
X89804573Y-99728103D01*
X89804564Y-99728108D01*
X89794719Y-99732699D01*
X89785819Y-99738931D01*
X89613632Y-99859497D01*
X89613629Y-99859500D01*
X89604731Y-99865730D01*
X89440730Y-100029731D01*
X89434500Y-100038629D01*
X89434497Y-100038632D01*
X89352712Y-100155434D01*
X89307699Y-100219719D01*
X89303108Y-100229564D01*
X89303107Y-100229566D01*
X89255584Y-100331480D01*
X89209680Y-100429921D01*
X89185739Y-100519270D01*
X89157393Y-100625058D01*
X89149651Y-100653950D01*
X89148704Y-100664772D01*
X89148704Y-100664773D01*
X89143493Y-100724339D01*
X89129437Y-100885000D01*
X89130384Y-100895824D01*
X89144155Y-101053224D01*
X89149651Y-101116050D01*
X89209680Y-101340079D01*
X89240908Y-101407048D01*
X89276246Y-101482829D01*
X89307699Y-101550281D01*
X89313931Y-101559181D01*
X89432643Y-101728719D01*
X89440730Y-101740269D01*
X89604731Y-101904270D01*
X89613629Y-101910500D01*
X89613632Y-101910503D01*
X89771588Y-102021105D01*
X89794718Y-102037301D01*
X89809789Y-102044329D01*
X89813511Y-102047058D01*
X89813986Y-102047332D01*
X89813956Y-102047384D01*
X89888138Y-102101776D01*
X89938541Y-102184835D01*
X89953321Y-102280859D01*
X89930230Y-102375230D01*
X89872782Y-102453580D01*
X89809793Y-102495669D01*
X89804573Y-102498103D01*
X89804564Y-102498108D01*
X89794719Y-102502699D01*
X89785819Y-102508931D01*
X89613632Y-102629497D01*
X89613629Y-102629500D01*
X89604731Y-102635730D01*
X89440730Y-102799731D01*
X89434500Y-102808629D01*
X89434497Y-102808632D01*
X89352712Y-102925434D01*
X89307699Y-102989719D01*
X89209680Y-103199921D01*
X89149651Y-103423950D01*
X89148704Y-103434772D01*
X89148704Y-103434773D01*
X89143869Y-103490043D01*
X89129437Y-103655000D01*
X89130384Y-103665824D01*
X89144155Y-103823224D01*
X89149651Y-103886050D01*
X89209680Y-104110079D01*
X89214271Y-104119924D01*
X89296079Y-104295361D01*
X89307699Y-104320281D01*
X89313931Y-104329181D01*
X89417797Y-104477517D01*
X89440730Y-104510269D01*
X89604731Y-104674270D01*
X89613629Y-104680500D01*
X89613632Y-104680503D01*
X89743526Y-104771456D01*
X89794718Y-104807301D01*
X89809789Y-104814329D01*
X89813511Y-104817058D01*
X89813986Y-104817332D01*
X89813956Y-104817384D01*
X89888138Y-104871776D01*
X89938541Y-104954835D01*
X89953321Y-105050859D01*
X89930230Y-105145230D01*
X89872782Y-105223580D01*
X89809793Y-105265669D01*
X89804573Y-105268103D01*
X89804564Y-105268108D01*
X89794719Y-105272699D01*
X89785819Y-105278931D01*
X89613632Y-105399497D01*
X89613629Y-105399500D01*
X89604731Y-105405730D01*
X89440730Y-105569731D01*
X89434500Y-105578629D01*
X89434497Y-105578632D01*
X89384811Y-105649592D01*
X89307699Y-105759719D01*
X89303108Y-105769564D01*
X89303107Y-105769566D01*
X89254332Y-105874165D01*
X89209680Y-105969921D01*
X89149651Y-106193950D01*
X89148704Y-106204772D01*
X89148704Y-106204773D01*
X89141901Y-106282529D01*
X89129437Y-106425000D01*
X89130384Y-106435824D01*
X89144155Y-106593224D01*
X89149651Y-106656050D01*
X89152464Y-106666547D01*
X89152464Y-106666549D01*
X89160761Y-106697513D01*
X89209680Y-106880079D01*
X89307699Y-107090281D01*
X89313931Y-107099181D01*
X89383291Y-107198237D01*
X89440730Y-107280269D01*
X89604731Y-107444270D01*
X89613629Y-107450500D01*
X89613632Y-107450503D01*
X89760868Y-107553599D01*
X89794718Y-107577301D01*
X89809789Y-107584329D01*
X89813511Y-107587058D01*
X89813986Y-107587332D01*
X89813956Y-107587384D01*
X89888138Y-107641776D01*
X89938541Y-107724835D01*
X89953321Y-107820859D01*
X89930230Y-107915230D01*
X89872782Y-107993580D01*
X89809793Y-108035669D01*
X89804573Y-108038103D01*
X89804564Y-108038108D01*
X89794719Y-108042699D01*
X89785819Y-108048931D01*
X89613632Y-108169497D01*
X89613629Y-108169500D01*
X89604731Y-108175730D01*
X89440730Y-108339731D01*
X89307699Y-108529719D01*
X89209680Y-108739921D01*
X89185739Y-108829270D01*
X89167582Y-108897033D01*
X89149651Y-108963950D01*
X89148704Y-108974772D01*
X89148704Y-108974773D01*
X89141220Y-109060320D01*
X89129437Y-109195000D01*
X89130384Y-109205824D01*
X89144155Y-109363224D01*
X89149651Y-109426050D01*
X89152464Y-109436547D01*
X89152464Y-109436549D01*
X89167063Y-109491032D01*
X89209680Y-109650079D01*
X89214271Y-109659924D01*
X89293013Y-109828786D01*
X89307699Y-109860281D01*
X89313931Y-109869181D01*
X89354070Y-109926505D01*
X89440730Y-110050269D01*
X89604731Y-110214270D01*
X89613629Y-110220500D01*
X89613632Y-110220503D01*
X89782079Y-110338451D01*
X89794718Y-110347301D01*
X89809789Y-110354329D01*
X89813511Y-110357058D01*
X89813986Y-110357332D01*
X89813956Y-110357384D01*
X89888138Y-110411776D01*
X89938541Y-110494835D01*
X89953321Y-110590859D01*
X89930230Y-110685230D01*
X89872782Y-110763580D01*
X89809793Y-110805669D01*
X89804573Y-110808103D01*
X89804564Y-110808108D01*
X89794719Y-110812699D01*
X89785819Y-110818931D01*
X89613632Y-110939497D01*
X89613629Y-110939500D01*
X89604731Y-110945730D01*
X89440730Y-111109731D01*
X89307699Y-111299719D01*
X89209680Y-111509921D01*
X89185739Y-111599270D01*
X89158175Y-111702140D01*
X89149651Y-111733950D01*
X89148704Y-111744772D01*
X89148704Y-111744773D01*
X89143475Y-111804538D01*
X89129437Y-111965000D01*
X89130384Y-111975824D01*
X89145565Y-112149341D01*
X89149651Y-112196050D01*
X89209680Y-112420079D01*
X89307699Y-112630281D01*
X89313931Y-112639181D01*
X89409258Y-112775322D01*
X89440730Y-112820269D01*
X89604731Y-112984270D01*
X89613629Y-112990500D01*
X89613632Y-112990503D01*
X89782079Y-113108451D01*
X89794718Y-113117301D01*
X89809789Y-113124329D01*
X89813511Y-113127058D01*
X89813986Y-113127332D01*
X89813956Y-113127384D01*
X89888138Y-113181776D01*
X89938541Y-113264835D01*
X89953321Y-113360859D01*
X89930230Y-113455230D01*
X89872782Y-113533580D01*
X89809793Y-113575669D01*
X89804573Y-113578103D01*
X89804564Y-113578108D01*
X89794719Y-113582699D01*
X89785819Y-113588931D01*
X89613632Y-113709497D01*
X89613629Y-113709500D01*
X89604731Y-113715730D01*
X89440730Y-113879731D01*
X89307699Y-114069719D01*
X89209680Y-114279921D01*
X89149651Y-114503950D01*
X89148704Y-114514772D01*
X89148704Y-114514773D01*
X89144106Y-114567326D01*
X89129437Y-114735000D01*
X89130384Y-114745824D01*
X89144155Y-114903224D01*
X89149651Y-114966050D01*
X89209680Y-115190079D01*
X89214271Y-115199924D01*
X89298800Y-115381196D01*
X89307699Y-115400281D01*
X89313931Y-115409181D01*
X89434476Y-115581337D01*
X89440730Y-115590269D01*
X89604731Y-115754270D01*
X89613629Y-115760500D01*
X89613632Y-115760503D01*
X89761341Y-115863930D01*
X89794718Y-115887301D01*
X89809789Y-115894329D01*
X89813511Y-115897058D01*
X89813986Y-115897332D01*
X89813956Y-115897384D01*
X89888138Y-115951776D01*
X89938541Y-116034835D01*
X89953321Y-116130859D01*
X89930230Y-116225230D01*
X89872782Y-116303580D01*
X89809793Y-116345669D01*
X89804573Y-116348103D01*
X89804564Y-116348108D01*
X89794719Y-116352699D01*
X89785819Y-116358931D01*
X89613632Y-116479497D01*
X89613629Y-116479500D01*
X89604731Y-116485730D01*
X89440730Y-116649731D01*
X89434500Y-116658629D01*
X89434497Y-116658632D01*
X89396447Y-116712973D01*
X89307699Y-116839719D01*
X89303108Y-116849564D01*
X89303107Y-116849566D01*
X89270324Y-116919870D01*
X89209680Y-117049921D01*
X89185739Y-117139270D01*
X89164366Y-117219035D01*
X89149651Y-117273950D01*
X89148704Y-117284772D01*
X89148704Y-117284773D01*
X89142277Y-117358237D01*
X89129437Y-117505000D01*
X89130384Y-117515824D01*
X89144155Y-117673224D01*
X89149651Y-117736050D01*
X89209680Y-117960079D01*
X89214271Y-117969924D01*
X89289774Y-118131840D01*
X89307699Y-118170281D01*
X89313931Y-118179181D01*
X89433254Y-118349592D01*
X89440730Y-118360269D01*
X89604731Y-118524270D01*
X89613629Y-118530500D01*
X89613632Y-118530503D01*
X89782079Y-118648451D01*
X89794718Y-118657301D01*
X89809789Y-118664329D01*
X89813511Y-118667058D01*
X89813986Y-118667332D01*
X89813956Y-118667384D01*
X89888138Y-118721776D01*
X89938541Y-118804835D01*
X89953321Y-118900859D01*
X89930230Y-118995230D01*
X89872782Y-119073580D01*
X89809793Y-119115669D01*
X89804573Y-119118103D01*
X89804564Y-119118108D01*
X89794719Y-119122699D01*
X89785819Y-119128931D01*
X89613632Y-119249497D01*
X89613629Y-119249500D01*
X89604731Y-119255730D01*
X89440730Y-119419731D01*
X89434500Y-119428629D01*
X89434497Y-119428632D01*
X89382866Y-119502369D01*
X89307699Y-119609719D01*
X89303108Y-119619564D01*
X89303107Y-119619566D01*
X89291873Y-119643658D01*
X89209680Y-119819921D01*
X89174567Y-119950965D01*
X89152846Y-120032028D01*
X89149651Y-120043950D01*
X89148704Y-120054772D01*
X89148704Y-120054773D01*
X89145126Y-120095666D01*
X89129437Y-120275000D01*
X83000000Y-120275000D01*
X83000000Y-71521473D01*
X91667000Y-71521473D01*
X91671069Y-71541931D01*
X91691527Y-71546000D01*
X92721473Y-71546000D01*
X92741931Y-71541931D01*
X92746000Y-71521473D01*
X93254000Y-71521473D01*
X93258069Y-71541931D01*
X93278527Y-71546000D01*
X94308472Y-71546000D01*
X94328930Y-71541931D01*
X94332999Y-71521473D01*
X94332999Y-70933654D01*
X94332271Y-70920208D01*
X94327938Y-70880315D01*
X94320772Y-70850174D01*
X94281400Y-70745150D01*
X94264531Y-70714340D01*
X94198547Y-70626297D01*
X94173703Y-70601453D01*
X94085660Y-70535469D01*
X94054850Y-70518600D01*
X93949822Y-70479227D01*
X93919691Y-70472062D01*
X93879786Y-70467727D01*
X93866350Y-70467000D01*
X93278527Y-70467000D01*
X93258069Y-70471069D01*
X93254000Y-70491527D01*
X93254000Y-71521473D01*
X92746000Y-71521473D01*
X92746000Y-70491528D01*
X92741931Y-70471070D01*
X92721473Y-70467001D01*
X92133654Y-70467001D01*
X92120208Y-70467729D01*
X92080315Y-70472062D01*
X92050174Y-70479228D01*
X91945150Y-70518600D01*
X91914340Y-70535469D01*
X91826297Y-70601453D01*
X91801453Y-70626297D01*
X91735469Y-70714340D01*
X91718600Y-70745150D01*
X91679227Y-70850178D01*
X91672062Y-70880309D01*
X91667727Y-70920214D01*
X91667000Y-70933650D01*
X91667000Y-71521473D01*
X83000000Y-71521473D01*
X83000000Y-67209756D01*
X89865208Y-67209756D01*
X89874133Y-67223113D01*
X89891526Y-67238939D01*
X89902660Y-67247956D01*
X90163352Y-67435281D01*
X90175443Y-67442955D01*
X90455930Y-67599073D01*
X90468836Y-67605311D01*
X90765413Y-67728157D01*
X90778924Y-67732862D01*
X91087669Y-67820811D01*
X91101642Y-67823934D01*
X91418432Y-67875811D01*
X91432683Y-67877309D01*
X91753348Y-67892431D01*
X91767659Y-67892280D01*
X91792758Y-67890569D01*
X125513292Y-67890569D01*
X125513638Y-67899366D01*
X125515606Y-67949468D01*
X125519983Y-68060852D01*
X125523691Y-68155231D01*
X125571277Y-68415788D01*
X125655101Y-68667040D01*
X125673166Y-68703194D01*
X125769558Y-68896107D01*
X125769562Y-68896114D01*
X125773490Y-68903975D01*
X125778489Y-68911208D01*
X125778492Y-68911213D01*
X125880197Y-69058367D01*
X125924083Y-69121864D01*
X126103875Y-69316361D01*
X126110695Y-69321913D01*
X126110701Y-69321919D01*
X126233485Y-69421881D01*
X126309277Y-69483585D01*
X126316826Y-69488130D01*
X126316829Y-69488132D01*
X126419359Y-69549860D01*
X126536193Y-69620200D01*
X126780094Y-69723478D01*
X126788601Y-69725734D01*
X126788608Y-69725736D01*
X127027607Y-69789106D01*
X127027612Y-69789107D01*
X127036113Y-69791361D01*
X127299143Y-69822492D01*
X127563936Y-69816252D01*
X127707270Y-69792395D01*
X127816529Y-69774210D01*
X127816535Y-69774209D01*
X127825208Y-69772765D01*
X128077746Y-69692897D01*
X128316511Y-69578244D01*
X128536739Y-69431092D01*
X128543294Y-69425221D01*
X128727481Y-69260250D01*
X128727487Y-69260244D01*
X128734036Y-69254378D01*
X128904466Y-69051628D01*
X129044627Y-68826886D01*
X129151724Y-68584638D01*
X129223620Y-68329716D01*
X129258879Y-68067207D01*
X129262579Y-67949468D01*
X129258409Y-67890569D01*
X148513292Y-67890569D01*
X148513638Y-67899366D01*
X148515606Y-67949468D01*
X148519983Y-68060852D01*
X148523691Y-68155231D01*
X148571277Y-68415788D01*
X148655101Y-68667040D01*
X148673166Y-68703194D01*
X148769558Y-68896107D01*
X148769562Y-68896114D01*
X148773490Y-68903975D01*
X148778489Y-68911208D01*
X148778492Y-68911213D01*
X148880197Y-69058367D01*
X148924083Y-69121864D01*
X149103875Y-69316361D01*
X149110695Y-69321913D01*
X149110701Y-69321919D01*
X149233485Y-69421881D01*
X149309277Y-69483585D01*
X149316826Y-69488130D01*
X149316829Y-69488132D01*
X149419359Y-69549860D01*
X149536193Y-69620200D01*
X149780094Y-69723478D01*
X149788601Y-69725734D01*
X149788608Y-69725736D01*
X150027607Y-69789106D01*
X150027612Y-69789107D01*
X150036113Y-69791361D01*
X150299143Y-69822492D01*
X150563936Y-69816252D01*
X150707270Y-69792395D01*
X150816529Y-69774210D01*
X150816535Y-69774209D01*
X150825208Y-69772765D01*
X151077746Y-69692897D01*
X151316511Y-69578244D01*
X151536739Y-69431092D01*
X151543294Y-69425221D01*
X151727481Y-69260250D01*
X151727487Y-69260244D01*
X151734036Y-69254378D01*
X151904466Y-69051628D01*
X152044627Y-68826886D01*
X152151724Y-68584638D01*
X152223620Y-68329716D01*
X152258879Y-68067207D01*
X152262579Y-67949468D01*
X152257789Y-67881810D01*
X152244494Y-67694051D01*
X152243872Y-67685263D01*
X152231346Y-67627083D01*
X152189978Y-67434935D01*
X152189977Y-67434930D01*
X152188125Y-67426330D01*
X152170511Y-67378583D01*
X152099495Y-67186086D01*
X152099495Y-67186085D01*
X152096451Y-67177835D01*
X152045771Y-67083908D01*
X151974858Y-66952485D01*
X151970677Y-66944736D01*
X151934313Y-66895502D01*
X151818544Y-66738764D01*
X151813315Y-66731684D01*
X151627503Y-66542930D01*
X151416949Y-66382241D01*
X151185854Y-66252821D01*
X150938830Y-66157255D01*
X150786962Y-66122054D01*
X150689378Y-66099435D01*
X150689373Y-66099434D01*
X150680804Y-66097448D01*
X150416926Y-66074593D01*
X150257603Y-66083361D01*
X150161249Y-66088664D01*
X150161245Y-66088665D01*
X150152460Y-66089148D01*
X149892683Y-66140821D01*
X149884391Y-66143733D01*
X149884387Y-66143734D01*
X149651081Y-66225665D01*
X149651074Y-66225668D01*
X149642779Y-66228581D01*
X149634972Y-66232636D01*
X149634966Y-66232639D01*
X149426761Y-66340793D01*
X149407733Y-66350677D01*
X149192235Y-66504674D01*
X149000586Y-66687498D01*
X148965753Y-66731684D01*
X148887632Y-66830780D01*
X148836609Y-66895502D01*
X148832187Y-66903115D01*
X148832185Y-66903118D01*
X148727174Y-67083908D01*
X148703576Y-67124535D01*
X148604141Y-67370028D01*
X148540289Y-67627083D01*
X148532065Y-67707348D01*
X148514651Y-67877309D01*
X148513292Y-67890569D01*
X129258409Y-67890569D01*
X129257789Y-67881810D01*
X129244494Y-67694051D01*
X129243872Y-67685263D01*
X129231346Y-67627083D01*
X129189978Y-67434935D01*
X129189977Y-67434930D01*
X129188125Y-67426330D01*
X129170511Y-67378583D01*
X129099495Y-67186086D01*
X129099495Y-67186085D01*
X129096451Y-67177835D01*
X129045771Y-67083908D01*
X128974858Y-66952485D01*
X128970677Y-66944736D01*
X128934313Y-66895502D01*
X128818544Y-66738764D01*
X128813315Y-66731684D01*
X128627503Y-66542930D01*
X128416949Y-66382241D01*
X128185854Y-66252821D01*
X127938830Y-66157255D01*
X127786962Y-66122054D01*
X127689378Y-66099435D01*
X127689373Y-66099434D01*
X127680804Y-66097448D01*
X127416926Y-66074593D01*
X127257603Y-66083361D01*
X127161249Y-66088664D01*
X127161245Y-66088665D01*
X127152460Y-66089148D01*
X126892683Y-66140821D01*
X126884391Y-66143733D01*
X126884387Y-66143734D01*
X126651081Y-66225665D01*
X126651074Y-66225668D01*
X126642779Y-66228581D01*
X126634972Y-66232636D01*
X126634966Y-66232639D01*
X126426761Y-66340793D01*
X126407733Y-66350677D01*
X126192235Y-66504674D01*
X126000586Y-66687498D01*
X125965753Y-66731684D01*
X125887632Y-66830780D01*
X125836609Y-66895502D01*
X125832187Y-66903115D01*
X125832185Y-66903118D01*
X125727174Y-67083908D01*
X125703576Y-67124535D01*
X125604141Y-67370028D01*
X125540289Y-67627083D01*
X125532065Y-67707348D01*
X125514651Y-67877309D01*
X125513292Y-67890569D01*
X91792758Y-67890569D01*
X92087918Y-67870448D01*
X92102152Y-67868650D01*
X92417774Y-67810152D01*
X92431691Y-67806733D01*
X92738496Y-67712348D01*
X92751942Y-67707348D01*
X93045868Y-67578324D01*
X93058639Y-67571817D01*
X93335811Y-67409851D01*
X93347710Y-67401945D01*
X93582281Y-67225825D01*
X93596194Y-67210290D01*
X93591681Y-67200891D01*
X91747341Y-65356551D01*
X91730000Y-65344964D01*
X91712659Y-65356551D01*
X89876795Y-67192415D01*
X89865208Y-67209756D01*
X83000000Y-67209756D01*
X83000000Y-64895670D01*
X88818697Y-64895670D01*
X88827100Y-65216576D01*
X88828299Y-65230852D01*
X88873531Y-65548663D01*
X88876360Y-65562697D01*
X88957823Y-65873214D01*
X88962245Y-65886822D01*
X89078855Y-66185911D01*
X89084818Y-66198937D01*
X89235026Y-66482631D01*
X89242453Y-66494894D01*
X89424268Y-66759436D01*
X89433053Y-66770762D01*
X89485411Y-66830780D01*
X89501922Y-66843518D01*
X89514476Y-66836314D01*
X91353449Y-64997341D01*
X91365036Y-64980000D01*
X92094964Y-64980000D01*
X92106551Y-64997341D01*
X93940744Y-66831534D01*
X93958085Y-66843121D01*
X93968987Y-66835836D01*
X94063949Y-66722262D01*
X94072486Y-66710767D01*
X94248731Y-66442460D01*
X94255893Y-66430056D01*
X94400136Y-66143260D01*
X94405815Y-66130135D01*
X94516138Y-65828664D01*
X94520277Y-65814956D01*
X94595217Y-65502809D01*
X94597752Y-65488719D01*
X94636515Y-65168395D01*
X94637354Y-65157369D01*
X94642754Y-64985549D01*
X94642608Y-64974458D01*
X94624036Y-64652365D01*
X94622388Y-64638120D01*
X94567200Y-64321905D01*
X94563926Y-64307946D01*
X94472756Y-64000162D01*
X94467904Y-63986683D01*
X94341954Y-63691399D01*
X94335592Y-63678582D01*
X94176543Y-63399740D01*
X94168738Y-63387722D01*
X93978703Y-63129019D01*
X93975285Y-63124888D01*
X93961388Y-63114847D01*
X93941767Y-63127443D01*
X92106551Y-64962659D01*
X92094964Y-64980000D01*
X91365036Y-64980000D01*
X91353449Y-64962659D01*
X89518133Y-63127343D01*
X89500792Y-63115756D01*
X89491315Y-63122089D01*
X89342477Y-63311907D01*
X89334305Y-63323665D01*
X89166569Y-63597387D01*
X89159809Y-63609994D01*
X89024652Y-63901165D01*
X89019373Y-63914499D01*
X88918583Y-64219261D01*
X88914871Y-64233115D01*
X88849775Y-64547448D01*
X88847684Y-64561612D01*
X88819147Y-64881357D01*
X88818697Y-64895670D01*
X83000000Y-64895670D01*
X83000000Y-62752025D01*
X89866324Y-62752025D01*
X89871825Y-62762615D01*
X91712659Y-64603449D01*
X91730000Y-64615036D01*
X91747341Y-64603449D01*
X93581613Y-62769177D01*
X93593200Y-62751836D01*
X93585551Y-62740389D01*
X93496604Y-62664421D01*
X93485205Y-62655768D01*
X93218754Y-62476720D01*
X93206430Y-62469431D01*
X92921163Y-62322195D01*
X92908091Y-62316375D01*
X92607788Y-62202900D01*
X92594129Y-62198620D01*
X92282786Y-62120416D01*
X92268718Y-62117732D01*
X91950454Y-62075832D01*
X91936157Y-62074782D01*
X91615198Y-62069740D01*
X91600879Y-62070340D01*
X91281457Y-62102222D01*
X91267304Y-62104464D01*
X90953671Y-62172847D01*
X90939864Y-62176702D01*
X90636158Y-62280684D01*
X90622909Y-62286091D01*
X90333161Y-62424294D01*
X90320605Y-62431197D01*
X90048680Y-62601774D01*
X90036991Y-62610081D01*
X89879745Y-62736059D01*
X89866324Y-62752025D01*
X83000000Y-62752025D01*
X83000000Y-61004435D01*
X83000159Y-60995547D01*
X83020066Y-60438175D01*
X83021334Y-60420447D01*
X83080476Y-59870333D01*
X83083005Y-59852738D01*
X83181248Y-59308219D01*
X83185027Y-59290851D01*
X83321854Y-58754767D01*
X83326861Y-58737712D01*
X83501595Y-58212720D01*
X83507807Y-58196066D01*
X83719540Y-57684898D01*
X83726924Y-57668729D01*
X83974586Y-57173963D01*
X83983104Y-57158363D01*
X84265436Y-56682518D01*
X84275046Y-56667565D01*
X84590595Y-56213088D01*
X84601247Y-56198858D01*
X84948425Y-55768036D01*
X84960066Y-55754603D01*
X85337087Y-55349655D01*
X85349655Y-55337087D01*
X85754603Y-54960066D01*
X85768036Y-54948425D01*
X86198858Y-54601247D01*
X86213088Y-54590595D01*
X86667565Y-54275046D01*
X86682518Y-54265436D01*
X87158363Y-53983104D01*
X87173963Y-53974586D01*
X87668729Y-53726924D01*
X87684898Y-53719540D01*
X87699675Y-53713419D01*
X88196072Y-53507805D01*
X88212714Y-53501597D01*
X88737715Y-53326860D01*
X88754767Y-53321854D01*
X89290851Y-53185027D01*
X89308219Y-53181248D01*
X89374220Y-53169340D01*
X89852749Y-53083003D01*
X89870324Y-53080477D01*
X90059358Y-53060154D01*
X90420447Y-53021334D01*
X90438175Y-53020066D01*
X90949895Y-53001789D01*
X90995549Y-53000159D01*
X91004435Y-53000000D01*
X148995565Y-53000000D01*
X149004451Y-53000159D01*
G37*
%TD.AperFunction*%
%TD*%
M02*
