%FSLAX45Y45*%
G04 Gerber Fmt 4.5, Leading zero omitted, Abs format (unit mm)*
G04 Created by KiCad (PCBNEW (6.0.1)) date 2022-04-29 11:25:00*
%MOMM*%
%LPD*%
G01*
G04 APERTURE LIST*
%TA.AperFunction,Profile*%
%ADD10C,0.050000*%
%TD*%
%ADD11C,0.200000*%
%ADD12C,0.050000*%
%ADD13C,0.100000*%
%ADD14C,0.110000*%
%ADD15C,0.320000*%
G04 APERTURE END LIST*
D10*
X14999991Y-14359991D02*
X8999991Y-14359991D01*
X7999991Y-13359991D02*
X7999991Y-5999991D01*
X8999991Y-4999991D02*
G75*
G03*
X7999991Y-5999991I0J-1000000D01*
G01*
X7999991Y-13359991D02*
G75*
G03*
X8999991Y-14359991I1000000J0D01*
G01*
X12875780Y-6794947D02*
G75*
G03*
X12875780Y-6794947I-137033J0D01*
G01*
X15999991Y-5999991D02*
X15999991Y-13359991D01*
X15999991Y-5999991D02*
G75*
G03*
X14999991Y-4999991I-1000000J0D01*
G01*
X12875780Y-12594947D02*
G75*
G03*
X12875780Y-12594947I-137033J0D01*
G01*
X8999991Y-4999991D02*
X14999991Y-4999991D01*
X14999991Y-14359991D02*
G75*
G03*
X15999991Y-13359991I0J1000000D01*
G01*
X15175780Y-12594947D02*
G75*
G03*
X15175780Y-12594947I-137033J0D01*
G01*
X12117991Y-9679991D02*
G75*
G03*
X12117991Y-9679991I-800000J0D01*
G01*
X15175780Y-6794947D02*
G75*
G03*
X15175780Y-6794947I-137033J0D01*
G01*
D11*
D12*
X9965000Y-7587500D02*
X10015000Y-7637500D01*
X10015000Y-7587500D02*
X9965000Y-7637500D01*
X9970000Y-8332500D02*
X10020000Y-8382500D01*
X10020000Y-8332500D02*
X9970000Y-8382500D01*
X9970000Y-11592500D02*
X10020000Y-11642500D01*
X10020000Y-11592500D02*
X9970000Y-11642500D01*
X9972500Y-10837500D02*
X10022500Y-10887500D01*
X10022500Y-10837500D02*
X9972500Y-10887500D01*
X9985000Y-9835000D02*
X10035000Y-9885000D01*
X10035000Y-9835000D02*
X9985000Y-9885000D01*
X10972500Y-10842500D02*
X11022500Y-10892500D01*
X11022500Y-10842500D02*
X10972500Y-10892500D01*
X10975000Y-8335000D02*
X11025000Y-8385000D01*
X11025000Y-8335000D02*
X10975000Y-8385000D01*
X10980000Y-6832500D02*
X11030000Y-6882500D01*
X11030000Y-6832500D02*
X10980000Y-6882500D01*
X10982500Y-7582500D02*
X11032500Y-7632500D01*
X11032500Y-7582500D02*
X10982500Y-7632500D01*
X10982500Y-11587500D02*
X11032500Y-11637500D01*
X11032500Y-11587500D02*
X10982500Y-11637500D01*
X11975000Y-10835000D02*
X12025000Y-10885000D01*
X12025000Y-10835000D02*
X11975000Y-10885000D01*
X11975000Y-11597500D02*
X12025000Y-11647500D01*
X12025000Y-11597500D02*
X11975000Y-11647500D01*
X11980000Y-6827500D02*
X12030000Y-6877500D01*
X12030000Y-6827500D02*
X11980000Y-6877500D01*
X12165000Y-8885000D02*
X12215000Y-8935000D01*
X12215000Y-8885000D02*
X12165000Y-8935000D01*
X12245000Y-9415000D02*
X12295000Y-9465000D01*
X12295000Y-9415000D02*
X12245000Y-9465000D01*
X12270000Y-8022500D02*
X12320000Y-8072500D01*
X12320000Y-8022500D02*
X12270000Y-8072500D01*
X13727500Y-8340000D02*
X13777500Y-8390000D01*
X13777500Y-8340000D02*
X13727500Y-8390000D01*
X13730000Y-11592500D02*
X13780000Y-11642500D01*
X13780000Y-11592500D02*
X13730000Y-11642500D01*
X13732500Y-6837500D02*
X13782500Y-6887500D01*
X13782500Y-6837500D02*
X13732500Y-6887500D01*
X13732500Y-10837500D02*
X13782500Y-10887500D01*
X13782500Y-10837500D02*
X13732500Y-10887500D01*
D13*
X12653500Y-7286500D02*
G75*
G03*
X12653500Y-7286500I-50000J0D01*
G01*
X12653500Y-7540500D02*
G75*
G03*
X12653500Y-7540500I-50000J0D01*
G01*
X12653500Y-7794500D02*
G75*
G03*
X12653500Y-7794500I-50000J0D01*
G01*
X12653500Y-8048500D02*
G75*
G03*
X12653500Y-8048500I-50000J0D01*
G01*
X12653500Y-8302500D02*
G75*
G03*
X12653500Y-8302500I-50000J0D01*
G01*
X12653500Y-8556500D02*
G75*
G03*
X12653500Y-8556500I-50000J0D01*
G01*
X12653500Y-8810500D02*
G75*
G03*
X12653500Y-8810500I-50000J0D01*
G01*
X12653500Y-9064500D02*
G75*
G03*
X12653500Y-9064500I-50000J0D01*
G01*
X12653500Y-9318500D02*
G75*
G03*
X12653500Y-9318500I-50000J0D01*
G01*
X12653500Y-9572500D02*
G75*
G03*
X12653500Y-9572500I-50000J0D01*
G01*
X12653500Y-9826500D02*
G75*
G03*
X12653500Y-9826500I-50000J0D01*
G01*
X12653500Y-10080500D02*
G75*
G03*
X12653500Y-10080500I-50000J0D01*
G01*
X12653500Y-10334500D02*
G75*
G03*
X12653500Y-10334500I-50000J0D01*
G01*
X12653500Y-10588500D02*
G75*
G03*
X12653500Y-10588500I-50000J0D01*
G01*
X12653500Y-10842500D02*
G75*
G03*
X12653500Y-10842500I-50000J0D01*
G01*
X12653500Y-11096500D02*
G75*
G03*
X12653500Y-11096500I-50000J0D01*
G01*
X12653500Y-11350500D02*
G75*
G03*
X12653500Y-11350500I-50000J0D01*
G01*
X12653500Y-11604500D02*
G75*
G03*
X12653500Y-11604500I-50000J0D01*
G01*
X12653500Y-11858500D02*
G75*
G03*
X12653500Y-11858500I-50000J0D01*
G01*
X12653500Y-12112500D02*
G75*
G03*
X12653500Y-12112500I-50000J0D01*
G01*
X12907500Y-7286500D02*
G75*
G03*
X12907500Y-7286500I-50000J0D01*
G01*
X12907500Y-7540500D02*
G75*
G03*
X12907500Y-7540500I-50000J0D01*
G01*
X12907500Y-7794500D02*
G75*
G03*
X12907500Y-7794500I-50000J0D01*
G01*
X12907500Y-8048500D02*
G75*
G03*
X12907500Y-8048500I-50000J0D01*
G01*
X12907500Y-8302500D02*
G75*
G03*
X12907500Y-8302500I-50000J0D01*
G01*
X12907500Y-8556500D02*
G75*
G03*
X12907500Y-8556500I-50000J0D01*
G01*
X12907500Y-8810500D02*
G75*
G03*
X12907500Y-8810500I-50000J0D01*
G01*
X12907500Y-9064500D02*
G75*
G03*
X12907500Y-9064500I-50000J0D01*
G01*
X12907500Y-9318500D02*
G75*
G03*
X12907500Y-9318500I-50000J0D01*
G01*
X12907500Y-9572500D02*
G75*
G03*
X12907500Y-9572500I-50000J0D01*
G01*
X12907500Y-9826500D02*
G75*
G03*
X12907500Y-9826500I-50000J0D01*
G01*
X12907500Y-10080500D02*
G75*
G03*
X12907500Y-10080500I-50000J0D01*
G01*
X12907500Y-10334500D02*
G75*
G03*
X12907500Y-10334500I-50000J0D01*
G01*
X12907500Y-10588500D02*
G75*
G03*
X12907500Y-10588500I-50000J0D01*
G01*
X12907500Y-10842500D02*
G75*
G03*
X12907500Y-10842500I-50000J0D01*
G01*
X12907500Y-11096500D02*
G75*
G03*
X12907500Y-11096500I-50000J0D01*
G01*
X12907500Y-11350500D02*
G75*
G03*
X12907500Y-11350500I-50000J0D01*
G01*
X12907500Y-11604500D02*
G75*
G03*
X12907500Y-11604500I-50000J0D01*
G01*
X12907500Y-11858500D02*
G75*
G03*
X12907500Y-11858500I-50000J0D01*
G01*
X12907500Y-12112500D02*
G75*
G03*
X12907500Y-12112500I-50000J0D01*
G01*
D14*
X9046000Y-7263500D02*
X9046000Y-7373500D01*
X8991000Y-7318500D02*
X9101000Y-7318500D01*
X9046000Y-7540500D02*
X9046000Y-7650500D01*
X8991000Y-7595500D02*
X9101000Y-7595500D01*
X9046000Y-7817500D02*
X9046000Y-7927500D01*
X8991000Y-7872500D02*
X9101000Y-7872500D01*
X9046000Y-8094500D02*
X9046000Y-8204500D01*
X8991000Y-8149500D02*
X9101000Y-8149500D01*
X9046000Y-8371500D02*
X9046000Y-8481500D01*
X8991000Y-8426500D02*
X9101000Y-8426500D01*
X9046000Y-8648500D02*
X9046000Y-8758500D01*
X8991000Y-8703500D02*
X9101000Y-8703500D01*
X9046000Y-8925500D02*
X9046000Y-9035500D01*
X8991000Y-8980500D02*
X9101000Y-8980500D01*
X9046000Y-9202500D02*
X9046000Y-9312500D01*
X8991000Y-9257500D02*
X9101000Y-9257500D01*
X9046000Y-9479500D02*
X9046000Y-9589500D01*
X8991000Y-9534500D02*
X9101000Y-9534500D01*
X9046000Y-9756500D02*
X9046000Y-9866500D01*
X8991000Y-9811500D02*
X9101000Y-9811500D01*
X9046000Y-10033500D02*
X9046000Y-10143500D01*
X8991000Y-10088500D02*
X9101000Y-10088500D01*
X9046000Y-10310500D02*
X9046000Y-10420500D01*
X8991000Y-10365500D02*
X9101000Y-10365500D01*
X9046000Y-10587500D02*
X9046000Y-10697500D01*
X8991000Y-10642500D02*
X9101000Y-10642500D01*
X9046000Y-10864500D02*
X9046000Y-10974500D01*
X8991000Y-10919500D02*
X9101000Y-10919500D01*
X9046000Y-11141500D02*
X9046000Y-11251500D01*
X8991000Y-11196500D02*
X9101000Y-11196500D01*
X9046000Y-11418500D02*
X9046000Y-11528500D01*
X8991000Y-11473500D02*
X9101000Y-11473500D01*
X9046000Y-11695500D02*
X9046000Y-11805500D01*
X8991000Y-11750500D02*
X9101000Y-11750500D01*
X9046000Y-11972500D02*
X9046000Y-12082500D01*
X8991000Y-12027500D02*
X9101000Y-12027500D01*
X9300000Y-7125000D02*
X9300000Y-7235000D01*
X9245000Y-7180000D02*
X9355000Y-7180000D01*
X9300000Y-7402000D02*
X9300000Y-7512000D01*
X9245000Y-7457000D02*
X9355000Y-7457000D01*
X9300000Y-7679000D02*
X9300000Y-7789000D01*
X9245000Y-7734000D02*
X9355000Y-7734000D01*
X9300000Y-7956000D02*
X9300000Y-8066000D01*
X9245000Y-8011000D02*
X9355000Y-8011000D01*
X9300000Y-8233000D02*
X9300000Y-8343000D01*
X9245000Y-8288000D02*
X9355000Y-8288000D01*
X9300000Y-8510000D02*
X9300000Y-8620000D01*
X9245000Y-8565000D02*
X9355000Y-8565000D01*
X9300000Y-8787000D02*
X9300000Y-8897000D01*
X9245000Y-8842000D02*
X9355000Y-8842000D01*
X9300000Y-9064000D02*
X9300000Y-9174000D01*
X9245000Y-9119000D02*
X9355000Y-9119000D01*
X9300000Y-9341000D02*
X9300000Y-9451000D01*
X9245000Y-9396000D02*
X9355000Y-9396000D01*
X9300000Y-9618000D02*
X9300000Y-9728000D01*
X9245000Y-9673000D02*
X9355000Y-9673000D01*
X9300000Y-9895000D02*
X9300000Y-10005000D01*
X9245000Y-9950000D02*
X9355000Y-9950000D01*
X9300000Y-10172000D02*
X9300000Y-10282000D01*
X9245000Y-10227000D02*
X9355000Y-10227000D01*
X9300000Y-10449000D02*
X9300000Y-10559000D01*
X9245000Y-10504000D02*
X9355000Y-10504000D01*
X9300000Y-10726000D02*
X9300000Y-10836000D01*
X9245000Y-10781000D02*
X9355000Y-10781000D01*
X9300000Y-11003000D02*
X9300000Y-11113000D01*
X9245000Y-11058000D02*
X9355000Y-11058000D01*
X9300000Y-11280000D02*
X9300000Y-11390000D01*
X9245000Y-11335000D02*
X9355000Y-11335000D01*
X9300000Y-11557000D02*
X9300000Y-11667000D01*
X9245000Y-11612000D02*
X9355000Y-11612000D01*
X9300000Y-11834000D02*
X9300000Y-11944000D01*
X9245000Y-11889000D02*
X9355000Y-11889000D01*
X9300000Y-12111000D02*
X9300000Y-12221000D01*
X9245000Y-12166000D02*
X9355000Y-12166000D01*
D15*
X9286138Y-6611138D02*
X9286138Y-6384862D01*
X9059862Y-6384862D01*
X9059862Y-6611138D01*
X9286138Y-6611138D01*
X9286138Y-12961138D02*
X9286138Y-12734862D01*
X9059862Y-12734862D01*
X9059862Y-12961138D01*
X9286138Y-12961138D01*
D11*
X8255110Y-14672967D02*
X8255110Y-14472967D01*
X8302729Y-14472967D01*
X8331301Y-14482491D01*
X8350348Y-14501539D01*
X8359872Y-14520586D01*
X8369396Y-14558682D01*
X8369396Y-14587253D01*
X8359872Y-14625348D01*
X8350348Y-14644396D01*
X8331301Y-14663443D01*
X8302729Y-14672967D01*
X8255110Y-14672967D01*
X8455110Y-14672967D02*
X8455110Y-14539634D01*
X8455110Y-14577729D02*
X8464634Y-14558682D01*
X8474158Y-14549158D01*
X8493205Y-14539634D01*
X8512253Y-14539634D01*
X8578920Y-14672967D02*
X8578920Y-14539634D01*
X8578920Y-14472967D02*
X8569396Y-14482491D01*
X8578920Y-14492015D01*
X8588444Y-14482491D01*
X8578920Y-14472967D01*
X8578920Y-14492015D01*
X8702729Y-14672967D02*
X8683682Y-14663443D01*
X8674158Y-14644396D01*
X8674158Y-14472967D01*
X8807491Y-14672967D02*
X8788444Y-14663443D01*
X8778920Y-14644396D01*
X8778920Y-14472967D01*
X9036063Y-14672967D02*
X9036063Y-14472967D01*
X9102729Y-14615824D01*
X9169396Y-14472967D01*
X9169396Y-14672967D01*
X9350348Y-14672967D02*
X9350348Y-14568205D01*
X9340825Y-14549158D01*
X9321777Y-14539634D01*
X9283682Y-14539634D01*
X9264634Y-14549158D01*
X9350348Y-14663443D02*
X9331301Y-14672967D01*
X9283682Y-14672967D01*
X9264634Y-14663443D01*
X9255110Y-14644396D01*
X9255110Y-14625348D01*
X9264634Y-14606301D01*
X9283682Y-14596777D01*
X9331301Y-14596777D01*
X9350348Y-14587253D01*
X9445586Y-14539634D02*
X9445586Y-14739634D01*
X9445586Y-14549158D02*
X9464634Y-14539634D01*
X9502729Y-14539634D01*
X9521777Y-14549158D01*
X9531301Y-14558682D01*
X9540825Y-14577729D01*
X9540825Y-14634872D01*
X9531301Y-14653920D01*
X9521777Y-14663443D01*
X9502729Y-14672967D01*
X9464634Y-14672967D01*
X9445586Y-14663443D01*
X9626539Y-14653920D02*
X9636063Y-14663443D01*
X9626539Y-14672967D01*
X9617015Y-14663443D01*
X9626539Y-14653920D01*
X9626539Y-14672967D01*
X9626539Y-14549158D02*
X9636063Y-14558682D01*
X9626539Y-14568205D01*
X9617015Y-14558682D01*
X9626539Y-14549158D01*
X9626539Y-14568205D01*
D12*
X7947491Y-14977491D02*
X7997491Y-15027491D01*
X7997491Y-14977491D02*
X7947491Y-15027491D01*
D11*
X8293205Y-14892967D02*
X8312253Y-14892967D01*
X8331301Y-14902491D01*
X8340824Y-14912015D01*
X8350348Y-14931063D01*
X8359872Y-14969158D01*
X8359872Y-15016777D01*
X8350348Y-15054872D01*
X8340824Y-15073920D01*
X8331301Y-15083443D01*
X8312253Y-15092967D01*
X8293205Y-15092967D01*
X8274158Y-15083443D01*
X8264634Y-15073920D01*
X8255110Y-15054872D01*
X8245586Y-15016777D01*
X8245586Y-14969158D01*
X8255110Y-14931063D01*
X8264634Y-14912015D01*
X8274158Y-14902491D01*
X8293205Y-14892967D01*
X8445586Y-15073920D02*
X8455110Y-15083443D01*
X8445586Y-15092967D01*
X8436063Y-15083443D01*
X8445586Y-15073920D01*
X8445586Y-15092967D01*
X8636063Y-14892967D02*
X8540825Y-14892967D01*
X8531301Y-14988205D01*
X8540825Y-14978682D01*
X8559872Y-14969158D01*
X8607491Y-14969158D01*
X8626539Y-14978682D01*
X8636063Y-14988205D01*
X8645586Y-15007253D01*
X8645586Y-15054872D01*
X8636063Y-15073920D01*
X8626539Y-15083443D01*
X8607491Y-15092967D01*
X8559872Y-15092967D01*
X8540825Y-15083443D01*
X8531301Y-15073920D01*
X8769396Y-14892967D02*
X8788444Y-14892967D01*
X8807491Y-14902491D01*
X8817015Y-14912015D01*
X8826539Y-14931063D01*
X8836063Y-14969158D01*
X8836063Y-15016777D01*
X8826539Y-15054872D01*
X8817015Y-15073920D01*
X8807491Y-15083443D01*
X8788444Y-15092967D01*
X8769396Y-15092967D01*
X8750348Y-15083443D01*
X8740825Y-15073920D01*
X8731301Y-15054872D01*
X8721777Y-15016777D01*
X8721777Y-14969158D01*
X8731301Y-14931063D01*
X8740825Y-14912015D01*
X8750348Y-14902491D01*
X8769396Y-14892967D01*
X8959872Y-14892967D02*
X8978920Y-14892967D01*
X8997967Y-14902491D01*
X9007491Y-14912015D01*
X9017015Y-14931063D01*
X9026539Y-14969158D01*
X9026539Y-15016777D01*
X9017015Y-15054872D01*
X9007491Y-15073920D01*
X8997967Y-15083443D01*
X8978920Y-15092967D01*
X8959872Y-15092967D01*
X8940825Y-15083443D01*
X8931301Y-15073920D01*
X8921777Y-15054872D01*
X8912253Y-15016777D01*
X8912253Y-14969158D01*
X8921777Y-14931063D01*
X8931301Y-14912015D01*
X8940825Y-14902491D01*
X8959872Y-14892967D01*
X9112253Y-15092967D02*
X9112253Y-14959634D01*
X9112253Y-14978682D02*
X9121777Y-14969158D01*
X9140825Y-14959634D01*
X9169396Y-14959634D01*
X9188444Y-14969158D01*
X9197967Y-14988205D01*
X9197967Y-15092967D01*
X9197967Y-14988205D02*
X9207491Y-14969158D01*
X9226539Y-14959634D01*
X9255110Y-14959634D01*
X9274158Y-14969158D01*
X9283682Y-14988205D01*
X9283682Y-15092967D01*
X9378920Y-15092967D02*
X9378920Y-14959634D01*
X9378920Y-14978682D02*
X9388444Y-14969158D01*
X9407491Y-14959634D01*
X9436063Y-14959634D01*
X9455110Y-14969158D01*
X9464634Y-14988205D01*
X9464634Y-15092967D01*
X9464634Y-14988205D02*
X9474158Y-14969158D01*
X9493205Y-14959634D01*
X9521777Y-14959634D01*
X9540825Y-14969158D01*
X9550348Y-14988205D01*
X9550348Y-15092967D01*
X9940825Y-14883443D02*
X9769396Y-15140586D01*
X10197967Y-14892967D02*
X10217015Y-14892967D01*
X10236063Y-14902491D01*
X10245586Y-14912015D01*
X10255110Y-14931063D01*
X10264634Y-14969158D01*
X10264634Y-15016777D01*
X10255110Y-15054872D01*
X10245586Y-15073920D01*
X10236063Y-15083443D01*
X10217015Y-15092967D01*
X10197967Y-15092967D01*
X10178920Y-15083443D01*
X10169396Y-15073920D01*
X10159872Y-15054872D01*
X10150348Y-15016777D01*
X10150348Y-14969158D01*
X10159872Y-14931063D01*
X10169396Y-14912015D01*
X10178920Y-14902491D01*
X10197967Y-14892967D01*
X10350348Y-15073920D02*
X10359872Y-15083443D01*
X10350348Y-15092967D01*
X10340825Y-15083443D01*
X10350348Y-15073920D01*
X10350348Y-15092967D01*
X10483682Y-14892967D02*
X10502729Y-14892967D01*
X10521777Y-14902491D01*
X10531301Y-14912015D01*
X10540825Y-14931063D01*
X10550348Y-14969158D01*
X10550348Y-15016777D01*
X10540825Y-15054872D01*
X10531301Y-15073920D01*
X10521777Y-15083443D01*
X10502729Y-15092967D01*
X10483682Y-15092967D01*
X10464634Y-15083443D01*
X10455110Y-15073920D01*
X10445586Y-15054872D01*
X10436063Y-15016777D01*
X10436063Y-14969158D01*
X10445586Y-14931063D01*
X10455110Y-14912015D01*
X10464634Y-14902491D01*
X10483682Y-14892967D01*
X10740825Y-15092967D02*
X10626539Y-15092967D01*
X10683682Y-15092967D02*
X10683682Y-14892967D01*
X10664634Y-14921539D01*
X10645586Y-14940586D01*
X10626539Y-14950110D01*
X10836063Y-15092967D02*
X10874158Y-15092967D01*
X10893205Y-15083443D01*
X10902729Y-15073920D01*
X10921777Y-15045348D01*
X10931301Y-15007253D01*
X10931301Y-14931063D01*
X10921777Y-14912015D01*
X10912253Y-14902491D01*
X10893205Y-14892967D01*
X10855110Y-14892967D01*
X10836063Y-14902491D01*
X10826539Y-14912015D01*
X10817015Y-14931063D01*
X10817015Y-14978682D01*
X10826539Y-14997729D01*
X10836063Y-15007253D01*
X10855110Y-15016777D01*
X10893205Y-15016777D01*
X10912253Y-15007253D01*
X10921777Y-14997729D01*
X10931301Y-14978682D01*
X10997967Y-14892967D02*
X11131301Y-14892967D01*
X11045586Y-15092967D01*
X11197967Y-14892967D02*
X11197967Y-14931063D01*
X11274158Y-14892967D02*
X11274158Y-14931063D01*
X11569396Y-15169158D02*
X11559872Y-15159634D01*
X11540824Y-15131063D01*
X11531301Y-15112015D01*
X11521777Y-15083443D01*
X11512253Y-15035824D01*
X11512253Y-14997729D01*
X11521777Y-14950110D01*
X11531301Y-14921539D01*
X11540824Y-14902491D01*
X11559872Y-14873920D01*
X11569396Y-14864396D01*
X11636063Y-14912015D02*
X11645586Y-14902491D01*
X11664634Y-14892967D01*
X11712253Y-14892967D01*
X11731301Y-14902491D01*
X11740824Y-14912015D01*
X11750348Y-14931063D01*
X11750348Y-14950110D01*
X11740824Y-14978682D01*
X11626539Y-15092967D01*
X11750348Y-15092967D01*
X11874158Y-14892967D02*
X11893205Y-14892967D01*
X11912253Y-14902491D01*
X11921777Y-14912015D01*
X11931301Y-14931063D01*
X11940824Y-14969158D01*
X11940824Y-15016777D01*
X11931301Y-15054872D01*
X11921777Y-15073920D01*
X11912253Y-15083443D01*
X11893205Y-15092967D01*
X11874158Y-15092967D01*
X11855110Y-15083443D01*
X11845586Y-15073920D01*
X11836063Y-15054872D01*
X11826539Y-15016777D01*
X11826539Y-14969158D01*
X11836063Y-14931063D01*
X11845586Y-14912015D01*
X11855110Y-14902491D01*
X11874158Y-14892967D01*
X12178920Y-15092967D02*
X12178920Y-14892967D01*
X12264634Y-15092967D02*
X12264634Y-14988205D01*
X12255110Y-14969158D01*
X12236063Y-14959634D01*
X12207491Y-14959634D01*
X12188443Y-14969158D01*
X12178920Y-14978682D01*
X12388443Y-15092967D02*
X12369396Y-15083443D01*
X12359872Y-15073920D01*
X12350348Y-15054872D01*
X12350348Y-14997729D01*
X12359872Y-14978682D01*
X12369396Y-14969158D01*
X12388443Y-14959634D01*
X12417015Y-14959634D01*
X12436063Y-14969158D01*
X12445586Y-14978682D01*
X12455110Y-14997729D01*
X12455110Y-15054872D01*
X12445586Y-15073920D01*
X12436063Y-15083443D01*
X12417015Y-15092967D01*
X12388443Y-15092967D01*
X12569396Y-15092967D02*
X12550348Y-15083443D01*
X12540824Y-15064396D01*
X12540824Y-14892967D01*
X12721777Y-15083443D02*
X12702729Y-15092967D01*
X12664634Y-15092967D01*
X12645586Y-15083443D01*
X12636063Y-15064396D01*
X12636063Y-14988205D01*
X12645586Y-14969158D01*
X12664634Y-14959634D01*
X12702729Y-14959634D01*
X12721777Y-14969158D01*
X12731301Y-14988205D01*
X12731301Y-15007253D01*
X12636063Y-15026301D01*
X12807491Y-15083443D02*
X12826539Y-15092967D01*
X12864634Y-15092967D01*
X12883682Y-15083443D01*
X12893205Y-15064396D01*
X12893205Y-15054872D01*
X12883682Y-15035824D01*
X12864634Y-15026301D01*
X12836063Y-15026301D01*
X12817015Y-15016777D01*
X12807491Y-14997729D01*
X12807491Y-14988205D01*
X12817015Y-14969158D01*
X12836063Y-14959634D01*
X12864634Y-14959634D01*
X12883682Y-14969158D01*
X12959872Y-15169158D02*
X12969396Y-15159634D01*
X12988443Y-15131063D01*
X12997967Y-15112015D01*
X13007491Y-15083443D01*
X13017015Y-15035824D01*
X13017015Y-14997729D01*
X13007491Y-14950110D01*
X12997967Y-14921539D01*
X12988443Y-14902491D01*
X12969396Y-14873920D01*
X12959872Y-14864396D01*
D13*
X7997491Y-15266491D02*
G75*
G03*
X7997491Y-15266491I-50000J0D01*
G01*
D11*
X8359872Y-15356967D02*
X8245586Y-15356967D01*
X8302729Y-15356967D02*
X8302729Y-15156967D01*
X8283682Y-15185539D01*
X8264634Y-15204586D01*
X8245586Y-15214110D01*
X8445586Y-15337920D02*
X8455110Y-15347443D01*
X8445586Y-15356967D01*
X8436063Y-15347443D01*
X8445586Y-15337920D01*
X8445586Y-15356967D01*
X8578920Y-15156967D02*
X8597967Y-15156967D01*
X8617015Y-15166491D01*
X8626539Y-15176015D01*
X8636063Y-15195063D01*
X8645586Y-15233158D01*
X8645586Y-15280777D01*
X8636063Y-15318872D01*
X8626539Y-15337920D01*
X8617015Y-15347443D01*
X8597967Y-15356967D01*
X8578920Y-15356967D01*
X8559872Y-15347443D01*
X8550348Y-15337920D01*
X8540825Y-15318872D01*
X8531301Y-15280777D01*
X8531301Y-15233158D01*
X8540825Y-15195063D01*
X8550348Y-15176015D01*
X8559872Y-15166491D01*
X8578920Y-15156967D01*
X8769396Y-15156967D02*
X8788444Y-15156967D01*
X8807491Y-15166491D01*
X8817015Y-15176015D01*
X8826539Y-15195063D01*
X8836063Y-15233158D01*
X8836063Y-15280777D01*
X8826539Y-15318872D01*
X8817015Y-15337920D01*
X8807491Y-15347443D01*
X8788444Y-15356967D01*
X8769396Y-15356967D01*
X8750348Y-15347443D01*
X8740825Y-15337920D01*
X8731301Y-15318872D01*
X8721777Y-15280777D01*
X8721777Y-15233158D01*
X8731301Y-15195063D01*
X8740825Y-15176015D01*
X8750348Y-15166491D01*
X8769396Y-15156967D01*
X8959872Y-15156967D02*
X8978920Y-15156967D01*
X8997967Y-15166491D01*
X9007491Y-15176015D01*
X9017015Y-15195063D01*
X9026539Y-15233158D01*
X9026539Y-15280777D01*
X9017015Y-15318872D01*
X9007491Y-15337920D01*
X8997967Y-15347443D01*
X8978920Y-15356967D01*
X8959872Y-15356967D01*
X8940825Y-15347443D01*
X8931301Y-15337920D01*
X8921777Y-15318872D01*
X8912253Y-15280777D01*
X8912253Y-15233158D01*
X8921777Y-15195063D01*
X8931301Y-15176015D01*
X8940825Y-15166491D01*
X8959872Y-15156967D01*
X9112253Y-15356967D02*
X9112253Y-15223634D01*
X9112253Y-15242682D02*
X9121777Y-15233158D01*
X9140825Y-15223634D01*
X9169396Y-15223634D01*
X9188444Y-15233158D01*
X9197967Y-15252205D01*
X9197967Y-15356967D01*
X9197967Y-15252205D02*
X9207491Y-15233158D01*
X9226539Y-15223634D01*
X9255110Y-15223634D01*
X9274158Y-15233158D01*
X9283682Y-15252205D01*
X9283682Y-15356967D01*
X9378920Y-15356967D02*
X9378920Y-15223634D01*
X9378920Y-15242682D02*
X9388444Y-15233158D01*
X9407491Y-15223634D01*
X9436063Y-15223634D01*
X9455110Y-15233158D01*
X9464634Y-15252205D01*
X9464634Y-15356967D01*
X9464634Y-15252205D02*
X9474158Y-15233158D01*
X9493205Y-15223634D01*
X9521777Y-15223634D01*
X9540825Y-15233158D01*
X9550348Y-15252205D01*
X9550348Y-15356967D01*
X9940825Y-15147443D02*
X9769396Y-15404586D01*
X10197967Y-15156967D02*
X10217015Y-15156967D01*
X10236063Y-15166491D01*
X10245586Y-15176015D01*
X10255110Y-15195063D01*
X10264634Y-15233158D01*
X10264634Y-15280777D01*
X10255110Y-15318872D01*
X10245586Y-15337920D01*
X10236063Y-15347443D01*
X10217015Y-15356967D01*
X10197967Y-15356967D01*
X10178920Y-15347443D01*
X10169396Y-15337920D01*
X10159872Y-15318872D01*
X10150348Y-15280777D01*
X10150348Y-15233158D01*
X10159872Y-15195063D01*
X10169396Y-15176015D01*
X10178920Y-15166491D01*
X10197967Y-15156967D01*
X10350348Y-15337920D02*
X10359872Y-15347443D01*
X10350348Y-15356967D01*
X10340825Y-15347443D01*
X10350348Y-15337920D01*
X10350348Y-15356967D01*
X10483682Y-15156967D02*
X10502729Y-15156967D01*
X10521777Y-15166491D01*
X10531301Y-15176015D01*
X10540825Y-15195063D01*
X10550348Y-15233158D01*
X10550348Y-15280777D01*
X10540825Y-15318872D01*
X10531301Y-15337920D01*
X10521777Y-15347443D01*
X10502729Y-15356967D01*
X10483682Y-15356967D01*
X10464634Y-15347443D01*
X10455110Y-15337920D01*
X10445586Y-15318872D01*
X10436063Y-15280777D01*
X10436063Y-15233158D01*
X10445586Y-15195063D01*
X10455110Y-15176015D01*
X10464634Y-15166491D01*
X10483682Y-15156967D01*
X10617015Y-15156967D02*
X10740825Y-15156967D01*
X10674158Y-15233158D01*
X10702729Y-15233158D01*
X10721777Y-15242682D01*
X10731301Y-15252205D01*
X10740825Y-15271253D01*
X10740825Y-15318872D01*
X10731301Y-15337920D01*
X10721777Y-15347443D01*
X10702729Y-15356967D01*
X10645586Y-15356967D01*
X10626539Y-15347443D01*
X10617015Y-15337920D01*
X10836063Y-15356967D02*
X10874158Y-15356967D01*
X10893205Y-15347443D01*
X10902729Y-15337920D01*
X10921777Y-15309348D01*
X10931301Y-15271253D01*
X10931301Y-15195063D01*
X10921777Y-15176015D01*
X10912253Y-15166491D01*
X10893205Y-15156967D01*
X10855110Y-15156967D01*
X10836063Y-15166491D01*
X10826539Y-15176015D01*
X10817015Y-15195063D01*
X10817015Y-15242682D01*
X10826539Y-15261729D01*
X10836063Y-15271253D01*
X10855110Y-15280777D01*
X10893205Y-15280777D01*
X10912253Y-15271253D01*
X10921777Y-15261729D01*
X10931301Y-15242682D01*
X11102729Y-15223634D02*
X11102729Y-15356967D01*
X11055110Y-15147443D02*
X11007491Y-15290301D01*
X11131301Y-15290301D01*
X11197967Y-15156967D02*
X11197967Y-15195063D01*
X11274158Y-15156967D02*
X11274158Y-15195063D01*
X11569396Y-15433158D02*
X11559872Y-15423634D01*
X11540824Y-15395063D01*
X11531301Y-15376015D01*
X11521777Y-15347443D01*
X11512253Y-15299824D01*
X11512253Y-15261729D01*
X11521777Y-15214110D01*
X11531301Y-15185539D01*
X11540824Y-15166491D01*
X11559872Y-15137920D01*
X11569396Y-15128396D01*
X11731301Y-15223634D02*
X11731301Y-15356967D01*
X11683682Y-15147443D02*
X11636063Y-15290301D01*
X11759872Y-15290301D01*
X11874158Y-15156967D02*
X11893205Y-15156967D01*
X11912253Y-15166491D01*
X11921777Y-15176015D01*
X11931301Y-15195063D01*
X11940824Y-15233158D01*
X11940824Y-15280777D01*
X11931301Y-15318872D01*
X11921777Y-15337920D01*
X11912253Y-15347443D01*
X11893205Y-15356967D01*
X11874158Y-15356967D01*
X11855110Y-15347443D01*
X11845586Y-15337920D01*
X11836063Y-15318872D01*
X11826539Y-15280777D01*
X11826539Y-15233158D01*
X11836063Y-15195063D01*
X11845586Y-15176015D01*
X11855110Y-15166491D01*
X11874158Y-15156967D01*
X12178920Y-15356967D02*
X12178920Y-15156967D01*
X12264634Y-15356967D02*
X12264634Y-15252205D01*
X12255110Y-15233158D01*
X12236063Y-15223634D01*
X12207491Y-15223634D01*
X12188443Y-15233158D01*
X12178920Y-15242682D01*
X12388443Y-15356967D02*
X12369396Y-15347443D01*
X12359872Y-15337920D01*
X12350348Y-15318872D01*
X12350348Y-15261729D01*
X12359872Y-15242682D01*
X12369396Y-15233158D01*
X12388443Y-15223634D01*
X12417015Y-15223634D01*
X12436063Y-15233158D01*
X12445586Y-15242682D01*
X12455110Y-15261729D01*
X12455110Y-15318872D01*
X12445586Y-15337920D01*
X12436063Y-15347443D01*
X12417015Y-15356967D01*
X12388443Y-15356967D01*
X12569396Y-15356967D02*
X12550348Y-15347443D01*
X12540824Y-15328396D01*
X12540824Y-15156967D01*
X12721777Y-15347443D02*
X12702729Y-15356967D01*
X12664634Y-15356967D01*
X12645586Y-15347443D01*
X12636063Y-15328396D01*
X12636063Y-15252205D01*
X12645586Y-15233158D01*
X12664634Y-15223634D01*
X12702729Y-15223634D01*
X12721777Y-15233158D01*
X12731301Y-15252205D01*
X12731301Y-15271253D01*
X12636063Y-15290301D01*
X12807491Y-15347443D02*
X12826539Y-15356967D01*
X12864634Y-15356967D01*
X12883682Y-15347443D01*
X12893205Y-15328396D01*
X12893205Y-15318872D01*
X12883682Y-15299824D01*
X12864634Y-15290301D01*
X12836063Y-15290301D01*
X12817015Y-15280777D01*
X12807491Y-15261729D01*
X12807491Y-15252205D01*
X12817015Y-15233158D01*
X12836063Y-15223634D01*
X12864634Y-15223634D01*
X12883682Y-15233158D01*
X12959872Y-15433158D02*
X12969396Y-15423634D01*
X12988443Y-15395063D01*
X12997967Y-15376015D01*
X13007491Y-15347443D01*
X13017015Y-15299824D01*
X13017015Y-15261729D01*
X13007491Y-15214110D01*
X12997967Y-15185539D01*
X12988443Y-15166491D01*
X12969396Y-15137920D01*
X12959872Y-15128396D01*
D14*
X7942491Y-15475491D02*
X7942491Y-15585491D01*
X7887491Y-15530491D02*
X7997491Y-15530491D01*
D11*
X8359872Y-15620967D02*
X8245586Y-15620967D01*
X8302729Y-15620967D02*
X8302729Y-15420967D01*
X8283682Y-15449539D01*
X8264634Y-15468586D01*
X8245586Y-15478110D01*
X8445586Y-15601920D02*
X8455110Y-15611443D01*
X8445586Y-15620967D01*
X8436063Y-15611443D01*
X8445586Y-15601920D01*
X8445586Y-15620967D01*
X8645586Y-15620967D02*
X8531301Y-15620967D01*
X8588444Y-15620967D02*
X8588444Y-15420967D01*
X8569396Y-15449539D01*
X8550348Y-15468586D01*
X8531301Y-15478110D01*
X8769396Y-15420967D02*
X8788444Y-15420967D01*
X8807491Y-15430491D01*
X8817015Y-15440015D01*
X8826539Y-15459063D01*
X8836063Y-15497158D01*
X8836063Y-15544777D01*
X8826539Y-15582872D01*
X8817015Y-15601920D01*
X8807491Y-15611443D01*
X8788444Y-15620967D01*
X8769396Y-15620967D01*
X8750348Y-15611443D01*
X8740825Y-15601920D01*
X8731301Y-15582872D01*
X8721777Y-15544777D01*
X8721777Y-15497158D01*
X8731301Y-15459063D01*
X8740825Y-15440015D01*
X8750348Y-15430491D01*
X8769396Y-15420967D01*
X8959872Y-15420967D02*
X8978920Y-15420967D01*
X8997967Y-15430491D01*
X9007491Y-15440015D01*
X9017015Y-15459063D01*
X9026539Y-15497158D01*
X9026539Y-15544777D01*
X9017015Y-15582872D01*
X9007491Y-15601920D01*
X8997967Y-15611443D01*
X8978920Y-15620967D01*
X8959872Y-15620967D01*
X8940825Y-15611443D01*
X8931301Y-15601920D01*
X8921777Y-15582872D01*
X8912253Y-15544777D01*
X8912253Y-15497158D01*
X8921777Y-15459063D01*
X8931301Y-15440015D01*
X8940825Y-15430491D01*
X8959872Y-15420967D01*
X9112253Y-15620967D02*
X9112253Y-15487634D01*
X9112253Y-15506682D02*
X9121777Y-15497158D01*
X9140825Y-15487634D01*
X9169396Y-15487634D01*
X9188444Y-15497158D01*
X9197967Y-15516205D01*
X9197967Y-15620967D01*
X9197967Y-15516205D02*
X9207491Y-15497158D01*
X9226539Y-15487634D01*
X9255110Y-15487634D01*
X9274158Y-15497158D01*
X9283682Y-15516205D01*
X9283682Y-15620967D01*
X9378920Y-15620967D02*
X9378920Y-15487634D01*
X9378920Y-15506682D02*
X9388444Y-15497158D01*
X9407491Y-15487634D01*
X9436063Y-15487634D01*
X9455110Y-15497158D01*
X9464634Y-15516205D01*
X9464634Y-15620967D01*
X9464634Y-15516205D02*
X9474158Y-15497158D01*
X9493205Y-15487634D01*
X9521777Y-15487634D01*
X9540825Y-15497158D01*
X9550348Y-15516205D01*
X9550348Y-15620967D01*
X9940825Y-15411443D02*
X9769396Y-15668586D01*
X10197967Y-15420967D02*
X10217015Y-15420967D01*
X10236063Y-15430491D01*
X10245586Y-15440015D01*
X10255110Y-15459063D01*
X10264634Y-15497158D01*
X10264634Y-15544777D01*
X10255110Y-15582872D01*
X10245586Y-15601920D01*
X10236063Y-15611443D01*
X10217015Y-15620967D01*
X10197967Y-15620967D01*
X10178920Y-15611443D01*
X10169396Y-15601920D01*
X10159872Y-15582872D01*
X10150348Y-15544777D01*
X10150348Y-15497158D01*
X10159872Y-15459063D01*
X10169396Y-15440015D01*
X10178920Y-15430491D01*
X10197967Y-15420967D01*
X10350348Y-15601920D02*
X10359872Y-15611443D01*
X10350348Y-15620967D01*
X10340825Y-15611443D01*
X10350348Y-15601920D01*
X10350348Y-15620967D01*
X10483682Y-15420967D02*
X10502729Y-15420967D01*
X10521777Y-15430491D01*
X10531301Y-15440015D01*
X10540825Y-15459063D01*
X10550348Y-15497158D01*
X10550348Y-15544777D01*
X10540825Y-15582872D01*
X10531301Y-15601920D01*
X10521777Y-15611443D01*
X10502729Y-15620967D01*
X10483682Y-15620967D01*
X10464634Y-15611443D01*
X10455110Y-15601920D01*
X10445586Y-15582872D01*
X10436063Y-15544777D01*
X10436063Y-15497158D01*
X10445586Y-15459063D01*
X10455110Y-15440015D01*
X10464634Y-15430491D01*
X10483682Y-15420967D01*
X10721777Y-15487634D02*
X10721777Y-15620967D01*
X10674158Y-15411443D02*
X10626539Y-15554301D01*
X10750348Y-15554301D01*
X10807491Y-15420967D02*
X10931301Y-15420967D01*
X10864634Y-15497158D01*
X10893205Y-15497158D01*
X10912253Y-15506682D01*
X10921777Y-15516205D01*
X10931301Y-15535253D01*
X10931301Y-15582872D01*
X10921777Y-15601920D01*
X10912253Y-15611443D01*
X10893205Y-15620967D01*
X10836063Y-15620967D01*
X10817015Y-15611443D01*
X10807491Y-15601920D01*
X10997967Y-15420967D02*
X11121777Y-15420967D01*
X11055110Y-15497158D01*
X11083682Y-15497158D01*
X11102729Y-15506682D01*
X11112253Y-15516205D01*
X11121777Y-15535253D01*
X11121777Y-15582872D01*
X11112253Y-15601920D01*
X11102729Y-15611443D01*
X11083682Y-15620967D01*
X11026539Y-15620967D01*
X11007491Y-15611443D01*
X10997967Y-15601920D01*
X11197967Y-15420967D02*
X11197967Y-15459063D01*
X11274158Y-15420967D02*
X11274158Y-15459063D01*
X11569396Y-15697158D02*
X11559872Y-15687634D01*
X11540824Y-15659063D01*
X11531301Y-15640015D01*
X11521777Y-15611443D01*
X11512253Y-15563824D01*
X11512253Y-15525729D01*
X11521777Y-15478110D01*
X11531301Y-15449539D01*
X11540824Y-15430491D01*
X11559872Y-15401920D01*
X11569396Y-15392396D01*
X11626539Y-15420967D02*
X11750348Y-15420967D01*
X11683682Y-15497158D01*
X11712253Y-15497158D01*
X11731301Y-15506682D01*
X11740824Y-15516205D01*
X11750348Y-15535253D01*
X11750348Y-15582872D01*
X11740824Y-15601920D01*
X11731301Y-15611443D01*
X11712253Y-15620967D01*
X11655110Y-15620967D01*
X11636063Y-15611443D01*
X11626539Y-15601920D01*
X11817015Y-15420967D02*
X11950348Y-15420967D01*
X11864634Y-15620967D01*
X12178920Y-15620967D02*
X12178920Y-15420967D01*
X12264634Y-15620967D02*
X12264634Y-15516205D01*
X12255110Y-15497158D01*
X12236063Y-15487634D01*
X12207491Y-15487634D01*
X12188443Y-15497158D01*
X12178920Y-15506682D01*
X12388443Y-15620967D02*
X12369396Y-15611443D01*
X12359872Y-15601920D01*
X12350348Y-15582872D01*
X12350348Y-15525729D01*
X12359872Y-15506682D01*
X12369396Y-15497158D01*
X12388443Y-15487634D01*
X12417015Y-15487634D01*
X12436063Y-15497158D01*
X12445586Y-15506682D01*
X12455110Y-15525729D01*
X12455110Y-15582872D01*
X12445586Y-15601920D01*
X12436063Y-15611443D01*
X12417015Y-15620967D01*
X12388443Y-15620967D01*
X12569396Y-15620967D02*
X12550348Y-15611443D01*
X12540824Y-15592396D01*
X12540824Y-15420967D01*
X12721777Y-15611443D02*
X12702729Y-15620967D01*
X12664634Y-15620967D01*
X12645586Y-15611443D01*
X12636063Y-15592396D01*
X12636063Y-15516205D01*
X12645586Y-15497158D01*
X12664634Y-15487634D01*
X12702729Y-15487634D01*
X12721777Y-15497158D01*
X12731301Y-15516205D01*
X12731301Y-15535253D01*
X12636063Y-15554301D01*
X12807491Y-15611443D02*
X12826539Y-15620967D01*
X12864634Y-15620967D01*
X12883682Y-15611443D01*
X12893205Y-15592396D01*
X12893205Y-15582872D01*
X12883682Y-15563824D01*
X12864634Y-15554301D01*
X12836063Y-15554301D01*
X12817015Y-15544777D01*
X12807491Y-15525729D01*
X12807491Y-15516205D01*
X12817015Y-15497158D01*
X12836063Y-15487634D01*
X12864634Y-15487634D01*
X12883682Y-15497158D01*
X12959872Y-15697158D02*
X12969396Y-15687634D01*
X12988443Y-15659063D01*
X12997967Y-15640015D01*
X13007491Y-15611443D01*
X13017015Y-15563824D01*
X13017015Y-15525729D01*
X13007491Y-15478110D01*
X12997967Y-15449539D01*
X12988443Y-15430491D01*
X12969396Y-15401920D01*
X12959872Y-15392396D01*
X7968203Y-15865203D02*
X7968203Y-15723780D01*
X7826780Y-15723780D01*
X7826780Y-15865203D01*
X7968203Y-15865203D01*
X8236063Y-15684967D02*
X8359872Y-15684967D01*
X8293205Y-15761158D01*
X8321777Y-15761158D01*
X8340824Y-15770682D01*
X8350348Y-15780205D01*
X8359872Y-15799253D01*
X8359872Y-15846872D01*
X8350348Y-15865920D01*
X8340824Y-15875443D01*
X8321777Y-15884967D01*
X8264634Y-15884967D01*
X8245586Y-15875443D01*
X8236063Y-15865920D01*
X8445586Y-15865920D02*
X8455110Y-15875443D01*
X8445586Y-15884967D01*
X8436063Y-15875443D01*
X8445586Y-15865920D01*
X8445586Y-15884967D01*
X8531301Y-15704015D02*
X8540825Y-15694491D01*
X8559872Y-15684967D01*
X8607491Y-15684967D01*
X8626539Y-15694491D01*
X8636063Y-15704015D01*
X8645586Y-15723063D01*
X8645586Y-15742110D01*
X8636063Y-15770682D01*
X8521777Y-15884967D01*
X8645586Y-15884967D01*
X8769396Y-15684967D02*
X8788444Y-15684967D01*
X8807491Y-15694491D01*
X8817015Y-15704015D01*
X8826539Y-15723063D01*
X8836063Y-15761158D01*
X8836063Y-15808777D01*
X8826539Y-15846872D01*
X8817015Y-15865920D01*
X8807491Y-15875443D01*
X8788444Y-15884967D01*
X8769396Y-15884967D01*
X8750348Y-15875443D01*
X8740825Y-15865920D01*
X8731301Y-15846872D01*
X8721777Y-15808777D01*
X8721777Y-15761158D01*
X8731301Y-15723063D01*
X8740825Y-15704015D01*
X8750348Y-15694491D01*
X8769396Y-15684967D01*
X8959872Y-15684967D02*
X8978920Y-15684967D01*
X8997967Y-15694491D01*
X9007491Y-15704015D01*
X9017015Y-15723063D01*
X9026539Y-15761158D01*
X9026539Y-15808777D01*
X9017015Y-15846872D01*
X9007491Y-15865920D01*
X8997967Y-15875443D01*
X8978920Y-15884967D01*
X8959872Y-15884967D01*
X8940825Y-15875443D01*
X8931301Y-15865920D01*
X8921777Y-15846872D01*
X8912253Y-15808777D01*
X8912253Y-15761158D01*
X8921777Y-15723063D01*
X8931301Y-15704015D01*
X8940825Y-15694491D01*
X8959872Y-15684967D01*
X9112253Y-15884967D02*
X9112253Y-15751634D01*
X9112253Y-15770682D02*
X9121777Y-15761158D01*
X9140825Y-15751634D01*
X9169396Y-15751634D01*
X9188444Y-15761158D01*
X9197967Y-15780205D01*
X9197967Y-15884967D01*
X9197967Y-15780205D02*
X9207491Y-15761158D01*
X9226539Y-15751634D01*
X9255110Y-15751634D01*
X9274158Y-15761158D01*
X9283682Y-15780205D01*
X9283682Y-15884967D01*
X9378920Y-15884967D02*
X9378920Y-15751634D01*
X9378920Y-15770682D02*
X9388444Y-15761158D01*
X9407491Y-15751634D01*
X9436063Y-15751634D01*
X9455110Y-15761158D01*
X9464634Y-15780205D01*
X9464634Y-15884967D01*
X9464634Y-15780205D02*
X9474158Y-15761158D01*
X9493205Y-15751634D01*
X9521777Y-15751634D01*
X9540825Y-15761158D01*
X9550348Y-15780205D01*
X9550348Y-15884967D01*
X9940825Y-15675443D02*
X9769396Y-15932586D01*
X10197967Y-15684967D02*
X10217015Y-15684967D01*
X10236063Y-15694491D01*
X10245586Y-15704015D01*
X10255110Y-15723063D01*
X10264634Y-15761158D01*
X10264634Y-15808777D01*
X10255110Y-15846872D01*
X10245586Y-15865920D01*
X10236063Y-15875443D01*
X10217015Y-15884967D01*
X10197967Y-15884967D01*
X10178920Y-15875443D01*
X10169396Y-15865920D01*
X10159872Y-15846872D01*
X10150348Y-15808777D01*
X10150348Y-15761158D01*
X10159872Y-15723063D01*
X10169396Y-15704015D01*
X10178920Y-15694491D01*
X10197967Y-15684967D01*
X10350348Y-15865920D02*
X10359872Y-15875443D01*
X10350348Y-15884967D01*
X10340825Y-15875443D01*
X10350348Y-15865920D01*
X10350348Y-15884967D01*
X10550348Y-15884967D02*
X10436063Y-15884967D01*
X10493205Y-15884967D02*
X10493205Y-15684967D01*
X10474158Y-15713539D01*
X10455110Y-15732586D01*
X10436063Y-15742110D01*
X10626539Y-15704015D02*
X10636063Y-15694491D01*
X10655110Y-15684967D01*
X10702729Y-15684967D01*
X10721777Y-15694491D01*
X10731301Y-15704015D01*
X10740825Y-15723063D01*
X10740825Y-15742110D01*
X10731301Y-15770682D01*
X10617015Y-15884967D01*
X10740825Y-15884967D01*
X10912253Y-15684967D02*
X10874158Y-15684967D01*
X10855110Y-15694491D01*
X10845586Y-15704015D01*
X10826539Y-15732586D01*
X10817015Y-15770682D01*
X10817015Y-15846872D01*
X10826539Y-15865920D01*
X10836063Y-15875443D01*
X10855110Y-15884967D01*
X10893205Y-15884967D01*
X10912253Y-15875443D01*
X10921777Y-15865920D01*
X10931301Y-15846872D01*
X10931301Y-15799253D01*
X10921777Y-15780205D01*
X10912253Y-15770682D01*
X10893205Y-15761158D01*
X10855110Y-15761158D01*
X10836063Y-15770682D01*
X10826539Y-15780205D01*
X10817015Y-15799253D01*
X11055110Y-15684967D02*
X11074158Y-15684967D01*
X11093205Y-15694491D01*
X11102729Y-15704015D01*
X11112253Y-15723063D01*
X11121777Y-15761158D01*
X11121777Y-15808777D01*
X11112253Y-15846872D01*
X11102729Y-15865920D01*
X11093205Y-15875443D01*
X11074158Y-15884967D01*
X11055110Y-15884967D01*
X11036063Y-15875443D01*
X11026539Y-15865920D01*
X11017015Y-15846872D01*
X11007491Y-15808777D01*
X11007491Y-15761158D01*
X11017015Y-15723063D01*
X11026539Y-15704015D01*
X11036063Y-15694491D01*
X11055110Y-15684967D01*
X11197967Y-15684967D02*
X11197967Y-15723063D01*
X11274158Y-15684967D02*
X11274158Y-15723063D01*
X11569396Y-15961158D02*
X11559872Y-15951634D01*
X11540824Y-15923063D01*
X11531301Y-15904015D01*
X11521777Y-15875443D01*
X11512253Y-15827824D01*
X11512253Y-15789729D01*
X11521777Y-15742110D01*
X11531301Y-15713539D01*
X11540824Y-15694491D01*
X11559872Y-15665920D01*
X11569396Y-15656396D01*
X11636063Y-15704015D02*
X11645586Y-15694491D01*
X11664634Y-15684967D01*
X11712253Y-15684967D01*
X11731301Y-15694491D01*
X11740824Y-15704015D01*
X11750348Y-15723063D01*
X11750348Y-15742110D01*
X11740824Y-15770682D01*
X11626539Y-15884967D01*
X11750348Y-15884967D01*
X11988443Y-15884967D02*
X11988443Y-15684967D01*
X12074158Y-15884967D02*
X12074158Y-15780205D01*
X12064634Y-15761158D01*
X12045586Y-15751634D01*
X12017015Y-15751634D01*
X11997967Y-15761158D01*
X11988443Y-15770682D01*
X12197967Y-15884967D02*
X12178920Y-15875443D01*
X12169396Y-15865920D01*
X12159872Y-15846872D01*
X12159872Y-15789729D01*
X12169396Y-15770682D01*
X12178920Y-15761158D01*
X12197967Y-15751634D01*
X12226539Y-15751634D01*
X12245586Y-15761158D01*
X12255110Y-15770682D01*
X12264634Y-15789729D01*
X12264634Y-15846872D01*
X12255110Y-15865920D01*
X12245586Y-15875443D01*
X12226539Y-15884967D01*
X12197967Y-15884967D01*
X12378920Y-15884967D02*
X12359872Y-15875443D01*
X12350348Y-15856396D01*
X12350348Y-15684967D01*
X12531301Y-15875443D02*
X12512253Y-15884967D01*
X12474158Y-15884967D01*
X12455110Y-15875443D01*
X12445586Y-15856396D01*
X12445586Y-15780205D01*
X12455110Y-15761158D01*
X12474158Y-15751634D01*
X12512253Y-15751634D01*
X12531301Y-15761158D01*
X12540824Y-15780205D01*
X12540824Y-15799253D01*
X12445586Y-15818301D01*
X12617015Y-15875443D02*
X12636063Y-15884967D01*
X12674158Y-15884967D01*
X12693205Y-15875443D01*
X12702729Y-15856396D01*
X12702729Y-15846872D01*
X12693205Y-15827824D01*
X12674158Y-15818301D01*
X12645586Y-15818301D01*
X12626539Y-15808777D01*
X12617015Y-15789729D01*
X12617015Y-15780205D01*
X12626539Y-15761158D01*
X12645586Y-15751634D01*
X12674158Y-15751634D01*
X12693205Y-15761158D01*
X12769396Y-15961158D02*
X12778920Y-15951634D01*
X12797967Y-15923063D01*
X12807491Y-15904015D01*
X12817015Y-15875443D01*
X12826539Y-15827824D01*
X12826539Y-15789729D01*
X12817015Y-15742110D01*
X12807491Y-15713539D01*
X12797967Y-15694491D01*
X12778920Y-15665920D01*
X12769396Y-15656396D01*
M02*
