%TF.GenerationSoftware,KiCad,Pcbnew,(6.0.1)*%
%TF.CreationDate,2022-04-29T11:18:45-05:00*%
%TF.ProjectId,Payload_Altimeter,5061796c-6f61-4645-9f41-6c74696d6574,rev?*%
%TF.SameCoordinates,Original*%
%TF.FileFunction,Soldermask,Bot*%
%TF.FilePolarity,Negative*%
%FSLAX46Y46*%
G04 Gerber Fmt 4.6, Leading zero omitted, Abs format (unit mm)*
G04 Created by KiCad (PCBNEW (6.0.1)) date 2022-04-29 11:18:45*
%MOMM*%
%LPD*%
G01*
G04 APERTURE LIST*
%ADD10R,1.650000X1.650000*%
%ADD11C,1.650000*%
%ADD12C,4.800000*%
%ADD13R,1.700000X1.700000*%
%ADD14O,1.700000X1.700000*%
%ADD15C,2.000000*%
G04 APERTURE END LIST*
D10*
%TO.C,J1*%
X93000000Y-71800000D03*
D11*
X93000000Y-74570000D03*
X93000000Y-77340000D03*
X93000000Y-80110000D03*
X93000000Y-82880000D03*
X93000000Y-85650000D03*
X93000000Y-88420000D03*
X93000000Y-91190000D03*
X93000000Y-93960000D03*
X93000000Y-96730000D03*
X93000000Y-99500000D03*
X93000000Y-102270000D03*
X93000000Y-105040000D03*
X93000000Y-107810000D03*
X93000000Y-110580000D03*
X93000000Y-113350000D03*
X93000000Y-116120000D03*
X93000000Y-118890000D03*
X93000000Y-121660000D03*
X90460000Y-73185000D03*
X90460000Y-75955000D03*
X90460000Y-78725000D03*
X90460000Y-81495000D03*
X90460000Y-84265000D03*
X90460000Y-87035000D03*
X90460000Y-89805000D03*
X90460000Y-92575000D03*
X90460000Y-95345000D03*
X90460000Y-98115000D03*
X90460000Y-100885000D03*
X90460000Y-103655000D03*
X90460000Y-106425000D03*
X90460000Y-109195000D03*
X90460000Y-111965000D03*
X90460000Y-114735000D03*
X90460000Y-117505000D03*
X90460000Y-120275000D03*
D12*
X91730000Y-64980000D03*
X91730000Y-128480000D03*
%TD*%
D13*
%TO.C,J2*%
X128575000Y-121125000D03*
D14*
X126035000Y-121125000D03*
X128575000Y-118585000D03*
X126035000Y-118585000D03*
X128575000Y-116045000D03*
X126035000Y-116045000D03*
X128575000Y-113505000D03*
X126035000Y-113505000D03*
X128575000Y-110965000D03*
X126035000Y-110965000D03*
X128575000Y-108425000D03*
X126035000Y-108425000D03*
X128575000Y-105885000D03*
X126035000Y-105885000D03*
X128575000Y-103345000D03*
X126035000Y-103345000D03*
X128575000Y-100805000D03*
X126035000Y-100805000D03*
X128575000Y-98265000D03*
X126035000Y-98265000D03*
X128575000Y-95725000D03*
X126035000Y-95725000D03*
X128575000Y-93185000D03*
X126035000Y-93185000D03*
X128575000Y-90645000D03*
X126035000Y-90645000D03*
X128575000Y-88105000D03*
X126035000Y-88105000D03*
X128575000Y-85565000D03*
X126035000Y-85565000D03*
X128575000Y-83025000D03*
X126035000Y-83025000D03*
X128575000Y-80485000D03*
X126035000Y-80485000D03*
X128575000Y-77945000D03*
X126035000Y-77945000D03*
X128575000Y-75405000D03*
X126035000Y-75405000D03*
X128575000Y-72865000D03*
X126035000Y-72865000D03*
%TD*%
D15*
%TO.C,MISO*%
X140850000Y-95750000D03*
%TD*%
%TO.C,SCLK*%
X140750000Y-91025000D03*
%TD*%
%TO.C,MOSI*%
X140775000Y-100225000D03*
%TD*%
M02*
